<svg id="Слой_1" data-name="Слой 1" xmlns="http://www.w3.org/2000/svg" viewBox="0 0 2000 2000"><defs><style>.cls-1,.cls-2{fill:#fff;}.cls-1,.cls-10,.cls-11,.cls-12,.cls-2,.cls-3,.cls-4,.cls-5,.cls-8,.cls-9{stroke:#003a47;}.cls-1,.cls-10,.cls-11,.cls-4,.cls-5,.cls-6,.cls-9{stroke-linejoin:round;}.cls-1,.cls-10,.cls-11,.cls-12,.cls-2,.cls-3,.cls-4,.cls-5,.cls-6,.cls-8,.cls-9{stroke-width:3px;}.cls-12,.cls-2,.cls-3,.cls-8{stroke-miterlimit:10;}.cls-10,.cls-11,.cls-3,.cls-6{fill:none;}.cls-4{fill:#003a47;}.cls-5{fill:#85aff6;}.cls-6{stroke:#fff;}.cls-12,.cls-7{fill:#f2d300;}.cls-8{fill:#638000;}.cls-13,.cls-9{fill:#ff7a00;}.cls-11{stroke-linecap:round;}</style></defs><g id="HOUSE"><polygon class="cls-1" points="1530.87 898.2 1308.18 640.26 1339.18 640.26 1561.87 898.2 1530.87 898.2"/><polygon class="cls-1" points="1309.18 640.26 1544.41 898.72 1225.07 898.72 1086.49 1059.14 1086.49 898.2 1309.18 640.26"/><circle class="cls-2" cx="1309.87" cy="789.72" r="48.66"/><line class="cls-3" x1="1309.87" y1="741.06" x2="1309.87" y2="838.38"/><line class="cls-3" x1="1358.53" y1="789.72" x2="1261.22" y2="789.72"/><polygon class="cls-4" points="1513.42 897.41 1280.18 641.26 1308.18 641.26 1541.28 897.41 1513.42 897.41"/><polygon class="cls-1" points="1339.18 640.26 734.48 640.26 511.78 898.2 1116.49 898.2 1339.18 640.26"/><polygon class="cls-1" points="1489.98 1059.14 1489.98 1386.87 541.79 1386.87 541.79 898.2 595.84 898.2 595.84 800.84 664.79 720.98 733.75 800.84 733.75 898.2 893.85 898.2 893.85 800.84 962.79 720.98 1031.75 800.84 1031.75 898.2 1086.5 898.2 1086.5 1059.14 1489.98 1059.14"/><polygon class="cls-2" points="1742.81 1059.14 1742.81 1386.87 1489.97 1386.87 1489.97 1056.75 1614.91 912.04 1742.81 1059.14"/><circle class="cls-2" cx="1616.39" cy="1013.66" r="30.87"/><line class="cls-3" x1="1616.39" y1="982.78" x2="1616.39" y2="1044.53"/><line class="cls-3" x1="1647.27" y1="1013.66" x2="1585.52" y2="1013.66"/><rect class="cls-2" x="1539.57" y="1135.53" width="162.64" height="56"/><rect class="cls-4" x="1691.72" y="1135.53" width="10.49" height="56"/><line class="cls-3" x1="1539.57" y1="1163.53" x2="1691.72" y2="1163.53"/><line class="cls-3" x1="1618.59" y1="1135.53" x2="1618.59" y2="1191.53"/><polygon class="cls-4" points="1741.22 1055.95 1741.22 1081.74 1604.48 924.47 1613.49 909.04 1741.22 1055.95"/><polygon class="cls-1" points="1626.41 898.72 1225.07 898.72 1086.49 1059.24 1487.82 1059.24 1626.41 898.72"/><polygon class="cls-1" points="1742.81 1059.14 1614.91 912.04 1626.4 898.73 1765.87 1059.14 1742.81 1059.14"/><rect class="cls-5" x="1106.49" y="1135.53" width="340" height="251.33"/><line class="cls-6" x1="1444.25" y1="1196.98" x2="1133.36" y2="1196.98"/><line class="cls-6" x1="1444.25" y1="1261.68" x2="1133.36" y2="1261.68"/><line class="cls-6" x1="1444.25" y1="1326.37" x2="1133.36" y2="1326.37"/><polygon class="cls-4" points="1446.49 1135.53 1446.49 1145.43 1130.82 1145.43 1130.82 1386.87 1106.49 1386.87 1106.49 1135.53 1446.49 1135.53"/><rect class="cls-2" x="869.78" y="978.98" width="120" height="268.8"/><rect class="cls-7" x="879.78" y="988.38" width="100" height="250"/><line class="cls-3" x1="929.78" y1="978.98" x2="929.78" y2="1247.78"/><line class="cls-3" x1="869.78" y1="1046.18" x2="989.78" y2="1046.18"/><line class="cls-3" x1="869.78" y1="1113.38" x2="989.78" y2="1113.38"/><line class="cls-3" x1="869.78" y1="1180.58" x2="989.78" y2="1180.58"/><rect class="cls-2" x="809.78" y="978.98" width="60" height="268.8"/><line class="cls-2" x1="857.99" y1="1113.38" x2="821.58" y2="1113.38"/><line class="cls-2" x1="857.99" y1="1124.58" x2="821.58" y2="1124.58"/><line class="cls-2" x1="857.99" y1="1135.78" x2="821.58" y2="1135.78"/><line class="cls-2" x1="857.99" y1="1146.98" x2="821.58" y2="1146.98"/><line class="cls-2" x1="857.99" y1="1158.18" x2="821.58" y2="1158.18"/><line class="cls-2" x1="857.99" y1="1169.38" x2="821.58" y2="1169.38"/><line class="cls-2" x1="857.99" y1="1180.58" x2="821.58" y2="1180.58"/><line class="cls-2" x1="857.99" y1="1191.78" x2="821.58" y2="1191.78"/><line class="cls-2" x1="857.99" y1="1202.98" x2="821.58" y2="1202.98"/><line class="cls-2" x1="857.99" y1="1214.18" x2="821.58" y2="1214.18"/><line class="cls-2" x1="857.99" y1="1225.38" x2="821.58" y2="1225.38"/><line class="cls-2" x1="857.99" y1="1236.58" x2="821.58" y2="1236.58"/><line class="cls-2" x1="857.99" y1="990.18" x2="821.58" y2="990.18"/><line class="cls-2" x1="857.99" y1="1001.38" x2="821.58" y2="1001.38"/><line class="cls-2" x1="857.99" y1="1012.58" x2="821.58" y2="1012.58"/><line class="cls-2" x1="857.99" y1="1023.78" x2="821.58" y2="1023.78"/><line class="cls-2" x1="857.99" y1="1034.98" x2="821.58" y2="1034.98"/><line class="cls-2" x1="857.99" y1="1046.18" x2="821.58" y2="1046.18"/><line class="cls-2" x1="857.99" y1="1057.38" x2="821.58" y2="1057.38"/><line class="cls-2" x1="857.99" y1="1068.58" x2="821.58" y2="1068.58"/><line class="cls-2" x1="857.99" y1="1079.78" x2="821.58" y2="1079.78"/><line class="cls-2" x1="857.99" y1="1090.98" x2="821.58" y2="1090.98"/><line class="cls-2" x1="857.99" y1="1102.18" x2="821.58" y2="1102.18"/><line class="cls-2" x1="857.99" y1="1113.38" x2="821.58" y2="1113.38"/><rect class="cls-2" x="989.78" y="978.98" width="60" height="268.8"/><line class="cls-2" x1="1037.99" y1="1113.38" x2="1001.58" y2="1113.38"/><line class="cls-2" x1="1037.99" y1="1124.58" x2="1001.58" y2="1124.58"/><line class="cls-2" x1="1037.99" y1="1135.78" x2="1001.58" y2="1135.78"/><line class="cls-2" x1="1037.99" y1="1146.98" x2="1001.58" y2="1146.98"/><line class="cls-2" x1="1037.99" y1="1158.18" x2="1001.58" y2="1158.18"/><line class="cls-2" x1="1037.99" y1="1169.38" x2="1001.58" y2="1169.38"/><line class="cls-2" x1="1037.99" y1="1180.58" x2="1001.58" y2="1180.58"/><line class="cls-2" x1="1037.99" y1="1191.78" x2="1001.58" y2="1191.78"/><line class="cls-2" x1="1037.99" y1="1202.98" x2="1001.58" y2="1202.98"/><line class="cls-2" x1="1037.99" y1="1214.18" x2="1001.58" y2="1214.18"/><line class="cls-2" x1="1037.99" y1="1225.38" x2="1001.58" y2="1225.38"/><line class="cls-2" x1="1037.99" y1="1236.58" x2="1001.58" y2="1236.58"/><line class="cls-2" x1="1037.99" y1="990.18" x2="1001.58" y2="990.18"/><line class="cls-2" x1="1037.99" y1="1001.38" x2="1001.58" y2="1001.38"/><line class="cls-2" x1="1037.99" y1="1012.58" x2="1001.58" y2="1012.58"/><line class="cls-2" x1="1037.99" y1="1023.78" x2="1001.58" y2="1023.78"/><line class="cls-2" x1="1037.99" y1="1034.98" x2="1001.58" y2="1034.98"/><line class="cls-2" x1="1037.99" y1="1046.18" x2="1001.58" y2="1046.18"/><line class="cls-2" x1="1037.99" y1="1057.38" x2="1001.58" y2="1057.38"/><line class="cls-2" x1="1037.99" y1="1068.58" x2="1001.58" y2="1068.58"/><line class="cls-2" x1="1037.99" y1="1079.78" x2="1001.58" y2="1079.78"/><line class="cls-2" x1="1037.99" y1="1090.98" x2="1001.58" y2="1090.98"/><line class="cls-2" x1="1037.99" y1="1102.18" x2="1001.58" y2="1102.18"/><line class="cls-2" x1="1037.99" y1="1113.38" x2="1001.58" y2="1113.38"/><rect class="cls-2" x="869.78" y="1247.78" width="120" height="15.02"/><polygon class="cls-4" points="1049.78 1247.78 989.78 1247.78 989.78 1262.8 1049.78 1247.78"/><polygon class="cls-4" points="809.78 1247.78 869.78 1247.78 869.78 1262.8 809.78 1247.78"/><path class="cls-8" d="M897.43,1218.52a22.23,22.23,0,0,1,17.8-13.56c9.34-1,18.6,4.44,22.65,13.56a22.89,22.89,0,0,1,29.72,16.61c.53-.34,6.59-4.08,13.16-1.43a14,14,0,0,1,8.52,14.08H869.78c0-11.2,3.64-21,12-26.07A25,25,0,0,1,897.43,1218.52Z"/><path class="cls-2" d="M926.26,1227.23c0,1.74-2.78,3.23-6.69,3.82-.59,3.91-2.07,6.68-3.81,6.68s-3.22-2.77-3.81-6.68c-3.91-.59-6.69-2.08-6.69-3.82s2.78-3.22,6.69-3.81c.59-3.91,2.08-6.69,3.81-6.69s3.22,2.78,3.81,6.69C923.48,1224,926.26,1225.49,926.26,1227.23Z"/><circle class="cls-7" cx="915.76" cy="1227.23" r="2.2"/><path class="cls-2" d="M977.59,1203c0,1.74-2.78,3.23-6.69,3.82-.59,3.91-2.07,6.68-3.81,6.68s-3.22-2.77-3.81-6.68c-3.91-.59-6.69-2.08-6.69-3.82s2.78-3.22,6.69-3.81c.59-3.91,2.08-6.69,3.81-6.69s3.22,2.78,3.81,6.69C974.81,1199.76,977.59,1201.24,977.59,1203Z"/><circle class="cls-7" cx="967.09" cy="1202.98" r="2.2"/><path class="cls-1" d="M1144,1059.24l-17.61,17.61a15.78,15.78,0,0,1-22.33,0l-17.61-17.61Z"/><path class="cls-1" d="M1201.59,1059.24l-17.6,17.61a15.79,15.79,0,0,1-22.34,0L1144,1059.24Z"/><path class="cls-1" d="M1259.15,1059.24l-17.61,17.61a15.79,15.79,0,0,1-22.34,0l-17.61-17.61Z"/><path class="cls-1" d="M1316.7,1059.24l-17.61,17.61a15.79,15.79,0,0,1-22.34,0l-17.6-17.61Z"/><path class="cls-1" d="M1374.25,1059.24l-17.6,17.61a15.79,15.79,0,0,1-22.34,0l-17.61-17.61Z"/><path class="cls-1" d="M1431.81,1059.24l-17.61,17.61a15.79,15.79,0,0,1-22.34,0l-17.61-17.61Z"/><path class="cls-1" d="M1489.36,1059.24l-17.61,17.61a15.79,15.79,0,0,1-22.34,0l-17.6-17.61Z"/><polygon class="cls-4" points="595.84 800.84 595.84 898.2 511.78 898.2 595.84 800.84"/><polygon class="cls-1" points="733.75 800.84 733.75 898.2 817.8 800.84 733.75 800.84"/><polygon class="cls-1" points="733.75 800.84 817.8 800.84 886.75 720.97 664.79 720.97 733.75 800.84"/><path class="cls-2" d="M702,800.49V898.2H627.57V800.49a37.22,37.22,0,0,1,37.22-37.22h0A37.21,37.21,0,0,1,702,800.49Z"/><path class="cls-7" d="M694.79,800.75v90h-60v-90a30,30,0,0,1,30-30h0A30,30,0,0,1,694.79,800.75Z"/><line class="cls-3" x1="664.79" y1="763.27" x2="664.79" y2="898.2"/><line class="cls-3" x1="627.57" y1="853.22" x2="702.01" y2="853.22"/><line class="cls-3" x1="627.57" y1="808.25" x2="702.01" y2="808.25"/><polygon class="cls-4" points="893.84 800.84 893.84 898.2 809.78 898.2 893.84 800.84"/><polygon class="cls-1" points="1031.75 800.84 1031.75 898.2 1115.8 800.84 1031.75 800.84"/><polygon class="cls-1" points="1031.75 800.84 1115.8 800.84 1184.76 720.97 962.79 720.97 1031.75 800.84"/><path class="cls-2" d="M1000,800.49V898.2H925.57V800.49a37.22,37.22,0,0,1,37.22-37.22h0A37.21,37.21,0,0,1,1000,800.49Z"/><path class="cls-7" d="M992.79,800.75v90h-60v-90a30,30,0,0,1,30-30h0A30,30,0,0,1,992.79,800.75Z"/><line class="cls-3" x1="962.79" y1="763.27" x2="962.79" y2="898.2"/><line class="cls-3" x1="925.57" y1="808.25" x2="1000.01" y2="808.25"/><line class="cls-3" x1="925.57" y1="853.22" x2="1000.01" y2="853.22"/><rect class="cls-9" x="602.45" y="1046.18" width="150" height="303.69"/><path class="cls-2" d="M677.45,965.92h0a75,75,0,0,1,75,75v5.26a0,0,0,0,1,0,0h-150a0,0,0,0,1,0,0v-5.26A75,75,0,0,1,677.45,965.92Z"/><line class="cls-3" x1="677.45" y1="965.92" x2="677.45" y2="1046.18"/><polyline class="cls-10" points="733.04 990.59 677.45 1046.18 621.85 990.59"/><circle class="cls-2" cx="620.42" cy="1198.06" r="8.49"/><rect class="cls-2" x="573.96" y="1349.87" width="198.49" height="37"/><rect class="cls-2" x="772.45" y="1349.87" width="32.37" height="37"/><rect class="cls-6" x="620.42" y="1069.91" width="111.62" height="98.32"/><rect class="cls-6" x="620.42" y="1229.49" width="111.62" height="98.32"/><rect class="cls-1" x="917.97" y="566.06" width="59.63" height="74.2"/><rect class="cls-1" x="977.59" y="566.06" width="38.29" height="74.2"/><rect class="cls-1" x="911.31" y="554.27" width="72.93" height="11.79"/><rect class="cls-1" x="984.25" y="554.27" width="37.77" height="11.79"/><rect class="cls-4" x="917.97" y="566.06" width="97.92" height="5.21"/></g><g id="SUN"><circle class="cls-2" cx="1553.87" cy="533.7" r="102.51"/><path class="cls-11" d="M1368.52,519.92a12.71,12.71,0,0,1,10.85,1.82,12.56,12.56,0,0,1,4.89,9,16.3,16.3,0,0,1,7.49-7.87,16.76,16.76,0,0,1,13.59-.28"/></g><g id="TREE"><path class="cls-2" d="M404.74,1390V1115.24a87.45,87.45,0,0,0-24.56-60.76l-44.83-46.37,2.47-3.47,63.49,47a10.26,10.26,0,0,0,16.36-8.25V757.63a2.39,2.39,0,0,1,2.4-2.4h0a2.4,2.4,0,0,1,2.39,2.24l10,145.37a5.06,5.06,0,0,0,9.56,1.93L474.6,840h4.5l-24.27,72.81a191,191,0,0,0-9.77,64l3.29,175.77a2.12,2.12,0,0,0,3.74,1.33l13.53-16.06,4.08,2-11.83,30.72a140.68,140.68,0,0,0-9.41,50.59v167.06Z"/><circle class="cls-2" cx="467.75" cy="1138.78" r="2.29"/><circle class="cls-2" cx="336.04" cy="1005.87" r="2.06"/><path class="cls-12" d="M417.67,970.41c-5.64,4.91-13.07,9-21.53,9a31.15,31.15,0,0,1-21.49-8.8c2,2.19,11,12.92,9.38,28.09a36,36,0,0,1-9.54,20.44,19.28,19.28,0,0,1,0,29.48,72.5,72.5,0,1,1-98.23-91.34A54.2,54.2,0,0,1,261,919.83c0-24.1,16.31-44.72,39.38-53.11h0c-28.83-18.67-38.16-56.44-22.23-85.15,14.82-26.72,48-39.33,78-28.71-28.25-55-.15-94.71,32.3-103.18,31.3-8.17,68.73,13.54,65.05,62.35a51.28,51.28,0,0,1,58.76,83.44c21.15,3.61,36.94,21.2,38.13,41.72,1.25,21.49-13.79,41.41-35.51,46.48,30.4-5.59,59.35,14.39,64.67,42.34,4.86,25.52-11,52.57-37.83,61.46.34,31.2-16.48,56.83-45.5,59.1-24.24,1.9-46.29-8-50.64-38.63-11.15,2.38-22.45-2.41-28-11.69A25.85,25.85,0,0,1,417.67,970.41Z"/><path class="cls-11" d="M399.78,759c.2.2,4.65,4.65,10.67,3.2a11.32,11.32,0,0,0,8.41-9.3A13.38,13.38,0,0,0,440,748"/><line class="cls-11" x1="443.12" y1="740.39" x2="444.81" y2="737.07"/><path class="cls-4" d="M404.74,1299.15v-4.81a45.71,45.71,0,0,1,41.83-5q0,2.36.15,5.07a39.15,39.15,0,0,0,1.74,9.61,56.63,56.63,0,0,0-43.72-4.87Z"/><path class="cls-4" d="M580.48,937.65c-.46,5.29-2.65,22.7-17,36.67a56.51,56.51,0,0,1-21.75,13.14v27.22a87.76,87.76,0,0,0,38.7-77Z"/><path class="cls-4" d="M417.67,996.24a25.46,25.46,0,0,0,9.88,9.53,26,26,0,0,0,18.09,2.16l.21,11.18a26.25,26.25,0,0,1-28.18-22.87Z"/><path class="cls-4" d="M300.39,866.72a35.65,35.65,0,0,0,8.53,2.74,38.34,38.34,0,0,0,22.18-2.74,68.12,68.12,0,0,1-50.73,11.77,97.37,97.37,0,0,1,20-11.77Z"/><path class="cls-11" d="M426.76,890.44a12.75,12.75,0,0,1,10-4.65,12.54,12.54,0,0,1,9.12,4.65,16.32,16.32,0,0,1,1.73-10.73,16.75,16.75,0,0,1,11-7.93"/><circle class="cls-12" cx="318.89" cy="718.13" r="7.5"/><circle class="cls-12" cx="476.49" cy="1079.78" r="11.47"/></g><g id="GARDEN"><path class="cls-2" d="M315.76,1398a50.19,50.19,0,0,0,46.32,50.26c64.64,5,143.41,13,143.1,25.68-.67,27-151,22.28-134.27,59.59,20.52,45.69,738.47,33.79,788.82,33.79,141.72,0,442.51-12.39,477.39-46,31.7-30.56-43.26-71.72,0-80.85,24.19-5.1,116.42-9.1,116.42-53.53H541.78c-66.27,0-160.61,1.77-226,11.09Z"/><path class="cls-2" d="M1074.88,1568c32.76-36.35,33.93-61.21,31.7-74.56-10.17-61-138.65-106.12-309.76-106.61H574s-13,21.46,75,31.55c103.44,11.85,273.47,24.85,276.68,69.35,3.56,49.26-187.85,81.89-296.78,76.92q110,2.91,220.1,3.77Q961.93,1569.33,1074.88,1568Z"/><line class="cls-3" x1="620.62" y1="1564.41" x2="612.59" y2="1471.64"/><line class="cls-3" x1="649.01" y1="1489.04" x2="616.61" y2="1518.02"/><path class="cls-2" d="M597.15,1461.75c.47,5,3.83,9.22,8.19,10.37,5.57,1.46,12.06-2.19,13.92-8.73,6.3,3,13.59-.05,15.83-5.74,1.92-4.86-.15-10.92-5.18-13.92,4.63-5.27,3.16-12.61-.82-15-3.4-2-9.16-.83-12.48,3.82-1.51-5.47-6.61-8.82-11.27-8.18-5.59.75-10.08,7.18-8.19,13.92-6.31.07-11.46,4.51-12.28,9.82C583.88,1454.52,589.32,1461.44,597.15,1461.75Z"/><circle class="cls-13" cx="610.28" cy="1448.36" r="7"/><path class="cls-2" d="M644.68,1472.64c-3,1.45-5.14,4.12-5.31,7-.25,4.31,3.87,8.88,9.83,9.17,1.65,5.73,7.58,8.8,12.53,7.21a10.08,10.08,0,0,0,6.56-10.64,8.12,8.12,0,0,0,.65-16.13,7.71,7.71,0,0,0-12.88-8.39,8.2,8.2,0,0,0-11.38,11.76Z"/><circle class="cls-13" cx="657.52" cy="1476.04" r="5.51"/><path class="cls-12" d="M620.31,1563.82a53.15,53.15,0,0,0,35-36.84,52.07,52.07,0,0,0-35,36.84Z"/><path class="cls-12" d="M620.31,1563.82a103.83,103.83,0,0,0-50.45-78.06,91.12,91.12,0,0,0,50.45,78.06Z"/><path class="cls-12" d="M1097.06,1386.83a31.1,31.1,0,0,1-18.84-5.17c-11.49-7.81-13.08-20.74-13.29-22.7a47.84,47.84,0,0,1,32.13,25.1,48.28,48.28,0,0,1,7.52-11.61,50.29,50.29,0,0,1,22.22-14.5c-.65,3.17-3.47,14.84-14.39,22.67A35.79,35.79,0,0,1,1097.06,1386.83Z"/><line class="cls-3" x1="1413.28" y1="1480.64" x2="1414.75" y2="1384.91"/><line class="cls-3" x1="1382.81" y1="1402.93" x2="1414.01" y2="1432.77"/><path class="cls-2" d="M1414.58,1386.16c3.43,5.5,10.77,6.75,15.43,3.23a10.77,10.77,0,0,0,2.18-14.39,10.29,10.29,0,0,0-5.43-19.78c.25-7.1-5.71-12.26-11.22-11.61-4.54.53-8.6,5-8.72,10.68-5.7-2.24-11.85.87-13.37,5.89a10,10,0,0,0,5.32,11.46,10.75,10.75,0,1,0,15.81,14.52Z"/><circle class="cls-13" cx="1416.05" cy="1368.33" r="7.5"/><path class="cls-2" d="M1384.21,1403.34a8,8,0,1,0-2.61-15.79c1.1-3.84-.86-7.53-3.57-8.46-3.12-1.08-7.65,1.38-8.38,6.09-2.72-3-7.22-3-9.45-.58a6.37,6.37,0,0,0-.32,7.7,8.14,8.14,0,1,0,4.28,15.68,10.39,10.39,0,0,0,20-4.64Z"/><circle class="cls-13" cx="1372.69" cy="1398.05" r="4.66"/><path class="cls-12" d="M1413.31,1478.45a51.43,51.43,0,0,1,13.3-18.66,52.23,52.23,0,0,1,28.74-12.59,43,43,0,0,1-42.95,40c-2.06-.09-17.46-1-27.43-14.35-11.09-14.85-5.61-31.86-5.11-33.33a55.8,55.8,0,0,1,33.45,38.93Z"/><polyline class="cls-3" points="1442.45 1460.96 1412.82 1483.51 1391.36 1459.53"/><line class="cls-3" x1="814.34" y1="1521.98" x2="814.34" y2="1547.7"/><line class="cls-3" x1="822.94" y1="1545.78" x2="822.94" y2="1537.34"/><line class="cls-3" x1="1062.23" y1="1568.17" x2="1062.23" y2="1549.43"/><line class="cls-3" x1="1054.61" y1="1568.17" x2="1054.61" y2="1558.8"/><line class="cls-3" x1="421.36" y1="1453.57" x2="421.36" y2="1442.22"/><line class="cls-3" x1="433.05" y1="1454.5" x2="433.05" y2="1432.3"/><line class="cls-3" x1="800.33" y1="1550.56" x2="800.33" y2="1539.35"/><path class="cls-8" d="M1545.34,1386.87a36.62,36.62,0,0,1,4.15-40.69c10.7-12.63,29.39-16.81,45.43-9.83-.11-18.73,13.78-34,30.28-36,19.32-2.39,39.23,13.76,39.54,36,1.32-.67,16.86-8.27,32.81,0,17.2,8.91,18.46,27.76,18.51,28.68.9-.58,11.37-7,22.71-2.46,9.41,3.8,15.44,13.6,14.72,24.3Z"/><path class="cls-3" d="M1610,1364.45a8.55,8.55,0,0,1,2.75-8.44,8.64,8.64,0,0,1,10.64,0,10.84,10.84,0,0,1,9.91-10.83"/><path class="cls-4" d="M1545.34,1386.87h208.15a27.34,27.34,0,0,1-2.13,11.18Z"/><path class="cls-4" d="M1553.87,1341.83a36.44,36.44,0,0,0-8.53,45h-19.47a55.74,55.74,0,0,1,28-45Z"/><path class="cls-2" d="M1723.21,1300.06c0,1.74-2.78,3.23-6.69,3.82-.59,3.91-2.07,6.68-3.81,6.68s-3.22-2.77-3.81-6.68c-3.91-.59-6.69-2.08-6.69-3.82s2.78-3.22,6.69-3.81c.59-3.91,2.08-6.69,3.81-6.69s3.22,2.78,3.81,6.69C1720.43,1296.84,1723.21,1298.32,1723.21,1300.06Z"/><circle class="cls-7" cx="1712.71" cy="1300.06" r="2.2"/><path class="cls-8" d="M541.78,1386.87V1236.58c-22.33-14.11-51.09-12.78-71.54,3.16A62.32,62.32,0,0,0,448.46,1304c-21.62-11.89-47.75-8.76-64,7-19.65,19-14.71,46.64-14.31,48.69-14.4-6.87-31.23-4.67-42.45,5.43-14,12.58-12.13,31-11.92,32.82C337.43,1395.55,378.51,1388.49,541.78,1386.87Z"/><path class="cls-3" d="M442,1388.9c-.45-1-5.18-11.66.52-21.08,5.35-8.84,17.63-12.82,29.09-8.42,0-.75-.28-16.59,13.26-25.26s27.6-1.89,28.32-1.53"/></g></svg>