<svg id="Слой_1" data-name="Слой 1" xmlns="http://www.w3.org/2000/svg" viewBox="0 0 2000 2000"><defs><style>.cls-1,.cls-6{fill:#be5c4b;}.cls-1,.cls-10,.cls-11,.cls-13,.cls-15,.cls-17,.cls-2,.cls-21,.cls-25,.cls-4,.cls-5,.cls-6,.cls-7,.cls-8,.cls-9{stroke:#003a47;}.cls-1,.cls-10,.cls-15,.cls-2,.cls-21,.cls-22,.cls-23,.cls-24,.cls-4,.cls-5,.cls-9{stroke-linejoin:round;}.cls-1,.cls-10,.cls-11,.cls-13,.cls-15,.cls-17,.cls-2,.cls-25,.cls-3,.cls-4,.cls-5,.cls-6,.cls-7,.cls-8,.cls-9{stroke-width:3px;}.cls-12,.cls-2{fill:#003a47;}.cls-16,.cls-17,.cls-19,.cls-21,.cls-22,.cls-23,.cls-24,.cls-3,.cls-5{fill:none;}.cls-16,.cls-3{stroke:#f2d300;}.cls-21,.cls-23,.cls-3,.cls-5{stroke-linecap:round;}.cls-11,.cls-13,.cls-16,.cls-17,.cls-19,.cls-25,.cls-3,.cls-6,.cls-7,.cls-8{stroke-miterlimit:10;}.cls-25,.cls-4{fill:#fff;}.cls-7{fill:#638000;}.cls-14,.cls-8{fill:#f2d300;}.cls-20,.cls-9{fill:#ff7a00;}.cls-10,.cls-11{fill:#94424f;}.cls-13{fill:#ffc4c8;}.cls-15{fill:#85aff6;}.cls-16,.cls-24{stroke-width:4px;}.cls-18{fill:#cacaca;}.cls-19{stroke:#638000;stroke-width:8px;}.cls-21{stroke-width:9px;}.cls-22,.cls-23,.cls-24{stroke:#fff;}.cls-22,.cls-23{stroke-width:5px;}</style></defs><g id="COUPLE"><g id="MAN"><path class="cls-1" d="M1450,1716.63h-32.34c-.74-3.64-3.29-6.32-6.31-6.32s-5.56,2.68-6.3,6.32H1281.52a3.23,3.23,0,0,1-1-6.32c19.57-6.07,44.57-17,53.37-34.48h102Z"/><polygon class="cls-2" points="1333.92 1675.83 1435.92 1675.83 1441.61 1692.33 1333.92 1675.83"/><line class="cls-3" x1="1338.07" y1="1688.33" x2="1318.82" y2="1685.81"/><line class="cls-3" x1="1329.8" y1="1695.49" x2="1309.69" y2="1692.65"/><path class="cls-1" d="M1549,1716.63h-42.34c-.74-3.64-3.29-6.32-6.31-6.32s-5.56,2.68-6.3,6.32H1362.52a3.23,3.23,0,0,1-1-6.32c19.57-6.07,44.57-17,53.37-34.48h121.24Z"/><polygon class="cls-2" points="1414.92 1675.83 1536.16 1675.83 1539.52 1686.51 1414.92 1675.83"/><line class="cls-3" x1="1422.07" y1="1688.33" x2="1402.82" y2="1685.81"/><line class="cls-3" x1="1413.8" y1="1695.49" x2="1393.69" y2="1692.65"/><rect class="cls-4" x="1333.89" y="885.95" width="202.09" height="789.88"/><polyline class="cls-5" points="1414.73 1675.83 1414.73 990.79 1392.17 981.53"/><line class="cls-5" x1="1535.98" y1="1648.19" x2="1333.89" y2="1648.19"/><path class="cls-5" d="M1414.73,918.86v42.73h-5.14a17.42,17.42,0,0,1-17.42-17.43v-55.3"/><polygon class="cls-2" points="1399.74 884.96 1535.98 919.21 1535.98 931.05 1399.74 884.96"/><path class="cls-6" d="M1536,1070.89v66.77c.11,4.32,6.48,6.57,9.42,3.4a65.82,65.82,0,0,0,5.07-6.17,68.25,68.25,0,0,0,12-29.3A191,191,0,0,1,1544,1178a6.82,6.82,0,0,0,1.59,8h0a6.88,6.88,0,0,0,9.91-.71l4.39-5.31-6.57,12.27a6.33,6.33,0,0,0,1.47,7.79h0A6.32,6.32,0,0,0,1564,1199l11.39-15.76-4.17,6.51a6.34,6.34,0,0,0,1.65,8.59l.09.07a6.33,6.33,0,0,0,8-.54,130.32,130.32,0,0,0,38.56-71l6.19-55.91Z"/><path class="cls-5" d="M1559.88,1180a91.87,91.87,0,0,0,13.55-30.48"/><path class="cls-5" d="M1575.4,1183.21a90.09,90.09,0,0,0,15.53-30.39"/><path class="cls-7" d="M1161.64,749.29S1197.47,576.44,1419,578.22c49.22.39,148.67-10.15,203,88.06,58.12,105.14,30.27,365.74,7.82,378.18l-93.78-.71V919.21L1399.74,885s-30.08,18.17-66,15.56c0,0-38.94-7.37-37.74-97.77,0,0-49,84.18-110.08,87.27-102.16,0-202.23-77.52-202.23-77.52l6.17-75.58S1069.41,723.64,1161.64,749.29Z"/><path class="cls-4" d="M1296,802.75a772.72,772.72,0,0,1-1.7-93.53"/><polygon class="cls-8" points="1467.9 554.54 1488.57 580.01 1447.74 607.01 1425.07 578.22 1467.9 554.54"/><polygon class="cls-8" points="1386.28 566.07 1410.46 578.24 1389.34 606.9 1369.18 580.79 1386.28 566.07"/><line class="cls-5" x1="1399.74" y1="884.96" x2="1369.06" y2="875.2"/><line class="cls-5" x1="1535.98" y1="919.21" x2="1535.98" y2="763.81"/><path class="cls-9" d="M1442,706.5h63.83a0,0,0,0,1,0,0v45.9a14.92,14.92,0,0,1-14.92,14.92h-34A14.92,14.92,0,0,1,1442,752.41V706.5A0,0,0,0,1,1442,706.5Z"/><rect class="cls-4" x="1441.96" y="693.48" width="63.83" height="13.02"/><polygon class="cls-8" points="1535.98 1043.75 1628.76 1043.75 1625.76 1070.89 1535.98 1070.89 1535.98 1043.75"/><polygon class="cls-8" points="989.81 736.92 983.64 812.5 958.64 803.34 968.64 736.92 989.81 736.92"/><path class="cls-10" d="M1460.76,495.44l1,25.1a58.16,58.16,0,0,0,13.53-11.22c12.51-14,12-31.61,13.18-39.33,10.63-17.61,4-37-6.34-47.22-17.08-16.92-45.43-9.74-52.73-7.42s-17.7,6.77-17.7,6.77-19.54-13.87-39.08-3.3-19.61,37.37-2.07,49.07A56.66,56.66,0,0,1,1410.86,430c-.26.55-3,6.59.35,12.65,3.7,6.57,11.18,6.92,11.56,6.93a29.23,29.23,0,0,0,24.68,11.89c-.61,1.68-4.46,12.79,1.75,23.45A26.91,26.91,0,0,0,1460.76,495.44Z"/><path class="cls-1" d="M1467.91,554.54l-42.84,23.67-19.6,0s-14.64-2.61-22.8-10.11c-12.75-11.72-23.15-29-17.45-77,3.76-31.68,17.51-47.27,30.12-54.93a54.12,54.12,0,0,1,23.36-7.43c-.39,2-2.07,11.77,4.08,20.81,8.43,12.4,23.75,11.93,24.67,11.89-.45,1.23-5.42,15.48,3.07,26.42a24.59,24.59,0,0,0,10.24,7.6v.13a15.36,15.36,0,1,1,7.32,28.87Z"/><path class="cls-5" d="M1447.45,461.42c13.26,2.52,26.52-6.31,26.52-6.31"/><path class="cls-11" d="M1442.92,548.62S1432,518.56,1401,518.56s-35.12,20.8-32.87,28c6.44,20.64,24.13,31.66,37.36,31.66l19.6,0,22.38-12.36A87,87,0,0,0,1442.92,548.62Z"/><path class="cls-5" d="M1395.32,482.07s-19.46,26.21-3.93,34.47c5.19,2.76,13.08-.62,13.08-.62"/><path class="cls-5" d="M1404.26,536.46s7.94.16,11.9-7"/><ellipse class="cls-12" cx="1376.7" cy="492.97" rx="1.82" ry="3.14"/><ellipse class="cls-12" cx="1411.73" cy="492.97" rx="1.82" ry="3.14"/><line class="cls-5" x1="1472.47" y1="504.48" x2="1463.3" y2="508.93"/><path class="cls-2" d="M1468.09,524.44a17.72,17.72,0,0,1-9.17-2l9.1,12.8Z"/><ellipse class="cls-10" cx="1378.02" cy="470.52" rx="8.79" ry="4.46" transform="translate(-73.89 359.68) rotate(-14.49)"/><ellipse class="cls-10" cx="1420.52" cy="471.65" rx="4.46" ry="9.31" transform="translate(528.48 1673.56) rotate(-71.79)"/></g><g id="WOMAN"><path class="cls-13" d="M939.6,1452.64l-23.52,236.94h29.73a60.48,60.48,0,0,1,35.55-41.39A710.28,710.28,0,0,0,1042,1452.64Z"/><path class="cls-9" d="M983.36,1716.63h-8.09L972.58,1696a3.49,3.49,0,0,0-6.5-1.25L956.92,1711a11,11,0,0,1-9.6,5.61h-72v-9.36l40.75-17.7h29.72a60.41,60.41,0,0,1,35.56-41.38,66.24,66.24,0,0,1,8.57,20.39C995.18,1691.18,986.72,1710,983.36,1716.63Z"/><path class="cls-13" d="M1216.57,1648.19a927.87,927.87,0,0,0,20-110.74c3.58-30.18,4.44-58.57,5.13-84.81H1140.32c6.34,41.84,11.52,87.07,14.72,135.36,2.36,35.48,3.43,69.4,3.55,101.58h34.72a88.68,88.68,0,0,1,23.26-41.38Z"/><path class="cls-9" d="M1216.57,1648.19c3.8,5.28,9.24,10.33,11.87,22.72,4.11,19.44-1.21,39.26-3.81,45.72h-8.09l-.33-20.65c-1-3.32-5.6-4.18-6.72-1.25l-6.28,16.29a8.91,8.91,0,0,1-8.61,5.61h-63v-9.12l27-17.94h34.72a88.68,88.68,0,0,1,23.26-41.38Z"/><path class="cls-4" d="M1153.8,632.42l19,4.83a55.22,55.22,0,0,1,36.65,30.66c9.89,21.74,17.09,53.14,20.7,91.89,5.08,54.42,2.65,112.66-21.37,125.88a36.81,36.81,0,0,0-20.43-34c-17.07-8.23-33.31,1.08-34.56,1.83q-2.9-6.36-5.8-12.71c-22.07,1.74-46,2.73-71.51,2.5-20.11-.17-39.17-1.09-57.06-2.5-.2,43.4-12.89,71.94-47.52,74.31-46.06,3.15-57.93-38.18-56.6-74.31,2.52-68,20.58-123.82,32.54-153.85a59.1,59.1,0,0,1,32.81-33l24-9.68Z"/><circle class="cls-14" cx="926.64" cy="815" r="2.5"/><circle class="cls-14" cx="947.64" cy="815" r="2.5"/><circle class="cls-14" cx="968.64" cy="815" r="2.5"/><circle class="cls-14" cx="989.64" cy="815" r="2.5"/><circle class="cls-14" cx="1010.64" cy="815" r="2.5"/><circle class="cls-14" cx="1031.64" cy="815" r="2.5"/><circle class="cls-14" cx="1052.64" cy="815" r="2.5"/><circle class="cls-14" cx="1073.64" cy="815" r="2.5"/><circle class="cls-14" cx="1094.64" cy="815" r="2.5"/><circle class="cls-14" cx="1115.64" cy="815" r="2.5"/><circle class="cls-14" cx="1136.64" cy="815" r="2.5"/><circle class="cls-14" cx="1157.64" cy="815" r="2.5"/><circle class="cls-14" cx="1178.64" cy="815" r="2.5"/><circle class="cls-14" cx="1199.64" cy="815" r="2.5"/><circle class="cls-14" cx="1220.64" cy="815" r="2.5"/><circle class="cls-14" cx="937.64" cy="829.15" r="2.5"/><circle class="cls-14" cx="958.64" cy="829.15" r="2.5"/><circle class="cls-14" cx="979.64" cy="829.15" r="2.5"/><circle class="cls-14" cx="1000.64" cy="829.15" r="2.5"/><circle class="cls-14" cx="1021.64" cy="829.15" r="2.5"/><circle class="cls-14" cx="1042.64" cy="829.15" r="2.5"/><circle class="cls-14" cx="1063.64" cy="829.15" r="2.5"/><circle class="cls-14" cx="1084.64" cy="829.15" r="2.5"/><circle class="cls-14" cx="1105.64" cy="829.15" r="2.5"/><circle class="cls-14" cx="1126.64" cy="829.15" r="2.5"/><circle class="cls-14" cx="1147.64" cy="829.15" r="2.5"/><circle class="cls-14" cx="1168.64" cy="829.15" r="2.5"/><circle class="cls-14" cx="1189.64" cy="829.15" r="2.5"/><circle class="cls-14" cx="1210.64" cy="829.15" r="2.5"/><circle class="cls-14" cx="926.64" cy="844.15" r="2.5"/><circle class="cls-14" cx="926.64" cy="875.15" r="2.5"/><circle class="cls-14" cx="947.64" cy="875.15" r="2.5"/><circle class="cls-14" cx="968.64" cy="875.15" r="2.5"/><circle class="cls-14" cx="989.64" cy="875.15" r="2.5"/><circle class="cls-14" cx="1010.64" cy="875.15" r="2.5"/><circle class="cls-14" cx="1000.64" cy="893.15" r="2.5"/><circle class="cls-14" cx="979.64" cy="893.15" r="2.5"/><circle class="cls-14" cx="958.64" cy="893.15" r="2.5"/><circle class="cls-14" cx="937.64" cy="893.15" r="2.5"/><circle class="cls-14" cx="947.64" cy="844.15" r="2.5"/><circle class="cls-14" cx="968.64" cy="844.15" r="2.5"/><circle class="cls-14" cx="989.64" cy="844.15" r="2.5"/><circle class="cls-14" cx="1010.64" cy="844.15" r="2.5"/><circle class="cls-14" cx="1157.64" cy="844.15" r="2.5"/><circle class="cls-14" cx="1178.64" cy="844.15" r="2.5"/><circle class="cls-14" cx="1199.64" cy="844.15" r="2.5"/><circle class="cls-14" cx="1220.64" cy="844.15" r="2.5"/><circle class="cls-14" cx="937.64" cy="858.15" r="2.5"/><circle class="cls-14" cx="958.64" cy="858.15" r="2.5"/><circle class="cls-14" cx="979.64" cy="858.15" r="2.5"/><circle class="cls-14" cx="1000.64" cy="858.15" r="2.5"/><circle class="cls-14" cx="1210.64" cy="858.15" r="2.5"/><circle class="cls-14" cx="926.64" cy="786.69" r="2.5"/><circle class="cls-14" cx="947.64" cy="786.69" r="2.5"/><circle class="cls-14" cx="968.64" cy="786.69" r="2.5"/><circle class="cls-14" cx="989.64" cy="786.69" r="2.5"/><circle class="cls-14" cx="1010.64" cy="786.69" r="2.5"/><circle class="cls-14" cx="1031.64" cy="786.69" r="2.5"/><circle class="cls-14" cx="1052.64" cy="786.69" r="2.5"/><circle class="cls-14" cx="1073.64" cy="786.69" r="2.5"/><circle class="cls-14" cx="1094.64" cy="786.69" r="2.5"/><circle class="cls-14" cx="1115.64" cy="786.69" r="2.5"/><circle class="cls-14" cx="1136.64" cy="786.69" r="2.5"/><circle class="cls-14" cx="1157.64" cy="786.69" r="2.5"/><circle class="cls-14" cx="1178.64" cy="786.69" r="2.5"/><circle class="cls-14" cx="1199.64" cy="786.69" r="2.5"/><circle class="cls-14" cx="1220.64" cy="786.69" r="2.5"/><circle class="cls-14" cx="937.64" cy="800.84" r="2.5"/><circle class="cls-14" cx="958.64" cy="800.84" r="2.5"/><circle class="cls-14" cx="979.64" cy="800.84" r="2.5"/><circle class="cls-14" cx="1000.64" cy="800.84" r="2.5"/><circle class="cls-14" cx="1021.64" cy="800.84" r="2.5"/><circle class="cls-14" cx="1042.64" cy="800.84" r="2.5"/><circle class="cls-14" cx="1063.64" cy="800.84" r="2.5"/><circle class="cls-14" cx="1084.64" cy="800.84" r="2.5"/><circle class="cls-14" cx="1105.64" cy="800.84" r="2.5"/><circle class="cls-14" cx="1126.64" cy="800.84" r="2.5"/><circle class="cls-14" cx="1147.64" cy="800.84" r="2.5"/><circle class="cls-14" cx="1168.64" cy="800.84" r="2.5"/><circle class="cls-14" cx="1189.64" cy="800.84" r="2.5"/><circle class="cls-14" cx="1210.64" cy="800.84" r="2.5"/><circle class="cls-14" cx="947.64" cy="758.38" r="2.5"/><circle class="cls-14" cx="968.64" cy="758.38" r="2.5"/><circle class="cls-14" cx="989.64" cy="758.38" r="2.5"/><circle class="cls-14" cx="1010.64" cy="758.38" r="2.5"/><circle class="cls-14" cx="1031.64" cy="758.38" r="2.5"/><circle class="cls-14" cx="1052.64" cy="758.38" r="2.5"/><circle class="cls-14" cx="1073.64" cy="758.38" r="2.5"/><circle class="cls-14" cx="1094.64" cy="758.38" r="2.5"/><circle class="cls-14" cx="1115.64" cy="758.38" r="2.5"/><circle class="cls-14" cx="1136.64" cy="758.38" r="2.5"/><circle class="cls-14" cx="1157.64" cy="758.38" r="2.5"/><circle class="cls-14" cx="1178.64" cy="758.38" r="2.5"/><circle class="cls-14" cx="1199.64" cy="758.38" r="2.5"/><circle class="cls-14" cx="1220.64" cy="758.38" r="2.5"/><circle class="cls-14" cx="937.64" cy="772.54" r="2.5"/><circle class="cls-14" cx="958.64" cy="772.54" r="2.5"/><circle class="cls-14" cx="979.64" cy="772.54" r="2.5"/><circle class="cls-14" cx="1000.64" cy="772.54" r="2.5"/><circle class="cls-14" cx="1021.64" cy="772.54" r="2.5"/><circle class="cls-14" cx="1042.64" cy="772.54" r="2.5"/><circle class="cls-14" cx="1063.64" cy="772.54" r="2.5"/><circle class="cls-14" cx="1084.64" cy="772.54" r="2.5"/><circle class="cls-14" cx="1105.64" cy="772.54" r="2.5"/><circle class="cls-14" cx="1126.64" cy="772.54" r="2.5"/><circle class="cls-14" cx="1147.64" cy="772.54" r="2.5"/><circle class="cls-14" cx="1168.64" cy="772.54" r="2.5"/><circle class="cls-14" cx="1189.64" cy="772.54" r="2.5"/><circle class="cls-14" cx="1210.64" cy="772.54" r="2.5"/><circle class="cls-14" cx="947.64" cy="730.07" r="2.5"/><circle class="cls-14" cx="968.64" cy="730.07" r="2.5"/><circle class="cls-14" cx="989.64" cy="730.07" r="2.5"/><circle class="cls-14" cx="1010.64" cy="730.07" r="2.5"/><circle class="cls-14" cx="1031.64" cy="730.07" r="2.5"/><circle class="cls-14" cx="1052.64" cy="730.07" r="2.5"/><circle class="cls-14" cx="1073.64" cy="730.07" r="2.5"/><circle class="cls-14" cx="1094.64" cy="730.07" r="2.5"/><circle class="cls-14" cx="1115.64" cy="730.07" r="2.5"/><circle class="cls-14" cx="1136.64" cy="730.07" r="2.5"/><circle class="cls-14" cx="1157.64" cy="730.07" r="2.5"/><circle class="cls-14" cx="1178.64" cy="730.07" r="2.5"/><circle class="cls-14" cx="1199.64" cy="730.07" r="2.5"/><circle class="cls-14" cx="1220.64" cy="730.07" r="2.5"/><circle class="cls-14" cx="937.64" cy="744.23" r="2.5"/><circle class="cls-14" cx="958.64" cy="744.23" r="2.5"/><circle class="cls-14" cx="979.64" cy="744.23" r="2.5"/><circle class="cls-14" cx="1000.64" cy="744.23" r="2.5"/><circle class="cls-14" cx="1021.64" cy="744.23" r="2.5"/><circle class="cls-14" cx="1042.64" cy="744.23" r="2.5"/><circle class="cls-14" cx="1063.64" cy="744.23" r="2.5"/><circle class="cls-14" cx="1084.64" cy="744.23" r="2.5"/><circle class="cls-14" cx="1105.64" cy="744.23" r="2.5"/><circle class="cls-14" cx="1126.64" cy="744.23" r="2.5"/><circle class="cls-14" cx="1147.64" cy="744.23" r="2.5"/><circle class="cls-14" cx="1168.64" cy="744.23" r="2.5"/><circle class="cls-14" cx="1189.64" cy="744.23" r="2.5"/><circle class="cls-14" cx="1210.64" cy="744.23" r="2.5"/><circle class="cls-14" cx="947.64" cy="701.77" r="2.5"/><circle class="cls-14" cx="968.64" cy="701.77" r="2.5"/><circle class="cls-14" cx="989.64" cy="701.77" r="2.5"/><circle class="cls-14" cx="1010.64" cy="701.77" r="2.5"/><circle class="cls-14" cx="1031.64" cy="701.77" r="2.5"/><circle class="cls-14" cx="1052.64" cy="701.77" r="2.5"/><circle class="cls-14" cx="1073.64" cy="701.77" r="2.5"/><circle class="cls-14" cx="1094.64" cy="701.77" r="2.5"/><circle class="cls-14" cx="1115.64" cy="701.77" r="2.5"/><circle class="cls-14" cx="1136.64" cy="701.77" r="2.5"/><circle class="cls-14" cx="1157.64" cy="701.77" r="2.5"/><circle class="cls-14" cx="1178.64" cy="701.77" r="2.5"/><circle class="cls-14" cx="1199.64" cy="701.77" r="2.5"/><circle class="cls-14" cx="958.64" cy="715.92" r="2.5"/><circle class="cls-14" cx="979.64" cy="715.92" r="2.5"/><circle class="cls-14" cx="1000.64" cy="715.92" r="2.5"/><circle class="cls-14" cx="1021.64" cy="715.92" r="2.5"/><circle class="cls-14" cx="1042.64" cy="715.92" r="2.5"/><circle class="cls-14" cx="1063.64" cy="715.92" r="2.5"/><circle class="cls-14" cx="1084.64" cy="715.92" r="2.5"/><circle class="cls-14" cx="1105.64" cy="715.92" r="2.5"/><circle class="cls-14" cx="1126.64" cy="715.92" r="2.5"/><circle class="cls-14" cx="1147.64" cy="715.92" r="2.5"/><circle class="cls-14" cx="1168.64" cy="715.92" r="2.5"/><circle class="cls-14" cx="1189.64" cy="715.92" r="2.5"/><circle class="cls-14" cx="1210.64" cy="715.92" r="2.5"/><circle class="cls-14" cx="968.64" cy="673.46" r="2.5"/><circle class="cls-14" cx="989.64" cy="673.46" r="2.5"/><circle class="cls-14" cx="1010.64" cy="673.46" r="2.5"/><circle class="cls-14" cx="1031.64" cy="673.46" r="2.5"/><circle class="cls-14" cx="1052.64" cy="673.46" r="2.5"/><circle class="cls-14" cx="1073.64" cy="673.46" r="2.5"/><circle class="cls-14" cx="1094.64" cy="673.46" r="2.5"/><circle class="cls-14" cx="1115.64" cy="673.46" r="2.5"/><circle class="cls-14" cx="1136.64" cy="673.46" r="2.5"/><circle class="cls-14" cx="1157.64" cy="673.46" r="2.5"/><circle class="cls-14" cx="1178.64" cy="673.46" r="2.5"/><circle class="cls-14" cx="1199.64" cy="673.46" r="2.5"/><circle class="cls-14" cx="958.64" cy="687.61" r="2.5"/><circle class="cls-14" cx="979.64" cy="687.61" r="2.5"/><circle class="cls-14" cx="1000.64" cy="687.61" r="2.5"/><circle class="cls-14" cx="1021.64" cy="687.61" r="2.5"/><circle class="cls-14" cx="1042.64" cy="687.61" r="2.5"/><circle class="cls-14" cx="1063.64" cy="687.61" r="2.5"/><circle class="cls-14" cx="1084.64" cy="687.61" r="2.5"/><circle class="cls-14" cx="1105.64" cy="687.61" r="2.5"/><circle class="cls-14" cx="1126.64" cy="687.61" r="2.5"/><circle class="cls-14" cx="1147.64" cy="687.61" r="2.5"/><circle class="cls-14" cx="1168.64" cy="687.61" r="2.5"/><circle class="cls-14" cx="1189.64" cy="687.61" r="2.5"/><circle class="cls-14" cx="1210.64" cy="687.61" r="2.5"/><circle class="cls-14" cx="1031.64" cy="645.15" r="2.5"/><circle class="cls-14" cx="1052.64" cy="645.15" r="2.5"/><circle class="cls-14" cx="1073.64" cy="645.15" r="2.5"/><circle class="cls-14" cx="1094.64" cy="645.15" r="2.5"/><circle class="cls-14" cx="1115.64" cy="645.15" r="2.5"/><circle class="cls-14" cx="1136.64" cy="645.15" r="2.5"/><circle class="cls-14" cx="1157.64" cy="645.15" r="2.5"/><circle class="cls-14" cx="1178.64" cy="645.15" r="2.5"/><circle class="cls-14" cx="979.64" cy="659.3" r="2.5"/><circle class="cls-14" cx="1000.64" cy="659.3" r="2.5"/><circle class="cls-14" cx="1021.64" cy="659.3" r="2.5"/><circle class="cls-14" cx="1042.64" cy="659.3" r="2.5"/><circle class="cls-14" cx="1063.64" cy="659.3" r="2.5"/><circle class="cls-14" cx="1084.64" cy="659.3" r="2.5"/><circle class="cls-14" cx="1105.64" cy="659.3" r="2.5"/><circle class="cls-14" cx="1126.64" cy="659.3" r="2.5"/><circle class="cls-14" cx="1147.64" cy="659.3" r="2.5"/><circle class="cls-14" cx="1168.64" cy="659.3" r="2.5"/><circle class="cls-14" cx="1189.64" cy="659.3" r="2.5"/><path class="cls-5" d="M1148,840.83s-10.54-38.08-2-88"/><path class="cls-5" d="M1019.43,840.83V793.45c-2.8-1.16-18.85-8.11-25.79-26.3a47,47,0,0,1-.27-32.09"/><path class="cls-2" d="M1232.36,1231c6.91-169.06,9.35-279.38-63.45-355.77-27.12,1.32-55.56,2-85.2,1.84q-35.2-.19-68-1.84s-57.17,185.36-76.11,577.44c-.1,2,6.67,9.81,17.08,11.76,10.08,1.89,20.69-2.72,27.12-11.76.4.73,6.48,11.53,18.93,12.42a23.68,23.68,0,0,0,22.27-12.42,23,23,0,0,0,41.2,0c.34.73,6.19,12.58,19.07,14.06,10,1.16,20-4.46,24.72-14.06a33.36,33.36,0,0,0,21.32,11.43c16.43,1.76,27.29-10.24,28.34-11.43.94,1.3,8.25,11,21.32,11.76,14.92.81,23.77-10.9,24.39-11.76.2.45,5.12,11.14,16.39,12.42,8.64,1,17.24-4,21.08-12.42Z"/><path class="cls-9" d="M1019.43,840.83c0,5.26-.33,11-1,17.25a171.69,171.69,0,0,1-2.72,17.12q32.77,1.59,68,1.84c29.64.16,58.08-.52,85.2-1.84a128.62,128.62,0,0,1-13.31-18.89,130.18,130.18,0,0,1-7.6-15.48c-21.29,1.68-44.34,2.66-68.93,2.52C1058,843.23,1038.05,842.3,1019.43,840.83Z"/><path class="cls-15" d="M1040.18,1080.41c2.23,28.52,24.77,50.87,51.5,52.82,29.55,2.16,57.16-21.12,59.82-52.82v-29.32a6.69,6.69,0,0,0-6.69-6.68h-98a6.68,6.68,0,0,0-6.68,6.68Z"/><path class="cls-8" d="M1047.92,1044.41a6.67,6.67,0,0,0-6.53,8.1c5.43,24.56,26.15,43,50.29,44.72,26.92,2,52.24-17.19,58.53-44.59a6.7,6.7,0,0,0-6.5-8.23Z"/><ellipse class="cls-4" cx="1095.84" cy="1097.24" rx="6.5" ry="8.34"/><line class="cls-16" x1="1151.97" y1="1038.37" x2="1208.82" y2="902.98"/><path class="cls-13" d="M1053.63,999.91,1006.33,867c-7.85-22-34.28-31.66-53.94-19-.86.56-1.71,1.15-2.53,1.79-12.84,9.93-18.08,27.65-12.71,43.94l78.56,121.81,10.81,80.66a2.86,2.86,0,0,0,3.33,2.44,2.94,2.94,0,0,0,2.37-3l-.33-27.94,3,22.19a8.73,8.73,0,0,0,2.5,5l13.3,13.21a3.38,3.38,0,0,0,3.86.94,3.26,3.26,0,0,0,1.47-4.67l-5-8.25,7.24,10.42a3.68,3.68,0,0,0,4.06,1.48,3.61,3.61,0,0,0,2.28-4.9l-2.21-5.09,3.08,2.65a3.15,3.15,0,0,0,3,.69,3.08,3.08,0,0,0,2.06-3.83l-7.09-23.54,0-20.87a8.77,8.77,0,0,1,8.77-8.78h11a75.21,75.21,0,0,0-29.59-44.5Z"/><path class="cls-5" d="M1051,1096.18l-4.44-7.42a6.77,6.77,0,0,1-.82-2.12l-1.68-8.09"/><path class="cls-5" d="M1062.39,1098.09l-7.16-12.7a7.24,7.24,0,0,1-.76-2l-1.85-8.39"/><path class="cls-13" d="M1060.35,957.44s-24.59-1.2-41.16-5.84c-1.59-.45-2.48,14,11.66,14.95C1044.66,967.52,1060.35,957.44,1060.35,957.44Z"/><path class="cls-13" d="M1153.8,853.54l-51.25,107.58-42.2-3.68a25.16,25.16,0,0,0-11.32,1.61L1012,973.4a16,16,0,0,0-6.66,4.84l-6.77,8.33a6.75,6.75,0,0,0-1.5,4.24v13a3.45,3.45,0,0,0,3.44,3.45h0a3.44,3.44,0,0,0,3.43-3.21l.47-6.76-1,15.73a3.13,3.13,0,0,0,2.48,3.27h0a3.13,3.13,0,0,0,3.74-2.69l.89-7.47-1,12.22a3.63,3.63,0,0,0,3.13,3.9h0a3.64,3.64,0,0,0,4-2.6l3-10.53a2.05,2.05,0,0,1,1.45-1.43l32.62-8.74,40.48,11.22a39.21,39.21,0,0,0,43.2-16.18l71.48-108.27a36.08,36.08,0,0,0-55-32.14Z"/><path class="cls-5" d="M1003.89,1004l.84-9.93a6.45,6.45,0,0,1,2-4.13l6.68-6.42"/><path class="cls-5" d="M1009.54,1013.56l1.28-12.06a7.38,7.38,0,0,1,2.08-4.41l5.6-5.7"/><path class="cls-9" d="M1012.53,601.5c-1.89,5.06-9.39,8.14-23.56,5.61a31.64,31.64,0,0,1-13.47-6.39c-1.26-1.37-5.11-2.94-5.39-9.77a19.68,19.68,0,0,1,1.69-8.76C960,575.49,953,562.85,954,549.87c1.22-16.23,14.28-24.94,15.82-25.93a27.4,27.4,0,0,1-2.35-28.62c5.88-11.17,17.68-13.53,19.19-13.81,0-1.2-.32-23.35,17.17-34.68,14.85-9.62,36-7.21,50.18,6.73a38,38,0,0,1,40.41-3.7c17.69,9.26,19.75,28.95,19.86,30.3,1.18.25,16.94,3.87,22.9,19.2a31.56,31.56,0,0,1-6.4,32.66,18,18,0,0,1-5,25.59,27.77,27.77,0,0,1-3,29.3c-9.56,12.11-24.92,10.24-25.6,10.14Z"/><path class="cls-5" d="M995.08,520.21a14.55,14.55,0,0,1-11.4-9.35"/><path class="cls-5" d="M1056.85,495.42c2.44-6.45,7.35-18,7.35-18"/><path class="cls-13" d="M1153.8,632.42c-2.63,3.6-32.77,43.34-83.1,41.56-36.92-1.3-60.56-24.08-66-29.63l26.22-13.83a7,7,0,0,0,3.73-6.52l-.79-17.1s-11.17,5-17.34-1c-28.77-28.23-21.42-85.64-21.42-85.64a24,24,0,0,0,12.07,0c10.48-2.81,15.13-12.09,15.89-13.66a25.34,25.34,0,0,0,16.84,2.22c11.51-2.6,16.52-12.65,17.15-14-.35,1.54-2.49,11.7,4.13,20.65a25.57,25.57,0,0,0,23.83,9.85,22.09,22.09,0,0,0-7.31,22.24c2.68,10.25,12.12,14.22,13.16,14.63l4.12,32a35.76,35.76,0,0,0,26.65,30.09Z"/><path class="cls-2" d="M1033.84,606.9c20.65-7.26,29.36-20.74,29.36-20.74a109.44,109.44,0,0,1-28.77,33.51Q1034.15,613.28,1033.84,606.9Z"/><path class="cls-5" d="M1020,528.68s.78,15.14-9.31,23.81l7.76,5.34"/><path class="cls-5" d="M1019.2,569s7.47.76,11.64-4.34"/><ellipse class="cls-12" cx="1005.06" cy="536.1" rx="2.14" ry="3"/><ellipse class="cls-12" cx="1039.06" cy="536.1" rx="2.14" ry="3"/><path class="cls-9" d="M980.62,618.91c27.52,3,35.39,29.55,30.41,42.17-3.87,9.8-14,16.52-25.65,16.89,5.53,9.94,3.09,22.16-5.12,28.56-6.87,5.36-16.76,5.86-24.78,1.17a13.08,13.08,0,0,1-18.7-.34c-6.45,9.66-18.87,10.44-24.5,5-4.82-4.66-5.35-14.54.79-21.86a27.27,27.27,0,0,1,15.41-52.32c-.3-.88-3.64-13.59,3.92-22.7s24.24-11.88,38.12-1.58Z"/><rect class="cls-8" x="965.77" y="603.62" width="25.16" height="13.34" rx="6.67" transform="translate(381.1 -376.08) rotate(26.85)"/><path class="cls-5" d="M1090.84,562.16a21.52,21.52,0,0,0,13.24,0"/><path class="cls-5" d="M928.48,638.19a11.33,11.33,0,0,0,10.41,8"/></g><g id="MAN_S_ARM" data-name="MAN&apos;S ARM"><path class="cls-6" d="M933.64,728.56l-11.28-8.95a3.71,3.71,0,0,0-6,2.45c-.63,5.78.81,15,12.49,24.29Z"/><path class="cls-6" d="M920,790.64s9.24,13.66,3.6,17.76-28.44-23.07-12.84-30.22c0,0-8.08-16,7.45-16.88,0,0-10.94-17.82,3.49-17.8,11.95,0,25.32,27.53,21.32,31.68-4.71,4.89-14-3.17-14-3.17s14.61,21,8.46,26.39C932.44,802.8,920,790.64,920,790.64Z"/><line class="cls-5" x1="910.79" y1="778.18" x2="920.03" y2="790.64"/><line class="cls-5" x1="918.24" y1="761.3" x2="929.01" y2="772.01"/></g></g><g id="AGENT"><path class="cls-7" d="M507.14,1717.24a10.59,10.59,0,0,1-.05,1.13H403.25a10.31,10.31,0,0,0-19.13,0H345l.52-7.36,1.23-17.48a460.09,460.09,0,0,0,47.4-3.56,453.46,453.46,0,0,0,49-9s17.52,16.64,41.83,18c13.74.77,19,6.87,21,12A17.46,17.46,0,0,1,507.14,1717.24Z"/><path class="cls-2" d="M507.14,1711v7.36H403.25a10.31,10.31,0,0,0-19.13,0H344l.52-7.36Z"/><line class="cls-5" x1="441.57" y1="1694.36" x2="452.65" y2="1688.08"/><line class="cls-5" x1="448.25" y1="1699.68" x2="460.28" y2="1692.31"/><path class="cls-7" d="M694.89,1717.24a10.59,10.59,0,0,1,0,1.13H591a10.31,10.31,0,0,0-19.13,0H532.7l.52-7.36,1.22-17.48a460.09,460.09,0,0,0,47.4-3.56,452.55,452.55,0,0,0,49-9s17.53,16.64,41.83,18c13.74.77,19,6.87,21,12A17.46,17.46,0,0,1,694.89,1717.24Z"/><path class="cls-2" d="M694.89,1711v7.36H591a10.31,10.31,0,0,0-19.13,0H531.7l.51-7.36Z"/><line class="cls-5" x1="627.94" y1="1694.36" x2="639.46" y2="1687.48"/><line class="cls-5" x1="635.39" y1="1698.56" x2="645.81" y2="1691.67"/><path class="cls-10" d="M624.19,1664.07a462.86,462.86,0,0,1-45.29,11.16c-16.53,3.2-42.37,7.07-56.45,8.35L490.19,1380,454.6,1667.45c-15.18,4.56-44.83,8.79-65.6,11.28a320.35,320.35,0,0,1-42.3,2.26L362.31,1024a227.81,227.81,0,0,1,14.45-74.58l19.35-51.59H560.75l57.23,342a151.79,151.79,0,0,1,2.08,23.5Z"/><path class="cls-17" d="M490.19,1380c7.71-57.12,34.48-376,34.48-376"/><line class="cls-5" x1="426.04" y1="1672.07" x2="479.26" y2="991.39"/><path class="cls-5" d="M552.75,991.39l41.59,248.24a170.52,170.52,0,0,1,2.32,25.72l5.71,402.72"/><path class="cls-5" d="M405.08,967.53a93.83,93.83,0,0,0,61.45-50.48"/><line class="cls-5" x1="388.92" y1="917.05" x2="489.42" y2="917.05"/><path class="cls-2" d="M517.71,922.77a149.22,149.22,0,0,0,44.48-16.25q1.41,8.37,2.8,16.73Z"/><path class="cls-10" d="M453.84,1679.84c-18.4,3.94-38.35,7.44-59.74,10.14-18.89,2.38-33.81,3.87-50.61,4.71V1681c15.72-.79,29.21-2.07,46.39-4,23-2.55,46.59-5.92,66.68-9.78Z"/><path class="cls-10" d="M520.45,1680.58l2,13.78c15.17-.27,31.69-1.22,49.32-3.21A523.22,523.22,0,0,0,630.89,1681q-2.35-8.46-4.7-16.92c-16.84,4.15-35.34,8-55.36,11C553,1677.76,536.13,1679.51,520.45,1680.58Z"/><path class="cls-4" d="M631.51,649.85l15.9,231.69,157.11-14A634,634,0,0,1,783.4,655.89Z"/><rect class="cls-18" x="660.57" y="698.77" width="99.94" height="11"/><rect class="cls-18" x="661.57" y="725.77" width="99.94" height="11"/><rect class="cls-18" x="662.57" y="752.77" width="99.94" height="11"/><polygon class="cls-2" points="667.8 835.24 645.42 852.52 646.38 866.51 667.8 835.24"/><polyline class="cls-19" points="737.66 816.18 749.01 828.22 762.4 802.92"/><path class="cls-13" d="M661.57,651.05,675.67,624a4.94,4.94,0,0,1,4.39-2.66h0a4.94,4.94,0,0,1,5,5L684.89,652Z"/><path class="cls-13" d="M686.92,644.47l-7.21,28.85a7.8,7.8,0,0,0,4.84,9.3,7.61,7.61,0,0,0,9.58-4.46L698,668.09l-2.84,13.36a7.54,7.54,0,0,0,5,8.83,7.37,7.37,0,0,0,9.15-4.61l3.06-8.82-.78,4.3a6.17,6.17,0,0,0,4.05,7,6,6,0,0,0,7.19-3L737,656.76a7.08,7.08,0,0,0-.92-7.82,8.57,8.57,0,0,0-5.17-2.85A8.76,8.76,0,0,0,721.8,651a9.28,9.28,0,0,0-17.46-3.33,9.33,9.33,0,0,0-17.42-3.16Z"/><line class="cls-4" x1="698" y1="668.09" x2="704.34" y2="647.63"/><line class="cls-4" x1="712.32" y1="676.85" x2="721.8" y2="650.96"/><path class="cls-4" d="M451,544.63l-14.14,17.08,65.08,52.37L517,588.33,454.18,544.2A2.38,2.38,0,0,0,451,544.63Z"/><path class="cls-4" d="M647.38,851.05s-58.9,44.79-99.58,62.38c-22.41,9.69-45.68,16.3-63.43-.44l-13-12.24H391c-9.85,0-18.4-7.59-18.73-17.43-3.64-104.9-31.06-151.31-16.51-222.83,12.36-60.83,81-98.78,81-98.78l65.08,52.37L517,588.33l38.05,25.07c18.92,14.82,28,27.66,33.39,60l13.91,61.56,31.76-46.72,8.29,120.61L629.79,825.3Z"/><path class="cls-5" d="M605.56,789.83c-17.08,1.67-50.39,7.49-66.76,14.31-24.94-50.7-44.25-124.55-57-158.86-9.4-25.38-27.24-39.87-52.38-39.11"/><path class="cls-5" d="M471.34,900.74c-26.62-36.57-71.08-111-71.08-111"/><line class="cls-5" x1="602.37" y1="734.92" x2="591.25" y2="753.44"/><line class="cls-5" x1="588.48" y1="740.17" x2="596.81" y2="744.18"/><path class="cls-4" d="M625.51,778.62c3,7.51,7.13,14.17,13,23.28a148.26,148.26,0,0,0,29.32,33.34l-20.43,15.81a105,105,0,0,1-26.85-28.62,120.44,120.44,0,0,1-15-32.6Z"/><polygon class="cls-4" points="517.02 588.33 530.84 615.3 533.75 597.01 521.01 577.7 517.02 588.33"/><path class="cls-5" d="M538.8,804.14c-11.47,3.18-18.13,5.72-18.13,5.72"/><path class="cls-5" d="M555,669.79c11.56,35.35,3.2,102.56,4.63,128"/><path class="cls-15" d="M501.91,614.08,517,588.33l13.82,27L519,623.18l33.77,175.88-14,5.08a260.38,260.38,0,0,1-21.35-52.09c-1-43.1-1.68-85.51-2.71-128.62Z"/><polygon class="cls-2" points="634.13 688.2 639.23 762.36 625.51 778.62 634.13 688.2"/><path class="cls-13" d="M719.39,716.41c-6.52,13.32-16.49,32.41-16.49,32.41a8,8,0,0,1,9.34-.39,8.14,8.14,0,0,1,2.4,10.43,7.66,7.66,0,0,1,10.57,9.89,7.14,7.14,0,0,1,10.06,9c-22.92,38.9-51.65,48.68-67.47,57.45a163.89,163.89,0,0,1-42.29-56.62s33.73-41.9,42.29-42.43c6.2-.38,13.08,6,13.08,6S699.47,721.45,710.1,710a5.7,5.7,0,0,1,6.82-1.16h0A5.7,5.7,0,0,1,719.39,716.41Z"/><path class="cls-13" d="M587.89,531.48a3.45,3.45,0,0,0,2.34-3.84c-2.55-15.08-3.6-24.9-6.18-49.17-.95-9-3.25-26.09-19.22-31.91A49.13,49.13,0,0,1,551.67,478c-12.06,12.81-25.54,6.16-29.23,6.51-2,2.11-9.14,16-18.29,17.8a32.29,32.29,0,0,1-16.34-1c-7.72-4.78-17.53-2.44-21.75,4.26-3.47,5.52-2.71,13.26,2.16,18.65L454.61,544.5,517,588.33l4-10.63,21.78,8.09a12.61,12.61,0,0,0,15.73-6.31l9.57-19.73c-9-5.69-10.25-12.25-9.58-17,.48-3.36,2.86-4.28,5.38-2,6.35,5.73,11.89,2.77,11.89,2.77a12.18,12.18,0,0,1,.45-5,7.66,7.66,0,0,1,5-5Z"/><path class="cls-8" d="M554.59,430.71c15-5.66,31.22,1.21,36.81,14,4.46,10.17,1.64,22.89-7.23,31.4a34.31,34.31,0,0,0-19.34-29.5,27.71,27.71,0,0,0-10.24-15.85Z"/><path class="cls-5" d="M468.22,524.25s4,5.84,14.89,6"/><line class="cls-5" x1="486.02" y1="517.65" x2="477.67" y2="509.85"/><polygon class="cls-2" points="521.01 577.7 501.51 569.04 517.02 588.33 521.01 577.7"/><path class="cls-12" d="M567,506.49c0,1.86-1,3.36-2.18,3.36s-2.17-1.5-2.17-3.36Z"/><path class="cls-8" d="M558.65,495.33l9-1.33a3.16,3.16,0,0,0,2.67-3.59l-.2-1.32a3.18,3.18,0,0,0-4.05-2.57l-8.75,2.64A3.18,3.18,0,0,0,555,492h0A3.17,3.17,0,0,0,558.65,495.33Z"/><path class="cls-5" d="M579.72,534.26c-3.15,1-6.56-1.75-5.18-5.12"/><path class="cls-8" d="M487.81,501.34c-7.72-4.78-17.53-2.44-21.75,4.26-3.47,5.52-2.71,13.26,2.16,18.65l-4.05,6c-18.71-32.65-35.58-59-21.52-86.64,11.08-21.81,29.51-34.4,55.7-31.32,16.87,2.54,31.83,7,52.18,15.35,12.05,4.94,13.3,11.56,14.3,18.9a49.29,49.29,0,0,1-11.63,29.77c-12.25,14.28-27.15,7.84-30.76,8.21l-11.52,21.9a7.54,7.54,0,0,1-10.77,2.84Z"/><path class="cls-5" d="M522.44,484.54c-14.2-1.72-36.42-9.47-36.42-9.47"/><line class="cls-5" x1="504.23" y1="480.67" x2="517.03" y2="459.02"/><line class="cls-5" x1="513.11" y1="482.87" x2="519.99" y2="472.43"/></g><g id="ICONS"><path class="cls-15" d="M619.51,529.29l103.25-38.24c-9.56,32,10.31,65.48,41.45,72.54,29.9,6.79,61.18-12.79,68.07-44.13C863.4,534.14,899,524,914.79,499c12-18.87,11.38-44.27-1-65.19,24.78-14.8,33-45.77,20.69-68.27-10.3-18.8-33.48-29-56.47-23.8,4.86-29.53-16.52-57-45.13-59.91-27.64-2.77-53.42,18.34-56,47.12-16.51-20.84-47.23-23.32-66.2-6.51-18,16-20.19,44.75-3.83,64-21.48,2.59-39.18,17.85-44.49,38.21a52.08,52.08,0,0,0,15.45,51.22Z"/><polygon class="cls-4" points="820.52 470.32 736.96 470.32 736.96 395.81 778.74 364.88 820.52 395.81 820.52 470.32"/><polygon class="cls-4" points="820.52 470.32 881.4 470.32 881.4 430.66 820.52 409.55 820.52 470.32"/><rect class="cls-20" x="764.73" y="414.36" width="11.56" height="11.56"/><rect class="cls-20" x="781.91" y="414.36" width="11.56" height="11.56"/><rect class="cls-20" x="764.73" y="431.37" width="11.56" height="11.56"/><rect class="cls-20" x="781.91" y="431.37" width="11.56" height="11.56"/><circle class="cls-14" cx="778.74" cy="392.89" r="6.75"/><rect class="cls-20" x="832.16" y="439.32" width="36.81" height="28.92"/><polyline class="cls-21" points="732.2 395.65 778.74 361.2 825.28 395.65"/><line class="cls-21" x1="825.29" y1="409.55" x2="886.16" y2="430.66"/><polygon class="cls-8" points="1218.42 374.98 1228.82 365.79 1228.59 379.67 1241.75 384.09 1229.61 390.83 1232.37 404.43 1220.47 397.29 1210.07 406.48 1210.3 392.6 1197.14 388.19 1209.27 381.45 1206.51 367.84 1218.42 374.98"/><polygon class="cls-15" points="720.23 1185.94 730.63 1176.75 730.4 1190.63 743.56 1195.04 731.42 1201.78 734.18 1215.38 722.27 1208.24 711.87 1217.43 712.1 1203.56 698.94 1199.14 711.08 1192.4 708.32 1178.8 720.23 1185.94"/><path class="cls-8" d="M855.72,950.21l5.6-4.1c18.68-13.67,44.7,1.36,42.2,24.36l-.75,6.9,6.35,2.8c21.17,9.34,21.17,39.39,0,48.72l-6.35,2.8.75,6.9c2.5,23-23.52,38-42.2,24.36l-5.6-4.1-5.6,4.1c-18.67,13.67-44.69-1.35-42.19-24.36l.75-6.9-6.35-2.8c-21.18-9.33-21.18-39.38,0-48.72l6.35-2.8-.75-6.9c-2.5-23,23.52-38,42.19-24.36Z"/><circle class="cls-22" cx="855.72" cy="982.76" r="11.39"/><line class="cls-23" x1="855.72" y1="994.14" x2="855.72" y2="1037.7"/><line class="cls-24" x1="844.33" y1="1020.86" x2="855.72" y2="1020.86"/><line class="cls-24" x1="844.33" y1="1031.58" x2="855.72" y2="1031.58"/><path class="cls-25" d="M651.33,353.44c0,2.24-3.58,4.15-8.61,4.91-.76,5-2.66,8.59-4.9,8.59s-4.14-3.56-4.9-8.59c-5-.76-8.61-2.67-8.61-4.91s3.58-4.14,8.61-4.9c.76-5,2.67-8.61,4.9-8.61s4.14,3.58,4.9,8.61C647.75,349.3,651.33,351.2,651.33,353.44Z"/></g></svg>