<svg id="Слой_1" data-name="Слой 1" xmlns="http://www.w3.org/2000/svg" viewBox="0 0 2000 2000"><defs><style>.cls-1,.cls-11,.cls-22,.cls-24,.cls-25,.cls-26,.cls-27,.cls-3,.cls-4,.cls-6{fill:none;}.cls-1,.cls-14,.cls-15,.cls-17,.cls-18,.cls-19,.cls-2,.cls-23,.cls-27,.cls-6,.cls-8,.cls-9{stroke:#003a47;}.cls-1,.cls-11,.cls-17,.cls-22,.cls-25,.cls-27,.cls-3,.cls-4{stroke-linecap:round;}.cls-1,.cls-14,.cls-15,.cls-17,.cls-18,.cls-19,.cls-2,.cls-22,.cls-23,.cls-24,.cls-25,.cls-26,.cls-27,.cls-9{stroke-linejoin:round;}.cls-1,.cls-11,.cls-14,.cls-15,.cls-17,.cls-18,.cls-19,.cls-2,.cls-22,.cls-23,.cls-6,.cls-8,.cls-9{stroke-width:3px;}.cls-13,.cls-2{fill:#85aff6;}.cls-3{stroke:#ff7a00;}.cls-11,.cls-3,.cls-4,.cls-6,.cls-8{stroke-miterlimit:10;}.cls-24,.cls-25,.cls-3,.cls-4{stroke-width:5px;}.cls-22,.cls-4{stroke:#f2d300;}.cls-15,.cls-5,.cls-8{fill:#f2d300;}.cls-7{fill:#638000;}.cls-20,.cls-9{fill:#003a47;}.cls-10,.cls-14,.cls-17{fill:#fff;}.cls-11{stroke:#638000;}.cls-12,.cls-23{fill:#ff7a00;}.cls-16{fill:#fbe45c;}.cls-18{fill:#c46855;}.cls-19{fill:#5e4650;}.cls-21{fill:#ba5a4b;}.cls-24,.cls-25,.cls-26{stroke:#fff;}.cls-26{stroke-width:4px;}.cls-27{stroke-width:8px;}</style></defs><g id="CALENDAR"><polygon class="cls-1" points="1648.86 1594.61 1337.19 1594.61 1257.19 1467.76 1488.86 1467.76 1648.86 1594.61"/><polygon class="cls-2" points="1257.19 1491.76 1337.19 1618.61 1648.86 1618.61 1648.86 1594.61 1337.19 1594.61 1257.19 1467.76 1257.19 1491.76"/><line class="cls-1" x1="1320.78" y1="1480.47" x2="1398.19" y2="1582.71"/><line class="cls-1" x1="1382.18" y1="1480.47" x2="1468.19" y2="1582.71"/><line class="cls-1" x1="1443.98" y1="1480.47" x2="1547.19" y2="1582.71"/><path class="cls-3" d="M1505.45,1497.82a20.34,20.34,0,1,1,28.83.06"/><path class="cls-3" d="M1536.19,1524.84a20.34,20.34,0,1,1,28.83.06"/><path class="cls-3" d="M1568.08,1550.57a20.34,20.34,0,1,1,28.83.06"/><line class="cls-1" x1="1320.78" y1="1507.49" x2="1491.97" y2="1507.49"/><line class="cls-1" x1="1342.44" y1="1545.51" x2="1539.19" y2="1545.51"/><line class="cls-4" x1="1334.3" y1="1481.24" x2="1388.67" y2="1500.85"/><line class="cls-4" x1="1348.56" y1="1500.85" x2="1371" y2="1481.24"/><line class="cls-4" x1="1398" y1="1479.56" x2="1452.36" y2="1499.17"/><line class="cls-4" x1="1412.26" y1="1499.17" x2="1434.7" y2="1479.56"/><line class="cls-4" x1="1428.18" y1="1516.09" x2="1482.55" y2="1535.71"/><line class="cls-4" x1="1442.44" y1="1535.71" x2="1464.89" y2="1516.09"/><line class="cls-4" x1="1463.89" y1="1554.29" x2="1518.25" y2="1573.9"/><line class="cls-4" x1="1478.14" y1="1573.9" x2="1500.59" y2="1554.29"/></g><g id="MONEY"><path class="cls-5" d="M902.93,1499.82l-72.67-11.34-27.3,175,72.67,11.34ZM819.29,1659a8.57,8.57,0,0,0-7.14-9.79l22.53-144.45a8.57,8.57,0,0,0,9.79-7.15l42.13,6.58a8.57,8.57,0,0,0,7.15,9.78l-22.54,144.46a8.57,8.57,0,0,0-9.79,7.14Z"/><path class="cls-6" d="M902.93,1499.82l-72.67-11.34-27.3,175,72.67,11.34Z"/><path class="cls-7" d="M861.42,1665.61,819.29,1659a8.57,8.57,0,0,0-7.14-9.79l22.53-144.45a8.57,8.57,0,0,0,9.79-7.15l42.13,6.58a8.57,8.57,0,0,0,7.15,9.78l-22.54,144.46A8.57,8.57,0,0,0,861.42,1665.61Z"/><circle class="cls-5" cx="852.94" cy="1581.63" r="20.65"/><path class="cls-5" d="M910.37,1498.64H836.82v177.09h73.55Zm-58.1,170.21a8.56,8.56,0,0,0-8.56-8.56V1514.08a8.56,8.56,0,0,0,8.56-8.56h42.65a8.56,8.56,0,0,0,8.56,8.56v146.21a8.56,8.56,0,0,0-8.56,8.56Z"/><path class="cls-6" d="M910.37,1498.64H836.82v177.09h73.55Z"/><path class="cls-7" d="M894.92,1668.85H852.27a8.56,8.56,0,0,0-8.56-8.56V1514.08a8.56,8.56,0,0,0,8.56-8.56h42.65a8.56,8.56,0,0,0,8.56,8.56v146.21A8.56,8.56,0,0,0,894.92,1668.85Z"/><circle class="cls-5" cx="873.59" cy="1587.18" r="20.65"/><path class="cls-5" d="M920.6,1491.44l-69.3,24.62,59.29,166.87,69.3-24.63Zm2.25,179.84a8.58,8.58,0,0,0-10.94-5.21L863,1528.31a8.57,8.57,0,0,0,5.2-10.94l40.18-14.28a8.57,8.57,0,0,0,10.94,5.2l49,137.77A8.57,8.57,0,0,0,963,1657Z"/><path class="cls-6" d="M920.6,1491.44l-69.3,24.62,59.29,166.87,69.3-24.63Z"/><path class="cls-7" d="M963,1657l-40.18,14.28a8.58,8.58,0,0,0-10.94-5.21L863,1528.31a8.57,8.57,0,0,0,5.2-10.94l40.18-14.28a8.57,8.57,0,0,0,10.94,5.2l49,137.77A8.57,8.57,0,0,0,963,1657Z"/><circle class="cls-5" cx="915.59" cy="1587.19" r="20.65"/><path class="cls-5" d="M921.58,1490.44l-49.92,54,130,120.2,49.93-54Zm85.56,158.19a8.57,8.57,0,0,0-12.1.48l-107.37-99.24a8.56,8.56,0,0,0-.48-12.1l28.95-31.32a8.56,8.56,0,0,0,12.1-.47l107.37,99.23a8.58,8.58,0,0,0,.48,12.11Z"/><path class="cls-6" d="M921.58,1490.44l-49.92,54,130,120.2,49.93-54Z"/><path class="cls-7" d="M1036.09,1617.32l-28.95,31.31a8.57,8.57,0,0,0-12.1.48l-107.37-99.24a8.56,8.56,0,0,0-.48-12.1l28.95-31.32a8.56,8.56,0,0,0,12.1-.47l107.37,99.23A8.58,8.58,0,0,0,1036.09,1617.32Z"/><circle class="cls-5" cx="961.64" cy="1577.55" r="20.65"/><circle class="cls-8" cx="1042.33" cy="1536.25" r="20.65"/><circle class="cls-8" cx="1132.15" cy="1596.15" r="20.65"/><polygon class="cls-9" points="871.66 1544.45 972.59 1637.74 979.89 1658.3 871.66 1544.45"/><circle class="cls-8" cx="1066.17" cy="1518.23" r="20.65"/><circle class="cls-10" cx="1066.17" cy="1518.23" r="10"/></g><g id="CALCULATOR"><path class="cls-9" d="M620.43,1458.68v124.93a9.67,9.67,0,0,1-9.68,9.67H446.88L368.41,1562a11.54,11.54,0,0,1-7.27-10.72V1423.5a5.89,5.89,0,0,1,8.07-5.47l77.67,31H610.75A9.67,9.67,0,0,1,620.43,1458.68Z"/><path class="cls-8" d="M426.76,1569l-45.13-18.43a13.82,13.82,0,0,1-8.59-12.79v-93.46a6.74,6.74,0,0,1,9.29-6.24l45.13,18.43a13.81,13.81,0,0,1,8.59,12.79v93.46A6.74,6.74,0,0,1,426.76,1569Z"/><path class="cls-2" d="M610.75,1593.28H446.88L368.41,1562a11.54,11.54,0,0,1-7.27-10.72V1423.5a5.89,5.89,0,0,1,8.07-5.47l6.62,2.64-7.55-3a11.07,11.07,0,0,0-12.3,2.84l-1.93,2.12a11.17,11.17,0,0,0-2.91,7.51v132.14a11.54,11.54,0,0,0,7.27,10.72l78.47,31.29H610.75a9.67,9.67,0,0,0,9.68-9.67v-11A9.67,9.67,0,0,1,610.75,1593.28Z"/><line class="cls-11" x1="393.07" y1="1536.38" x2="402.86" y2="1540.73"/><line class="cls-11" x1="407.86" y1="1542.96" x2="417.65" y2="1547.3"/><line class="cls-11" x1="393.07" y1="1511.14" x2="402.86" y2="1515.49"/><line class="cls-11" x1="393.07" y1="1520.63" x2="393.07" y2="1515.74"/><line class="cls-11" x1="405.36" y1="1526.1" x2="405.36" y2="1521.2"/><line class="cls-11" x1="417.65" y1="1531.56" x2="417.65" y2="1526.66"/><line class="cls-11" x1="407.86" y1="1517.71" x2="417.65" y2="1522.06"/><line class="cls-11" x1="393.07" y1="1502.43" x2="402.86" y2="1506.78"/><line class="cls-11" x1="393.07" y1="1497.75" x2="393.07" y2="1492.86"/><line class="cls-11" x1="405.36" y1="1505.21" x2="405.36" y2="1501.18"/><line class="cls-11" x1="417.65" y1="1513.28" x2="417.65" y2="1508.38"/><line class="cls-11" x1="407.86" y1="1499.43" x2="417.65" y2="1503.78"/><line class="cls-11" x1="417.65" y1="1541.08" x2="416.42" y2="1540.53"/><line class="cls-11" x1="393.07" y1="1483.29" x2="402.86" y2="1487.63"/><line class="cls-11" x1="407.86" y1="1489.86" x2="417.65" y2="1494.21"/><line class="cls-11" x1="393.07" y1="1471.97" x2="402.86" y2="1476.32"/><line class="cls-11" x1="407.86" y1="1478.54" x2="417.65" y2="1482.89"/><line class="cls-11" x1="393.07" y1="1479.12" x2="393.07" y2="1475.88"/><line class="cls-11" x1="417.65" y1="1490.05" x2="417.65" y2="1486.8"/><line class="cls-11" x1="393.07" y1="1465.01" x2="402.86" y2="1469.36"/><line class="cls-11" x1="407.86" y1="1471.58" x2="417.65" y2="1475.93"/><line class="cls-11" x1="393.07" y1="1453.69" x2="402.86" y2="1458.04"/><line class="cls-11" x1="407.86" y1="1460.27" x2="417.65" y2="1464.61"/><line class="cls-11" x1="393.07" y1="1460.84" x2="393.07" y2="1457.6"/><line class="cls-11" x1="417.65" y1="1471.77" x2="417.65" y2="1468.52"/><circle class="cls-12" cx="485.13" cy="1480.92" r="11.94"/><circle class="cls-10" cx="485.13" cy="1519.92" r="11.94"/><circle class="cls-10" cx="485.13" cy="1558.92" r="11.94"/><circle class="cls-13" cx="529.13" cy="1480.92" r="11.94"/><circle class="cls-10" cx="529.13" cy="1519.92" r="11.94"/><circle class="cls-10" cx="529.13" cy="1558.92" r="11.94"/><circle class="cls-13" cx="573.13" cy="1480.92" r="11.94"/><circle class="cls-10" cx="573.13" cy="1519.92" r="11.94"/><circle class="cls-10" cx="573.13" cy="1558.92" r="11.94"/></g><g id="WOMAN"><path class="cls-14" d="M826.77,1162.64S538.7,1182.19,495.52,1222c-33.59,30.94-10.41,116.76,14.4,132.85,29.15,18.9,86,48.51,181.58,71.26s176.9,26.08,204,31.69,58,24.34,94.54,21.53l21.52-43s204.05-32,264.89-65.71,142.26-103.71,148.82-132.72,7.94-69-16.85-79.56c-40.49-17.25-133-29-210.6-8.42l-123.55,32.76-18.28-60H951.59l-7.38,75Z"/><path class="cls-1" d="M990.08,1479.29a215.27,215.27,0,0,0,34.81-119.64q-30.27-5.89-61.38-13.09C853.49,1321,796,1245.41,683.16,1242.1"/><path class="cls-1" d="M937.76,1339.65s15.81-16.21,58.31-20.15c57.87-5.35,104.08-81.72,227.46-126.94,64-23.45,103-18.41,103-18.41"/><path class="cls-9" d="M1024.89,1359.65l-87.13-20a67.6,67.6,0,0,1,20.91-11.94Z"/><path class="cls-2" d="M997.55,1464.23a206.58,206.58,0,0,0,27.34-88.53c32.29,8.91,64.41,8.94,83.88,9.66,31.07,1.15,74.57-11.23,93.12-6.11,14.48,4,49.82,25,53.07,34.12,4.71,13.33-47.79,80-53.78,81.05-20.76,3.57-78.19.13-111.6-9.11S997.55,1464.23,997.55,1464.23Z"/><path class="cls-9" d="M1024.89,1375.7a206.28,206.28,0,0,1-27.34,88.53l18.41,3.83a252.13,252.13,0,0,0,36.67-86.62C1049.6,1381,1046.49,1380.51,1024.89,1375.7Z"/><path class="cls-9" d="M1089.19,1384.69c-5.5,14.8-11.81,30.35-19.06,46.5-7.06,15.72-14.3,30.4-21.51,44l28.79,6.88c6.79-13.64,13.56-28.08,20.17-43.33,8-18.49,15.06-36.37,21.22-53.45Z"/><path class="cls-9" d="M1128.84,1492.58c-2.55-.34-11.1-1.5-27.69-4.49,8.66-15.56,17.42-32.67,25.91-51.3,8.7-19.1,16-37.37,22.15-54.5,8.06-1,22.07-2.7,30.13-3.75a400.15,400.15,0,0,1-50.5,114Z"/><path class="cls-9" d="M1215.23,1384.69c15.47,8.11,37.48,22.32,39.73,28.68,4.71,13.33-47.79,80-53.77,81s-29.64,1-40.2.93a520.12,520.12,0,0,0,54.24-110.65Z"/><path class="cls-2" d="M849,1451.8c-14.49,2.66-46.27,24.63-82.67,34.85-13.75,3.86-28.17,6-42.57,4.87-13.42-1.09-15.34-61.59-15.34-61.59,18.78,3.48,36.43,7.51,56,10.66C792.76,1445.14,822,1448.4,849,1451.8Z"/><path class="cls-9" d="M766.33,1486.65c-13.75,3.86-28.17,6-42.57,4.87-13.42-1.09-15.34-61.59-15.34-61.59l35.47,7.06Z"/><path class="cls-9" d="M779.8,1443l13.68,33.88q4.44-1.94,9-4,5-2.33,9.77-4.68l-8.82-22Z"/><path class="cls-15" d="M610.75,1135c16.13,29.25,52,38.24,82.26,32.2a75.85,75.85,0,0,0,59.83-62.84l-5.94-29.9,47.91-110.3A11.74,11.74,0,0,1,816,967.62l25.43,98.08-15.74,96.71,118.52,35.15,33-327.27,97.1,312.3,89.08-23.62-46-136.44,15.89-52.26,21.49,95.43L1266.29,1129c8-7.3,29.14-27.24,24.76-64.48-2.44-27.75-21.74-42.61-24.42-44.86q-12.78-92.24-25.55-184.47a94.73,94.73,0,0,0-67.48-78l-84-24.34L978.9,840.42,864.09,734.94l-94.45,31.55a118.12,118.12,0,0,0-76.89,72q-14,37.65-27.17,78.41c-16.76,52-30.36,97.75-41.44,144.8C624.14,1061.7,587.14,1089.11,610.75,1135Z"/><circle class="cls-16" cx="800.06" cy="783.09" r="25.86"/><circle class="cls-16" cx="851.78" cy="864.01" r="25.86"/><circle class="cls-16" cx="740.13" cy="893.13" r="25.86"/><circle class="cls-16" cx="675.16" cy="1017.9" r="25.86"/><circle class="cls-16" cx="892.07" cy="983.27" r="25.86"/><circle class="cls-16" cx="1096.37" cy="1054.5" r="25.86"/><circle class="cls-16" cx="1083.71" cy="880.68" r="25.86"/><path class="cls-16" d="M1075.7,1180.44a25.86,25.86,0,0,1,49.93-13.48Z"/><path class="cls-16" d="M1005.58,956a25.86,25.86,0,1,1,15.75,49.26Z"/><path class="cls-16" d="M1060.5,763.71a25.86,25.86,0,1,1-37.11,36Z"/><circle class="cls-16" cx="886.04" cy="1114.97" r="25.86"/><path class="cls-16" d="M765.67,1026.63A25.86,25.86,0,0,1,786.3,979.2Z"/><path class="cls-16" d="M936.73,807.05A25.86,25.86,0,0,1,899,771.67Z"/><path class="cls-16" d="M966.92,950.17A25.86,25.86,0,0,1,972,898.7Z"/><path class="cls-16" d="M1247.67,896.66a25.86,25.86,0,1,1-7.23-51.21Z"/><circle class="cls-17" cx="977.58" cy="854.65" r="5"/><line class="cls-1" x1="746.9" y1="1074.46" x2="742.26" y2="1054.5"/><line class="cls-1" x1="841.43" y1="1065.7" x2="847.83" y2="1085.87"/><line class="cls-1" x1="1117.37" y1="1022.53" x2="1113.14" y2="1041.21"/><path class="cls-1" d="M624.14,1061.7c15.8-13.87,35.09-7.2,35.09-7.2"/><polygon class="cls-9" points="1055.65 1122.55 951.78 1122.55 977.22 870.3 1055.65 1122.55"/><path class="cls-5" d="M963.37,1062.53l-67.53,14.66,35.29,162.59,67.53-14.65ZM944,1230.39a8.05,8.05,0,0,0-9.57-6.16L905.24,1090a8,8,0,0,0,6.16-9.57l39.15-8.5a8,8,0,0,0,9.57,6.15l29.14,134.24a8,8,0,0,0-6.15,9.57Z"/><path class="cls-6" d="M963.37,1062.53l-67.53,14.66,35.29,162.59,67.53-14.65Z"/><path class="cls-7" d="M983.11,1221.89l-39.16,8.5a8.05,8.05,0,0,0-9.57-6.16L905.24,1090a8,8,0,0,0,6.16-9.57l39.15-8.5a8,8,0,0,0,9.57,6.15l29.14,134.24A8,8,0,0,0,983.11,1221.89Z"/><circle class="cls-5" cx="947.25" cy="1151.16" r="19.4"/><path class="cls-5" d="M1055,1095.27,989.4,1073.4l-52.67,157.82,65.55,21.87Zm-102.4,134.42a8.05,8.05,0,0,0-5.09-10.18l43.48-130.3a8.05,8.05,0,0,0,10.18-5.09l38,12.69a8,8,0,0,0,5.09,10.18l-43.49,130.29a8.06,8.06,0,0,0-10.18,5.09Z"/><path class="cls-6" d="M1055,1095.27,989.4,1073.4l-52.67,157.82,65.55,21.87Z"/><path class="cls-7" d="M990.55,1242.37l-38-12.68a8.05,8.05,0,0,0-5.09-10.18l43.48-130.3a8.05,8.05,0,0,0,10.18-5.09l38,12.69a8,8,0,0,0,5.09,10.18l-43.49,130.29A8.06,8.06,0,0,0,990.55,1242.37Z"/><circle class="cls-5" cx="995.84" cy="1163.25" r="19.4"/><path class="cls-5" d="M1021.68,1060l-68.74-7-17,165.51,68.75,7Zm-70.59,153.53a8,8,0,0,0-7.18-8.83l14-136.65a8,8,0,0,0,8.82-7.18l39.86,4.08a8,8,0,0,0,7.19,8.82l-14,136.65a8.06,8.06,0,0,0-8.83,7.19Z"/><path class="cls-6" d="M1021.68,1060l-68.74-7-17,165.51,68.75,7Z"/><path class="cls-7" d="M991,1217.62l-39.86-4.08a8,8,0,0,0-7.18-8.83l14-136.65a8,8,0,0,0,8.82-7.18l39.86,4.08a8,8,0,0,0,7.19,8.82l-14,136.65A8.06,8.06,0,0,0,991,1217.62Z"/><circle class="cls-5" cx="978.84" cy="1139.25" r="19.4"/><polygon class="cls-2" points="888.6 1153.01 909.63 1263.66 1028.03 1263.66 1021.22 1163.97 938.25 1093.11 888.6 1153.01"/><polygon class="cls-2" points="1021.22 1163.97 1028.03 1263.66 1038.58 1163.97 1021.22 1163.97"/><polygon class="cls-9" points="951.7 1065.07 948.26 1101.66 942.44 1067.08 951.7 1065.07"/><path class="cls-18" d="M948.88,1287.27l-36.16-.52a27.07,27.07,0,0,1-15-4.76l-48.23-37.06s-251.36-71.24-225.37-142.2c14.91-40.73,88.74-34,125.37-15.12l111.67,84.16,31.39,1.76,3.81,19.74A27,27,0,0,0,912.25,1213l27.88,10.23s30-12.43,47.18-6.77a3.18,3.18,0,0,1,1.28,5.22l-.93,1s.12,2.34-1.62,6.54a63.92,63.92,0,0,1-3.92,7.16c-7.48,12.57-23.71,31.44-24.44,32.28,0,0,7.83-7.47,18.5-4.49a1.79,1.79,0,0,1,.56,3.2,108.79,108.79,0,0,0-10.29,8,107.08,107.08,0,0,0-8,7.83A12.75,12.75,0,0,1,948.88,1287.27Z"/><path class="cls-1" d="M987.66,1222.62a133.06,133.06,0,0,0-34,17.37,11.35,11.35,0,0,1-6.58,2.11H929.69"/><path class="cls-1" d="M982.12,1236.32l-24.86,19.45a11.76,11.76,0,0,1-7.25,2.5H929.69"/><path class="cls-1" d="M931.13,1271.86h18.08a12.28,12.28,0,0,0,9.55-4.54l11.15-13.69"/><path class="cls-19" d="M889.17,544.77s-36.74-40.67-15.6-94.85C895,395.12,954,388.09,973.73,388.09s79.9,6.25,99.93,64.67c15.35,44.77-4.12,80.5-15.37,92Z"/><path class="cls-19" d="M888.39,527.08l1.94,44.07c.8,18,12.85,37.49,27.74,54.16v78.78A17.27,17.27,0,0,1,907.54,720l-116,39.94c8.55,36.69-37.24,46.4-43,67.5s14.07,40.93,9,55.64c-4,11.48-13.82,10.49-18,9.5,3,.61,8.88.48,10.28-8.86,1.92-12.79-17.27-27.5-15.35-56.92s37.4-43.53,40.93-54.36c3.72-11.38-22-43.62-8-81.38,14.43-38.94,52.86-45,57.88-55.47s-18-29.93-7-63.31c12.83-38.79,57.83-48.41,57.83-48.41Z"/><path class="cls-1" d="M791.51,759.93c-.11-14.8-9.76-36.14-2.83-56.72,11.87-35.23,49.86-50.1,46.75-73.18-2.46-18.27-21.36-72.4,45.06-97.71"/><path class="cls-1" d="M812.12,752.83c-5.68-12.94-11.68-23.05,0-49.62,11.57-26.33,36.09-41.76,36.7-63.69.5-18.41-15.43-74.23,40.34-94.75"/><path class="cls-1" d="M836.45,744.18c-2.14-6.59-16.68-36.41,10.85-74.2,26.27-36.06,21.93-46.35,20.89-74.83-1.17-32,21.36-41.72,21.36-41.72"/><path class="cls-1" d="M864.09,734.94C856,727.13,847.3,696,867,665c12.6-19.84,25.54-39.75,17.23-74.14-5.25-21.72,5.66-29.07,5.66-29.07"/><path class="cls-1" d="M887.62,726.85C881.7,717.16,871,698,892.75,664c22.29-34.88,1-76.7,1-76.7"/><path class="cls-19" d="M1071.52,523.86s-15.58,64,3.83,89.66c15,19.79,64.44,66,14.24,119.29l-54-19.34a10.56,10.56,0,0,1-7-9.94V626.22c4.91-5.44,16.43-18.69,23.73-35.3,5.94-11.19,6-46.15,6-46.15C1060.07,542.61,1061.89,540.22,1071.52,523.86Z"/><path class="cls-1" d="M1048.75,598.39c.6,13.94,5.21,29.22,18.34,44.83,37,44-4.34,79.91-4.34,79.91"/><path class="cls-19" d="M951.47,390.28s-42.87-34.1-23.77-62.57c14.52-21.66,92.52-8,97,21s-28.14,41.62-28.14,41.62S969.83,385.5,951.47,390.28Z"/><path class="cls-1" d="M902.15,502s-32.2-6.06-23.75-62.52"/><path class="cls-1" d="M909.19,475.81s-24.68-7.66-19.28-52.9"/><path class="cls-1" d="M918.06,454.68s-22.43-9.21-12.18-46"/><path class="cls-1" d="M935.64,447.43c-12.29,3.3-26.45-38.76-3.7-52"/><path class="cls-1" d="M946.9,444.62s-18.44-50.06,11.8-55.71c0,0-35.9-64.4,8.87-71.47"/><path class="cls-1" d="M964.17,442.25c2.88-1.59,12.43-35.44,5.89-54.09,0,0,17.26-41.2,3.11-70.1"/><path class="cls-1" d="M985.56,442.43s26.93-37.76,5.22-53c0,0,40-54.64-5-68.95"/><path class="cls-1" d="M1013.27,394.56s13.55,15.52-8.81,50.91"/><path class="cls-1" d="M1024.5,451.85c6.19-1.07,22.28-42.48,4.08-51"/><path class="cls-1" d="M1036.32,464.14c5.65-4.39,28.25-25.42,18-44.12"/><path class="cls-1" d="M1040.82,488.38s31.76-15.55,26.85-49.53"/><path class="cls-1" d="M1048.62,509.54s30.94-14.71,27.61-48.15"/><path class="cls-1" d="M996.54,390.28s30.55,1.77,39.78-19.45"/><path class="cls-1" d="M741.67,892.92a6.12,6.12,0,1,1,0-12.24"/><path class="cls-18" d="M864.09,734.94,907.53,720a17.28,17.28,0,0,0,10.53-15.91V625.2h110.52v78.36a10.34,10.34,0,0,0,6.83,9.72l54.18,19.53L978.9,840.42Z"/><path class="cls-9" d="M918.07,625.31a167.93,167.93,0,0,0,15.85,16.47c9,8.19,20.39,17,31,21.68-13.82-3.16-33-8.91-46.86-12.07Z"/><path class="cls-9" d="M1053.19,719.41l36.4,13.4L978.9,840.42,864.09,734.94,907.53,720c3.85,36.32,32.2,64.47,65.7,67.64C1011.54,791.27,1048.64,761.44,1053.19,719.41Z"/><path class="cls-18" d="M1024.5,451.85a21,21,0,0,1,13,17.58,116.32,116.32,0,0,0,21.57,57.65l-1.95,44.07c-1.52,34.47-44.15,74.1-69.18,89.73a26.84,26.84,0,0,1-28.43,0c-25-15.62-67.67-55.25-69.19-89.73l-1.94-44.07A116.42,116.42,0,0,0,910,469.43,21,21,0,0,1,923,451.84a134.45,134.45,0,0,1,101.48,0Z"/><path class="cls-1" d="M966.57,519.8c3.86,13.32,4.62,31.44-1.4,43.75-4.66,9.54,10.06,17.13,15,7.59"/><path class="cls-1" d="M961.35,573.56a3.83,3.83,0,0,1-4.47-.89"/><path class="cls-1" d="M993.63,532.32s8.93,5.24,21.62,0"/><path class="cls-20" d="M1008.12,536.57a3.57,3.57,0,1,1-7.14,0c0-2,1.6-1.57,3.57-1.57S1008.12,534.6,1008.12,536.57Z"/><path class="cls-1" d="M948.25,532.32s-9.45,6.32-21.62,0"/><path class="cls-20" d="M933.76,536.57a3.57,3.57,0,1,0,7.14,0c0-2-1.6-1.57-3.57-1.57S933.76,534.6,933.76,536.57Z"/><path class="cls-1" d="M962.23,589.63s13.21,5.47,29.48-6.37"/><path class="cls-1" d="M989.28,580.16s3.39,4.68,6,5.48"/><path class="cls-1" d="M971,602.73s6,.48,9.14-1.13"/><path class="cls-19" d="M916,511.51s32.25-1,38.59-11.33S922,498.16,916,511.51Z"/><path class="cls-19" d="M1028.59,512.54c3.52.71-26.93,6.9-37.22-1.16-8.2-6.43-1.26-10.5,2.8-10.22S1013.56,509.54,1028.59,512.54Z"/><path class="cls-18" d="M888.66,533.19a12.13,12.13,0,0,0-6.46-10.26c-5.38-2.8-13.21-4.81-19,2.35C853.8,537,865.57,573.67,892.07,582a277.05,277.05,0,0,1-2.52-28.56Z"/><line class="cls-1" x1="873.89" y1="535" x2="889.17" y2="548.14"/><path class="cls-18" d="M1058.72,533.81a13.69,13.69,0,0,1,8.42-12c5.1-2.12,11.95-2.84,18.58,3.12,11.18,10-3.19,46.54-29.69,54.9a154.63,154.63,0,0,0,1.65-21.19C1057.85,551.29,1058.36,540.66,1058.72,533.81Z"/><line class="cls-1" x1="1074.17" y1="535" x2="1058.89" y2="548.14"/><circle class="cls-21" cx="922.03" cy="572.67" r="20.87"/><circle class="cls-21" cx="1024.03" cy="572.67" r="20.87"/><circle class="cls-12" cx="1066.53" cy="575.83" r="7.5"/><line class="cls-22" x1="882.83" y1="569.85" x2="882.83" y2="608.4"/><circle class="cls-12" cx="882.83" cy="607.4" r="7.5"/><rect class="cls-12" x="1029.76" y="591.53" width="10" height="100.47" transform="translate(-182.83 633.26) rotate(-31.41)"/><rect class="cls-10" x="1003.59" y="596.45" width="10" height="5" transform="translate(-164.13 625.76) rotate(-32.01)"/><path class="cls-18" d="M1060.67,676.64a11.28,11.28,0,0,1,12.27-3.63l.11,0a21.37,21.37,0,0,1,9.07,5.92,18.59,18.59,0,0,1,9.82.07,19.11,19.11,0,0,1,10.84,8.45,16.54,16.54,0,0,1,19.93,8.42s7.66-1,16.24,5.72c22.84,17.78,36.69,105.83,36.69,105.83s90.6,230.6,97.69,260.53-9.1,83.72-29.72,88c-115.44,23.82-125.44-331.35-125.44-331.35-41.58-6-33.41-77.33-30.82-83.85-.31.11-7.11,2.55-12.46-1.84a12.64,12.64,0,0,1-4.38-8.39,12.48,12.48,0,0,1-17.32-11.13c.5,11.62-6.51,18.34-11.75,21.72a3.72,3.72,0,0,1-5.71-3l-.63-21.16a16.62,16.62,0,0,1,3.73-11Z"/><path class="cls-1" d="M1122.31,722.91l-12.92,10.9c5.93-2.18,10-1.43,12.65.11a10.54,10.54,0,0,1,1.9,1.41,3.18,3.18,0,0,1-1.09,5.26,74.46,74.46,0,0,0-12.89,6.29c-2.19,1.35-4.18,2.73-6,4.09a10.29,10.29,0,0,1-13.93-1.13c-.17-.2-.33-.41-.49-.62a11.91,11.91,0,0,1-2.2-8.45C1089.59,724.26,1105,710,1105,710"/><path class="cls-1" d="M1070.51,730.54c4.06-20.5,21.27-34.54,21.27-34.54"/><path class="cls-1" d="M1053.19,719.41c4.46-18.28,21.19-32.39,21.19-32.39"/><path class="cls-1" d="M1114.16,777.87s-3.7,20.64,18,33.34"/></g><g id="ICONS"><polygon class="cls-14" points="1261.79 693.43 1267.59 680.82 1272.99 693.6 1286.81 692.31 1278.44 703.39 1286.47 714.71 1272.69 713 1266.9 725.61 1261.49 712.83 1247.67 714.11 1256.05 703.04 1248.02 691.72 1261.79 693.43"/><polygon class="cls-14" points="439.31 703.89 443.05 695.76 446.53 704 455.43 703.17 450.04 710.31 455.21 717.6 446.33 716.5 442.6 724.63 439.12 716.39 430.21 717.22 435.61 710.08 430.44 702.79 439.31 703.89"/><path class="cls-23" d="M465.33,852.76l7.17-5.25c23.89-17.49,57.19,1.73,54,31.18l-1,8.83,8.13,3.58c27.1,11.95,27.1,50.4,0,62.35L525.53,957l1,8.83c3.2,29.44-30.1,48.67-54,31.17l-7.16-5.24L458.16,997c-23.9,17.5-57.2-1.73-54-31.17l1-8.83L397,953.45c-27.1-12-27.1-50.4,0-62.35l8.13-3.58-1-8.83c-3.2-29.45,30.1-48.67,54-31.18Z"/><circle class="cls-24" cx="465.33" cy="894.41" r="14.57"/><line class="cls-25" x1="465.33" y1="908.98" x2="465.33" y2="964.73"/><line class="cls-26" x1="450.75" y1="943.17" x2="465.33" y2="943.17"/><line class="cls-26" x1="450.75" y1="956.89" x2="465.33" y2="956.89"/><path class="cls-2" d="M779,471.33c0,2.24-3.57,4.16-8.6,4.91-.76,5-2.66,8.6-4.9,8.6s-4.14-3.57-4.9-8.6c-5-.75-8.61-2.67-8.61-4.91s3.58-4.14,8.61-4.9c.76-5,2.67-8.61,4.9-8.61s4.14,3.58,4.9,8.61C775.42,467.19,779,469.09,779,471.33Z"/><path class="cls-2" d="M556.25,1122.55c0,3.18-5.08,5.9-12.23,7-1.08,7.15-3.79,12.22-7,12.22s-5.89-5.07-7-12.22c-7.15-1.08-12.23-3.8-12.23-7s5.08-5.89,12.23-7c1.08-7.15,3.81-12.24,7-12.24s5.89,5.09,7,12.24C551.17,1116.66,556.25,1119.36,556.25,1122.55Z"/><path class="cls-8" d="M1404.27,938.2c0,3.93-6.27,7.29-15.1,8.62-1.33,8.83-4.67,15.08-8.6,15.08s-7.27-6.25-8.6-15.08c-8.82-1.33-15.1-4.69-15.1-8.62s6.28-7.27,15.1-8.6c1.33-8.82,4.7-15.1,8.6-15.1s7.27,6.28,8.6,15.1C1398,930.93,1404.27,934.27,1404.27,938.2Z"/><path class="cls-2" d="M1301.65,603.89c26.55,21.91,63.51,20.89,85,.58,16.24-15.35,22-40.1,15.12-63.42,27.67-8.24,43.3-36.22,36.9-61.06-5.34-20.76-25.3-36.34-48.85-37,7.64-26.26-6.58-54-31.62-63-24-8.61-51.41,2.3-63.18,25.66-10.86-24.26-40-34.24-62.55-22.63-21.4,11-30.61,38.37-19.5,61-22.12-6-44.68,6.64-50.74,26.9-5.38,18,3.29,38.4,21.2,47.71L1119.1,580.3l77.84-18.44c-.24,24,13.21,45.88,34.31,55.89C1254.64,628.86,1283.26,623.34,1301.65,603.89Z"/><polygon class="cls-14" points="1353.48 558.77 1245.21 558.77 1245.21 480.45 1299.35 438.98 1353.48 480.45 1353.48 558.77"/><polygon class="cls-15" points="1339.15 469.47 1323.45 457.44 1323.45 440.13 1339.15 440.13 1339.15 469.47"/><circle class="cls-15" cx="1299.44" cy="506.37" r="24.21"/><path class="cls-20" d="M1305.29,509.75c0,2.84-1.34,4.4-4.47,4.78v1.93h-3v-1.9c-3.61-.38-4.56-2.4-4.56-4.52v-.48h3.85v.65c0,1.18.38,1.88,2.17,1.88,1.6,0,2.13-.54,2.13-1.93s-.45-2.46-3-3.59c-3.21-1.44-4.91-2.67-4.91-5.46,0-2.59,1.51-4.08,4.32-4.42v-1.48h3v1.49c3.57.45,4.13,2.39,4.13,4.18v.47h-3.85v-.45c0-1.14-.35-1.92-1.9-1.92-1.15,0-1.9.4-1.86,1.77s.63,2,3.18,3.18C1304,505.52,1305.29,506.78,1305.29,509.75Z"/><polyline class="cls-27" points="1239.45 484.86 1299.35 438.98 1359.24 484.86"/><polygon class="cls-9" points="1196.94 561.86 1213.22 557.77 1199.39 579.87 1196.94 561.86"/><polygon class="cls-9" points="694.4 561.21 694.4 685.2 605.36 685.2 570.42 650.16 570.42 561.21 694.4 561.21"/><polygon class="cls-15" points="684.92 551.73 684.92 675.71 595.88 675.71 560.94 640.67 560.94 551.73 684.92 551.73"/><polygon class="cls-14" points="595.88 640.67 595.88 675.71 560.94 640.67 595.88 640.67"/><polygon class="cls-2" points="647.02 629.04 598.84 629.04 598.84 599.31 622.93 580.86 647.02 599.31 647.02 629.04"/><polygon class="cls-1" points="640.64 594.43 635.19 590.27 635.19 580.86 640.64 580.86 640.64 594.43"/><rect class="cls-10" x="614.85" y="599.19" width="5.77" height="5.77"/><rect class="cls-10" x="625.23" y="599.19" width="5.77" height="5.77"/><rect class="cls-10" x="614.85" y="609.57" width="5.77" height="5.77"/><rect class="cls-10" x="625.23" y="609.57" width="5.77" height="5.77"/><circle class="cls-23" cx="622.93" cy="551.73" r="7.29"/><polygon class="cls-14" points="642.71 623.74 648.21 611.78 653.33 623.9 666.44 622.68 658.5 633.18 666.11 643.92 653.05 642.3 647.55 654.26 642.43 642.13 629.33 643.36 637.26 632.86 629.65 622.12 642.71 623.74"/></g></svg>