<svg id="Слой_1" data-name="Слой 1" xmlns="http://www.w3.org/2000/svg" viewBox="0 0 2000 2000"><defs><style>.cls-1{fill:#cedffb;}.cls-1,.cls-10,.cls-17,.cls-18,.cls-19,.cls-2,.cls-3,.cls-4,.cls-5,.cls-6,.cls-7,.cls-8,.cls-9{stroke:#003a47;}.cls-1,.cls-10,.cls-11,.cls-13,.cls-14,.cls-15,.cls-16,.cls-17,.cls-18,.cls-2,.cls-3,.cls-4,.cls-6,.cls-7,.cls-8,.cls-9{stroke-linejoin:round;}.cls-1,.cls-10,.cls-13,.cls-17,.cls-19,.cls-2,.cls-3,.cls-4,.cls-5,.cls-6,.cls-7,.cls-8,.cls-9{stroke-width:3px;}.cls-2{fill:#85aff6;}.cls-20,.cls-3{fill:#003a47;}.cls-12,.cls-19,.cls-4{fill:#fff;}.cls-5{fill:#638000;}.cls-19,.cls-5{stroke-miterlimit:10;}.cls-6{fill:#ffefbe;}.cls-11,.cls-13,.cls-14,.cls-16,.cls-18,.cls-6,.cls-9{stroke-linecap:round;}.cls-7{fill:#f2d300;}.cls-8{fill:#ff7a00;}.cls-11,.cls-13,.cls-14,.cls-15,.cls-16,.cls-17,.cls-18,.cls-9{fill:none;}.cls-10{fill:#c46855;}.cls-11{stroke:#f2d300;}.cls-11,.cls-14{stroke-width:10px;}.cls-13,.cls-14,.cls-15,.cls-16{stroke:#fff;}.cls-15,.cls-16{stroke-width:5px;}.cls-18{stroke-width:20px;}</style></defs><g id="WEB_PAGE" data-name="WEB PAGE"><rect class="cls-1" x="343.52" y="453.46" width="1344.65" height="1093.08" rx="94.63"/><path class="cls-1" d="M1688.16,548.1v903.8a94.63,94.63,0,0,1-94.63,94.65H438.15a94.58,94.58,0,0,1-94.63-94.65V548.1a94.63,94.63,0,0,1,94.63-94.65H1593.53A94.63,94.63,0,0,1,1688.16,548.1Z"/><path class="cls-2" d="M1688.16,548.1v7.4H343.51v-7.4a94.64,94.64,0,0,1,94.64-94.64H1593.53A94.64,94.64,0,0,1,1688.16,548.1Z"/><rect class="cls-3" x="431.81" y="767.64" width="475.1" height="462.65" rx="38.93"/><rect class="cls-4" x="431.81" y="755.64" width="475.1" height="462.65" rx="38.93"/><rect class="cls-5" x="467.19" y="1138.73" width="416.17" height="34.55" rx="17.28"/><rect class="cls-6" x="669.36" y="974.71" width="181.84" height="164.02"/><polygon class="cls-7" points="669.36 1138.73 519.1 1138.73 519.1 974.71 594.23 891.25 669.36 974.71 669.36 1138.73"/><polygon class="cls-8" points="851.2 974.71 776.07 891.25 594.23 891.25 669.36 974.71 851.2 974.71"/><rect class="cls-2" x="613.52" y="1024.04" width="55.84" height="79.44"/><line class="cls-9" x1="641.44" y1="1024.04" x2="641.44" y2="1103.48"/><rect class="cls-1" x="669.36" y="1024.04" width="55.84" height="79.44"/><line class="cls-9" x1="697.28" y1="1024.04" x2="697.28" y2="1103.48"/><line class="cls-9" x1="613.52" y1="1050.52" x2="725.2" y2="1050.52"/><line class="cls-9" x1="613.52" y1="1077" x2="725.2" y2="1077"/><rect class="cls-2" x="519.52" y="1024.04" width="55.84" height="79.44"/><line class="cls-9" x1="547.44" y1="1024.04" x2="547.44" y2="1103.48"/><line class="cls-9" x1="519.52" y1="1050.52" x2="575.36" y2="1050.52"/><line class="cls-9" x1="519.52" y1="1077" x2="575.36" y2="1077"/><rect class="cls-1" x="823.28" y="1024.04" width="27.92" height="79.44"/><line class="cls-9" x1="823.28" y1="1050.52" x2="851.2" y2="1050.52"/><line class="cls-9" x1="823.28" y1="1077" x2="851.2" y2="1077"/><circle class="cls-4" cx="594.23" cy="953.47" r="19.29"/><line class="cls-9" x1="574.94" y1="953.47" x2="613.52" y2="953.47"/><rect class="cls-10" x="748.61" y="1024.04" width="49.93" height="103.14"/><rect class="cls-4" x="741.68" y="1127.18" width="63.79" height="11.55"/><path class="cls-1" d="M773.58,997.84h0a25,25,0,0,1,25,25V1024a0,0,0,0,1,0,0H748.61a0,0,0,0,1,0,0v-1.23A25,25,0,0,1,773.58,997.84Z"/><line class="cls-9" x1="773.58" y1="1024.04" x2="773.58" y2="997.84"/><polyline class="cls-9" points="792.59 1006.64 773.58 1024.04 754.73 1006.8"/><circle class="cls-7" cx="759.28" cy="1075.61" r="4"/><rect class="cls-6" x="709.56" y="869.4" width="27.31" height="39.35"/><polygon class="cls-7" points="709.56 869.4 709.56 908.75 693.8 891.25 693.8 869.4 709.56 869.4"/><rect class="cls-7" x="688.99" y="861.22" width="15.6" height="8.18"/><rect class="cls-6" x="704.6" y="861.22" width="36.77" height="8.18"/><polygon class="cls-3" points="709.56 908.75 693.8 891.25 672.34 891.25 709.56 908.75"/><path class="cls-1" d="M612.17,856.87H488.1c.58-.8,5.59-7.55,14.58-7.85a18.24,18.24,0,0,1,10.66,3.05c-.57-3.87-.49-9.4,3-14.08,5.67-7.67,18.18-10,28.62-3.57.6-9.24,7.23-16.63,15.2-17.89,9.74-1.54,20.14,6.28,21.21,17.89,1.48-.48,10.31-3.19,19,1.78C611.78,842.72,612.16,856.23,612.17,856.87Z"/><circle class="cls-5" cx="476.62" cy="1113.2" r="5.8"/><ellipse class="cls-5" cx="504.05" cy="1054.23" rx="35" ry="48.6"/><line class="cls-9" x1="503.81" y1="1138.73" x2="503.81" y2="1044.23"/><line class="cls-9" x1="513.1" y1="1055.23" x2="503.81" y2="1066.98"/><line class="cls-9" x1="493.98" y1="1071.61" x2="503.81" y2="1085.18"/><path class="cls-8" d="M1304.34,1321.21l-61.81-71.76a81.58,81.58,0,0,1,9.38-115.73h0a81.58,81.58,0,0,1,104.86,0h0a81.58,81.58,0,0,1,9.38,115.73Z"/><circle class="cls-4" cx="1304.34" cy="1191.66" r="25.08"/><circle class="cls-4" cx="1401.5" cy="504.69" r="19.85"/><circle class="cls-7" cx="1482.5" cy="504.69" r="19.85"/><circle class="cls-8" cx="1563.5" cy="504.69" r="19.85"/><circle class="cls-4" cx="918.34" cy="1449.16" r="52.03"/><polyline class="cls-11" points="926.97 1468.13 903.71 1449.15 926.97 1430.18"/><circle class="cls-4" cx="1113.34" cy="1449.16" r="52.03"/><polyline class="cls-11" points="1104.71 1468.13 1127.97 1449.15 1104.71 1430.18"/><circle class="cls-2" cx="1015.84" cy="1485.54" r="6"/><circle class="cls-2" cx="1043.84" cy="1485.54" r="6"/><circle class="cls-2" cx="987.84" cy="1485.54" r="6"/><rect class="cls-3" x="489.41" y="1288.83" width="95.34" height="88.92" rx="18.35"/><rect class="cls-7" x="489.41" y="1279.58" width="95.34" height="88.92" rx="18.35"/><path class="cls-12" d="M509.19,1317.12a36,36,0,0,1,11.36-9.35,26.76,26.76,0,0,1,4.76-2c.6-.18,2.3-1.15,1-.28,2.11-1.45-2.67-7.24-4.65-5.67-3.79,3-7.34,8.79-9.9,12.83-3.14,4.93-6.31,10.7-6.48,16.68a13.77,13.77,0,0,0,10.37,13.85c6.43,1.54,12.22-1.41,17.08-5.36,4.67-3.79,9-8,13.82-11.59a59.32,59.32,0,0,1,8.56-5.5,17.53,17.53,0,0,1,4.13-1.64l1-.28c2.38.23,2.23-.22-.45-1.33l-1.13-4.16-.08,1.38,1.12-4.17c-3.33,6.87-8.32,13.31-12.69,19.57-4,5.76-8.2,11.43-12.29,17.15-6.18,8.65,8.12,16.9,14.25,8.33,8.14-11.41,16.89-22.62,23.93-34.77,4.37-7.53,1.31-16.14-7.53-18.14-7.71-1.74-15.87,1.92-22.25,5.93s-12.09,9-17.78,13.89a48.42,48.42,0,0,1-4.3,3.67c-.2.13-1.79.89-1.81.95-.18.58,2.68,1.9,2.61,1.94.25-.14.44-1.37.54-1.63a41.2,41.2,0,0,1,2.74-5.06c3.4-5.68,9-10.12,11.68-16.19s.74-13.55-5.62-16.27c-5.45-2.33-11.83.18-16.84,2.52a48.17,48.17,0,0,0-16.89,13c-2.8,3.46-3.38,8.28,0,11.67,2.9,2.89,8.85,3.48,11.67,0Z"/><rect class="cls-3" x="621.69" y="1288.83" width="95.34" height="88.92" rx="18.35"/><rect class="cls-8" x="621.69" y="1279.58" width="95.34" height="88.92" rx="18.35"/><rect class="cls-13" x="644.43" y="1299.11" width="49.85" height="49.85"/><line class="cls-14" x1="644.43" y1="1299.11" x2="694.29" y2="1348.96"/><line class="cls-14" x1="644.43" y1="1348.96" x2="694.29" y2="1299.11"/><rect class="cls-3" x="753.98" y="1288.83" width="95.34" height="88.92" rx="18.35"/><rect class="cls-2" x="753.98" y="1279.58" width="95.34" height="88.92" rx="18.35"/><circle class="cls-15" cx="801.65" cy="1306.65" r="12.26"/><line class="cls-16" x1="801.65" y1="1318.91" x2="801.65" y2="1354.01"/><line class="cls-15" x1="789.39" y1="1335.88" x2="801.65" y2="1335.88"/><line class="cls-15" x1="789.39" y1="1347.42" x2="801.65" y2="1347.42"/><rect class="cls-2" x="1007.85" y="757.94" width="416.69" height="82.8" rx="19.8"/><ellipse class="cls-16" cx="1086.34" cy="800.39" rx="17.37" ry="17.35"/><ellipse class="cls-16" cx="1134.34" cy="800.39" rx="17.37" ry="17.35"/><ellipse class="cls-16" cx="1182.34" cy="800.39" rx="17.37" ry="17.35"/><ellipse class="cls-16" cx="1240.34" cy="800.39" rx="17.37" ry="17.35"/><ellipse class="cls-16" cx="1288.34" cy="800.39" rx="17.37" ry="17.35"/><ellipse class="cls-16" cx="1336.34" cy="800.39" rx="17.37" ry="17.35"/><line class="cls-16" x1="1040.91" y1="783.04" x2="1040.91" y2="817.73"/><line class="cls-16" x1="1058.32" y1="817.73" x2="1058.32" y2="814.67"/><path class="cls-12" d="M1397.52,807.05c0,4-2.63,8.42-8.51,9.57v5.69h-4.39v-5.46a16,16,0,0,1-8-2.44l-.31-.22,1.63-4.57.54.36a13.84,13.84,0,0,0,7.47,2.23c3.48,0,5.91-2,5.91-4.78,0-2.56-1.67-4.28-5.77-5.94-4.78-1.87-9.2-4.35-9.2-9.78,0-4.59,3.18-8.12,8.13-9.08v-5.52h4.34v5.24a14.75,14.75,0,0,1,6.75,1.93l.36.22-1.7,4.49-.51-.29a12.46,12.46,0,0,0-6.53-1.76c-3.85,0-5.21,2.22-5.21,4.13,0,2.35,1.43,3.63,6.37,5.67C1394.93,799.21,1397.52,802.3,1397.52,807.05Z"/><polygon class="cls-4" points="1498.82 883.35 1470.54 911.63 1434.64 875.73 1406.18 904.19 1406.18 818.99 1491.38 818.99 1462.92 847.45 1498.82 883.35"/><rect class="cls-4" x="1007.85" y="885.54" width="337.59" height="30" rx="15"/><rect class="cls-4" x="1007.85" y="1004.55" width="337.59" height="30" rx="15"/><path class="cls-4" d="M1244.44,960a15,15,0,0,0-15-15H1022.85a15,15,0,0,0,0,30h206.59A15,15,0,0,0,1244.44,960Z"/><path class="cls-4" d="M1134.44,1080.55a15,15,0,0,1-15,15h-96.59a15,15,0,1,1,0-30h96.59A15,15,0,0,1,1134.44,1080.55Z"/><path class="cls-4" d="M1345.44,960a15,15,0,0,0-15-15h-35.59a15,15,0,0,0,0,30h35.59A15,15,0,0,0,1345.44,960Z"/><path class="cls-7" d="M902,735.64l7.83-1.14c26.14-3.79,44.33,25.27,29.5,47.12l-4.44,6.55,4.9,6.22c16.35,20.73.28,51-26,49.11l-7.9-.58-2.93,7.36c-9.79,24.52-44,25.75-55.56,2l-3.45-7.13-7.84,1.14c-26.13,3.79-44.32-25.27-29.5-47.12l4.45-6.55-4.9-6.22c-16.36-20.74-.29-51,26-49.11l7.9.58L843,730.5c9.78-24.53,44-25.75,55.55-2Z"/><path class="cls-3" d="M873,869.35l33.94,10V843l-1-.08A32.62,32.62,0,0,1,873,869.35Z"/><path class="cls-12" d="M854.61,780.75a2.52,2.52,0,0,1-.85,2,3.52,3.52,0,0,1-2.36.72h-5.28v18.48a4,4,0,0,1-.86,2.77,2.92,2.92,0,0,1-2.26,1,3,3,0,0,1-2.28-1,3.92,3.92,0,0,1-.87-2.76V783.43h-5.28a3.43,3.43,0,0,1-2.35-.73,2.53,2.53,0,0,1-.82-2,2.5,2.5,0,0,1,.86-2,3.47,3.47,0,0,1,2.31-.71H851.4a3.44,3.44,0,0,1,2.38.74A2.53,2.53,0,0,1,854.61,780.75Z"/><path class="cls-12" d="M883.75,784.23a11.2,11.2,0,0,0-4.61-4.9,14.51,14.51,0,0,0-7.23-1.72,14.81,14.81,0,0,0-5.53,1,11.37,11.37,0,0,0-4.17,2.82,12.36,12.36,0,0,0-2.62,4.46,17.48,17.48,0,0,0-.89,5.68,18,18,0,0,0,.86,5.63,12.39,12.39,0,0,0,2.55,4.51,11.41,11.41,0,0,0,4.23,2.92,15,15,0,0,0,5.68,1,15.19,15.19,0,0,0,5.66-1,11.4,11.4,0,0,0,4.21-2.91,12.45,12.45,0,0,0,2.56-4.47,18.14,18.14,0,0,0,.85-5.67A16.52,16.52,0,0,0,883.75,784.23ZM872,800.43a6.69,6.69,0,0,1-2.71-.54,6.46,6.46,0,0,1-2.18-1.65,7.8,7.8,0,0,1-1.48-2.81,13,13,0,0,1-.54-3.88,12.66,12.66,0,0,1,.54-3.83A7.88,7.88,0,0,1,867,785a6,6,0,0,1,2.14-1.6,6.67,6.67,0,0,1,2.73-.56,6.86,6.86,0,0,1,3.68,1,6.53,6.53,0,0,1,2.46,3,11.81,11.81,0,0,1,.88,4.77,11.63,11.63,0,0,1-1,5,6.59,6.59,0,0,1-2.51,2.93A6.75,6.75,0,0,1,872,800.43Z"/><path class="cls-12" d="M912.76,782.85a7.2,7.2,0,0,0-1.9-2.72,7.48,7.48,0,0,0-3-1.59,18.39,18.39,0,0,0-4.77-.48h-6.79a4.16,4.16,0,0,0-2.89.88,3.77,3.77,0,0,0-1,2.86V802a3.92,3.92,0,0,0,.86,2.71,3.12,3.12,0,0,0,4.55,0,3.94,3.94,0,0,0,.88-2.74V795h4.35c3.35,0,5.92-.73,7.65-2.17a8,8,0,0,0,2.63-6.44A9.35,9.35,0,0,0,912.76,782.85Zm-6.28,5.7a3.16,3.16,0,0,1-1.67,1.1,10,10,0,0,1-3,.37h-3.07v-7h3.07c2.75,0,3.87.54,4.32,1a3.44,3.44,0,0,1,.88,2.47A3.4,3.4,0,0,1,906.48,788.55Z"/><polygon class="cls-7" points="1688.02 896.23 1713.46 953.11 1769.29 912.86 1751.2 977.61 1829.83 977.61 1775.11 1028.35 1809.03 1094.85 1738.56 1070.35 1726.56 1137.73 1691.88 1078.23 1640.57 1128.1 1642.11 1063.73 1575.94 1072.32 1611.72 1022.23 1548.42 997.86 1619.43 980.73 1600.16 921.61 1657.2 952.23 1688.02 896.23"/><circle class="cls-14" cx="1677.27" cy="995" r="9.41"/><circle class="cls-14" cx="1712.98" cy="1038.96" r="9.41"/><line class="cls-14" x1="1670" y1="1048.04" x2="1720.25" y2="985.92"/><polygon class="cls-3" points="1640.57 1128.1 1688.16 1081.84 1688.16 1128.1 1640.57 1128.1"/><circle class="cls-8" cx="486.42" cy="755.23" r="26.82"/><line class="cls-16" x1="479.51" y1="748.31" x2="493.33" y2="762.14"/><line class="cls-16" x1="479.51" y1="762.14" x2="493.33" y2="748.31"/><path class="cls-4" d="M1581,1319.83v43.56a30.25,30.25,0,0,1-30.25,30.25v19.56l-22.48-19.56h-50a30.25,30.25,0,0,1-30.25-30.25v-43.56a30.25,30.25,0,0,1,30.25-30.25h72.44A30.25,30.25,0,0,1,1581,1319.83Z"/><circle class="cls-1" cx="1514.5" cy="1342.55" r="8.83"/><circle class="cls-1" cx="1484.5" cy="1342.55" r="8.83"/><circle class="cls-1" cx="1544.5" cy="1342.55" r="8.83"/><circle class="cls-4" cx="340.24" cy="1401.95" r="77.5"/><path class="cls-1" d="M344.69,1466.8c-1.47.1-2.95.16-4.45.16a65,65,0,0,1,0-130c1.1,0,2.19,0,3.28.08V1451.9A94.92,94.92,0,0,0,344.69,1466.8Z"/><path class="cls-2" d="M405.24,1402a65,65,0,0,1-60.55,64.84,94.92,94.92,0,0,1-1.17-14.9V1337A65,65,0,0,1,405.24,1402Z"/><line class="cls-17" x1="285.44" y1="1456.75" x2="266.74" y2="1475.45"/><line class="cls-18" x1="261.17" y1="1480.9" x2="210.17" y2="1531.9"/><path class="cls-3" d="M409.37,1437c-3.8,7.25-14.65,25.52-36.83,35.62a75.2,75.2,0,0,1-25.05,6.46,93.83,93.83,0,0,0,5,13.1c2.66,5.65,10.9,17.23,13.6,21Z"/><rect class="cls-4" x="661.79" y="596.24" width="708.11" height="91.09" rx="45.54"/><circle class="cls-2" cx="1254.71" cy="640.16" r="6"/><circle class="cls-2" cx="1285.71" cy="640.16" r="6"/><circle class="cls-2" cx="1316.71" cy="640.16" r="6"/><rect class="cls-2" x="661.79" y="596.24" width="109.9" height="91.09" rx="45.54"/><circle class="cls-14" cx="716.47" cy="641.75" r="21.58"/><line class="cls-14" x1="701.93" y1="657.69" x2="694.19" y2="665.43"/><path class="cls-19" d="M1572.93,716.28c0,2.24-3.58,4.15-8.6,4.91-.76,5-2.67,8.59-4.91,8.59s-4.14-3.56-4.9-8.59c-5-.76-8.6-2.67-8.6-4.91s3.57-4.14,8.6-4.9c.76-5,2.68-8.61,4.9-8.61s4.15,3.58,4.91,8.61C1569.35,712.14,1572.93,714,1572.93,716.28Z"/><path class="cls-19" d="M1110.48,1199.55c0,2.24-3.58,4.16-8.61,4.92-.76,5-2.66,8.59-4.9,8.59s-4.14-3.56-4.9-8.59c-5-.76-8.61-2.68-8.61-4.92s3.58-4.14,8.61-4.9c.76-5,2.67-8.6,4.9-8.6s4.14,3.57,4.9,8.6C1106.9,1195.41,1110.48,1197.32,1110.48,1199.55Z"/><path class="cls-19" d="M296,999c0,2.24-3.58,4.16-8.61,4.92-.76,5-2.66,8.59-4.9,8.59s-4.14-3.56-4.9-8.59c-5-.76-8.6-2.68-8.6-4.92s3.57-4.14,8.6-4.9c.76-5,2.68-8.6,4.9-8.6s4.14,3.57,4.9,8.6C292.37,994.82,296,996.73,296,999Z"/><path class="cls-19" d="M579.9,641.78c0,2.24-3.58,4.16-8.6,4.92-.76,5-2.67,8.59-4.91,8.59s-4.14-3.56-4.9-8.59c-5-.76-8.6-2.68-8.6-4.92s3.57-4.14,8.6-4.9c.76-5,2.68-8.6,4.9-8.6s4.15,3.57,4.91,8.6C576.32,637.64,579.9,639.55,579.9,641.78Z"/><path class="cls-20" d="M1173.77,1324.21a22.84,22.84,0,0,1-16.27-6.74l-11.59-11.59a17,17,0,0,0-24.07,0l-11.58,11.59a23,23,0,0,1-32.56,0l-11.58-11.59a17,17,0,0,0-24.07,0l-13.74,13.74a3,3,0,0,1-4.24-4.24l13.73-13.74a23,23,0,0,1,32.56,0l11.58,11.59a17,17,0,0,0,24.07,0l11.59-11.59a23,23,0,0,1,32.55,0l11.59,11.59a17,17,0,0,0,24.07,0l11.59-11.59a23,23,0,0,1,32.55,0l15.39,15.39a3,3,0,0,1-4.24,4.25l-15.39-15.4a17,17,0,0,0-24.07,0l-11.59,11.59A22.85,22.85,0,0,1,1173.77,1324.21Z"/></g></svg>