<svg id="Слой_1" data-name="Слой 1" xmlns="http://www.w3.org/2000/svg" viewBox="0 0 2000 2000"><defs><style>.cls-1{fill:#638000;}.cls-1,.cls-10,.cls-11,.cls-12,.cls-13,.cls-14,.cls-16,.cls-18,.cls-19,.cls-2,.cls-3,.cls-4,.cls-6,.cls-7,.cls-8{stroke:#003a47;}.cls-1,.cls-18,.cls-2,.cls-3,.cls-4{stroke-miterlimit:10;}.cls-1,.cls-10,.cls-11,.cls-12,.cls-13,.cls-14,.cls-15,.cls-16,.cls-18,.cls-19,.cls-2,.cls-3,.cls-4,.cls-6,.cls-7,.cls-8{stroke-width:3px;}.cls-2{fill:#6b9700;}.cls-15,.cls-3,.cls-7{fill:none;}.cls-13,.cls-4{fill:#fff;}.cls-16,.cls-5{fill:#ff7a00;}.cls-17,.cls-6{fill:#f2d300;}.cls-10,.cls-11,.cls-12,.cls-13,.cls-14,.cls-15,.cls-16,.cls-19,.cls-6,.cls-7,.cls-8{stroke-linejoin:round;}.cls-8{fill:#cedffb;}.cls-14,.cls-9{fill:#85aff6;}.cls-10{fill:#c46855;}.cls-11,.cls-20{fill:#003a47;}.cls-12{fill:#94424f;}.cls-15{stroke:#fff;}.cls-18{fill:#ffc4c8;}.cls-19{fill:#5e4650;}</style></defs><g id="GARDEN"><rect class="cls-1" x="184.62" y="1363.5" width="1466.75" height="171.58" rx="45.72"/><path class="cls-2" d="M1278.92,1535.09a21.16,21.16,0,0,1,3.33-21.6,19.49,19.49,0,0,1,20.83-6c-3.38-7.78-1.82-16.79,3.74-22.42a19,19,0,0,1,25-1.29c-1.8-7.58,1.38-15.37,7.49-19,7.06-4.16,16.64-1.92,21.66,5.6-.7-8.92,5.33-17,13.75-18.54s17,4.1,19.16,12.94a17.72,17.72,0,0,1,33.32,0,17.35,17.35,0,0,1,18.33-4.75,18.14,18.14,0,0,1,11.66,13.8,12.72,12.72,0,0,1,16.25-1.29,13.78,13.78,0,0,1,4.58,16.38,13.92,13.92,0,0,1,15.41.86c5.16,4,7,11.57,4.17,18.11a17.39,17.39,0,0,1,18.74,7.33,18.84,18.84,0,0,1,.42,19.88Z"/><line class="cls-3" x1="1542.06" y1="1479.41" x2="1534.75" y2="1394.99"/><line class="cls-3" x1="1575.56" y1="1414.5" x2="1539.25" y2="1446.97"/><path class="cls-4" d="M1517.45,1383.91c.52,5.67,4.29,10.34,9.18,11.62,6.24,1.64,13.51-2.45,15.6-9.78,7.06,3.32,15.22,0,17.73-6.43,2.15-5.45-.16-12.23-5.81-15.59,5.2-5.92,3.55-14.14-.91-16.82-3.81-2.29-10.27-.94-14,4.28-1.69-6.13-7.4-9.89-12.62-9.18-6.27.85-11.3,8-9.18,15.6-7.08.08-12.84,5.06-13.76,11C1502.58,1375.81,1508.67,1383.57,1517.45,1383.91Z"/><circle class="cls-5" cx="1532.16" cy="1368.91" r="7.84"/><path class="cls-4" d="M1570.71,1396.12c-3.35,1.63-5.76,4.62-6,7.87-.28,4.82,4.34,10,11,10.27,1.84,6.42,8.49,9.87,14,8.08a11.28,11.28,0,0,0,7.34-11.92,9.1,9.1,0,0,0,.74-18.08,8.64,8.64,0,0,0-14.44-9.4,9.19,9.19,0,0,0-12.75,13.18Z"/><circle class="cls-5" cx="1585.1" cy="1399.93" r="6.18"/><path class="cls-6" d="M1542.07,1479.41a59.58,59.58,0,0,0,39.2-41.29,58.34,58.34,0,0,0-39.2,41.29Z"/><path class="cls-6" d="M1542.07,1479.41a110.67,110.67,0,0,0-16.23-47.1,105,105,0,0,0-33.76-33.58,73.51,73.51,0,0,0,8.26,46.9C1513.91,1469.88,1536.87,1477.76,1542.07,1479.41Z"/><polygon class="cls-6" points="698.16 1363.42 797.99 1407.15 342.14 1535.09 909.55 1535.09 967.69 1399.84 803.73 1363.42 698.16 1363.42"/><path class="cls-7" d="M381.43,1446.58a12.46,12.46,0,0,0-19.4,0c-.87-9.13-9.06-15.23-16.67-14-6.19,1-11.33,6.79-11.8,14a9.58,9.58,0,0,0-18.23,0A8.51,8.51,0,0,0,303,1455.9"/><path class="cls-7" d="M1218.8,1397.61a6.66,6.66,0,0,1,12.7,0,9.65,9.65,0,0,1,5.79-9.21,10,10,0,0,1,8.74.93,11.59,11.59,0,0,1,9.41-8.06,11.72,11.72,0,0,1,12.28,8.06,11.89,11.89,0,0,1,10.46-1.1,11.41,11.41,0,0,1,7,9.38"/><line class="cls-7" x1="556.93" y1="1474.81" x2="556.93" y2="1455.9"/><line class="cls-7" x1="576.59" y1="1469.29" x2="576.59" y2="1428.78"/><line class="cls-7" x1="1519.39" y1="1479.41" x2="1564.75" y2="1479.41"/></g><g id="HOUSE"><polygon class="cls-8" points="1258.21 882.73 1258.21 1363.5 782.51 1363.42 782.51 920.11 803.73 920.11 1046.88 542.18 1258.21 882.73"/><rect class="cls-8" x="327.98" y="934.57" width="475.75" height="428.86"/><rect class="cls-9" x="330.33" y="936.69" width="471.05" height="243.47"/><polygon class="cls-10" points="803.73 920.11 698.16 1097.6 230.3 1097.6 335.87 920.11 803.73 920.11"/><polygon class="cls-11" points="335.87 920.11 803.73 920.11 791.34 940.96 335.87 920.11"/><rect class="cls-12" x="230.3" y="1097.6" width="467.86" height="14.45"/><polygon class="cls-11" points="803.73 920.11 698.16 1097.6 698.16 1112.05 803.73 934.57 803.73 920.11"/><path class="cls-13" d="M230.3,1264.23v99.27H698.16v-99.27ZM677,1350.09H250.55v-71.95H677Z"/><rect class="cls-14" x="250.55" y="1278.14" width="426.49" height="71.95"/><rect class="cls-13" x="453.19" y="1278.15" width="21.22" height="71.95"/><line class="cls-15" x1="437.04" y1="1286.55" x2="437.04" y2="1341.69"/><line class="cls-15" x1="418.06" y1="1286.55" x2="418.06" y2="1341.69"/><line class="cls-15" x1="399.08" y1="1286.55" x2="399.08" y2="1341.69"/><line class="cls-15" x1="380.1" y1="1286.55" x2="380.1" y2="1341.69"/><line class="cls-15" x1="361.12" y1="1286.55" x2="361.12" y2="1341.69"/><line class="cls-15" x1="342.14" y1="1286.55" x2="342.14" y2="1341.69"/><line class="cls-15" x1="323.16" y1="1286.55" x2="323.16" y2="1341.69"/><line class="cls-15" x1="304.19" y1="1286.55" x2="304.19" y2="1341.69"/><line class="cls-15" x1="285.21" y1="1286.55" x2="285.21" y2="1341.69"/><line class="cls-15" x1="266.23" y1="1286.55" x2="266.23" y2="1341.69"/><line class="cls-15" x1="660.89" y1="1286.55" x2="660.89" y2="1341.69"/><line class="cls-15" x1="641.91" y1="1286.55" x2="641.91" y2="1341.69"/><line class="cls-15" x1="622.93" y1="1286.55" x2="622.93" y2="1341.69"/><line class="cls-15" x1="603.95" y1="1286.55" x2="603.95" y2="1341.69"/><line class="cls-15" x1="584.98" y1="1286.55" x2="584.98" y2="1341.69"/><line class="cls-15" x1="566" y1="1286.55" x2="566" y2="1341.69"/><line class="cls-15" x1="547.02" y1="1286.55" x2="547.02" y2="1341.69"/><line class="cls-15" x1="528.04" y1="1286.55" x2="528.04" y2="1341.69"/><line class="cls-15" x1="509.06" y1="1286.55" x2="509.06" y2="1341.69"/><line class="cls-15" x1="490.08" y1="1286.55" x2="490.08" y2="1341.69"/><rect class="cls-13" x="698.16" y="1307.85" width="79.66" height="27.79"/><rect class="cls-13" x="698.16" y="1335.64" width="105.57" height="27.79"/><polygon class="cls-10" points="335.28 905.66 579.02 527.73 1046.88 527.73 803.14 905.66 335.28 905.66"/><rect class="cls-12" x="335.28" y="905.66" width="468.46" height="14.45"/><polygon class="cls-11" points="1046.88 542.19 803.73 920.11 803.73 905.66 1046.88 527.73 1046.88 542.19"/><polygon class="cls-11" points="1279.43 905.66 1279.43 920.11 1258.21 920.11 1258.21 885.63 1046.88 542.19 1046.88 527.73 1279.43 905.66"/><polygon class="cls-11" points="421.75 772.11 421.75 866.63 360.43 866.63 421.75 772.11"/><polygon class="cls-14" points="555.64 772.11 555.64 866.63 421.75 866.63 421.75 772.11 488.69 694.57 555.64 772.11"/><polygon class="cls-8" points="611.72 772.12 555.64 866.63 555.64 772.12 611.72 772.12"/><polygon class="cls-10" points="657.73 694.58 611.72 772.12 555.64 772.12 488.69 694.58 657.73 694.58"/><path class="cls-11" d="M524.4,771.53v90.86H455.18V771.53a34.61,34.61,0,0,1,34.61-34.6h0A34.61,34.61,0,0,1,524.4,771.53Z"/><path class="cls-6" d="M477.21,741.3V862.39H459.43V771.53A34.54,34.54,0,0,1,477.21,741.3Z"/><path class="cls-13" d="M489.79,732.68a38.9,38.9,0,0,0-38.85,38.85v95.1h77.7v-95.1A38.9,38.9,0,0,0,489.79,732.68Zm-3.71,125.47H459.43v-34.4h26.65Zm0-40.76H459.43V781.93h26.65Zm0-41.83H459.43v-4a30.39,30.39,0,0,1,26.65-30.13Zm7.43-34.16a30.39,30.39,0,0,1,26.65,30.13v4H493.51Zm26.65,116.75H493.51v-34.4h26.65Zm0-40.76H493.51V781.93h26.65Z"/><polygon class="cls-11" points="636.06 772.11 636.06 866.63 574.74 866.63 636.06 772.11"/><polygon class="cls-14" points="769.94 772.11 769.94 866.63 636.06 866.63 636.06 772.11 702.99 694.57 769.94 772.11"/><polygon class="cls-8" points="826.03 772.12 769.94 866.63 769.94 772.12 826.03 772.12"/><polygon class="cls-10" points="872.04 694.58 826.03 772.12 769.94 772.12 703 694.58 872.04 694.58"/><path class="cls-11" d="M738.7,771.53v90.86H669.49V771.53a34.6,34.6,0,0,1,34.61-34.6h0A34.6,34.6,0,0,1,738.7,771.53Z"/><path class="cls-6" d="M738.7,771.53V820H669.49V771.53a34.6,34.6,0,0,1,34.61-34.6h0A34.6,34.6,0,0,1,738.7,771.53Z"/><path class="cls-13" d="M704.1,732.68a38.9,38.9,0,0,0-38.85,38.85v95.1H743v-95.1A38.9,38.9,0,0,0,704.1,732.68Zm-3.72,125.47H673.73v-34.4h26.65Zm0-40.76H673.73V781.93h26.65Zm0-41.83H673.73v-4a30.39,30.39,0,0,1,26.65-30.13Zm7.43-34.16a30.39,30.39,0,0,1,26.65,30.13v4H707.81Zm26.65,116.75H707.81v-34.4h26.65Zm0-40.76H707.81V781.93h26.65Z"/><rect class="cls-13" x="250.55" y="1112.05" width="21.22" height="152.19"/><rect class="cls-11" x="250.55" y="1112.05" width="21.22" height="7.44"/><rect class="cls-13" x="453.19" y="1112.05" width="21.22" height="152.19"/><rect class="cls-11" x="453.19" y="1112.05" width="21.22" height="7.44"/><rect class="cls-13" x="655.82" y="1112.05" width="21.22" height="152.19"/><rect class="cls-11" x="655.82" y="1112.05" width="21.22" height="7.44"/><rect class="cls-16" x="271.88" y="1247.69" width="181.37" height="16.54"/><path class="cls-1" d="M396.2,1238.88a11.76,11.76,0,0,0-11.88,0c.36-5.84-3.64-10.63-8.18-11.25-5.29-.72-11.24,4.26-11,11.25a22,22,0,0,0-16.49-6,21.48,21.48,0,0,0-13.09,6c.77-11-8.31-19.69-17.81-19.1-8.78.56-16.38,9-15.59,19.1a9,9,0,0,0-16.5,0c-4.08-2.35-9-1.73-11.69,1.2s-2.16,7.06-2.07,7.61H453.25l-.06-17.46a10.55,10.55,0,0,0-16.15,9.46,10.37,10.37,0,0,0-17.22-.27,11.89,11.89,0,0,0-23.62-.54Z"/><path class="cls-4" d="M370.62,1212.47c0,1.59-2.55,3-6.13,3.49-.54,3.59-1.9,6.12-3.49,6.12s-2.95-2.53-3.49-6.12c-3.58-.54-6.13-1.9-6.13-3.49s2.55-3,6.13-3.49c.54-3.59,1.91-6.13,3.49-6.13s2.95,2.54,3.49,6.13C368.07,1209.52,370.62,1210.87,370.62,1212.47Z"/><circle class="cls-17" cx="361" cy="1212.47" r="2.02"/><path class="cls-4" d="M430,1233c0,1.6-2.55,3-6.13,3.5-.54,3.58-1.89,6.12-3.49,6.12s-3-2.54-3.49-6.12c-3.58-.54-6.13-1.9-6.13-3.5s2.55-3,6.13-3.49c.54-3.58,1.91-6.12,3.49-6.12s2.95,2.54,3.49,6.12C427.42,1230,430,1231.37,430,1233Z"/><circle class="cls-17" cx="420.35" cy="1232.96" r="2.02"/><path class="cls-4" d="M331.51,1246.76c0,1.59-2.54,3-6.12,3.5-.54,3.58-1.9,6.12-3.49,6.12s-2.95-2.54-3.49-6.12c-3.59-.54-6.13-1.91-6.13-3.5s2.54-3,6.13-3.49c.54-3.58,1.9-6.13,3.49-6.13s3,2.55,3.49,6.13C329,1243.81,331.51,1245.17,331.51,1246.76Z"/><circle class="cls-17" cx="321.9" cy="1246.76" r="2.02"/><path class="cls-4" d="M287.09,1220.08c0,1.6-2.54,3-6.12,3.5-.54,3.58-1.9,6.12-3.49,6.12s-3-2.54-3.49-6.12c-3.59-.54-6.13-1.9-6.13-3.5s2.54-2.95,6.13-3.49c.54-3.58,1.9-6.12,3.49-6.12s2.95,2.54,3.49,6.12C284.55,1217.13,287.09,1218.49,287.09,1220.08Z"/><circle class="cls-17" cx="277.48" cy="1220.08" r="2.02"/><rect class="cls-16" x="474.52" y="1247.69" width="181.37" height="16.54"/><path class="cls-1" d="M598.83,1238.88a11.76,11.76,0,0,0-11.88,0c.37-5.84-3.64-10.63-8.17-11.25-5.29-.72-11.24,4.26-11,11.25a22,22,0,0,0-16.5-6,21.51,21.51,0,0,0-13.09,6c.78-11-8.31-19.69-17.8-19.1-8.79.56-16.38,9-15.6,19.1a9,9,0,0,0-16.49,0c-4.09-2.35-9-1.73-11.7,1.2s-2.15,7.06-2.06,7.61H655.89l-.07-17.46a11.07,11.07,0,0,0-12.45.9,11.23,11.23,0,0,0-3.7,8.56,10.36,10.36,0,0,0-17.21-.27,11.9,11.9,0,0,0-23.63-.54Z"/><path class="cls-4" d="M607.22,1218.85c0,1.6-2.54,3-6.13,3.5-.54,3.58-1.89,6.12-3.49,6.12s-2.94-2.54-3.48-6.12c-3.59-.54-6.13-1.9-6.13-3.5s2.54-2.94,6.13-3.49c.54-3.58,1.9-6.12,3.48-6.12s2.95,2.54,3.49,6.12C604.68,1215.91,607.22,1217.26,607.22,1218.85Z"/><circle class="cls-17" cx="597.6" cy="1218.85" r="2.02"/><path class="cls-4" d="M649,1247.69c0,1.59-2.55,3-6.13,3.5-.54,3.58-1.89,6.12-3.49,6.12s-2.95-2.54-3.49-6.12c-3.58-.54-6.13-1.91-6.13-3.5s2.55-3,6.13-3.49c.54-3.58,1.91-6.13,3.49-6.13s3,2.55,3.49,6.13C646.49,1244.74,649,1246.1,649,1247.69Z"/><circle class="cls-17" cx="639.42" cy="1247.69" r="2.02"/><path class="cls-4" d="M547.09,1233.19c0,1.59-2.54,3-6.12,3.5-.54,3.58-1.9,6.12-3.49,6.12s-3-2.54-3.49-6.12c-3.58-.54-6.13-1.91-6.13-3.5s2.55-3,6.13-3.49c.54-3.58,1.9-6.13,3.49-6.13s2.95,2.55,3.49,6.13C544.55,1230.24,547.09,1231.6,547.09,1233.19Z"/><circle class="cls-17" cx="537.48" cy="1233.19" r="2.02"/><path class="cls-4" d="M504.55,1207.6c0,1.59-2.55,3-6.13,3.49-.54,3.59-1.89,6.12-3.49,6.12s-2.95-2.53-3.49-6.12c-3.58-.54-6.13-1.9-6.13-3.49s2.55-2.95,6.13-3.49c.54-3.59,1.91-6.13,3.49-6.13s2.95,2.54,3.49,6.13C502,1204.65,504.55,1206,504.55,1207.6Z"/><circle class="cls-17" cx="494.93" cy="1207.6" r="2.02"/><rect class="cls-17" x="1096.02" y="1110.46" width="71.08" height="175.05"/><rect class="cls-17" x="1176.65" y="1110.46" width="71.08" height="175.05"/><path class="cls-13" d="M1085.54,1101.29v193.38h172.67V1101.29Zm91.11,9.16H1209v36h-32.35Zm0,42.36H1209v42h-32.35Zm0,48.35H1209v42h-32.35Zm-48.28,84.34H1096v-36h32.35Zm0-42.36H1096v-42h32.35Zm0-48.34H1096v-42h32.35Zm0-48.35H1096v-36h32.35Zm38.73,139h-32.36v-36h32.36Zm0-42.36h-32.36v-42h32.36Zm0-48.34h-32.36v-42h32.36Zm0-48.35h-32.36v-36h32.36Zm9.55,139v-36H1209v36Zm71.08,0h-32.36v-36h32.36Zm0-42.36h-32.36v-42h32.36Zm0-48.34h-32.36v-42h32.36Zm0-48.35h-32.36v-36h32.36Z"/><rect class="cls-17" x="969.97" y="831.53" width="71.08" height="175.05"/><rect class="cls-17" x="1050.6" y="831.53" width="71.08" height="175.05"/><rect class="cls-10" x="1132.16" y="822.36" width="53.78" height="193.38"/><line class="cls-3" x1="1176.9" y1="914.88" x2="1141.19" y2="914.88"/><line class="cls-3" x1="1176.9" y1="923.22" x2="1141.19" y2="923.22"/><line class="cls-3" x1="1176.9" y1="931.56" x2="1141.19" y2="931.56"/><line class="cls-3" x1="1176.9" y1="939.89" x2="1141.19" y2="939.89"/><line class="cls-3" x1="1176.9" y1="948.23" x2="1141.19" y2="948.23"/><line class="cls-3" x1="1176.9" y1="956.56" x2="1141.19" y2="956.56"/><line class="cls-3" x1="1176.9" y1="964.9" x2="1141.19" y2="964.9"/><line class="cls-3" x1="1176.9" y1="973.23" x2="1141.19" y2="973.23"/><line class="cls-3" x1="1176.9" y1="981.57" x2="1141.19" y2="981.57"/><line class="cls-3" x1="1176.9" y1="989.91" x2="1141.19" y2="989.91"/><line class="cls-3" x1="1176.9" y1="998.24" x2="1141.19" y2="998.24"/><line class="cls-3" x1="1176.9" y1="1006.58" x2="1141.19" y2="1006.58"/><line class="cls-3" x1="1176.9" y1="831.53" x2="1141.19" y2="831.53"/><line class="cls-3" x1="1176.9" y1="839.86" x2="1141.19" y2="839.86"/><line class="cls-3" x1="1176.9" y1="848.2" x2="1141.19" y2="848.2"/><line class="cls-3" x1="1176.9" y1="856.53" x2="1141.19" y2="856.53"/><line class="cls-3" x1="1176.9" y1="864.87" x2="1141.19" y2="864.87"/><line class="cls-3" x1="1176.9" y1="873.21" x2="1141.19" y2="873.21"/><line class="cls-3" x1="1176.9" y1="881.54" x2="1141.19" y2="881.54"/><line class="cls-3" x1="1176.9" y1="889.88" x2="1141.19" y2="889.88"/><line class="cls-3" x1="1176.9" y1="898.21" x2="1141.19" y2="898.21"/><line class="cls-3" x1="1176.9" y1="906.55" x2="1141.19" y2="906.55"/><line class="cls-3" x1="1176.9" y1="914.88" x2="1141.19" y2="914.88"/><rect class="cls-10" x="905.72" y="822.36" width="53.78" height="193.38"/><line class="cls-3" x1="950.46" y1="914.88" x2="914.75" y2="914.88"/><line class="cls-3" x1="950.46" y1="923.21" x2="914.75" y2="923.21"/><line class="cls-3" x1="950.46" y1="931.55" x2="914.75" y2="931.55"/><line class="cls-3" x1="950.46" y1="939.89" x2="914.75" y2="939.89"/><line class="cls-3" x1="950.46" y1="948.22" x2="914.75" y2="948.22"/><line class="cls-3" x1="950.46" y1="956.56" x2="914.75" y2="956.56"/><line class="cls-3" x1="950.46" y1="964.89" x2="914.75" y2="964.89"/><line class="cls-3" x1="950.46" y1="973.23" x2="914.75" y2="973.23"/><line class="cls-3" x1="950.46" y1="981.57" x2="914.75" y2="981.57"/><line class="cls-3" x1="950.46" y1="989.9" x2="914.75" y2="989.9"/><line class="cls-3" x1="950.46" y1="998.24" x2="914.75" y2="998.24"/><line class="cls-3" x1="950.46" y1="1006.57" x2="914.75" y2="1006.57"/><line class="cls-3" x1="950.46" y1="831.52" x2="914.75" y2="831.52"/><line class="cls-3" x1="950.46" y1="839.86" x2="914.75" y2="839.86"/><line class="cls-3" x1="950.46" y1="848.19" x2="914.75" y2="848.19"/><line class="cls-3" x1="950.46" y1="856.53" x2="914.75" y2="856.53"/><line class="cls-3" x1="950.46" y1="864.86" x2="914.75" y2="864.86"/><line class="cls-3" x1="950.46" y1="873.2" x2="914.75" y2="873.2"/><line class="cls-3" x1="950.46" y1="881.54" x2="914.75" y2="881.54"/><line class="cls-3" x1="950.46" y1="889.87" x2="914.75" y2="889.87"/><line class="cls-3" x1="950.46" y1="898.21" x2="914.75" y2="898.21"/><line class="cls-3" x1="950.46" y1="906.54" x2="914.75" y2="906.54"/><line class="cls-3" x1="950.46" y1="914.88" x2="914.75" y2="914.88"/><path class="cls-13" d="M959.49,822.36v193.38h172.67V822.36Zm91.1,9.16H1083v36h-32.36Zm0,42.37H1083v42h-32.36Zm0,48.34H1083v42h-32.36Zm-48.27,84.34H970v-36h32.36Zm0-42.36H970v-42h32.36Zm0-48.34H970v-42h32.36Zm0-48.35H970v-36h32.36Zm38.73,139.05h-32.36v-36h32.36Zm0-42.36h-32.36v-42h32.36Zm0-48.34h-32.36v-42h32.36Zm0-48.35h-32.36v-36h32.36Zm9.54,139.05v-36H1083v36Zm71.09,0h-32.36v-36h32.36Zm0-42.36h-32.36v-42h32.36Zm0-48.34h-32.36v-42h32.36Zm0-48.35h-32.36v-36h32.36Z"/><circle class="cls-11" cx="1042.64" cy="693.98" r="39.78"/><path class="cls-13" d="M1042.64,645.08a48.9,48.9,0,1,0,48.89,48.9A48.9,48.9,0,0,0,1042.64,645.08Zm0,9.12a39.79,39.79,0,0,1,39.62,36.07H1003A39.78,39.78,0,0,1,1042.64,654.2Zm0,79.56A39.78,39.78,0,0,1,1003,697.69h79.23A39.8,39.8,0,0,1,1042.64,733.76Z"/><rect class="cls-13" x="897.13" y="1335.64" width="163.24" height="27.79"/><rect class="cls-10" x="948.05" y="1101.29" width="102.55" height="234.35"/><rect class="cls-10" x="905.72" y="1101.29" width="42.33" height="234.35"/><rect class="cls-6" x="913.05" y="1260.07" width="27.66" height="65.91"/><rect class="cls-6" x="913.05" y="1185.78" width="27.66" height="65.91"/><rect class="cls-6" x="913.05" y="1110.94" width="27.66" height="65.91"/><rect class="cls-3" x="961.65" y="1233.98" width="75" height="92"/><rect class="cls-3" x="961.65" y="1110.94" width="75" height="92"/><circle class="cls-13" cx="959.24" cy="1217.83" r="5"/></g><g id="SIGN"><rect class="cls-13" x="1338.21" y="888.25" width="411.78" height="370.68"/><line class="cls-7" x1="1377.46" y1="906.72" x2="1416.5" y2="852.07"/><line class="cls-7" x1="1712.5" y1="906.3" x2="1673.46" y2="852.07"/><circle class="cls-7" cx="1377.46" cy="906.3" r="4.77"/><circle class="cls-7" cx="1712.5" cy="906.3" r="4.77"/><rect class="cls-6" x="1384.17" y="999.09" width="328.47" height="114.76" transform="translate(644.14 -585.48) rotate(26.85)"/><path d="M1475,1028.36a15.25,15.25,0,0,1-6,6.45,16.13,16.13,0,0,1-9,2,26.65,26.65,0,0,1-10.84-3.11q-6.84-3.46-10-8.31a16.88,16.88,0,0,1-2.61-7.57,12.61,12.61,0,0,1,1.09-7,4.59,4.59,0,0,1,6.29-2,4,4,0,0,1,2,2.22,8.45,8.45,0,0,1,.33,3.69,20.43,20.43,0,0,0,0,4.66,8.59,8.59,0,0,0,1.65,3.91,11.87,11.87,0,0,0,4.4,3.44,12.4,12.4,0,0,0,7.76,1.49,6.54,6.54,0,0,0,5-3.53,5.74,5.74,0,0,0,.49-4.45,10.08,10.08,0,0,0-2.52-4q-1.85-1.89-5.13-4.63a49,49,0,0,1-7-7,15.26,15.26,0,0,1-3.18-7,12.39,12.39,0,0,1,1.43-7.71,12.82,12.82,0,0,1,5.52-5.73,14.64,14.64,0,0,1,8.33-1.51,27.71,27.71,0,0,1,10.09,3.1,25.75,25.75,0,0,1,6.83,4.79,17.35,17.35,0,0,1,3.74,5.42,13.11,13.11,0,0,1,1.14,5.2,9.58,9.58,0,0,1-1,4.23,5,5,0,0,1-2.71,2.42,4.23,4.23,0,0,1-3.63-.15,3.79,3.79,0,0,1-2-2.05,11.8,11.8,0,0,1-.48-3.55,13.47,13.47,0,0,0-1-5.62c-.69-1.58-2.33-3-4.94-4.35a11.07,11.07,0,0,0-6.66-1.37,5.19,5.19,0,0,0-4.17,2.71,4.37,4.37,0,0,0-.46,2.78,7.07,7.07,0,0,0,1.21,2.79,15.18,15.18,0,0,0,2.1,2.5q1.15,1.09,3.88,3.47a77.65,77.65,0,0,1,6.06,5.61,24.06,24.06,0,0,1,4,5.41,12.45,12.45,0,0,1,1.45,5.75A14.3,14.3,0,0,1,1475,1028.36Z"/><path d="M1529.78,1014.43a27.79,27.79,0,0,1,10.88,9.18,21.2,21.2,0,0,1,3.6,12.25,31.58,31.58,0,0,1-3.74,14,35.31,35.31,0,0,1-6.39,9,23.81,23.81,0,0,1-8.21,5.4,21.43,21.43,0,0,1-9.63,1.31,28.92,28.92,0,0,1-10.55-3.2,28.55,28.55,0,0,1-8.83-6.68,21.49,21.49,0,0,1-4.67-8.56,23.72,23.72,0,0,1-.46-9.87,34.8,34.8,0,0,1,3.44-10.43,33.32,33.32,0,0,1,6.49-9,23.47,23.47,0,0,1,8.27-5.33,21.41,21.41,0,0,1,9.49-1.21A28.58,28.58,0,0,1,1529.78,1014.43Zm1.27,30.54a24.32,24.32,0,0,0,2.81-9.63,13.65,13.65,0,0,0-1.83-8,14.48,14.48,0,0,0-6-5.45,14.14,14.14,0,0,0-5.72-1.57,12.69,12.69,0,0,0-5.66,1,16.34,16.34,0,0,0-5.33,3.79,26,26,0,0,0-4.57,6.55,26.69,26.69,0,0,0-2.61,7.63,16.31,16.31,0,0,0,.13,6.71,13.3,13.3,0,0,0,2.57,5.25,13.92,13.92,0,0,0,19.77,2.08A24.13,24.13,0,0,0,1531.05,1045Z"/><path d="M1576.62,1045.28l-17,33.68,19,9.62a5.64,5.64,0,0,1,2.93,2.87,4.05,4.05,0,0,1-.19,3.4,4,4,0,0,1-2.6,2.15,5.76,5.76,0,0,1-4-.72L1552,1084.83c-2-1-3.28-2.23-3.72-3.59s-.14-3,.88-5.07l18-35.63a6.92,6.92,0,0,1,3.43-3.62,4.82,4.82,0,0,1,4.08.29,5,5,0,0,1,2.71,3.13A6.8,6.8,0,0,1,1576.62,1045.28Z"/><path d="M1624.46,1063.36l12.22,6.18a37.37,37.37,0,0,1,7.72,5,16.77,16.77,0,0,1,4.51,6.45q4.1,9.84-2.29,22.47a41.88,41.88,0,0,1-4.58,7.24,25.31,25.31,0,0,1-5.38,5.07,21.51,21.51,0,0,1-6.38,3,18,18,0,0,1-5.43.63,21.25,21.25,0,0,1-5.48-1,39.49,39.49,0,0,1-5.93-2.49l-12.22-6.18a8.67,8.67,0,0,1-3.46-2.73,4,4,0,0,1-.58-3,15.23,15.23,0,0,1,1.45-3.84l17.18-33.94q1.53-3,3.58-3.7C1620.75,1062.05,1622.44,1062.33,1624.46,1063.36Zm-.12,9.25-15.9,31.41,7.1,3.6c1.55.78,2.8,1.36,3.72,1.72a12.44,12.44,0,0,0,3.07.76,8.4,8.4,0,0,0,3.18-.17q6.72-1.61,11.64-11.32,3.46-6.85,3.12-11.31a10.27,10.27,0,0,0-2.9-6.92,28.23,28.23,0,0,0-6.85-4.64Z"/><rect class="cls-10" x="1778.25" y="853.52" width="37.13" height="709.09"/><polygon class="cls-11" points="1815.38 853.52 1778.25 853.52 1778.25 863.58 1815.38 853.52"/><path class="cls-10" d="M1815.38,853.52h-424A18.56,18.56,0,0,1,1372.83,835h0a18.56,18.56,0,0,1,18.56-18.57h424Z"/><polygon class="cls-8" points="1654.8 949.76 1660.63 937.07 1666.07 949.93 1679.97 948.64 1671.55 959.78 1679.62 971.17 1665.77 969.45 1659.94 982.13 1654.5 969.27 1640.6 970.57 1649.02 959.43 1640.94 948.04 1654.8 949.76"/></g><path id="CLOUD" class="cls-8" d="M1588.12,506.43H1258.21c1.54-2.13,14.86-20.08,38.77-20.87a48.45,48.45,0,0,1,28.34,8.11c-1.51-10.3-1.3-25,7.87-37.44,15.08-20.4,48.35-26.49,76.11-9.5,1.59-24.57,19.22-44.22,40.41-47.57,25.9-4.09,53.56,16.7,56.4,47.57,3.94-1.27,27.42-8.48,50.6,4.74C1587.08,468.8,1588.09,504.73,1588.12,506.43Z"/><g id="MAN"><path class="cls-10" d="M1179.21,1605.91c0-102.67-10.67-173.33-10.67-276a401.48,401.48,0,0,1-270.45-96.56,130.16,130.16,0,0,0-5.49,19.94c-2.46,13.69-4.32,34.8-2,64.51,4.7,59.42,22.51,276.7,22.51,276.7l126.66,6.4a293.49,293.49,0,0,0,139.41,5Z"/><polygon class="cls-11" points="1039.8 1600.9 972.66 1358.84 1024.3 1600.9 1039.8 1600.9"/><polyline class="cls-7" points="1168.54 1329.91 1129.99 1382.02 1146.71 1609.26"/><path class="cls-11" d="M898.09,1234.42c21.42,20.68,43.82,38.67,89,58.87,75.83,33.87,147.16,34.2,181.41,36.62V1352c-37.16-3.15-108.08-11-173.29-45.23C945.74,1280.74,921,1258.12,898.09,1234.42Z"/><line class="cls-7" x1="972.66" y1="1358.83" x2="953.2" y2="1341.05"/><path class="cls-18" d="M1421.94,1047.07h0a7.13,7.13,0,0,0-4.8-6.45l-21.84-7.54a8.66,8.66,0,0,1-3.07-14.52L1447.74,967a5.41,5.41,0,0,0,1.2-6.26h0a5.4,5.4,0,0,0-7.58-2.34l-46.39,27,49.21-41.91a9.22,9.22,0,0,0,1.59-12.29l-6.35-9.11A9.21,9.21,0,0,0,1427,919.5l-48.34,29.67L1402.15,922a4.51,4.51,0,0,0,0-5.93l-.06-.08a4.68,4.68,0,0,0-5.92-1,421.61,421.61,0,0,0-59.91,43.29,416.38,416.38,0,0,0-45.08,45.61l47.58,70.83,77.9-20.55A7.12,7.12,0,0,0,1421.94,1047.07Z"/><line class="cls-7" x1="1442.87" y1="927.04" x2="1398.49" y2="960"/><polygon class="cls-8" points="1488.5 1162.17 1520.28 1163.23 1542.88 1245.51 1513.04 1256.38 1488.5 1162.17"/><path class="cls-18" d="M1520.28,1163.23l36.88-22.88a29.17,29.17,0,0,1,7-3.16l34.17-10.22a6.38,6.38,0,0,1,7.09,2.52h0a6.36,6.36,0,0,1-.69,8l-17,17.61a3,3,0,0,0,2.49,5.07l82.88-9.17a5.39,5.39,0,0,1,5.52,3.18h0a5.38,5.38,0,0,1-3.17,7.26L1624.69,1179l63.87-9.94a9.22,9.22,0,0,1,10.35,6.82l2.76,10.75a9.22,9.22,0,0,1-6.12,11.08l-54,17.26h35.83a4.62,4.62,0,0,1,4.56,4h0a4.61,4.61,0,0,1-3.11,5,416,416,0,0,1-135.92,21.59Q1531.58,1204.38,1520.28,1163.23Z"/><line class="cls-7" x1="1700.17" y1="1180.76" x2="1646.23" y2="1192.88"/><path class="cls-19" d="M1304,857.35l-96.45-72.61-27.39,16.77s-64.72-13.5-118.66,14.93c-63.4,33.41-111.47,271.44-111.47,271.44L879,1206.28s49.34,120.89,309.71,123.63l47.88-175.4,45,120.19a55.26,55.26,0,0,0,66.26,34l167-45.43-28.32-108.71-109.3-.07c.11-.35,1.3-4.71-1.58-8.07a8.47,8.47,0,0,0-4.91-2.73q-6.53-89.82-13.07-179.63a93.57,93.57,0,0,0-33.11-64.84l-24-20.17Z"/><line class="cls-7" x1="1236.56" y1="1154.51" x2="1210.72" y2="1063.93"/><line class="cls-7" x1="1377.2" y1="1154.44" x2="1370.9" y2="1159.54"/><line class="cls-7" x1="1370.71" y1="1143.64" x2="1359.45" y2="1146.4"/><line class="cls-7" x1="957.88" y1="1280.19" x2="1019.99" y2="1169.63"/><path class="cls-7" d="M1180.19,801.51s55.94,52.37,120.34,77.49"/><path class="cls-12" d="M1369.66,1302.71l-21.84,5.94a55.27,55.27,0,0,1-66.26-33.94l-8.16-21.81c15.32-6,36.87-4.35,57.26,6C1351.56,1269.46,1365.87,1286.41,1369.66,1302.71Z"/><path class="cls-6" d="M1409.22,703.25a7,7,0,0,1-1.65,9.77,77,77,0,0,1-11.47,6.75A74.33,74.33,0,0,1,1343,724c-8.81,14-15.58,24.09-24.4,38.09l-9.33-6.35a16,16,0,1,0-29.55,10.06l-33.35,11.34,14-86.39s-5.66-59.26,79.44-31.35C1383.47,673.65,1402.26,693.57,1409.22,703.25Z"/><path class="cls-7" d="M1343,724c-5.87-1.05-22.37-7.77-22.37-7.77"/><path class="cls-7" d="M1343.93,703.6s-20.56,8.16-37.37,4.66a40.36,40.36,0,0,0,10.58-4.88,39.93,39.93,0,0,0,6.06-4.84"/><path class="cls-7" d="M1313.4,696.16s-9.84,7.18-26.09,2.62-26.91-8.08-26.91-8.08"/><path class="cls-18" d="M1381.07,797.08l-10.65,2.06-19,41.65a12.7,12.7,0,0,1-16.79,6.28l-21.71-9.85-13.65,16.51-86.42-65.06c19.38-6.59,47.52-16.33,66.9-22.92a16,16,0,1,1,29.55-10.06l9.33,6.35c8.82-14,15.59-24.1,24.4-38.09a85.46,85.46,0,0,0,27.33,2.58c11.45-.78,20.83-4.75,26.81-7.18l-17.75,57.24a13.65,13.65,0,0,0,1.13,11.06l2.72,4.73A3.17,3.17,0,0,1,1381.07,797.08Z"/><path class="cls-7" d="M1312.89,837.22l-6.45-3.21a20.4,20.4,0,0,1-11.23-19.49l1-15.89"/><ellipse class="cls-20" cx="1362.08" cy="772.55" rx="3.77" ry="2.53" transform="translate(288.8 1912.8) rotate(-76.29)"/><line class="cls-7" x1="1295.11" y1="752.07" x2="1299.87" y2="763.07"/><line class="cls-7" x1="1309.26" y1="755.69" x2="1310.24" y2="763.15"/><polygon class="cls-11" points="1279.71 765.75 1283.16 771.04 1272.09 768.34 1279.71 765.75"/><line class="cls-7" x1="1365.13" y1="810.7" x2="1353.46" y2="800.12"/><path class="cls-11" d="M1312.88,837.22l-10,12.14c-2.12-3.9-5.81-11.7-7.13-19.37a56.74,56.74,0,0,1-.5-15.47l0,.31a19.55,19.55,0,0,0,10.62,18.78Z"/><polygon class="cls-8" points="1212.81 788.67 1233.35 776.02 1303.58 848.48 1299.23 853.73 1212.81 788.67"/></g></svg>