<svg id="Слой_1" data-name="Слой 1" xmlns="http://www.w3.org/2000/svg" viewBox="0 0 2000 2000"><defs><style>.cls-1{fill:#f2e0ad;}.cls-1,.cls-10,.cls-11,.cls-18,.cls-2,.cls-20,.cls-21,.cls-3,.cls-4,.cls-5,.cls-6,.cls-7,.cls-8,.cls-9{stroke:#003a47;}.cls-1,.cls-13,.cls-2,.cls-6,.cls-9{stroke-linecap:round;}.cls-1,.cls-10,.cls-2,.cls-20,.cls-4,.cls-5,.cls-6,.cls-8,.cls-9{stroke-linejoin:round;}.cls-1,.cls-10,.cls-11,.cls-13,.cls-18,.cls-19,.cls-2,.cls-20,.cls-21,.cls-3,.cls-4,.cls-5,.cls-6,.cls-7,.cls-8,.cls-9{stroke-width:3px;}.cls-2{fill:#ffefcd;}.cls-12,.cls-3{fill:#f2d300;}.cls-11,.cls-13,.cls-18,.cls-19,.cls-21,.cls-22,.cls-3,.cls-7{stroke-miterlimit:10;}.cls-11,.cls-14,.cls-4,.cls-9{fill:#fff;}.cls-23,.cls-5{fill:#85aff6;}.cls-13,.cls-19,.cls-21,.cls-22,.cls-6{fill:none;}.cls-7{fill:#be5c4b;}.cls-17,.cls-8{fill:#003a47;}.cls-10,.cls-15{fill:#ff7a00;}.cls-13{stroke:#f2d300;}.cls-16,.cls-18,.cls-20{fill:#638000;}.cls-19,.cls-22{stroke:#fff;}.cls-22{stroke-width:4px;}</style></defs><g id="BUILDING"><rect class="cls-1" x="566.56" y="897.08" width="866.88" height="404.13"/><polygon class="cls-2" points="1722.68 1503.6 277.32 1503.6 566.56 1301.21 1433.43 1301.21 1722.68 1503.6"/><polygon class="cls-2" points="566.56 897.08 566.56 1301.21 277.32 1503.6 277.32 897.08 566.56 897.08"/><polygon class="cls-2" points="1722.68 897.08 1722.68 1503.6 1433.43 1301.21 1433.43 897.08 1722.68 897.08"/><rect class="cls-3" x="1229.04" y="1088.35" width="51.1" height="51.1"/><rect class="cls-4" x="1229.04" y="1037.25" width="51.1" height="51.1"/><rect class="cls-4" x="1280.14" y="1088.35" width="51.1" height="51.1"/><rect class="cls-3" x="1280.14" y="1037.25" width="51.1" height="51.1"/><rect class="cls-3" x="1331.24" y="1088.35" width="51.1" height="51.1"/><rect class="cls-4" x="1331.24" y="1037.25" width="51.1" height="51.1"/><rect class="cls-4" x="1382.34" y="1088.35" width="51.1" height="51.1"/><rect class="cls-3" x="1382.34" y="1037.25" width="51.1" height="51.1"/><polygon class="cls-4" points="1474.95 1044.86 1474.95 1100.32 1433.44 1088.36 1433.44 1037.25 1474.95 1044.86"/><polygon class="cls-3" points="1474.95 1100.32 1474.95 1155.76 1433.44 1139.45 1433.44 1088.36 1474.95 1100.32"/><polygon class="cls-4" points="1521.38 1113.69 1521.38 1173.99 1474.95 1155.76 1474.95 1100.32 1521.38 1113.69"/><polygon class="cls-3" points="1521.38 1053.37 1521.38 1113.69 1474.95 1100.32 1474.95 1044.86 1521.38 1053.37"/><polygon class="cls-4" points="1574.11 1063.03 1574.11 1128.88 1521.38 1113.69 1521.38 1053.37 1574.11 1063.03"/><polygon class="cls-3" points="1629.49 1073.18 1629.49 1144.83 1574.11 1128.88 1574.11 1063.03 1629.49 1073.18"/><polygon class="cls-4" points="1629.49 1144.83 1629.49 1216.46 1574.11 1194.71 1574.11 1128.88 1629.49 1144.83"/><polygon class="cls-4" points="1692.39 1084.71 1692.39 1162.96 1629.49 1144.83 1629.49 1073.18 1692.39 1084.71"/><polygon class="cls-3" points="1722.68 1090.26 1722.68 1171.68 1692.39 1162.96 1692.39 1084.71 1722.68 1090.26"/><polygon class="cls-4" points="1722.68 1171.68 1722.68 1253.07 1692.39 1241.17 1692.39 1162.96 1722.68 1171.68"/><polygon class="cls-3" points="1692.39 1162.96 1692.39 1241.17 1629.49 1216.46 1629.49 1144.83 1692.39 1162.96"/><polygon class="cls-3" points="1574.11 1128.88 1574.11 1194.71 1521.38 1173.99 1521.38 1113.69 1574.11 1128.88"/><polygon class="cls-4" points="1433.44 1037.25 1494.18 994.7 1629.49 994.7 1629.49 1073.18 1433.44 1037.25"/><rect class="cls-4" x="1534.55" y="897.08" width="53.35" height="97.62"/><rect class="cls-5" x="1587.9" y="897.08" width="41.59" height="97.62"/><polygon class="cls-5" points="1521.38 1053.34 1587.9 994.7 1629.49 994.7 1629.49 1073.18 1521.38 1053.34"/><path class="cls-3" d="M887.77,1301.35H591.2a45.81,45.81,0,0,1-44.73-35.9L527.31,1179a30.29,30.29,0,0,1,29.58-36.85h365.2A30.29,30.29,0,0,1,951.66,1179l-19.16,86.41A45.8,45.8,0,0,1,887.77,1301.35Z"/><path class="cls-3" d="M849.85,1233.13H629.13A33.92,33.92,0,0,1,596,1206.55l-15.23-68.68a39.76,39.76,0,0,1,38.82-48.37H859.38a39.76,39.76,0,0,1,38.82,48.37L883,1206.55A33.93,33.93,0,0,1,849.85,1233.13Z"/><path class="cls-6" d="M587,1248a50.76,50.76,0,0,1,35.9-14.87H856.05A50.76,50.76,0,0,1,891.94,1248"/><polygon class="cls-7" points="604 1326.3 597.09 1326.3 591.2 1301.35 609.88 1301.35 604 1326.3"/><polygon class="cls-7" points="887.48 1326.3 880.56 1326.3 874.68 1301.35 893.36 1301.35 887.48 1326.3"/><path class="cls-8" d="M662.47,1233.13A45.48,45.48,0,0,0,680,1145.68a46.84,46.84,0,0,1,33.64,45v42.5Z"/><circle class="cls-9" cx="662.7" cy="1187.66" r="45.47"/><circle class="cls-6" cx="662.7" cy="1187.66" r="14.7"/><line class="cls-6" x1="662.7" y1="1172.96" x2="662.7" y2="1164.7"/><line class="cls-6" x1="662.7" y1="1210.62" x2="662.7" y2="1202.36"/><line class="cls-6" x1="648" y1="1187.66" x2="639.74" y2="1187.66"/><line class="cls-6" x1="685.66" y1="1187.66" x2="677.4" y2="1187.66"/><rect class="cls-4" x="1000" y="1088.35" width="229.04" height="51.1"/><line class="cls-6" x1="1000" y1="1139.45" x2="1000" y2="1332.79"/><circle class="cls-3" cx="1014.38" cy="986.87" r="21.82"/><line class="cls-6" x1="1014.38" y1="950.88" x2="1014.38" y2="897.08"/><path class="cls-5" d="M1069.4,985.66H959.35c6.52-20,28.69-34.78,55-34.78S1062.88,965.63,1069.4,985.66Z"/><path class="cls-7" d="M1030.79,1184.87l-17.72,145.36a2.22,2.22,0,0,0,4.38.74l28.3-143a81.21,81.21,0,0,1-8.42-1.36C1035,1186.06,1032.81,1185.48,1030.79,1184.87Z"/><ellipse class="cls-7" cx="1062.01" cy="1177.04" rx="41.67" ry="11.81"/><path class="cls-7" d="M1093,1184.87l17.73,145.36a2.26,2.26,0,0,1-2.21,2.56,2.23,2.23,0,0,1-2.17-1.82l-28.31-143a80.78,80.78,0,0,0,8.42-1.36C1088.83,1186.06,1091,1185.48,1093,1184.87Z"/><polygon class="cls-7" points="1097.02 1283.72 1026.8 1283.72 1028.34 1275.94 1095.48 1275.94 1097.02 1283.72"/><path class="cls-7" d="M1138.07,1184.87l-17.73,145.36a2.26,2.26,0,0,0,2.21,2.56,2.23,2.23,0,0,0,2.17-1.82l28.31-143a80.78,80.78,0,0,1-8.42-1.36C1142.27,1186.06,1140.08,1185.48,1138.07,1184.87Z"/><ellipse class="cls-7" cx="1169.29" cy="1177.04" rx="41.67" ry="11.81"/><path class="cls-7" d="M1200.3,1184.87,1218,1330.23a2.26,2.26,0,0,1-2.21,2.56,2.23,2.23,0,0,1-2.18-1.82l-28.3-143a81.21,81.21,0,0,0,8.42-1.36C1196.1,1186.06,1198.28,1185.48,1200.3,1184.87Z"/><polygon class="cls-7" points="1204.29 1283.72 1134.08 1283.72 1135.62 1275.94 1202.76 1275.94 1204.29 1283.72"/><path class="cls-10" d="M1117.34,1071h31.74a0,0,0,0,1,0,0v15.87a15.87,15.87,0,0,1-15.87,15.87h0a15.87,15.87,0,0,1-15.87-15.87V1071A0,0,0,0,1,1117.34,1071Z"/><ellipse class="cls-8" cx="1132.94" cy="1071.21" rx="15.6" ry="3.73"/><path class="cls-11" d="M1122.4,1050.18c0,2.47-4,4.59-9.5,5.42-.84,5.56-2.94,9.49-5.42,9.49s-4.57-3.93-5.41-9.49c-5.55-.83-9.5-2.95-9.5-5.42s4-4.58,9.5-5.41c.84-5.56,3-9.51,5.41-9.51s4.58,4,5.42,9.51C1118.45,1045.6,1122.4,1047.71,1122.4,1050.18Z"/><circle class="cls-12" cx="1107.48" cy="1050.18" r="3.13"/><path class="cls-11" d="M1164,1071.21c0,2.47-4,4.59-9.51,5.43-.84,5.55-2.94,9.49-5.41,9.49s-4.57-3.94-5.41-9.49c-5.55-.84-9.5-3-9.5-5.43s3.95-4.57,9.5-5.41c.84-5.55,2.95-9.5,5.41-9.5s4.57,4,5.41,9.5C1160.05,1066.64,1164,1068.74,1164,1071.21Z"/><circle class="cls-12" cx="1149.08" cy="1071.21" r="3.13"/><path class="cls-11" d="M1148,1028.38c0,2.47-4,4.58-9.5,5.42-.84,5.55-3,9.49-5.42,9.49s-4.57-3.94-5.41-9.49c-5.55-.84-9.5-3-9.5-5.42s3.95-4.58,9.5-5.42c.84-5.55,3-9.5,5.41-9.5s4.58,3.95,5.42,9.5C1144.05,1023.8,1148,1025.9,1148,1028.38Z"/><circle class="cls-12" cx="1133.08" cy="1028.38" r="3.13"/><polyline class="cls-6" points="1112.9 1055.6 1132.94 1074.94 1132.94 1043.29"/><polygon class="cls-4" points="1229.04 1332.79 1229.04 1503.6 1625.59 1503.6 1410.42 1332.79 1229.04 1332.79"/><line class="cls-6" x1="1274.39" y1="1332.79" x2="1317.73" y2="1503.6"/><line class="cls-6" x1="1319.73" y1="1332.79" x2="1417.26" y2="1503.6"/><line class="cls-6" x1="1365.08" y1="1332.79" x2="1516.78" y2="1503.6"/><rect class="cls-7" x="1280.14" y="971.55" width="153.3" height="12.31"/><polygon class="cls-8" points="1280.14 983.86 1433.44 983.86 1433.44 992.6 1280.14 983.86"/><path class="cls-4" d="M1315,1015l-1.45,1.45a11.65,11.65,0,0,1-16.46,0l-6.9-6.9c1.16,1.16,6.11-1.91,11.06-6.86s8-9.89,6.85-11.05l6.9,6.9A11.63,11.63,0,0,1,1315,1015Z"/><ellipse class="cls-8" cx="1299.09" cy="1000.63" rx="12.66" ry="2.97" transform="translate(-327.06 1211.68) rotate(-45)"/><path class="cls-6" d="M1310.08,987.35h4.08a4.33,4.33,0,0,1,4.33,4.33v.56a4.33,4.33,0,0,1-4.33,4.33h-4.08a0,0,0,0,1,0,0v-9.22A0,0,0,0,1,1310.08,987.35Z" transform="translate(-316.48 1219.88) rotate(-45)"/><path class="cls-3" d="M1364.8,1015l-1.45,1.45a11.65,11.65,0,0,1-16.46,0l-6.91-6.9c1.17,1.16,6.12-1.91,11.06-6.86s8-9.89,6.85-11.05l6.91,6.9A11.65,11.65,0,0,1,1364.8,1015Z"/><ellipse class="cls-8" cx="1348.94" cy="1000.63" rx="12.66" ry="2.97" transform="translate(-312.46 1246.92) rotate(-45)"/><path class="cls-6" d="M1359.92,987.35H1364a4.33,4.33,0,0,1,4.33,4.33v.56a4.33,4.33,0,0,1-4.33,4.33h-4.08a0,0,0,0,1,0,0v-9.22a0,0,0,0,1,0,0Z" transform="translate(-301.88 1255.13) rotate(-45)"/><path class="cls-10" d="M1414.64,1015l-1.45,1.45a11.65,11.65,0,0,1-16.46,0l-6.9-6.9c1.16,1.16,6.11-1.91,11.06-6.86s8-9.89,6.85-11.05l6.9,6.9A11.63,11.63,0,0,1,1414.64,1015Z"/><ellipse class="cls-8" cx="1398.79" cy="1000.63" rx="12.66" ry="2.97" transform="translate(-297.86 1282.17) rotate(-45)"/><path class="cls-6" d="M1409.77,987.35h4.08a4.33,4.33,0,0,1,4.33,4.33v.56a4.33,4.33,0,0,1-4.33,4.33h-4.08a0,0,0,0,1,0,0v-9.22A0,0,0,0,1,1409.77,987.35Z" transform="translate(-287.28 1290.37) rotate(-45)"/><circle class="cls-4" cx="1383.08" cy="939.89" r="30.86"/><circle class="cls-13" cx="1383.08" cy="939.89" r="21.67"/><path class="cls-8" d="M1413.94,939.89v31.66h-30.86a33,33,0,0,0,20.13-8.27C1413.27,954.22,1413.87,942.1,1413.94,939.89Z"/><rect class="cls-5" x="563.49" y="1352.08" width="484.89" height="111.16" rx="54.75"/><path class="cls-14" d="M986.88,1445.78H624.16a36.11,36.11,0,0,1-36.08-36.08v-4.24a36.12,36.12,0,0,1,36.08-36.08H986.88a36.12,36.12,0,0,1,36.08,36.08v4.24A36.11,36.11,0,0,1,986.88,1445.78Zm-362.72-66.4a26.11,26.11,0,0,0-26.08,26.08v4.24a26.11,26.11,0,0,0,26.08,26.08H986.88A26.11,26.11,0,0,0,1013,1409.7v-4.24a26.11,26.11,0,0,0-26.08-26.08Z"/><path class="cls-14" d="M962.4,1412.66H653.82a5,5,0,1,1,0-10H962.4a5,5,0,0,1,0,10Z"/><rect class="cls-6" x="852.88" y="997.28" width="46.99" height="57.49" rx="23.5"/><rect class="cls-15" x="860.12" y="1006.14" width="32.51" height="39.77" rx="16.25"/><rect class="cls-6" x="723.13" y="921.77" width="106.05" height="122.49"/><rect class="cls-14" x="732.27" y="932.55" width="87.78" height="100.94"/><path class="cls-16" d="M732.27,1033.48v-31l28.47-14.63a16.93,16.93,0,0,1,19.69,3l17.93,17.82,21.68-8v32.72Z"/><rect class="cls-6" x="732.27" y="932.55" width="87.78" height="100.94"/><circle class="cls-12" cx="796.73" cy="963.22" r="9.8"/><polygon class="cls-17" points="798.36 1008.75 777.88 1015.92 780.43 990.93 798.36 1008.75"/><line class="cls-6" x1="503.29" y1="1346.32" x2="503.29" y2="1061.63"/><line class="cls-6" x1="450.16" y1="1094.31" x2="603.01" y2="998.27"/><path class="cls-9" d="M542.78,1373.38l-39.49-27.63-39.5,27.63a133.2,133.2,0,0,0,79,0Z"/><path class="cls-9" d="M666.52,998.36c-4.6-3.66-19.64-1.22-35.8,6.1-15.8,7.16-27.37,16.61-28.15,22.51l-.69-47.15a17,17,0,0,1,27.94-13.09Z"/><ellipse class="cls-10" cx="635.24" cy="1014.43" rx="35.57" ry="10.94" transform="translate(-362.31 353.01) rotate(-24.4)"/><path class="cls-9" d="M640.77,1000.41a10.11,10.11,0,1,1-18.42,8.35c2.53-1.44,5.32-2.89,8.37-4.3C634.26,1002.83,637.64,1001.5,640.77,1000.41Z"/><path class="cls-8" d="M503.33,1379.37a133.51,133.51,0,0,1-39.54-6l-15.39,10.77Z"/><polygon class="cls-4" points="1722.68 1253.08 1433.44 1139.45 1229.04 1139.45 1229.04 1194.71 1410.42 1194.71 1625.59 1309.46 1722.68 1309.46 1722.68 1253.08"/><rect class="cls-18" x="1229.04" y="1194.71" width="181.38" height="138.08"/><line class="cls-6" x1="1319.73" y1="1332.79" x2="1319.73" y2="1194.71"/><line class="cls-13" x1="1305.69" y1="1216.46" x2="1305.69" y2="1235.56"/><line class="cls-13" x1="1334.95" y1="1216.46" x2="1334.95" y2="1235.56"/><rect class="cls-8" x="1625.59" y="1309.46" width="97.09" height="194.15"/><polygon class="cls-18" points="1497.43 1282.4 1497.43 1401.86 1625.59 1503.6 1625.59 1363.52 1497.43 1282.4"/><line class="cls-6" x1="1625.59" y1="1435.67" x2="1497.43" y2="1345.99"/><line class="cls-13" x1="1539.79" y1="1322.62" x2="1559.05" y2="1334.81"/><line class="cls-13" x1="1539.79" y1="1388.72" x2="1559.05" y2="1403.08"/><polygon class="cls-3" points="1497.43 1241.18 1497.43 1282.4 1625.59 1363.52 1625.59 1309.46 1497.43 1241.18"/><line class="cls-6" x1="1551.41" y1="1316.57" x2="1551.41" y2="1269.9"/><line class="cls-6" x1="1576.16" y1="1295.03" x2="1594.03" y2="1304.9"/><line class="cls-6" x1="1518.01" y1="1262.72" x2="1529.19" y2="1268.89"/><polygon class="cls-8" points="1410.42 1194.71 1574.12 1194.71 1692.39 1241.18 1497.43 1241.18 1410.42 1194.71"/><polygon class="cls-5" points="1410.42 1332.79 1410.42 1194.71 1497.43 1241.18 1497.43 1401.86 1410.42 1332.79"/><circle class="cls-4" cx="1429.67" cy="1228.64" r="5.01"/><circle class="cls-4" cx="1453.63" cy="1240.57" r="5.01"/><circle class="cls-4" cx="1479.75" cy="1254.15" r="5.01"/><polygon class="cls-8" points="1481.81 1278.25 1481.81 1337.23 1425.45 1301.21 1425.45 1245.01 1481.81 1278.25"/><line class="cls-19" x1="1434.68" y1="1295.03" x2="1468.38" y2="1279.83"/><line class="cls-19" x1="1455.87" y1="1297.19" x2="1472.72" y2="1289.58"/><path class="cls-10" d="M449.57,1393.1v28.76a41.18,41.18,0,0,1-82.35,0V1393.1a9,9,0,0,0,8.95,9h64.45a8.95,8.95,0,0,0,8.95-9Z"/><rect class="cls-8" x="367.22" y="1384.15" width="82.34" height="17.9" rx="8.95"/><path class="cls-20" d="M408.4,1402.05a538,538,0,0,0,13-146.31A538.19,538.19,0,0,0,398,1123.07a448.57,448.57,0,0,0,10.43,279Z"/><path class="cls-18" d="M408.4,1402.05a236.9,236.9,0,0,0-30.26-104.11A232.3,232.3,0,0,0,338,1246.09a276.32,276.32,0,0,0,57.21,156Z"/><path class="cls-18" d="M408.4,1402.05a397.73,397.73,0,0,1,71.41-201.23,322.64,322.64,0,0,1-63.54,201.23Z"/><line class="cls-6" x1="401.3" y1="1402.05" x2="364.42" y2="1308.61"/><line class="cls-6" x1="408.4" y1="1402.05" x2="397.97" y2="1123.07"/><line class="cls-6" x1="449.24" y1="1308.61" x2="412.08" y2="1402.05"/><path class="cls-8" d="M370.64,1438.3l-39.88,27.91L408.4,1463c-3.55.06-16.31-.17-27.17-9.65A39.24,39.24,0,0,1,370.64,1438.3Z"/><path class="cls-10" d="M1590.46,1211.27a105.3,105.3,0,0,1-60.07,0v-15.62a30,30,0,1,1,60.07,0Z"/><path class="cls-6" d="M1590.46,1195.05v-19.67a30,30,0,0,0-30-30h0a30,30,0,0,0-30,30v19.67"/><path class="cls-10" d="M1530.39,1211.33l-17.31-25.42a4.17,4.17,0,0,1-.73-2.37h0a4.2,4.2,0,0,1,6.88-3.23l11.16,9.27Z"/><circle class="cls-8" cx="1516.52" cy="1183.51" r="4.17"/><rect class="cls-1" x="236.04" y="859.17" width="1527.92" height="37.91"/><rect class="cls-1" x="236.04" y="1498.71" width="1527.92" height="53.26"/><polyline class="cls-6" points="275.27 1693.24 275.27 1551.97 1720.63 1551.97 1720.63 1693.24"/><line class="cls-6" x1="275.27" y1="1625.85" x2="410.27" y2="1625.85"/><line class="cls-6" x1="349.11" y1="1671.72" x2="349.11" y2="1625.85"/><line class="cls-6" x1="593.44" y1="1625.85" x2="699.53" y2="1625.85"/><line class="cls-6" x1="669.97" y1="1586.05" x2="669.97" y2="1625.85"/><line class="cls-6" x1="1643.71" y1="1616.15" x2="1643.71" y2="1650.81"/><line class="cls-6" x1="1610.89" y1="1650.81" x2="1720.63" y2="1650.81"/><rect class="cls-8" x="275.27" y="1551.97" width="1445.36" height="13.71"/><line class="cls-6" x1="1229.04" y1="1567.5" x2="1229.04" y2="1623.5"/><line class="cls-6" x1="1141.85" y1="1625.85" x2="1266.74" y2="1625.85"/><line class="cls-6" x1="1164" y1="1636.69" x2="1164" y2="1665.99"/><rect class="cls-9" x="277.32" y="360.01" width="1445.36" height="499.15"/><rect class="cls-1" x="236.04" y="306.76" width="1527.92" height="53.26"/><line class="cls-6" x1="277.32" y1="482.27" x2="412.32" y2="482.27"/><line class="cls-6" x1="351.16" y1="528.14" x2="351.16" y2="482.27"/><line class="cls-6" x1="303.25" y1="543.43" x2="412.32" y2="543.43"/><line class="cls-6" x1="381.74" y1="814.32" x2="277.32" y2="814.32"/><line class="cls-6" x1="351.16" y1="760.67" x2="351.16" y2="803.48"/><line class="cls-6" x1="735.39" y1="583.23" x2="841.48" y2="583.23"/><line class="cls-6" x1="811.92" y1="543.43" x2="811.92" y2="583.23"/><line class="cls-6" x1="754.83" y1="613.77" x2="754.83" y2="649.44"/><line class="cls-6" x1="712.02" y1="649.44" x2="811.92" y2="649.44"/><line class="cls-6" x1="923.82" y1="771.5" x2="923.82" y2="814.32"/><line class="cls-6" x1="846.29" y1="819.41" x2="1050.23" y2="819.41"/><line class="cls-6" x1="787.87" y1="819.41" x2="807.51" y2="819.41"/><line class="cls-6" x1="999.74" y1="859.17" x2="999.74" y2="819.41"/><line class="cls-6" x1="1158.5" y1="583.23" x2="1227.82" y2="583.23"/><line class="cls-6" x1="1187.05" y1="360.01" x2="1187.05" y2="416.01"/><line class="cls-6" x1="1146.27" y1="416.01" x2="1227.82" y2="416.01"/><line class="cls-6" x1="1578.06" y1="419.49" x2="1578.06" y2="452.11"/><line class="cls-6" x1="1554.64" y1="462.95" x2="1671.25" y2="462.95"/><line class="cls-6" x1="1645.77" y1="494.23" x2="1645.77" y2="528.89"/><line class="cls-6" x1="1612.94" y1="528.89" x2="1722.68" y2="528.89"/><line class="cls-6" x1="1722.68" y1="649.44" x2="1645.77" y2="649.44"/><line class="cls-6" x1="1587.9" y1="715.56" x2="1587.9" y2="759.27"/><line class="cls-6" x1="1539.75" y1="759.27" x2="1636.59" y2="759.27"/><line class="cls-6" x1="1296.06" y1="793.93" x2="1296.06" y2="834.7"/><line class="cls-6" x1="1722.68" y1="819.41" x2="1588.17" y2="819.41"/><polygon class="cls-8" points="668.16 726.64 497.49 726.64 486.66 715.56 679 715.56 668.16 726.64"/><rect class="cls-8" x="277.32" y="360.01" width="1445.36" height="13.71"/><path class="cls-21" d="M998.39,424.52c-41.84,0-75.85,31.19-75.85,69.53V695.42h151.7V494.05C1074.24,455.71,1040.21,424.52,998.39,424.52Z"/><path class="cls-1" d="M997.44,404.38c-53,.52-95.22,44.45-95.22,97.39V715.56h192.34v-215A96.28,96.28,0,0,0,997.44,404.38Zm76.8,291H922.54V494.05c0-38.34,34-69.53,75.85-69.53s75.85,31.19,75.85,69.53Z"/><path class="cls-12" d="M1062.05,683.06H934.73V500.55a63.66,63.66,0,1,1,127.32,0Z"/><line class="cls-22" x1="1069.9" y1="550.72" x2="927.95" y2="550.72"/><polygon class="cls-8" points="1083.72 726.64 913.05 726.64 902.21 715.56 1094.55 715.56 1083.72 726.64"/><rect class="cls-17" x="934.72" y="599.1" width="127.33" height="83.96"/><path class="cls-1" d="M1413,404.38c-52.94.52-95.21,44.45-95.21,97.39V715.56h192.34v-215A96.29,96.29,0,0,0,1413,404.38Zm76.81,291H1338.1V494.05c0-38.34,34-69.53,75.85-69.53s75.85,31.19,75.85,69.53Z"/><path class="cls-21" d="M1414,424.52c-41.84,0-75.85,31.19-75.85,69.53V695.42h151.7V494.05C1489.8,455.71,1455.76,424.52,1414,424.52Z"/><path class="cls-12" d="M1477.61,500.55V683.06H1350.29V500.55a63.66,63.66,0,1,1,127.32,0Z"/><line class="cls-6" x1="1489.79" y1="550.72" x2="1338.09" y2="550.72"/><polygon class="cls-8" points="1499.28 726.64 1328.61 726.64 1317.77 715.56 1510.11 715.56 1499.28 726.64"/><line class="cls-22" x1="1388.9" y1="524.66" x2="1433.44" y2="480.13"/><path class="cls-1" d="M581.87,404.38c-52.94.52-95.21,44.45-95.21,97.39V715.56H679v-215A96.29,96.29,0,0,0,581.87,404.38Zm76.81,291H507V494.05c0-38.34,34-69.53,75.85-69.53s75.85,31.19,75.85,69.53Z"/><path class="cls-17" d="M646.49,500.55V683.06H519.17V500.55a63.66,63.66,0,1,1,127.32,0Z"/><path class="cls-23" d="M558,441.92V683.05H519.17V500.55A63.74,63.74,0,0,1,558,441.92Z"/><line class="cls-22" x1="653.26" y1="550.72" x2="512.39" y2="550.72"/><line class="cls-22" x1="547.07" y1="623.23" x2="597.22" y2="573.08"/></g></svg>