<svg id="Слой_1" data-name="Слой 1" xmlns="http://www.w3.org/2000/svg" viewBox="0 0 2000 2000"><defs><style>.cls-1,.cls-10{fill:#fff;}.cls-1,.cls-10,.cls-14,.cls-15,.cls-16,.cls-2,.cls-20,.cls-21,.cls-23,.cls-3,.cls-4,.cls-5,.cls-6,.cls-8,.cls-9{stroke:#003a47;}.cls-1,.cls-13,.cls-14,.cls-15,.cls-16,.cls-17,.cls-2,.cls-20,.cls-23,.cls-3,.cls-4,.cls-5,.cls-6,.cls-8{stroke-linejoin:round;}.cls-1,.cls-10,.cls-13,.cls-14,.cls-15,.cls-16,.cls-17,.cls-18,.cls-2,.cls-20,.cls-21,.cls-22,.cls-23,.cls-3,.cls-4,.cls-5,.cls-6,.cls-8,.cls-9{stroke-width:3px;}.cls-12,.cls-2{fill:#85aff6;}.cls-3,.cls-7{fill:#cedffb;}.cls-13,.cls-17,.cls-18,.cls-22,.cls-4,.cls-6{fill:none;}.cls-19,.cls-5{fill:#003a47;}.cls-13,.cls-18,.cls-22,.cls-6{stroke-linecap:round;}.cls-8{fill:#ff7a00;}.cls-9{fill:#638000;}.cls-10,.cls-18,.cls-21,.cls-22,.cls-9{stroke-miterlimit:10;}.cls-11,.cls-14{fill:#f2d300;}.cls-13,.cls-18{stroke:#fff;}.cls-15{fill:#c46855;}.cls-16{fill:#94424f;}.cls-17{stroke:#284682;}.cls-20{fill:#5e4650;}.cls-21,.cls-23{fill:#ffc4c8;}.cls-22{stroke:#f2d300;}</style></defs><g id="HOUSE"><polygon class="cls-1" points="1395.42 732.02 1078.8 405.97 762.18 732.02 762.18 1301.24 1395.42 1301.24 1395.42 732.02"/><rect class="cls-2" x="436.18" y="732.02" width="326" height="150.51"/><rect class="cls-3" x="273.18" y="882.54" width="391.2" height="418.7"/><rect class="cls-1" x="664.38" y="882.54" width="97.8" height="418.7"/><rect class="cls-1" x="931.74" y="1266.36" width="300" height="34.88"/><rect class="cls-1" x="953.47" y="1231.48" width="256.54" height="34.88"/><polygon class="cls-1" points="1098.8 405.97 782.18 732.02 243.18 732.02 559.8 405.97 1098.8 405.97"/><rect class="cls-3" x="809.19" y="349.06" width="74.44" height="126.02"/><polygon class="cls-1" points="946.87 349.06 946.87 405.96 883.63 475.08 883.63 349.06 946.87 349.06"/><rect class="cls-4" x="799.54" y="330.11" width="94.14" height="18.95"/><rect class="cls-4" x="893.68" y="330.11" width="64.08" height="18.95"/><polygon class="cls-5" points="809.18 475.08 809.18 405.97 785.02 405.97 809.18 475.08"/><line class="cls-4" x1="809.19" y1="405.97" x2="846.61" y2="405.97"/><line class="cls-4" x1="827.9" y1="422.42" x2="827.9" y2="405.97"/><polyline class="cls-4" points="855.8 376.84 883.63 376.84 912.15 376.84"/><line class="cls-4" x1="899.16" y1="361.18" x2="899.16" y2="376.84"/><line class="cls-4" x1="882.37" y1="405.97" x2="899.16" y2="405.97"/><line class="cls-4" x1="883.97" y1="436.87" x2="846.61" y2="436.87"/><path class="cls-3" d="M1078.8,786.92h0a102,102,0,0,1,102,102v342.61a0,0,0,0,1,0,0H976.85a0,0,0,0,1,0,0V888.87A102,102,0,0,1,1078.8,786.92Z"/><path class="cls-1" d="M1078.8,825.83h0A68.19,68.19,0,0,1,1147,894V1096a0,0,0,0,1,0,0H1010.61a0,0,0,0,1,0,0V894A68.19,68.19,0,0,1,1078.8,825.83Z"/><line class="cls-6" x1="1078.8" y1="825.83" x2="1078.8" y2="1095.97"/><line class="cls-6" x1="1010.61" y1="1028.43" x2="1146.99" y2="1028.43"/><line class="cls-6" x1="1010.61" y1="960.9" x2="1146.99" y2="960.9"/><line class="cls-6" x1="1010.61" y1="893.37" x2="1146.99" y2="893.37"/><rect class="cls-1" x="1049.85" y="1118.38" width="57.91" height="12.51"/><line class="cls-1" x1="273.18" y1="810.03" x2="273.18" y2="752.29"/><rect class="cls-4" x="273.18" y="810.03" width="489" height="72.51"/><line class="cls-4" x1="305.78" y1="810.03" x2="305.78" y2="882.54"/><line class="cls-4" x1="338.38" y1="810.03" x2="338.38" y2="882.54"/><line class="cls-4" x1="370.98" y1="810.03" x2="370.98" y2="882.54"/><line class="cls-4" x1="403.58" y1="810.03" x2="403.58" y2="882.54"/><line class="cls-4" x1="436.18" y1="810.03" x2="436.18" y2="882.54"/><line class="cls-4" x1="468.78" y1="810.03" x2="468.78" y2="882.54"/><line class="cls-4" x1="501.38" y1="810.03" x2="501.38" y2="882.54"/><line class="cls-4" x1="533.98" y1="810.03" x2="533.98" y2="882.54"/><line class="cls-4" x1="566.58" y1="810.03" x2="566.58" y2="882.54"/><line class="cls-4" x1="599.18" y1="810.03" x2="599.18" y2="882.54"/><line class="cls-4" x1="631.78" y1="810.03" x2="631.78" y2="882.54"/><line class="cls-4" x1="664.38" y1="752.29" x2="664.38" y2="882.54"/><line class="cls-4" x1="696.98" y1="810.03" x2="696.98" y2="882.54"/><line class="cls-4" x1="729.58" y1="810.03" x2="729.58" y2="882.54"/><path class="cls-7" d="M870.51,892h0a51.2,51.2,0,0,1,51.2,51.2V1145.3a0,0,0,0,1,0,0H819.32a0,0,0,0,1,0,0V943.16A51.2,51.2,0,0,1,870.51,892Z"/><path class="cls-4" d="M870.51,882.54h0a60,60,0,0,1,60,60v212.28a0,0,0,0,1,0,0h-120a0,0,0,0,1,0,0V942.54A60,60,0,0,1,870.51,882.54Z"/><line class="cls-6" x1="870.51" y1="891.96" x2="870.51" y2="1145.3"/><line class="cls-6" x1="819.32" y1="1081.97" x2="921.71" y2="1081.97"/><line class="cls-6" x1="819.32" y1="1018.63" x2="921.71" y2="1018.63"/><line class="cls-6" x1="819.32" y1="955.3" x2="921.71" y2="955.3"/><path class="cls-7" d="M1289.74,892h0a51.2,51.2,0,0,1,51.2,51.2V1145.3a0,0,0,0,1,0,0H1238.54a0,0,0,0,1,0,0V943.16A51.2,51.2,0,0,1,1289.74,892Z"/><path class="cls-4" d="M1289.74,882.54h0a60,60,0,0,1,60,60v212.28a0,0,0,0,1,0,0h-120a0,0,0,0,1,0,0V942.54a60,60,0,0,1,60-60Z"/><line class="cls-6" x1="1289.74" y1="891.96" x2="1289.74" y2="1145.3"/><line class="cls-6" x1="1238.54" y1="1081.97" x2="1340.93" y2="1081.97"/><line class="cls-6" x1="1238.54" y1="1018.63" x2="1340.93" y2="1018.63"/><line class="cls-6" x1="1238.54" y1="955.3" x2="1340.93" y2="955.3"/><rect class="cls-1" x="243.18" y="732.02" width="539" height="20.26"/><path class="cls-7" d="M1078.8,512.88h0a51.2,51.2,0,0,1,51.2,51.2V693.22a0,0,0,0,1,0,0H1027.6a0,0,0,0,1,0,0V564.08a51.2,51.2,0,0,1,51.2-51.2Z"/><path class="cls-4" d="M1078.8,503.45h0a60,60,0,0,1,60,60V702.88a0,0,0,0,1,0,0h-120a0,0,0,0,1,0,0V563.45A60,60,0,0,1,1078.8,503.45Z"/><line class="cls-6" x1="1078.8" y1="512.88" x2="1078.8" y2="693.22"/><line class="cls-6" x1="1027.6" y1="639.55" x2="1130" y2="639.55"/><line class="cls-6" x1="1027.6" y1="576.21" x2="1130" y2="576.21"/><rect class="cls-8" x="1018.8" y="681.52" width="120" height="21.37"/><path class="cls-9" d="M1018.8,681.52h120c0-.28-.72-6-5.82-8.31a10.38,10.38,0,0,0-8.2,0c.34-5.5-3.43-10-7.7-10.6-5-.68-10.6,4-10.39,10.6a20.8,20.8,0,0,0-15.55-5.65,20.32,20.32,0,0,0-12.34,5.65c.73-10.33-7.83-18.56-16.78-18-8.28.52-15.44,8.49-14.7,18a8.48,8.48,0,0,0-15.55,0c-3.85-2.21-8.45-1.63-11,1.13S1018.72,681,1018.8,681.52Z"/><path class="cls-10" d="M1110.87,645.32c0,1.5-2.4,2.78-5.78,3.29-.51,3.38-1.79,5.77-3.29,5.77s-2.78-2.39-3.29-5.77c-3.37-.51-5.77-1.79-5.77-3.29s2.4-2.78,5.77-3.29c.51-3.38,1.8-5.78,3.29-5.78s2.78,2.4,3.29,5.78C1108.47,642.54,1110.87,643.81,1110.87,645.32Z"/><circle class="cls-11" cx="1101.8" cy="645.32" r="1.9"/><path class="cls-10" d="M1075,680.64c0,1.5-2.4,2.79-5.78,3.3-.51,3.37-1.78,5.77-3.29,5.77s-2.78-2.4-3.29-5.77c-3.37-.51-5.77-1.8-5.77-3.3s2.4-2.78,5.77-3.29c.51-3.37,1.8-5.78,3.29-5.78s2.78,2.41,3.29,5.78C1072.61,677.86,1075,679.14,1075,680.64Z"/><circle class="cls-11" cx="1065.94" cy="680.64" r="1.9"/><path class="cls-10" d="M1044.14,654.5c0,1.5-2.4,2.79-5.78,3.29-.51,3.38-1.78,5.77-3.29,5.77s-2.78-2.39-3.29-5.77c-3.37-.5-5.77-1.79-5.77-3.29s2.4-2.78,5.77-3.29c.51-3.38,1.8-5.78,3.29-5.78s2.78,2.4,3.29,5.78C1041.74,651.72,1044.14,653,1044.14,654.5Z"/><circle class="cls-11" cx="1035.07" cy="654.5" r="1.9"/><polygon class="cls-5" points="1415.68 732.02 1415.68 752.28 1395.42 752.28 1395.42 732.02 1395.41 732.02 1088.8 416.89 1098.8 405.96 1415.41 732.02 1415.68 732.02"/><rect class="cls-1" x="305.78" y="949.92" width="326" height="252.91"/><rect class="cls-12" x="318.65" y="961.15" width="300" height="230.45"/><line class="cls-4" x1="498.65" y1="961.15" x2="498.65" y2="1191.6"/><line class="cls-4" x1="558.65" y1="961.15" x2="558.65" y2="1191.6"/><line class="cls-4" x1="438.65" y1="961.15" x2="438.65" y2="1191.6"/><line class="cls-4" x1="378.65" y1="961.15" x2="378.65" y2="1191.6"/><line class="cls-4" x1="318.65" y1="1018.76" x2="618.65" y2="1018.76"/><line class="cls-4" x1="318.65" y1="1076.38" x2="618.65" y2="1076.38"/><line class="cls-4" x1="318.65" y1="1133.99" x2="618.65" y2="1133.99"/><line class="cls-13" x1="454.8" y1="1114.72" x2="482.76" y2="1090.49"/><line class="cls-13" x1="573.99" y1="1006.17" x2="601.96" y2="981.94"/><line class="cls-13" x1="447.98" y1="1066.25" x2="488.2" y2="1031.36"/><line class="cls-4" x1="1343.93" y1="1237.11" x2="1395.86" y2="1237.11"/><line class="cls-4" x1="1367.33" y1="1237.11" x2="1367.33" y2="1260.73"/><line class="cls-4" x1="1186.61" y1="702.88" x2="1238.54" y2="702.88"/><line class="cls-4" x1="1259.88" y1="702.88" x2="1273.97" y2="702.88"/><line class="cls-4" x1="1210.01" y1="702.88" x2="1210.01" y2="726.5"/><line class="cls-4" x1="994.19" y1="766.54" x2="932.27" y2="766.54"/><line class="cls-4" x1="920.93" y1="766.54" x2="906.84" y2="766.54"/><line class="cls-4" x1="970.8" y1="766.54" x2="970.8" y2="742.92"/><line class="cls-4" x1="930.52" y1="1191.6" x2="870.52" y2="1191.6"/><line class="cls-4" x1="912" y1="1191.6" x2="912" y2="1208.14"/><line class="cls-4" x1="912" y1="1215.2" x2="912" y2="1219.49"/><path class="cls-1" d="M593.51,567V702.88H400.6V567a96.46,96.46,0,0,1,96.46-96.46h0A96.46,96.46,0,0,1,593.51,567Z"/><polygon class="cls-12" points="398.04 575.25 398.09 705.6 593.57 705.44 398.18 730.1 248.75 729.82 398.04 575.25"/><path class="cls-7" d="M496.29,512.88h0a51.2,51.2,0,0,1,51.2,51.2V693.22a0,0,0,0,1,0,0H445.1a0,0,0,0,1,0,0V564.08A51.2,51.2,0,0,1,496.29,512.88Z"/><path class="cls-4" d="M496.29,503.45h0a60,60,0,0,1,60,60V702.88a0,0,0,0,1,0,0h-120a0,0,0,0,1,0,0V563.45A60,60,0,0,1,496.29,503.45Z"/><line class="cls-6" x1="496.29" y1="512.88" x2="496.29" y2="693.22"/><line class="cls-6" x1="445.1" y1="639.55" x2="547.49" y2="639.55"/><line class="cls-6" x1="445.1" y1="576.21" x2="547.49" y2="576.21"/><rect class="cls-8" x="436.29" y="681.52" width="120" height="21.37"/><path class="cls-9" d="M436.3,681.52h120c0-.28-.73-6-5.83-8.31a10.39,10.39,0,0,0-8.2,0c.35-5.5-3.43-10-7.7-10.6-5-.68-10.6,4-10.39,10.6a20.8,20.8,0,0,0-15.55-5.65,20.32,20.32,0,0,0-12.34,5.65c.73-10.33-7.83-18.56-16.78-18-8.28.52-15.44,8.49-14.7,18a8.48,8.48,0,0,0-15.55,0c-3.85-2.21-8.45-1.63-11,1.13A8.82,8.82,0,0,0,436.3,681.52Z"/><path class="cls-10" d="M525.46,645.41c0,1.51-2.4,2.79-5.78,3.3-.51,3.38-1.78,5.77-3.29,5.77s-2.78-2.39-3.29-5.77c-3.37-.51-5.77-1.79-5.77-3.3s2.4-2.78,5.77-3.28c.51-3.38,1.8-5.78,3.29-5.78s2.78,2.4,3.29,5.78C523.06,642.63,525.46,643.91,525.46,645.41Z"/><circle class="cls-11" cx="516.39" cy="645.41" r="1.9"/><path class="cls-10" d="M492.5,680.64c0,1.5-2.4,2.79-5.77,3.3-.51,3.37-1.79,5.77-3.29,5.77s-2.78-2.4-3.29-5.77c-3.38-.51-5.78-1.8-5.78-3.3s2.4-2.78,5.78-3.29c.51-3.37,1.79-5.78,3.29-5.78s2.78,2.41,3.29,5.78C490.1,677.86,492.5,679.14,492.5,680.64Z"/><circle class="cls-11" cx="483.44" cy="680.64" r="1.9"/><path class="cls-10" d="M445.36,654.38c0,1.5-2.4,2.79-5.78,3.3-.5,3.37-1.78,5.77-3.29,5.77s-2.78-2.4-3.28-5.77c-3.38-.51-5.78-1.8-5.78-3.3s2.4-2.78,5.78-3.29c.5-3.37,1.79-5.77,3.28-5.77s2.79,2.4,3.29,5.77C443,651.6,445.36,652.88,445.36,654.38Z"/><circle class="cls-11" cx="436.29" cy="654.38" r="1.9"/><path class="cls-1" d="M680.48,558.75v54.53l-87,89.6V567a96.44,96.44,0,0,0-96.45-96.45h95.25A88.17,88.17,0,0,1,680.48,558.75Z"/></g><g id="PLANTS"><path class="cls-4" d="M273.18,1681.49l838.17-235.79c19.45-5.47,22.54-31.74,4.9-41.58L931.74,1301.24"/><line class="cls-4" x1="1231.74" y1="1301.24" x2="1808.92" y2="1681.49"/><path class="cls-9" d="M1764.57,1681.49c14-2.24,23.77-14.7,22.81-28-.86-12-10.3-22.17-22.81-24.12,15.1-8.92,22.16-25.5,18-39.36-3.83-12.67-15.65-18.35-18-19.41,18.65-20.14,17.45-47.32,4-59.13-12.81-11.23-33-5.36-34.72-4.86,18-12.89,28.26-51.78,15.35-62-2.3-1.81-6.42-3.29-15.35-.56,14.27-43.55,2.44-70-21.23-70-19.91,0-32.28,37.82-18.84,83-4.22-6.53-16.43-11.18-24.74-4.21-11.1,9.32-12,33.22,4.7,53.78-10.36-8.43-25.93-6.44-33.29,4.78-9.76,14.87-9.22,34.75,18.6,63.21-2.65,2-11.79,9.46-14.22,22.41-2.48,13.27,3.06,27.2,14.22,36.37-12,.72-21.76,8.69-23.9,18.5-2.77,12.71,7.46,27.69,23.9,29.58Z"/><path class="cls-5" d="M1677.2,1582.49a93.23,93.23,0,0,1-27.11,1.68,33.78,33.78,0,0,1,9-9.53,34,34,0,0,0,5.83,3.95A34.83,34.83,0,0,0,1677.2,1582.49Z"/><path class="cls-9" d="M807.78,1531.1c-2.19-20.78,8.39-43.12,25.29-54.31a53,53,0,0,1,56.85-.84c-13.83-31.22-4.73-67.67,21-86.82,27.56-20.53,67.5-16.19,91.88,11,4.41-2.26,20.36-9.74,37.92-3.65,15.62,5.42,27.85,20,32.78,38.41,1.75,6.58,6,19.81,6,19.81Z"/><path class="cls-9" d="M834.06,1425.09h11.27a15.05,15.05,0,0,1,15.05,15.05v11.27a0,0,0,0,1,0,0H849.11a15.05,15.05,0,0,1-15.05-15.05v-11.27A0,0,0,0,1,834.06,1425.09Z" transform="matrix(0.96, -0.26, 0.26, 0.96, -349.94, 275)"/><path class="cls-10" d="M950.9,1454.11c0,2.28-3.73,4.15-8.87,4.82-.88,5.11-2.9,8.69-5.18,8.65s-4.14-3.72-4.81-8.87c-5.1-.88-8.71-2.91-8.66-5.19s3.74-4.14,8.88-4.8c.88-5.11,2.91-8.71,5.18-8.67s4.14,3.74,4.8,8.88C947.35,1449.81,951,1451.83,950.9,1454.11Z"/><circle class="cls-11" cx="937.14" cy="1453.81" r="2.89"/><path class="cls-10" d="M1018.13,1371.32c0,2.28-3.73,4.16-8.87,4.82-.88,5.11-2.9,8.7-5.18,8.65s-4.14-3.72-4.81-8.86c-5.11-.88-8.71-2.91-8.66-5.19s3.73-4.15,8.87-4.81c.89-5.11,2.92-8.71,5.18-8.66s4.15,3.73,4.81,8.87C1014.58,1367,1018.18,1369,1018.13,1371.32Z"/><circle class="cls-11" cx="1004.37" cy="1371.03" r="2.89"/><path class="cls-9" d="M791.23,1267.55c-15.11-7.54-21.66-18.3-18.39-24.52.58-1.1,2.43-3.89,8.83-5.66-10.14-11.22-11.42-22.36-6.25-26.4.79-.62,3.78-2.67,11-1.57-11-14.88-12.94-26.56-7.5-32.13,2-2,8-5.87,17.06-1.51-17.76-25.36-19.53-41.83-9.88-46.52,1.85-.9,5-2.23,10.53,1-4.42-10.37-4-32.46,8.38-32.46,10.3,0,16,16,11.19,30.49,6.13-3.73,13.31-4.38,16.92-1.89,4.63,3.2,5.05,12.76-3.68,19.8.72-.09,7.89-1,11.4,2.52,3.83,3.84,2.56,12.21-5.85,17.6,1.31.68,10,5.28,11.73,14.46,1.46,7.52-2.24,15.25-9.56,20.12,2.13.92,7.15,3.41,9.93,8.49,3.59,6.55,2,14.74-4,21.06.88,1,6.67,7.75,4.41,16.66-1.87,7.39-8,11.34-9.56,12.26l-2.91,8.17Z"/><polygon class="cls-8" points="791.23 1267.55 835.02 1267.55 828.81 1307.85 797.33 1307.85 791.23 1267.55"/></g><g id="SIGN"><rect class="cls-14" x="202.08" y="1018.76" width="263.27" height="221.08"/><line class="cls-4" x1="448.97" y1="1018.76" x2="448.97" y2="1240.27"/><polygon class="cls-15" points="341.71 1661.98 327.76 1665.98 327.76 1240.27 341.71 1240.27 341.71 1661.98"/><rect class="cls-5" x="327.76" y="1240.27" width="13.95" height="5.71"/><polygon class="cls-1" points="410.3 1182.4 415.8 1170.53 420.92 1182.56 434.02 1181.35 426.09 1191.76 433.7 1202.42 420.64 1200.81 415.14 1212.67 410.02 1200.64 396.91 1201.86 404.85 1191.44 397.24 1180.79 410.3 1182.4"/><path class="cls-1" d="M295.39,1083.36H280.54v9.52H293a3.77,3.77,0,0,1,2.58.77,2.7,2.7,0,0,1,.85,2.07,2.6,2.6,0,0,1-.87,2.06,3.75,3.75,0,0,1-2.56.76H280.54v12.26a4.92,4.92,0,0,1-1.05,3.46,3.53,3.53,0,0,1-2.71,1.13,3.57,3.57,0,0,1-2.73-1.14,4.94,4.94,0,0,1-1.05-3.45v-28.63a6.28,6.28,0,0,1,.48-2.65A3,3,0,0,1,275,1078a6.42,6.42,0,0,1,2.63-.47h17.77a3.86,3.86,0,0,1,2.67.8,2.68,2.68,0,0,1,.88,2.09,2.71,2.71,0,0,1-.88,2.12A3.81,3.81,0,0,1,295.39,1083.36Z"/><path class="cls-1" d="M320.92,1076.92a19.94,19.94,0,0,1,9.94,2.34,15.25,15.25,0,0,1,6.28,6.68,22.74,22.74,0,0,1,2.13,10.16,24.84,24.84,0,0,1-1.17,7.85,16.73,16.73,0,0,1-3.5,6.11,15.28,15.28,0,0,1-5.73,4,22.68,22.68,0,0,1-15.61,0,15.49,15.49,0,0,1-5.77-4,17,17,0,0,1-3.49-6.16,25.15,25.15,0,0,1-1.18-7.8,24,24,0,0,1,1.23-7.86,17,17,0,0,1,3.57-6.1,15.48,15.48,0,0,1,5.69-3.84A20.41,20.41,0,0,1,320.92,1076.92Zm10.71,19.13a17.47,17.47,0,0,0-1.32-7.08,9.83,9.83,0,0,0-3.77-4.53,10.36,10.36,0,0,0-5.62-1.53,10.06,10.06,0,0,0-4.17.85,9.08,9.08,0,0,0-3.3,2.47,11.83,11.83,0,0,0-2.19,4.15,18.85,18.85,0,0,0-.8,5.67,19.33,19.33,0,0,0,.8,5.74,11.86,11.86,0,0,0,2.26,4.25,9.44,9.44,0,0,0,3.35,2.53,10.12,10.12,0,0,0,4.15.83,10.24,10.24,0,0,0,5.32-1.44,10.06,10.06,0,0,0,3.86-4.47A17.35,17.35,0,0,0,331.63,1096.05Z"/><path class="cls-1" d="M357.85,1098.85h-2.64v12a5,5,0,0,1-1,3.48,3.57,3.57,0,0,1-2.72,1.11,3.48,3.48,0,0,1-2.79-1.16,5.18,5.18,0,0,1-1-3.43v-28.63a4,4,0,0,1,4.62-4.62h12.26a35.83,35.83,0,0,1,4.34.22,10.86,10.86,0,0,1,3.25.87,9.49,9.49,0,0,1,5.14,5.29,10.77,10.77,0,0,1,.69,3.85,9.32,9.32,0,0,1-2.34,6.65,13.54,13.54,0,0,1-7.12,3.53,14,14,0,0,1,3.83,3.14,32.57,32.57,0,0,1,3.26,4.43,32.24,32.24,0,0,1,2.23,4.24,8.2,8.2,0,0,1,.8,2.6,2.6,2.6,0,0,1-.47,1.46,3.24,3.24,0,0,1-1.28,1.15,4,4,0,0,1-1.88.41,3.73,3.73,0,0,1-2.13-.59,5.75,5.75,0,0,1-1.48-1.51c-.42-.61-1-1.51-1.69-2.69l-3-5a27,27,0,0,0-2.91-4.21,7,7,0,0,0-2.6-2A8.85,8.85,0,0,0,357.85,1098.85Zm4.31-15.64h-7v10.23H362a19.11,19.11,0,0,0,4.57-.47,5.37,5.37,0,0,0,2.83-1.6,4.6,4.6,0,0,0,1-3.11,4.85,4.85,0,0,0-.78-2.73,4.8,4.8,0,0,0-2.19-1.76A15.73,15.73,0,0,0,362.16,1083.21Z"/><path class="cls-1" d="M287.34,1161.1a10.93,10.93,0,0,1-1.74,6.07,11.51,11.51,0,0,1-5.09,4.21,19,19,0,0,1-7.94,1.53,17.88,17.88,0,0,1-9.09-2.09,12,12,0,0,1-4.12-4,9.08,9.08,0,0,1-1.59-4.86,3.3,3.3,0,0,1,3.38-3.33,2.89,2.89,0,0,1,2,.76,6,6,0,0,1,1.41,2.26,15.12,15.12,0,0,0,1.54,3,6.2,6.2,0,0,0,2.32,2,8.68,8.68,0,0,0,3.94.77,8.88,8.88,0,0,0,5.44-1.56,4.68,4.68,0,0,0,2.09-3.89,4.09,4.09,0,0,0-1.13-3,7.3,7.3,0,0,0-2.91-1.77c-1.2-.4-2.79-.83-4.79-1.29a35.18,35.18,0,0,1-6.71-2.2,10.86,10.86,0,0,1-4.29-3.42,8.9,8.9,0,0,1-1.59-5.4,9.24,9.24,0,0,1,1.68-5.45,10.51,10.51,0,0,1,4.84-3.67,20,20,0,0,1,7.47-1.28,18.32,18.32,0,0,1,5.92.85,12.36,12.36,0,0,1,4.15,2.26,9.52,9.52,0,0,1,2.42,3,7,7,0,0,1,.76,3,3.56,3.56,0,0,1-1,2.43,3,3,0,0,1-2.37,1.08,2.75,2.75,0,0,1-2-.65,9.13,9.13,0,0,1-1.46-2.12,9.57,9.57,0,0,0-2.43-3.29,7.17,7.17,0,0,0-4.57-1.18,7.93,7.93,0,0,0-4.71,1.28,3.75,3.75,0,0,0-1.79,3.09,3.11,3.11,0,0,0,.61,1.93,5.21,5.21,0,0,0,1.68,1.39,11.4,11.4,0,0,0,2.15.92c.73.22,1.93.54,3.61,1a54.24,54.24,0,0,1,5.7,1.63,17.57,17.57,0,0,1,4.34,2.15,9,9,0,0,1,2.79,3.21A10.31,10.31,0,0,1,287.34,1161.1Z"/><path class="cls-1" d="M317.54,1168.06l-1.77-4.67H300.64l-1.78,4.77a16.64,16.64,0,0,1-1.77,3.77,2.83,2.83,0,0,1-2.41,1,3.57,3.57,0,0,1-2.52-1,3.22,3.22,0,0,1-1.09-2.36,5.27,5.27,0,0,1,.26-1.58c.16-.54.44-1.29.83-2.26l9.52-24.16c.27-.7.6-1.53,1-2.5a12.64,12.64,0,0,1,1.22-2.42,4.93,4.93,0,0,1,1.7-1.57,5.29,5.29,0,0,1,2.6-.59,5.38,5.38,0,0,1,2.63.59,5.05,5.05,0,0,1,1.7,1.54,11.2,11.2,0,0,1,1.09,2c.29.72.67,1.68,1.13,2.88l9.72,24a12.14,12.14,0,0,1,1.14,4,3.3,3.3,0,0,1-1.08,2.38,3.53,3.53,0,0,1-2.6,1.08,3.38,3.38,0,0,1-1.52-.32,3.11,3.11,0,0,1-1.07-.86,8.17,8.17,0,0,1-.92-1.68C318.07,1169.3,317.78,1168.63,317.54,1168.06Zm-14.92-10.33h11.12l-5.61-15.36Z"/><path class="cls-1" d="M338.51,1139v27.08h15.28a4,4,0,0,1,2.8.89,3,3,0,0,1,0,4.45,4.13,4.13,0,0,1-2.82.85h-18.2a4.82,4.82,0,0,1-3.54-1.09,4.87,4.87,0,0,1-1.08-3.53V1139a5,5,0,0,1,1-3.43,3.48,3.48,0,0,1,2.7-1.14,3.58,3.58,0,0,1,2.76,1.13A4.9,4.9,0,0,1,338.51,1139Z"/><path class="cls-1" d="M387,1140.87h-17V1150H385.7a3.69,3.69,0,0,1,2.57.78,2.6,2.6,0,0,1,.85,2,2.74,2.74,0,0,1-.84,2.07,3.62,3.62,0,0,1-2.58.8H370.06v10.58h17.56a3.84,3.84,0,0,1,2.68.83,2.83,2.83,0,0,1,.9,2.19,2.79,2.79,0,0,1-.9,2.15,3.84,3.84,0,0,1-2.68.82H367.14a4.82,4.82,0,0,1-3.54-1.09,4.87,4.87,0,0,1-1.08-3.53v-28A6.28,6.28,0,0,1,363,1137a3,3,0,0,1,1.51-1.5,6.45,6.45,0,0,1,2.63-.47H387a3.9,3.9,0,0,1,2.68.8,3,3,0,0,1,0,4.21A3.85,3.85,0,0,1,387,1140.87Z"/></g><g id="PEOPLE"><g id="AGENT"><path class="cls-16" d="M648,1674.08l-.39,7.41H569.1l-11-22.5c-1.34-2.74-5.32-2.6-6.76.23L543,1681.49h-5.32s-17.26-44.67,8.7-58.81h4.3a25.19,25.19,0,0,1,21.93,12.39l9.18,15.7a21.69,21.69,0,0,0,18.89,10.68H624.2a43.81,43.81,0,0,0,10,6.31Z"/><path class="cls-15" d="M624.19,1661.45H600.64a21.69,21.69,0,0,1-18.89-10.68l-9.18-15.7a25.19,25.19,0,0,0-21.93-12.39h-4.3L543.25,1512h77.53l-12,109.86A44.82,44.82,0,0,0,624.19,1661.45Z"/><path class="cls-16" d="M852.26,1681.49H773.74L759.57,1659c-1.73-2.74-5.68-2.6-6.73.23l-8.24,22.27h-7.32S717.21,1639,739,1622.68h8.08a28.44,28.44,0,0,1,25.77,16.41l6.19,13.25a15.8,15.8,0,0,0,14.32,9.11h32.69a52.75,52.75,0,0,0,10.86,6.31l14.7,6.32Z"/><path class="cls-15" d="M826.05,1661.45H793.36a15.8,15.8,0,0,1-14.32-9.11l-6.19-13.25a28.44,28.44,0,0,0-25.77-16.41H739L724.61,1512h77.53l2.92,109.86C805.48,1637.36,813.5,1652,826.05,1661.45Z"/><path class="cls-5" d="M618.6,806.21s-33.5,48.32-48.22,96c-19,61.77-12.62,291.67-12.62,291.67s-54.54,100-24.28,318.08H628.6L683,1238.34s-5.34,174.87,23.14,273.66h98.8s1.8-311.58,1.8-342.52c0-75.7-73.14-363.27-73.14-363.27Z"/><path class="cls-17" d="M636.6,806.21s-25.5,48.32-40.22,96c-19,61.77-18.62,291.67-18.62,291.67S528.64,1308.5,551.48,1512"/><path class="cls-17" d="M659.6,806.21s-19.5,48.32-34.22,96c-19,61.77-26.62,291.67-26.62,291.67S562.68,1327.58,572.48,1512"/><path class="cls-17" d="M682.6,806.21s-13.5,48.32-28.22,96c-19,61.77-31.62,293.67-31.62,293.67s-26,145.1-30,316.08"/><path class="cls-17" d="M710.6,806.21s-12.5,52.32-27.22,100c-19,61.77-30.62,290.67-30.62,290.67s-32,168.39-38,315.08"/><path class="cls-17" d="M699.9,1071.67s3.44,339.44,26.24,440.33"/><polyline class="cls-17" points="788.14 1512.01 782.18 1145.44 740.6 806.21"/><polyline class="cls-17" points="767.14 1512.01 755.18 1145.44 733.32 948.01 731.6 806.21"/><polyline class="cls-17" points="746.14 1512.01 727.18 1145.44 706.62 946.41 720.6 806.21"/><line class="cls-17" x1="699.9" y1="1491.35" x2="805.06" y2="1491.35"/><line class="cls-17" x1="530.82" y1="1491.35" x2="633.59" y2="1491.35"/><line class="cls-17" x1="695.55" y1="1463.7" x2="805.21" y2="1463.7"/><line class="cls-17" x1="527.93" y1="1463.7" x2="638.2" y2="1463.7"/><line class="cls-17" x1="691.37" y1="1434.67" x2="805.38" y2="1434.67"/><line class="cls-17" x1="525.77" y1="1434.67" x2="643.97" y2="1434.67"/><line class="cls-17" x1="688.2" y1="1405.21" x2="805.54" y2="1405.21"/><line class="cls-17" x1="524.33" y1="1405.21" x2="649.83" y2="1405.21"/><line class="cls-17" x1="685.91" y1="1376.25" x2="805.74" y2="1376.25"/><line class="cls-17" x1="524.33" y1="1376.25" x2="655.59" y2="1376.25"/><line class="cls-17" x1="684.19" y1="1346.13" x2="805.88" y2="1346.13"/><line class="cls-17" x1="525.49" y1="1346.13" x2="661.77" y2="1346.13"/><line class="cls-17" x1="683.22" y1="1318.08" x2="806.74" y2="1318.08"/><line class="cls-17" x1="527.6" y1="1318.08" x2="666.8" y2="1318.08"/><line class="cls-17" x1="682.6" y1="1288.24" x2="806.15" y2="1288.24"/><line class="cls-17" x1="531.48" y1="1288.24" x2="672.89" y2="1288.24"/><line class="cls-17" x1="682.67" y1="1257.32" x2="806.35" y2="1257.32"/><line class="cls-17" x1="537.11" y1="1257.32" x2="678.6" y2="1257.32"/><line class="cls-17" x1="544.98" y1="1227.16" x2="806.74" y2="1227.16"/><line class="cls-17" x1="556.76" y1="1195.92" x2="806.66" y2="1195.92"/><line class="cls-17" x1="556.76" y1="1164.92" x2="806.66" y2="1164.92"/><line class="cls-17" x1="556.76" y1="1133.92" x2="804.66" y2="1133.92"/><line class="cls-17" x1="556.76" y1="1102.92" x2="799.18" y2="1102.92"/><line class="cls-17" x1="556.76" y1="1071.92" x2="794.18" y2="1071.92"/><line class="cls-17" x1="556.76" y1="1040.92" x2="788.14" y2="1040.92"/><line class="cls-17" x1="557.76" y1="1007.92" x2="781.57" y2="1007.92"/><line class="cls-17" x1="558.76" y1="976.92" x2="775.58" y2="976.92"/><line class="cls-17" x1="562.56" y1="944.92" x2="767.56" y2="944.92"/><line class="cls-17" x1="565.98" y1="913.92" x2="760.58" y2="913.92"/><line class="cls-17" x1="580.19" y1="878.92" x2="750.14" y2="878.92"/><line class="cls-17" x1="594.65" y1="847.92" x2="743.35" y2="847.92"/><polyline class="cls-18" points="709.6 975.28 681.67 1257.32 629.6 1513"/><path class="cls-14" d="M865.57,825.12c-9.41-1.88-18.69-4.93-28.09-6.81,0,0,28.86-14.93,67.59-72.47s32.86-115.56,32.86-115.56l6.77-16.92a93.13,93.13,0,0,1-39.11-22.94l-9.78,15.42s-43.24,11.73-93.93,104.54c0,0-24.16-122.84-69.07-152.3l-14-22.54-15.16,15-47.42-44.4-18.62,18.84,3.06,4.28S604,556.1,583,587.73c-16.27,24.51-9.91,163.54,41.41,226,68,82.75,163.47,78.23,204.08,62.06h30.26a86.14,86.14,0,0,1,6.86-50.71Z"/><path class="cls-4" d="M733.6,609.24s24.86,65.3,30.54,78-5.46,42.41-21.38,49.47l-9.16,42.58"/><line class="cls-4" x1="801.88" y1="710.38" x2="794.91" y2="721.11"/><path class="cls-4" d="M640.68,529.21s29.7,42.53,45.44,42.37c12.39-.11,18.26-14.78,18.26-14.78s6.65,13.52,15.94,12.67,12.49-11.39,12.49-11.39"/><line class="cls-4" x1="826.02" y1="861.08" x2="808.18" y2="862.08"/><line class="cls-4" x1="826.02" y1="841.21" x2="807.18" y2="835.47"/><line class="cls-4" x1="830.02" y1="829.47" x2="816.8" y2="818.31"/><line class="cls-4" x1="705.99" y1="772.8" x2="707.99" y2="782.57"/><path class="cls-4" d="M828.45,875.84A58.53,58.53,0,0,1,826,841.21a57.61,57.61,0,0,1,11.46-22.9c-7.57-5.7-15.55-12.42-25.57-16.64C787,791.18,706,772.8,706,772.8c-8.44-31.21-23.88-62.42-32.33-93.63"/><path class="cls-4" d="M895.81,605.84a57.62,57.62,0,0,0,42.12,24.44"/><line class="cls-4" x1="903.33" y1="614.6" x2="891.51" y2="620.54"/><line class="cls-4" x1="911.37" y1="621" x2="901.91" y2="633.94"/><line class="cls-4" x1="924.68" y1="627.47" x2="922.69" y2="637.64"/><circle class="cls-4" cx="707.99" cy="582.28" r="3.5"/><circle class="cls-4" cx="720.54" cy="624.04" r="3.5"/><circle class="cls-4" cx="730.1" cy="669.42" r="3.5"/><rect class="cls-1" x="671.35" y="638.75" width="35.05" height="15.3"/><path class="cls-15" d="M985.83,887.49l-52.57,2.81c-23.32-2.47-58.2-9.36-74.55-14.47a86.19,86.19,0,0,1,6.86-50.71,237.4,237.4,0,0,1,26.81-8.44,240.06,240.06,0,0,1,30.42-5.57L938,826.89l19.9,36.76,39.82,13.5-1.81,3.7A11.91,11.91,0,0,1,985.83,887.49Z"/><path class="cls-15" d="M905.59,590.42l9.86-38.73a19.85,19.85,0,0,1,4.95-9.31l19.19-20.27s6.11,2.44,2.87,11.16a69.32,69.32,0,0,1-7.17,14.31l5.91,7,18.74-15.42,20.91-26.12a3,3,0,0,1,5.12,3.13l-7.74,17.29,13-15.18a7.72,7.72,0,0,1,10.08-1.43l2.53,1.65a7.73,7.73,0,0,1,2.45,10.37l-14.53,24.9,16.67-16.65a2.52,2.52,0,0,1,4,3c-3.9,6.89-16.34,28.07-28.52,40.7-15.9,16.48-27.25,25.81-39.21,32.51a77.83,77.83,0,0,1-39.11-22.94Z"/><line class="cls-4" x1="1002.55" y1="517.65" x2="979.45" y2="549.85"/><path class="cls-4" d="M941.2,554.59c4.46,7.35,1,19.23,1,19.23"/><line class="cls-4" x1="978.23" y1="533.47" x2="971.19" y2="544.03"/><path class="cls-15" d="M658.84,508.52l16.44-29.29A21,21,0,0,1,663,475.3a20.79,20.79,0,0,1-6.71-8.3,7,7,0,0,0,3.77-1.93,6.84,6.84,0,0,0,1.64-2.72,31.38,31.38,0,0,0,12.47-6.09,31.74,31.74,0,0,0,10.27-15.35,19.74,19.74,0,0,0,11.51-2.24c8.47-4.68,9.93-14.13,10.09-15.3a18.28,18.28,0,0,0,31-9.53,19.64,19.64,0,0,0,18.41,0c19.79,47.08,10.22,83-2.17,90.55-11.91,7.24-26.07,5.13-26.07,5.13l-8.36,26-15.16,15Z"/><path class="cls-6" d="M736.81,442.41s18.43,7.28,5.13,17.22"/><path class="cls-1" d="M749,466.23s-9.8,5-23.51-2.07c0,0,1,17.61,19.37,14Z"/><path class="cls-4" d="M727.18,509.52c-25.18-1.32-32.55-13.88-32.55-13.88"/><ellipse class="cls-19" cx="721.54" cy="448.43" rx="2" ry="2.54"/><ellipse class="cls-19" cx="749.91" cy="438.18" rx="1.8" ry="2.23"/><path class="cls-20" d="M643.89,453.56c-.78-.4-9.41-5.1-10.6-15.06a20.07,20.07,0,0,1,4.38-14.69c-10.69,7.29-24,3.17-27.95-5.2-3-6.43-.61-15.61,6.56-21.38-6.54-2.08-10.88-7.65-10.78-13.07.14-7.25,8.22-14.41,18.16-12.81-12.63-8.36-15.31-25.47-7-36.42,7.42-9.77,22.07-12.61,33.52-5.61a18.48,18.48,0,0,1,16.38-10.81c6.86-.14,14.11,3.38,13.58,13.81,0,0,17,.67,16.8,15.07.11,10.73-9.49,21-22.51,21.62,2.16-4.91,7.54-6.82,11.23-5,2.68,1.3,4.35,4.49,4.17,8a19.58,19.58,0,0,1,20.73-13.08c9.51,1.2,16.9,6.56,16.91,16.49A8.34,8.34,0,1,1,743,381.46c8.73-5.51,19.45-1.27,25.08,5.74,8.83,11,2.17,27.28-5.56,32.2a21.35,21.35,0,0,1-9.75,2.84,21.6,21.6,0,0,1-10.31-2.13,20.24,20.24,0,0,1-14.27,16.27c-10.55,3-18.73-4.28-19.17-4.69,3.62,7.43-.45,16.55-6.67,19.87-8.29,4.42-16.2.08-16.2.08,3.88,9.67,1.4,20.2-6.12,25.11-11.22,7.31-20.46-1.74-20.46-1.74a13.24,13.24,0,0,1-19.28-8.22C638.6,460,643.3,454.26,643.89,453.56Z"/><path class="cls-6" d="M637.67,423.81c11.28-7.78,7-20.9,7-20.9s8.25,3.36,15.32-2.57"/><path class="cls-6" d="M705,424a16.65,16.65,0,0,0,4,7.66"/><path class="cls-15" d="M746.68,472.75a22.38,22.38,0,0,1-19.84-2.91,14.63,14.63,0,0,0,5.88,7,15.14,15.14,0,0,0,12.09,1.31Z"/></g><g id="COUPLE"><g id="MAN"><path class="cls-15" d="M1217.35,1266.64l9.42,364.34,112.1,8s28.43-225.81,4.81-330.71l8.8-36,62.69,361.82,112,5.14s2.29-258.06-41.75-338.14L1435,881.75H1228Z"/><line class="cls-4" x1="1352.48" y1="1272.25" x2="1319.08" y2="1040.63"/><path class="cls-2" d="M1087.85,757.6c.07-1.24.78-11.52,9.91-17.79,4.35-3,10.61-4.72,19.57-3.28a55.89,55.89,0,0,1,28-12.92q10.48-64.15,21-128.31a70.66,70.66,0,0,1,38.2-41.49l45.89-20.28,11-19.89a1.85,1.85,0,0,1,2.9-.45l14.62,13.89a20.18,20.18,0,0,1,6,11l3,16.85,2.75-13.8a20.17,20.17,0,0,1,10.65-14l63.69-32.26a3.31,3.31,0,0,1,4.41,1.41l9.85,18.76,91.55,32.55A67.89,67.89,0,0,1,1504,573.15c30.42,31.33,80.6,93.12,125.42,157.93,12.89,18.65,12.64,39.79,7,52.29-14.28,32.14-50.72,44.75-77.62,31.35L1456.46,712.3,1444.9,716l-8.11,89.9,18.71,118.39s-50.73,55.41-133.93,55.4l-12.39-96-10,93.29c-52.26-11.78-84.77-57.66-84.77-57.66a147.3,147.3,0,0,0,12.83-36.39c4.72-22.39,3.28-44.49,1.29-57a107.7,107.7,0,0,1-66.19,22.31s-13.15,8.59-41.41,1.62Z"/><path class="cls-4" d="M1201.75,670.92s-10,36.32,26.73,155"/><path class="cls-4" d="M1117.33,736.53c14.14,5.62,50.06,34.5,45,111.67"/><path class="cls-4" d="M1287.84,555c-20.51,68-12.22,184.95,21.34,328.64"/><path class="cls-4" d="M1145.3,723.61c13.66-1.71,20.26,7.46,20.26,7.46"/><polyline class="cls-4" points="1379.19 515.04 1287.84 554.98 1250.37 533.53"/><path class="cls-21" d="M1089,758.29,975.09,803.9l-33.93-4.27a16.87,16.87,0,0,0-17.11,9L907.6,840.85s11.81,11.7,30.37-14l19.9,36.76,39.82,13.5,21.94-19.91,101.25-7.42c2-4.63,7.73-29.63-1.16-54.71A70.23,70.23,0,0,0,1089,758.29Z"/><path class="cls-21" d="M900.57,882.73l14.29-24.51a6.73,6.73,0,0,1,7-3.22h0a6.72,6.72,0,0,1,4.94,9.35l-10.44,23.36a6.09,6.09,0,0,1-2.06,2.54,11.27,11.27,0,0,1-11.19,1.23l-.08,0A6.22,6.22,0,0,1,900.57,882.73Z"/><path class="cls-21" d="M898.94,885.51l12.49-21.4a6,6,0,0,0-2.84-8.55h0a6,6,0,0,0-7.19,2l-15.61,21.2a5.41,5.41,0,0,0,1.89,8.08l.08,0C893.21,889.4,898.66,885.71,898.94,885.51Z"/><path class="cls-21" d="M916.36,887.71,928.9,860.4a7,7,0,0,1,7.3-4h0a7,7,0,0,1,5.77,9.19l-6.83,20.6a10.54,10.54,0,0,1-9.23,7.34,9.81,9.81,0,0,1-3.91-.57A10.65,10.65,0,0,1,916.36,887.71Z"/><path class="cls-4" d="M938,826.89s13.33,19.66,36,14"/><path class="cls-21" d="M1347.59,462.07,1361.06,497l-59.78,30.13a20.16,20.16,0,0,0-10.7,14.05L1287.84,555l-3-16.84a20.14,20.14,0,0,0-6-11L1265,513.89l2.35-9.1s-10.42-.43-19.18-10.88c-13.51-16.12,2-112.34,39.07-123.69,1.7,4.2,3.43,7.29,9.54,11.1,11.28,7,26,7,31.39,6.91a88.69,88.69,0,0,0,8.88,42.93c8.2-2.77,16.7-.35,20.4,5.09C1362.33,443.48,1359.17,456.66,1347.59,462.07Z"/><path class="cls-15" d="M1337,431.16l-18.78,54.13a26.58,26.58,0,0,1-10.76,12.64c-17.29,10.36-40.16,6.86-40.16,6.86s-10.42-.43-19.18-10.89c-5.07-6.06-6-23.41-3.32-43.33a54.76,54.76,0,0,1,33.55-4.94c23.18,4.15,34.91,22.39,36.81,25.46l18.23-48.42Z"/><line class="cls-4" x1="1347.59" y1="442.21" x2="1338.08" y2="447.89"/><path class="cls-4" d="M1347.59,462.07c-2.91,2-8.51,1.68-8.51,1.68"/><path class="cls-15" d="M1381.51,387.71a24,24,0,0,0,4.24-23.77c-4-10.59-14.21-14.88-15.44-15.26-8.15-4-49.94-3.41-66.12-2.9s-19.09,11.71-19.09,11.71c-1.53,6.45.32,13.35,6.79,20.37,12.24,13.3,33.18,10.82,36.24,10.37a68.53,68.53,0,0,0,8.88,42.93c5.32-2.28,12.45-1.75,17,2.12a16.48,16.48,0,0,1,5.54,12,183.74,183.74,0,0,0,21.91-57.54Z"/><path class="cls-15" d="M1288.18,352.26c-12.61-6.19-27.09-.34-31.43,10.49-3.49,8.72-.08,19.82,8.81,26.13a43.2,43.2,0,0,1,21.64-18.66Q1287.7,361.24,1288.18,352.26Z"/><path class="cls-4" d="M1328.13,388.23a36.37,36.37,0,0,1-16-11.39,35.25,35.25,0,0,1-5.42-9.53"/><path class="cls-4" d="M1364.13,388.23a36.37,36.37,0,0,1-16-11.39"/><path class="cls-4" d="M1327.19,374a22.63,22.63,0,0,0,3.23,6.28c3.61,4.94,9.33,7.11,11.63,8l39.46-.52"/><polyline class="cls-4" points="1275.85 409.77 1259.27 439.87 1275.85 445.25"/><ellipse class="cls-19" cx="1289.85" cy="422.67" rx="2" ry="2.76"/><ellipse class="cls-19" cx="1259.26" cy="419.91" rx="1.66" ry="2.76"/><path class="cls-4" d="M1284.36,454.91s.47,9.82-8.74,10.13"/><path class="cls-5" d="M1267.31,504.79l-2.35,9.1a124.68,124.68,0,0,0,42.51-16,68.63,68.63,0,0,1-24.76,7.2A67.51,67.51,0,0,1,1267.31,504.79Z"/><path class="cls-20" d="M1349.91,1681h-38.57a7.67,7.67,0,0,0-15.25,0h-140v-9.78a98.19,98.19,0,0,0,74-40c33.67,2.48,67.14,4.74,100.8,7.21a86.34,86.34,0,0,1,12.32,19.57A89,89,0,0,1,1349.91,1681Z"/><line class="cls-22" x1="1233.98" y1="1649.55" x2="1215.1" y2="1641.16"/><line class="cls-22" x1="1224.54" y1="1656.09" x2="1205.67" y2="1647.7"/><path class="cls-20" d="M1541.91,1681h-37.08a7.34,7.34,0,0,0-14.65,0H1359.6v-9.78c9.55-.54,25.83-2.09,45.13-15.85,10.9-7.77,16.79-14.07,21.52-20.8l97.59,3.86a87.5,87.5,0,0,1,11.64,19.61A91.32,91.32,0,0,1,1541.91,1681Z"/><line class="cls-22" x1="1430.11" y1="1649.69" x2="1411.24" y2="1641.3"/><line class="cls-22" x1="1422.71" y1="1657.75" x2="1403.84" y2="1649.36"/></g><g id="WOMAN"><path class="cls-23" d="M1497.35,510.26a111.35,111.35,0,0,0,12.58,49.19l-60,15.3L1436.22,534s-13.36,3.29-23.65,1.45a9,9,0,0,1-7.31-9.41l1.85-31.72-6.56-3.63a2.68,2.68,0,0,1,0-4.67l4.3-2.5a11.18,11.18,0,0,0,5.5-8.31c1.19-9.81,4.24-30.07,9.76-37.82a33.4,33.4,0,0,0,32.17,32.45,53.43,53.43,0,0,1,45.12,40.38Z"/><path class="cls-4" d="M1436.22,534c11.2-2.33,30.07-13.79,30.07-13.79"/><path class="cls-14" d="M1414.06,421.54c0-6.09,29.47-19.51,49.64-16.75,0,0,15.9-7.16,31.43-2.76,21.2,6,32.21,19.76,39.1,36.25,5.63,13.48,5.38,34,1.33,43.09-11.48,25.89-38.21,28.89-38.21,28.89A28.19,28.19,0,0,1,1478.94,499a27.86,27.86,0,0,1-4.83-18.25,22.56,22.56,0,0,1-21.88-10.84,36.37,36.37,0,0,1-34.6-15.46C1407.61,439.51,1413.45,423.14,1414.06,421.54Z"/><path class="cls-14" d="M1571.53,592.11c-4.36,2.09-9.4,0-10.87-4-1.26-3.35-.72-6.51,2.84-8.46-7.87.31-11.07-3-13.58-6.14-6.28-7.93-8.51-19.37,2.82-41.7,0,0-17.59,1.4-17.36-24.82.18-20.67,13.11-37.16,13.11-37.16s-27.78,0-16.54-36.74c3.78-17.29-7.65-13.43-7.65-13.43l-3.59-4.69s2-42.28,40.31-40.86,35,56.24,20.43,79.27c0,0,15.24,3.82,14.53,24.73,0,26.08-25.87,44.84-25.87,44.84s14.81-.87,17.47,16.3c3.41,22-18.53,40-18.53,40a7.19,7.19,0,0,0,2.48,12.83Z"/><path class="cls-4" d="M1463.7,404.79c-6.52,26.35,12.67,34.34,12.67,34.34"/><path class="cls-4" d="M1452.23,469.88c-12.74-11.77-10.46-23.55-10.46-23.55"/><path class="cls-4" d="M1479.6,484.37S1466,478.31,1466.29,464"/><line class="cls-4" x1="1581.45" y1="453.43" x2="1573.52" y2="463.72"/><line class="cls-4" x1="1570.11" y1="523" x2="1563.52" y2="527.79"/><ellipse class="cls-19" cx="1420.74" cy="473.65" rx="2" ry="2.76"/><path class="cls-4" d="M1406.79,501.68s8.06,2.43,12-3.44"/><path class="cls-5" d="M1446.8,799.51h100.51s54.16,56.89,56.63,139.42c2.94,98.2-25.12,207-29.42,243.4s6.93,62.65,6.93,62.65-72.63,22.23-130.28-2C1451.17,1243,1417.83,1012.59,1446.8,799.51Z"/><path class="cls-21" d="M1554.76,1250.83,1571,1337a217.1,217.1,0,0,1,.91,79.31l-37.4,208.54c-15.89,0-18.3,26.22-34.31,32-19.64,7-29.06-.57-42.51,1.32,18.68-15.52,29.87-39,28.68-63.06l-20.69-310.52s-9.7-20.51-8-39.56c0,0,14.29,6.63,42.48,7.88A281.14,281.14,0,0,0,1554.76,1250.83Z"/><path class="cls-8" d="M1536.14,1681h-11l-.18-20.85L1504.3,1681h-78.7c-3.54,0-4-4.94-.53-6.14l10.44-3.63a80.4,80.4,0,0,0,22.13-13.07c13.45-1.89,22.87,5.71,42.51-1.32,16-5.73,18.42-32,34.31-32a2.61,2.61,0,0,1,.17.28,65.08,65.08,0,0,1,7.95,26.07c.06,1.19.07,2.41.05,3.66A61.76,61.76,0,0,1,1536.14,1681Z"/><path class="cls-21" d="M1574.78,1245.57l24.57,91.43a218.39,218.39,0,0,1,5.06,79.31L1578,1624.85c-15.89,0-16.93,26.22-32.64,32-19.27,7-29.09-.57-42.44,1.32,17.87-15.52,26.83-39,24.37-63.06l-31-310.52s-10.34-18.56-5.37-32.17a259.49,259.49,0,0,0,39.59.57A227.48,227.48,0,0,0,1574.78,1245.57Z"/><path class="cls-8" d="M1584.57,1681h-8l-5.27-20.85-14.6,20.85H1472c-3.54,0-4.23-4.94-.86-6.14l10.25-3.63a74.92,74.92,0,0,0,21.45-13.07c13.35-1.89,23.17,5.71,42.44-1.32,15.71-5.73,16.75-32,32.64-32l.18.28a36.16,36.16,0,0,1,8.88,10.29C1598.16,1655,1586,1678.24,1584.57,1681Z"/><path class="cls-1" d="M1547.92,799.51s-2.09-116.48-.75-192.61l-105.65.4s-6.3,43-36.49,68.29c-11.64,9.76-2.6,40.3,22.88,54.75l19.5,69.17Z"/><path class="cls-1" d="M1449.7,674.31s-45.09-106.93,30.52-119.85c106.36-18.16,54.16,119.85,54.16,119.85Z"/><circle class="cls-11" cx="1444.93" cy="588.97" r="2.42"/><circle class="cls-11" cx="1442.93" cy="609.27" r="2.42"/><circle class="cls-11" cx="1442.93" cy="629.57" r="2.42"/><circle class="cls-11" cx="1442.93" cy="670.16" r="2.42"/><circle class="cls-11" cx="1442.93" cy="690.46" r="2.42"/><circle class="cls-11" cx="1442.93" cy="710.76" r="2.42"/><circle class="cls-11" cx="1442.93" cy="731.06" r="2.42"/><circle class="cls-11" cx="1442.93" cy="751.35" r="2.42"/><circle class="cls-11" cx="1444.93" cy="771.65" r="2.42"/><circle class="cls-11" cx="1429.25" cy="660.5" r="2.42"/><circle class="cls-11" cx="1429.25" cy="680.8" r="2.42"/><circle class="cls-11" cx="1429.25" cy="701.09" r="2.42"/><circle class="cls-11" cx="1429.25" cy="721.39" r="2.42"/><circle class="cls-11" cx="1470.29" cy="568.68" r="2.42"/><circle class="cls-11" cx="1470.29" cy="588.97" r="2.42"/><circle class="cls-11" cx="1470.29" cy="609.27" r="2.42"/><circle class="cls-11" cx="1470.29" cy="629.57" r="2.42"/><circle class="cls-11" cx="1470.29" cy="649.87" r="2.42"/><circle class="cls-11" cx="1470.29" cy="670.16" r="2.42"/><circle class="cls-11" cx="1470.29" cy="690.46" r="2.42"/><circle class="cls-11" cx="1470.29" cy="710.76" r="2.42"/><circle class="cls-11" cx="1470.29" cy="731.06" r="2.42"/><circle class="cls-11" cx="1470.29" cy="751.35" r="2.42"/><circle class="cls-11" cx="1470.29" cy="771.65" r="2.42"/><circle class="cls-11" cx="1470.29" cy="791.95" r="2.42"/><circle class="cls-11" cx="1456.61" cy="579.31" r="2.42"/><circle class="cls-11" cx="1456.61" cy="599.61" r="2.42"/><circle class="cls-11" cx="1456.61" cy="619.9" r="2.42"/><circle class="cls-11" cx="1456.61" cy="640.2" r="2.42"/><circle class="cls-11" cx="1456.61" cy="660.5" r="2.42"/><circle class="cls-11" cx="1456.61" cy="680.8" r="2.42"/><circle class="cls-11" cx="1456.61" cy="701.09" r="2.42"/><circle class="cls-11" cx="1415.56" cy="690.46" r="2.42"/><circle class="cls-11" cx="1405.88" cy="680.8" r="2.42"/><circle class="cls-11" cx="1415.56" cy="710.76" r="2.42"/><circle class="cls-11" cx="1456.61" cy="721.39" r="2.42"/><circle class="cls-11" cx="1456.61" cy="741.69" r="2.42"/><circle class="cls-11" cx="1456.61" cy="761.99" r="2.42"/><circle class="cls-11" cx="1456.61" cy="782.28" r="2.42"/><circle class="cls-11" cx="1497.65" cy="568.68" r="2.42"/><circle class="cls-11" cx="1497.65" cy="588.97" r="2.42"/><circle class="cls-11" cx="1497.65" cy="609.27" r="2.42"/><circle class="cls-11" cx="1497.65" cy="629.57" r="2.42"/><circle class="cls-11" cx="1497.65" cy="649.87" r="2.42"/><circle class="cls-11" cx="1497.65" cy="670.16" r="2.42"/><circle class="cls-11" cx="1497.65" cy="690.46" r="2.42"/><circle class="cls-11" cx="1497.65" cy="710.76" r="2.42"/><circle class="cls-11" cx="1497.65" cy="731.06" r="2.42"/><circle class="cls-11" cx="1497.65" cy="751.35" r="2.42"/><circle class="cls-11" cx="1497.65" cy="771.65" r="2.42"/><circle class="cls-11" cx="1497.65" cy="791.95" r="2.42"/><circle class="cls-11" cx="1483.97" cy="559.01" r="2.42"/><circle class="cls-11" cx="1483.97" cy="579.31" r="2.42"/><circle class="cls-11" cx="1483.97" cy="599.61" r="2.42"/><circle class="cls-11" cx="1483.97" cy="619.9" r="2.42"/><circle class="cls-11" cx="1483.97" cy="640.2" r="2.42"/><circle class="cls-11" cx="1483.97" cy="660.5" r="2.42"/><circle class="cls-11" cx="1483.97" cy="680.8" r="2.42"/><circle class="cls-11" cx="1483.97" cy="701.09" r="2.42"/><circle class="cls-11" cx="1483.97" cy="721.39" r="2.42"/><circle class="cls-11" cx="1483.97" cy="741.69" r="2.42"/><circle class="cls-11" cx="1483.97" cy="761.99" r="2.42"/><circle class="cls-11" cx="1483.97" cy="782.28" r="2.42"/><circle class="cls-11" cx="1525.01" cy="568.68" r="2.42"/><circle class="cls-11" cx="1525.01" cy="588.97" r="2.42"/><circle class="cls-11" cx="1525.01" cy="609.27" r="2.42"/><circle class="cls-11" cx="1525.01" cy="629.57" r="2.42"/><circle class="cls-11" cx="1525.01" cy="649.87" r="2.42"/><circle class="cls-11" cx="1525.01" cy="670.16" r="2.42"/><circle class="cls-11" cx="1525.01" cy="690.46" r="2.42"/><circle class="cls-11" cx="1525.01" cy="710.76" r="2.42"/><circle class="cls-11" cx="1525.01" cy="731.06" r="2.42"/><circle class="cls-11" cx="1525.01" cy="751.35" r="2.42"/><circle class="cls-11" cx="1525.01" cy="771.65" r="2.42"/><circle class="cls-11" cx="1525.01" cy="791.95" r="2.42"/><circle class="cls-11" cx="1511.33" cy="559.01" r="2.42"/><circle class="cls-11" cx="1511.33" cy="579.31" r="2.42"/><circle class="cls-11" cx="1511.33" cy="599.61" r="2.42"/><circle class="cls-11" cx="1511.33" cy="619.9" r="2.42"/><circle class="cls-11" cx="1511.33" cy="640.2" r="2.42"/><circle class="cls-11" cx="1511.33" cy="660.5" r="2.42"/><circle class="cls-11" cx="1511.33" cy="680.8" r="2.42"/><circle class="cls-11" cx="1511.33" cy="701.09" r="2.42"/><circle class="cls-11" cx="1511.33" cy="721.39" r="2.42"/><circle class="cls-11" cx="1511.33" cy="741.69" r="2.42"/><circle class="cls-11" cx="1511.33" cy="761.99" r="2.42"/><circle class="cls-11" cx="1511.33" cy="782.28" r="2.42"/><circle class="cls-11" cx="1537.69" cy="579.31" r="2.42"/><circle class="cls-11" cx="1538.69" cy="599.61" r="2.42"/><circle class="cls-11" cx="1538.69" cy="619.9" r="2.42"/><circle class="cls-11" cx="1538.69" cy="640.2" r="2.42"/><circle class="cls-11" cx="1538.69" cy="680.8" r="2.42"/><circle class="cls-11" cx="1538.69" cy="701.09" r="2.42"/><circle class="cls-11" cx="1538.69" cy="721.39" r="2.42"/><circle class="cls-11" cx="1538.69" cy="741.69" r="2.42"/><circle class="cls-11" cx="1538.69" cy="761.99" r="2.42"/><circle class="cls-11" cx="1538.69" cy="782.28" r="2.42"/><path class="cls-23" d="M1534.38,674.31s-9.46,153.16-39.45,156.63c-42.41,4.9-136.41-90.56-136.41-90.56-10.73-7.09-22.44-8.7-34.52-19.1a342.72,342.72,0,0,1-28.82-27.89,2.78,2.78,0,0,1,3.77-4.08L1319,702.18l-31-40.84a4,4,0,0,1,.53-5.33h0a3.94,3.94,0,0,1,5.44.24l4.3,4.49-5.48-7.94a4,4,0,0,1,.91-5.49h0a4,4,0,0,1,5.22.42l22.14,22.56-15.26-26.42a3.21,3.21,0,0,1,1.05-4.31h0a3.22,3.22,0,0,1,4.1.54l41.36,45.27-9.06-33a4.11,4.11,0,0,1,.84-3.76h0a4.1,4.1,0,0,1,6.75.76c3.58,6.8,9.79,18.22,13.6,23.08,5.59,7.15,16.16,26.28,18,37.63l67.64,27-.46-62.81Z"/><line class="cls-4" x1="1298.32" y1="660.74" x2="1315.88" y2="681.48"/><path class="cls-8" d="M1424.15,722.43a28.28,28.28,0,0,1,27.33,21l37.94,134.94a32.89,32.89,0,0,1-32.09,37.8h-73l1.9-149.65,7.77,6.86-1,49.11a17.7,17.7,0,0,0,17.69,18h37.49l-10.79-100.39a19.83,19.83,0,0,0-19.71-17.71Z"/><path class="cls-8" d="M1386.22,766.52l-.78,56a17.7,17.7,0,0,0,17.69,18h16.61a17.7,17.7,0,0,0,17.69-18l-1.57-81.16a19.28,19.28,0,0,0-19.27-18.9h2.18a21.76,21.76,0,0,1,21,16.16L1477,878.37a32.9,32.9,0,0,1-32.1,37.8h-67a32.89,32.89,0,0,1-32.09-37.8l31.86-119.59Z"/><path class="cls-8" d="M1395.18,832.58h32.5a2.94,2.94,0,0,1,2.94,2.94v13.17a8.42,8.42,0,0,1-8.42,8.42h-21.53a8.42,8.42,0,0,1-8.42-8.42V835.52A2.94,2.94,0,0,1,1395.18,832.58Z"/><rect class="cls-14" x="1407.83" y="850.24" width="7.21" height="12.32"/></g><g id="MAN_S_HAND" data-name="MAN&apos;S HAND"><path class="cls-23" d="M1562.79,756.79,1536,722.88a23.68,23.68,0,0,0-9.82-7.33l-14.25-5.68-18.62-3.44-.93,3.29a6.45,6.45,0,0,0,2.89,7.3l14.32,8.54h-16.7a19.2,19.2,0,0,0-7.51,1.52l-16.76,7.09a4.9,4.9,0,0,0-3,5.49,5.06,5.06,0,0,0,6.11,3.79l12.68-2.86-17.55,4.93a5.46,5.46,0,0,0-4,5.25h0a5.45,5.45,0,0,0,6.35,5.37l16.56-2.76-18.85,5a5.45,5.45,0,0,0-4.06,5.27v.09a5.45,5.45,0,0,0,6,5.42l19.24-2.07-19,7.32a3.13,3.13,0,0,0-2,2.93v.08a3.28,3.28,0,0,0,3.7,3.26l32.34-4.35a16,16,0,0,1,16.77,9.43l4.54,10.86a19.46,19.46,0,0,0,21.79,11.57s16.41,11.2,27.7,12.45c40.29,8,78.91-47.65,36.64-96.17-19.46-19.76-56.83-8.17-65.43,10.07"/><path class="cls-4" d="M1546.28,808.18c13.91,0,18.55-13.39,18.55-13.39"/><path class="cls-4" d="M1484.4,740.59l4.27-1.13a24,24,0,0,1,6.14-.8h9.12"/><path class="cls-4" d="M1485.78,753.38l3.5-1a23.94,23.94,0,0,1,6.24-.84h8.41"/><path class="cls-4" d="M1488.14,767.08l3.65-1.45a17.29,17.29,0,0,1,6.36-1.22h5.78"/><line class="cls-4" x1="1509.57" y1="725.56" x2="1518.73" y2="725.56"/></g></g></g></svg>