<svg id="Слой_1" data-name="Слой 1" xmlns="http://www.w3.org/2000/svg" viewBox="0 0 2000 2000"><defs><style>.cls-1{fill:#fff;}.cls-1,.cls-10,.cls-12,.cls-13,.cls-14,.cls-16,.cls-17,.cls-18,.cls-19,.cls-2,.cls-3,.cls-4,.cls-5,.cls-9{stroke:#003a47;}.cls-1,.cls-10,.cls-11,.cls-12,.cls-13,.cls-14,.cls-16,.cls-17,.cls-19,.cls-3,.cls-4,.cls-5,.cls-9{stroke-linejoin:round;}.cls-1,.cls-10,.cls-11,.cls-12,.cls-13,.cls-14,.cls-16,.cls-17,.cls-18,.cls-2,.cls-3,.cls-4,.cls-5,.cls-9{stroke-width:3px;}.cls-2{fill:#ffc4c8;}.cls-18,.cls-2{stroke-miterlimit:10;}.cls-3{fill:#ffefcd;}.cls-11,.cls-3,.cls-5{stroke-linecap:round;}.cls-4{fill:#f2d300;}.cls-11,.cls-14,.cls-19,.cls-5{fill:none;}.cls-17,.cls-6{fill:#cedffb;}.cls-16,.cls-7{fill:#85aff6;}.cls-8{fill:#d49677;}.cls-9{fill:#5e4650;}.cls-10,.cls-15{fill:#003a47;}.cls-11{stroke:#fff;}.cls-12{fill:#ff7a00;}.cls-13{fill:#c46855;}.cls-18{fill:#6b9700;}.cls-19{stroke-width:20px;}</style></defs><g id="BUILDING"><rect class="cls-1" x="216.45" y="488.33" width="1567.1" height="871.02"/><polygon class="cls-2" points="1783.55 488.33 216.45 488.33 196.45 455.17 1803.55 455.17 1783.55 488.33"/><rect class="cls-3" x="185" y="412.6" width="1630" height="42.57"/><path class="cls-4" d="M829.62,864.35H693.78V909.6H611.29V726.73a125.1,125.1,0,0,0-125.1-125.1h0a125.1,125.1,0,0,0-125.1,125.1v436.51H216.45V488.33h912.34v68.76H954.62v44.54h0a125,125,0,0,0-125,125Z"/><polygon class="cls-4" points="1783.55 488.33 1783.55 791.61 1624.56 791.61 1563.13 615.45 1466.13 615.45 1466.13 555.52 1372.36 555.52 1372.36 488.33 1783.55 488.33"/><polygon class="cls-2" points="1783.55 1414.91 216.45 1414.91 196.45 1400.75 1803.55 1400.75 1783.55 1414.91"/><rect class="cls-3" x="185" y="1358.34" width="1630" height="42.57"/><line class="cls-5" x1="216.45" y1="1414.91" x2="216.45" y2="1591.55"/><line class="cls-5" x1="1783.55" y1="1414.91" x2="1783.55" y2="1591.55"/><path class="cls-6" d="M411.75,1439.32v.5h2v1a1,1,0,0,1-1,1h1.11a1.47,1.47,0,0,1-1.11.5h1.32a2,2,0,0,0,.68-1.5v-1.5Z"/><path class="cls-6" d="M411.25,1438.82v.5h.5v.5h3v-1Zm0,0v.5h.5v.5h3v-1Zm3,0v1h.5v-1Zm0,0v1h.5v-1Zm0,0v1h.5v-1Zm-.39,3a1.47,1.47,0,0,1-1.11.5h1.32a2,2,0,0,0,.41-.5Zm-.11-3v1h1v-1Zm-2.5,0v.5h.5v.5h3v-1Z"/><path class="cls-6" d="M411.25,1438.82v.5h.5v.5h2v1a1,1,0,0,1-1,1h1.11a1.47,1.47,0,0,0,.39-1v-2Z"/><path class="cls-6" d="M411.25,1438.82v.5h.5v-.5Zm2.5,0v2a1,1,0,0,1-1,1h1.11a1.47,1.47,0,0,1-1.11.5h1.32a2,2,0,0,0,.68-1.5v-2Zm-2.5,0v.5h.5v-.5Zm0,0v.5h.5v-.5Z"/><rect class="cls-7" x="353.48" y="414.34" width="4" height="39.17"/><path class="cls-7" d="M362.48,490h4V854.48a2,2,0,0,1-4,0Z"/><path class="cls-6" d="M1148,1149.78v0l-46.06-231.09a6.92,6.92,0,0,0,1.11.09c8.2,0,14.63-12.72,14.63-29s-6.43-29-14.63-29a8.83,8.83,0,0,0-5.5,2,8.83,8.83,0,0,0-5.5-2c-8.2,0-14.63,12.72-14.63,29s6.43,29,14.63,29a7,7,0,0,0,1.59-.17l-45.76,229.6H414.39l-9.87-49.51h-4.08l9.87,49.51H363.45v4h47.3v204.45h5.46V1152.17h631v204.44H1052V1153.17h91.65v203.44h4.44V1150.18A1.81,1.81,0,0,0,1148,1149.78Zm-96-1.61,45.82-229.9,45.83,229.9Zm-737.75,17.39v191.06h4V1165.56Z"/><polygon class="cls-6" points="1148.05 1498.79 314.21 1498.79 314.21 1416.43 318.21 1416.43 318.21 1438.82 410.75 1438.82 410.75 1416.43 416.21 1416.43 416.21 1438.82 1047.24 1438.82 1047.24 1416.57 1051.96 1416.57 1051.96 1438.82 1143.61 1438.82 1143.61 1416.62 1148.05 1416.62 1148.05 1498.79"/><rect class="cls-7" x="1086.78" y="414.33" width="4" height="39.15"/><rect class="cls-7" x="1095.78" y="489.95" width="4" height="65.57"/><path class="cls-6" d="M1099.78,558.65V854.48a2,2,0,0,1-4,0V558.65Z"/><polygon class="cls-8" points="353.48 456.7 362.48 486.77 366.48 486.77 357.48 456.7 353.48 456.7"/><path class="cls-7" d="M359.45,1148.17v4H318.21v9.39h-4v-11.39a1.72,1.72,0,0,1,0-.39v0L359,925.11v20.45l-40.39,202.61Z"/><polygon class="cls-8" points="1090.78 456.71 1099.78 486.64 1095.78 486.64 1086.78 456.71 1090.78 456.71"/><rect class="cls-7" x="1040.24" y="1360.13" width="4.72" height="39"/><rect class="cls-7" x="307.21" y="1360.13" width="4" height="39"/><rect class="cls-7" x="403.75" y="1360.13" width="5.46" height="39"/><rect class="cls-7" x="1136.61" y="1360.13" width="4.44" height="39"/><path class="cls-7" d="M1767.37,574.55a20.83,20.83,0,0,1-10.83,18.26v197h-20V593.24l-145.21,97-6.85-19.47,129.07-86.17H1467.81v-20h260.47a20.78,20.78,0,0,1,8.26-8.26v-66l20-.12v66.14A20.82,20.82,0,0,1,1767.37,574.55Z"/><path class="cls-6" d="M1736.54,486.5v.06h20v-.06Zm-508.92,0v.06h20v-.06Zm528.92,749.31V793.23h-20V904.31H1270.61l317.53-212-6.91-19.43L1247.62,895.6V584.55h216.54v-20H1247.62V490.09h-20v406a20.81,20.81,0,0,0,0,36.52v423.85h20v-92.35h465.93l-138.33,92.35h36l125.31-83.66v83.66h20v-84.1a20.8,20.8,0,0,0,0-36.51Zm-508.92,8.26V933l465.93,311.06Zm488.92-8.7L1270.61,924.31h465.93Zm0-745.28v.18l20-.12v-.06Zm0,926.35v167.38H1270.61l250.72-167.38h-36L1248.54,1574.5c-.3-.19-.61-.37-.92-.53V1416.44h-20V1574a20.81,20.81,0,0,0,0,36.52v21h20v-21a21,21,0,0,0,7.3-6.67h481.62v27.72h20v-215.1Z"/><polygon class="cls-7" points="1587.94 1359.95 1529.33 1399.08 1493.31 1399.08 1551.93 1359.95 1587.94 1359.95"/><rect class="cls-7" x="1211.62" y="1359.95" width="20" height="39.13"/><rect class="cls-7" x="1720.54" y="1359.95" width="20" height="39.13"/><polygon class="cls-8" points="1741.54 456.95 1756.54 486.5 1736.54 486.5 1721.54 456.95 1741.54 456.95"/><polygon class="cls-8" points="1232.62 456.95 1247.62 486.5 1227.62 486.5 1212.62 456.95 1232.62 456.95"/><rect class="cls-7" x="1212.62" y="414.55" width="20" height="38.87"/><rect class="cls-7" x="1721.54" y="414.44" width="20" height="38.98"/><rect class="cls-9" x="398.75" y="726.78" width="174.68" height="340.12"/><path class="cls-10" d="M573.43,1066.9H398.75V726.78H573.43Z"/><path class="cls-3" d="M574.48,638.24a125,125,0,0,0-213.39,88.39v369.93h250V726.63A124.61,124.61,0,0,0,574.48,638.24Zm-1.05,428.66H398.75V726.78H573.43Z"/><line class="cls-5" x1="361.09" y1="726.63" x2="611.09" y2="726.63"/><line class="cls-5" x1="413.55" y1="675.47" x2="385.75" y2="652.07"/><line class="cls-5" x1="442.54" y1="609.42" x2="454.07" y2="642.76"/><line class="cls-5" x1="518.16" y1="642.63" x2="529.64" y2="609.42"/><line class="cls-5" x1="586.43" y1="652.07" x2="558.89" y2="675.26"/><line class="cls-5" x1="398.75" y1="836.82" x2="361.09" y2="836.82"/><line class="cls-5" x1="398.75" y1="956.86" x2="361.09" y2="956.86"/><line class="cls-5" x1="611.09" y1="836.82" x2="573.43" y2="836.82"/><line class="cls-5" x1="611.09" y1="956.86" x2="573.43" y2="956.86"/><line class="cls-11" x1="503.01" y1="810.05" x2="553.17" y2="762.21"/><line class="cls-11" x1="423.75" y1="924.96" x2="466.02" y2="884.64"/><line class="cls-11" x1="513.01" y1="918.96" x2="529.45" y2="903.28"/><line class="cls-11" x1="540.59" y1="801.75" x2="551.61" y2="791.24"/><path class="cls-12" d="M486.29,636.64a87.53,87.53,0,0,0-87.53,87.54V1066.9H573.44v-351A87.53,87.53,0,0,0,486.29,636.64ZM481.1,1056.9H408.76v-100H481.1Zm0-110H408.76v-100H481.1Zm0-110H408.76v-100H481.1Zm82.34,220.08H491.1v-100h72.34Zm0-110H491.1v-100h72.34Zm0-110H491.1v-100h72.34Zm0-110H409.11v-2.3a77.19,77.19,0,0,1,154.37,0Z"/><path class="cls-10" d="M563.48,724.48v2.3H409.11v-2.3a77.19,77.19,0,0,1,154.37,0Z"/><rect class="cls-9" x="867.27" y="726.78" width="174.68" height="340.12"/><path class="cls-10" d="M1042,1066.9H867.27V726.78H1042Z"/><path class="cls-3" d="M1043,638.24a125,125,0,0,0-213.39,88.39v369.93h250V726.63A124.61,124.61,0,0,0,1043,638.24Zm-1,428.66H867.27V726.78H1042Z"/><line class="cls-5" x1="829.62" y1="726.63" x2="1079.62" y2="726.63"/><line class="cls-5" x1="882.07" y1="675.47" x2="854.27" y2="652.07"/><line class="cls-5" x1="911.06" y1="609.42" x2="922.59" y2="642.76"/><line class="cls-5" x1="986.68" y1="642.63" x2="998.16" y2="609.42"/><line class="cls-5" x1="1054.95" y1="652.07" x2="1027.41" y2="675.26"/><line class="cls-5" x1="867.27" y1="836.82" x2="829.61" y2="836.82"/><line class="cls-5" x1="867.27" y1="956.86" x2="829.61" y2="956.86"/><line class="cls-5" x1="1079.61" y1="836.82" x2="1041.95" y2="836.82"/><line class="cls-5" x1="1079.61" y1="956.86" x2="1041.95" y2="956.86"/><line class="cls-11" x1="888.53" y1="810.05" x2="938.69" y2="762.21"/><line class="cls-11" x1="892.27" y1="924.96" x2="934.54" y2="884.64"/><line class="cls-11" x1="981.53" y1="918.96" x2="997.97" y2="903.28"/><line class="cls-11" x1="926.11" y1="801.75" x2="937.13" y2="791.24"/><path class="cls-12" d="M954.81,636.64a87.53,87.53,0,0,0-87.53,87.54V1066.9H1042v-351A87.53,87.53,0,0,0,954.81,636.64Zm-5.19,420.26H877.28v-100h72.34Zm0-110H877.28v-100h72.34Zm0-110H877.28v-100h72.34ZM1032,1056.9H959.62v-100H1032Zm0-110H959.62v-100H1032Zm0-110H959.62v-100H1032Zm0-110H877.63v-2.3a77.19,77.19,0,0,1,154.37,0Z"/><path class="cls-10" d="M1032,724.48v2.3H877.63v-2.3a77.19,77.19,0,0,1,154.37,0Z"/><line class="cls-5" x1="1783.55" y1="728.7" x2="1743.59" y2="728.7"/><line class="cls-5" x1="902.24" y1="528.06" x2="909.5" y2="528.06"/><line class="cls-5" x1="781.59" y1="528.06" x2="884.83" y2="528.06"/><line class="cls-5" x1="852.22" y1="491.33" x2="852.22" y2="528.06"/><line class="cls-5" x1="337.59" y1="1266.23" x2="344.84" y2="1266.23"/><line class="cls-5" x1="216.94" y1="1266.23" x2="320.18" y2="1266.23"/><line class="cls-5" x1="267.56" y1="1229.5" x2="267.56" y2="1266.23"/><line class="cls-5" x1="1673.29" y1="674.76" x2="1680.54" y2="674.76"/><line class="cls-5" x1="1584.1" y1="674.76" x2="1655.88" y2="674.76"/><line class="cls-5" x1="1623.26" y1="638.03" x2="1623.26" y2="674.76"/><line class="cls-5" x1="224.73" y1="768.7" x2="217.47" y2="768.7"/><line class="cls-5" x1="325.38" y1="768.7" x2="242.13" y2="768.7"/><line class="cls-5" x1="264.75" y1="805.43" x2="264.75" y2="768.7"/><line class="cls-5" x1="487.82" y1="560.99" x2="487.82" y2="528.06"/><line class="cls-5" x1="448.31" y1="528.06" x2="540.5" y2="528.06"/><line class="cls-5" x1="713.48" y1="728.31" x2="713.48" y2="764.4"/><line class="cls-5" x1="668.12" y1="768.7" x2="790.02" y2="768.7"/><line class="cls-5" x1="645.88" y1="768.7" x2="652.43" y2="768.7"/><line class="cls-5" x1="767.47" y1="802.21" x2="767.47" y2="768.7"/><line class="cls-5" x1="1780.69" y1="1502.99" x2="1732.39" y2="1502.99"/><line class="cls-5" x1="1732.39" y1="1481.83" x2="1732.39" y2="1515.75"/><polyline class="cls-5" points="1523.1 959.76 1523.1 994.52 1590.29 994.52"/><line class="cls-5" x1="1507.83" y1="994.52" x2="1498.43" y2="994.52"/><line class="cls-5" x1="1306.56" y1="634.38" x2="1306.56" y2="670.47"/><line class="cls-5" x1="1261.2" y1="674.76" x2="1373.1" y2="674.76"/><line class="cls-5" x1="1238.96" y1="674.76" x2="1245.51" y2="674.76"/><line class="cls-5" x1="1350.55" y1="708.27" x2="1350.55" y2="674.76"/><line class="cls-5" x1="632.99" y1="1523.89" x2="712.25" y2="1523.89"/><line class="cls-5" x1="672.62" y1="1533.28" x2="672.62" y2="1556.22"/><line class="cls-5" x1="1300.45" y1="1101.84" x2="1379.7" y2="1101.84"/><line class="cls-5" x1="1340.08" y1="1111.23" x2="1340.08" y2="1134.17"/></g><g id="REPAIRMEN"><path class="cls-12" d="M774.76,944.4l-6.08-1.28-5.4-1.33a6.27,6.27,0,0,0-7.13,3.31l-2.28,4.62A7.79,7.79,0,0,0,750,953c-1.58,2.72-.88,6.45-.74,7l-2.48,2.66a6.1,6.1,0,0,0,.17,7.06L763.4,994l21.81-16.65L787,960.25a10.6,10.6,0,0,0-4-9.41Z"/><rect class="cls-1" x="711.06" y="864.35" width="118.55" height="22.67" rx="11.33"/><polyline class="cls-5" points="732.08 887.01 770.25 915.19 808.54 886.9"/><line class="cls-5" x1="770.25" y1="915.19" x2="770.25" y2="921.71"/><path class="cls-13" d="M765.82,921.71h8.94a0,0,0,0,1,0,0v26.94a4.47,4.47,0,0,1-4.47,4.47h0a4.47,4.47,0,0,1-4.47-4.47V921.71A0,0,0,0,1,765.82,921.71Z"/><path class="cls-4" d="M897.3,871.8a2.75,2.75,0,0,0-1.92,3.38,30.45,30.45,0,0,0,1.82,4.9,29.13,29.13,0,0,0,4.6,6.92,29.62,29.62,0,0,0,10.53,7.5c-.78,6.44-1.22,11.19-2,17.63l4.41.38a6.28,6.28,0,1,1,6.51,10.38l7.34,11.71,17.12-29.78s16.39-16.63-16.42-29.21C912.46,869.17,901.81,870.58,897.3,871.8Z"/><path class="cls-2" d="M882.64,907.33l2.73,3.26L880.86,928a5,5,0,0,0,3.55,6.06l9.05,2.38-.82,10.43H936.5c-4.27-6.8-11-17.17-15.25-24a6.28,6.28,0,1,0-6.51-10.38l-4.41-.38c.78-6.44,1.22-11.19,2-17.63a33.69,33.69,0,0,1-9-6,33,33,0,0,1-6.39-8.83l-8.76,21.82a5.4,5.4,0,0,1-3.09,3.09l-2,.77A1.23,1.23,0,0,0,882.64,907.33Z"/><path class="cls-14" d="M893.45,936.43l2.76.61a8,8,0,0,0,8.24-3.15l3.64-5.08"/><ellipse class="cls-15" cx="894.49" cy="904.57" rx="1.48" ry="0.99" transform="translate(-306.44 1324.24) rotate(-64.58)"/><line class="cls-14" x1="884.12" y1="915.42" x2="890.29" y2="915.09"/><path class="cls-12" d="M946.18,912.47c7.56-16.06,5.74-32.78-8.06-42.63-14.55-10.39-42.84-7.09-50.92,15a237.7,237.7,0,0,0,59,27.65Z"/><path class="cls-9" d="M942.44,1396.63l4.56,18.19H875.82v-3a7.91,7.91,0,0,1,5.6-7.57l24.69-7.6Z"/><path class="cls-9" d="M857.44,1396.63l-.44,18.19H788.82v-3a7.91,7.91,0,0,1,5.6-7.57l24.69-7.6Z"/><polygon class="cls-16" points="886.09 956.86 892.64 946.86 936.5 946.86 941.03 956.86 886.09 956.86"/><path class="cls-16" d="M865,1044.23l1.31,51.33-56.2,291.93a7.55,7.55,0,0,0,7.38,9.14h41.44a7.55,7.55,0,0,0,7.15-5.15l32.52-126.93v124.53a7.55,7.55,0,0,0,7.55,7.55h36.33a7.55,7.55,0,0,0,7.54-7.16l10.87-243.53a70.46,70.46,0,0,0-3.42-25.54l-7.82-23.84,22.82-80.09A49.89,49.89,0,0,0,961,968.85l-4.65-5a21.8,21.8,0,0,0-16-7h-61a33.23,33.23,0,0,0-27.07,14l-29.73,41.83L792.3,979.41a6.54,6.54,0,0,0-8.79-.79L764.63,993a7.9,7.9,0,0,0-1.42,11.17l38.68,49.26a27.36,27.36,0,0,0,35.15,6.82Z"/><rect class="cls-12" x="863.29" y="1085.24" width="89.67" height="11.33"/><polygon class="cls-12" points="956.48 1243.93 837.71 1243.93 839.89 1232.6 956.98 1232.6 956.48 1243.93"/><polygon class="cls-10" points="864.96 1044.23 886.09 1031.63 865.6 1066.9 864.96 1044.23"/><polygon class="cls-12" points="809.29 998.05 778.1 1023.17 771.6 1014.89 802.18 990.25 809.29 998.05"/><line class="cls-5" x1="898.56" y1="1264.55" x2="936.89" y2="1143.28"/><rect class="cls-17" x="651.95" y="1327.6" width="82.05" height="87.22"/><ellipse class="cls-1" cx="692.98" cy="1327.69" rx="41.03" ry="17.5"/><path class="cls-4" d="M725.8,1338.19c-7.49,4.25-19.41,7-32.83,7s-25.34-2.75-32.82-7c7.48-4.25,19.4-7,32.82-7S718.31,1333.94,725.8,1338.19Z"/><path class="cls-4" d="M691.7,1354.17l-3,21.3a6.5,6.5,0,0,1-6.43,5.58h0a6.5,6.5,0,0,1-6.5-6.49v-23.21a5.85,5.85,0,0,0-5.85-5.85h0a5.85,5.85,0,0,0-5.86,5.85v3.05a8.14,8.14,0,0,1-8.14,8.14H652v-34.85c0,9.31,17.06,17.47,38.58,17.47,5.89,0,11.34-.38,11.34-.38h0A11,11,0,0,0,691.7,1354.17Z"/><path class="cls-4" d="M712.82,1343c12.63-3,21.18-8.73,21.18-15.32v31.66h-4.18a9.36,9.36,0,0,1-9.36-9.32h0a7.09,7.09,0,0,0-7.64-7Z"/><circle class="cls-4" cx="681.79" cy="1392.62" r="4.87"/><polygon class="cls-1" points="516.09 956.86 523.96 946.86 570.67 946.86 574.39 956.86 516.09 956.86"/><path class="cls-1" d="M506.63,956.86h79a39.69,39.69,0,0,1,37.57,26.92l9.81,28.88-42.53,27.57H500.59l-50.68-27.57,23-37A39.69,39.69,0,0,1,506.63,956.86Z"/><polygon class="cls-9" points="523.86 1400.63 539.13 1414.82 475.25 1414.82 477.16 1400.63 523.86 1400.63"/><polygon class="cls-9" points="609.86 1400.63 627.13 1414.82 563.25 1414.82 563.16 1400.63 609.86 1400.63"/><polygon class="cls-16" points="500.59 1040.23 500.59 1200.02 470.25 1400.63 523.86 1400.63 547.13 1253.79 560.05 1400.63 610.66 1400.63 590.43 1096.59 590.43 956.86 576.5 956.86 571.5 1006.75 519.09 1006.75 514.09 956.86 500.35 956.86 500.59 1040.23"/><line class="cls-5" x1="547.12" y1="1253.79" x2="535.74" y2="1139.85"/><polygon class="cls-12" points="601.95 1269.06 548.83 1269.06 547.13 1253.79 544.06 1269.06 490.27 1269.06 492.55 1253.79 600.93 1253.79 601.95 1269.06"/><rect class="cls-12" x="500.59" y="1066.9" width="89.85" height="11.33"/><path class="cls-13" d="M524.62,946.86l7.86-12.32-9.22-27.61a19.76,19.76,0,0,1,11.11-24.5l13.73-5.76a19.76,19.76,0,0,1,25.14,9l6.54,12.39,8.13,4.31-5.17,7.83,5.17,18-19.67,9.27,2.36,9.36Z"/><path class="cls-9" d="M582.74,910.21l3.64,12.71a6.48,6.48,0,0,1-3.47,7.66l-10.19,4.8a9.29,9.29,0,0,1-12.18-4.08l-11.07-21.09c-.26.08-5.83,1.79-7.3,7.48a10.57,10.57,0,0,0,3,10.29c-.06,0-6.27,3.25-6.33,3.28a69.23,69.23,0,0,0-6.32,3.28l-9.76-28.37a20.87,20.87,0,0,1,12.48-26.36L553,873.2a13.42,13.42,0,0,1,17.41,8.37h0l-17.14,9a5,5,0,0,0-2,6.87l12.62,22a5.14,5.14,0,0,0,8,1.13Z"/><path class="cls-18" d="M520.67,918.24c-10.13-16.19-7.9-36.1,3.15-46.6,13.95-13.26,41.78-11.34,56.35,9.47a255.6,255.6,0,0,1-59.5,37.13Z"/><ellipse class="cls-15" cx="573.3" cy="899.72" rx="1.07" ry="1.59" transform="translate(-297.34 283.15) rotate(-22.19)"/><path class="cls-13" d="M459.19,1017.71l-8.63,39.19-27,51.23-15.36,4.22a5.37,5.37,0,0,0-3.82,6.38l2.43,10.57a6.9,6.9,0,0,0,6.72,5.36H425.8a7.72,7.72,0,0,0,6.93-4.33l3-6.16H441a13.4,13.4,0,0,0,10-4.44l38.24-42.51,11.39-37Z"/><path class="cls-13" d="M629.67,1014.79l10.62,42.11,27,51.23,15.36,4.22a5.37,5.37,0,0,1,3.82,6.38L684,1129.3a6.89,6.89,0,0,1-6.72,5.36H665.06a7.72,7.72,0,0,1-6.94-4.33l-3-6.16h-5.24a13.41,13.41,0,0,1-10-4.44l-38.24-42.51-10.34-37.56Z"/><rect class="cls-13" x="297.22" y="1414.82" width="829.84" height="45.96"/><rect class="cls-5" x="1030.52" y="1414.82" width="96.54" height="45.96"/><polyline class="cls-5" points="685.2 1124.17 1127.06 1124.17 1127.06 1414.82 297.22 1414.82 297.22 1124.17 405.65 1124.17"/><line class="cls-5" x1="435.75" y1="1124.17" x2="665.04" y2="1124.17"/><rect class="cls-5" x="297.22" y="1124.17" width="96.54" height="290.65"/><rect class="cls-5" x="1030.52" y="1124.17" width="96.54" height="290.65"/><polyline class="cls-5" points="297.22 1124.17 345.49 882.04 393.75 1124.17"/><ellipse class="cls-16" cx="339.75" cy="863.78" rx="12.63" ry="26.96"/><ellipse class="cls-1" cx="350.75" cy="863.78" rx="12.63" ry="26.96"/><line class="cls-5" x1="345.48" y1="828.48" x2="345.48" y2="368.45"/><polyline class="cls-5" points="1030.52 1124.17 1078.79 882.04 1127.06 1124.17"/><ellipse class="cls-16" cx="1073.05" cy="863.78" rx="12.63" ry="26.96"/><ellipse class="cls-1" cx="1084.05" cy="863.78" rx="12.63" ry="26.96"/><line class="cls-5" x1="1078.79" y1="828.48" x2="1078.79" y2="368.45"/></g><g id="SCAFFOLDING"><line class="cls-19" x1="1196.62" y1="368.45" x2="1196.62" y2="1631.55"/><line class="cls-19" x1="1705.54" y1="368.45" x2="1705.54" y2="1631.55"/><polyline class="cls-19" points="1196.62 527.55 1705.54 527.55 1196.62 867.31 1705.54 867.31"/><polyline class="cls-19" points="1196.62 1207.07 1705.54 1207.07 1196.62 867.31"/><polyline class="cls-19" points="1705.54 1546.83 1196.62 1546.83 1705.54 1207.07"/><circle class="cls-4" cx="1196.62" cy="867.31" r="19.33"/><circle class="cls-16" cx="1196.62" cy="867.31" r="9.66"/><circle class="cls-4" cx="1705.54" cy="527.55" r="19.33"/><circle class="cls-16" cx="1705.54" cy="527.55" r="9.66"/><circle class="cls-4" cx="1705.54" cy="1207.07" r="19.33"/><circle class="cls-16" cx="1705.54" cy="1207.07" r="9.66"/><circle class="cls-4" cx="1196.62" cy="1545.23" r="19.33"/><circle class="cls-16" cx="1196.62" cy="1545.23" r="9.66"/></g></svg>