<svg xmlns="http://www.w3.org/2000/svg" viewBox="0 0 1096.02 1053.96"><defs><style>.cls-1{fill:#638000;stroke-miterlimit:10;}.cls-1,.cls-10,.cls-2,.cls-3,.cls-4,.cls-5,.cls-6,.cls-7,.cls-8,.cls-9{stroke:#003a47;stroke-width:4.53px;}.cls-2{fill:#ffefbe;}.cls-2,.cls-6{stroke-linecap:round;}.cls-10,.cls-2,.cls-3,.cls-4,.cls-5,.cls-6,.cls-7,.cls-8,.cls-9{stroke-linejoin:round;}.cls-3{fill:#f2d300;}.cls-4{fill:#ff7a00;}.cls-5{fill:#85aff6;}.cls-6{fill:none;}.cls-7{fill:#cedffb;}.cls-8{fill:#fff;}.cls-9{fill:#c46855;}.cls-10{fill:#003a47;}</style></defs><g id="Isolation_Mode" data-name="Isolation Mode"><rect class="cls-1" x="233.51" y="744.51" width="629.01" height="52.22" rx="26.11"/><rect class="cls-2" x="539.07" y="496.6" width="274.84" height="247.91"/><polygon class="cls-3" points="539.07 744.51 311.96 744.51 311.96 496.6 425.51 370.45 539.07 496.6 539.07 744.51"/><polygon class="cls-4" points="813.91 496.6 700.35 370.45 425.51 370.45 539.07 496.6 813.91 496.6"/><rect class="cls-5" x="454.66" y="571.15" width="84.4" height="120.07"/><line class="cls-6" x1="496.86" y1="571.15" x2="496.86" y2="691.22"/><rect class="cls-7" x="539.07" y="571.15" width="84.4" height="120.07"/><line class="cls-6" x1="581.27" y1="571.15" x2="581.27" y2="691.22"/><line class="cls-6" x1="454.66" y1="611.18" x2="623.47" y2="611.18"/><line class="cls-6" x1="454.66" y1="651.2" x2="623.47" y2="651.2"/><rect class="cls-5" x="312.59" y="571.15" width="84.4" height="120.07"/><line class="cls-6" x1="354.79" y1="571.15" x2="354.79" y2="691.22"/><line class="cls-6" x1="312.59" y1="611.18" x2="396.99" y2="611.18"/><line class="cls-6" x1="312.59" y1="651.2" x2="396.99" y2="651.2"/><rect class="cls-7" x="771.71" y="571.15" width="42.2" height="120.07"/><line class="cls-6" x1="771.71" y1="611.18" x2="813.91" y2="611.18"/><line class="cls-6" x1="771.71" y1="651.2" x2="813.91" y2="651.2"/><circle class="cls-8" cx="425.51" cy="464.5" r="29.15"/><line class="cls-6" x1="396.36" y1="464.5" x2="454.66" y2="464.5"/><rect class="cls-9" x="658.85" y="571.15" width="75.47" height="155.89"/><rect class="cls-8" x="648.38" y="727.05" width="96.41" height="17.46"/><path class="cls-7" d="M696.58,531.56h0a37.73,37.73,0,0,1,37.73,37.73v1.86a0,0,0,0,1,0,0H658.85a0,0,0,0,1,0,0v-1.86A37.73,37.73,0,0,1,696.58,531.56Z"/><line class="cls-6" x1="696.58" y1="571.15" x2="696.58" y2="531.56"/><polyline class="cls-6" points="725.32 544.85 696.58 571.15 668.09 545.11"/><circle class="cls-3" cx="674.98" cy="649.1" r="6.05"/><rect class="cls-2" x="599.82" y="337.43" width="41.27" height="59.48"/><polygon class="cls-3" points="599.82 337.44 599.82 396.91 576 370.45 576 337.44 599.82 337.44"/><rect class="cls-3" x="568.74" y="325.08" width="23.58" height="12.36"/><rect class="cls-2" x="592.32" y="325.08" width="55.58" height="12.36"/><polygon class="cls-10" points="599.82 396.91 576 370.45 543.56 370.45 599.82 396.91"/><path class="cls-7" d="M452.62,318.49H265.1c.87-1.21,8.45-11.41,22-11.87a27.66,27.66,0,0,1,16.12,4.61c-.86-5.85-.74-14.2,4.47-21.28,8.57-11.59,27.48-15.05,43.26-5.39.9-14,10.93-25.14,23-27,14.72-2.33,30.44,9.49,32.06,27,2.24-.73,15.58-4.82,28.76,2.69C452,297.1,452.61,317.52,452.62,318.49Z"/><circle class="cls-1" cx="247.75" cy="705.92" r="8.77"/><ellipse class="cls-1" cx="289.21" cy="616.78" rx="52.9" ry="73.46"/><line class="cls-6" x1="288.85" y1="744.51" x2="288.85" y2="601.67"/><line class="cls-6" x1="302.89" y1="618.3" x2="288.85" y2="636.06"/><line class="cls-6" x1="274" y1="643.05" x2="288.85" y2="663.57"/></g></svg>