<svg id="Слой_1" data-name="Слой 1" xmlns="http://www.w3.org/2000/svg" viewBox="0 0 1096.02 1053.96"><defs><style>.cls-1,.cls-4{fill:#f2d300;}.cls-2{fill:none;}.cls-2,.cls-4,.cls-5{stroke:#003a47;stroke-width:6.26px;}.cls-2,.cls-4{stroke-miterlimit:10;}.cls-3{fill:#638000;}.cls-5{fill:#003a47;stroke-linejoin:round;}.cls-6{fill:#fff;}</style></defs><g id="MONEY"><path class="cls-1" d="M391.67,347.82,240.08,324.17l-57,365,151.6,23.66ZM217.19,680a17.88,17.88,0,0,0-14.9-20.41l47-301.34a17.85,17.85,0,0,0,20.4-14.89L357.61,357a17.87,17.87,0,0,0,14.9,20.41l-47,301.34a17.87,17.87,0,0,0-20.4,14.89Z"/><path class="cls-2" d="M391.67,347.82,240.08,324.17l-57,365,151.6,23.66Z"/><path class="cls-3" d="M305.09,693.66,217.19,680a17.88,17.88,0,0,0-14.9-20.41l47-301.34a17.85,17.85,0,0,0,20.4-14.89L357.61,357a17.87,17.87,0,0,0,14.9,20.41l-47,301.34A17.87,17.87,0,0,0,305.09,693.66Z"/><circle class="cls-1" cx="287.4" cy="518.49" r="43.07"/><path class="cls-1" d="M407.19,345.36H253.76V714.77H407.19ZM286,700.42a17.87,17.87,0,0,0-17.87-17.86v-305A17.86,17.86,0,0,0,286,359.71h89a17.85,17.85,0,0,0,17.86,17.86v305A17.86,17.86,0,0,0,375,700.42Z"/><path class="cls-2" d="M407.19,345.36H253.76V714.77H407.19Z"/><path class="cls-3" d="M375,700.42H286a17.87,17.87,0,0,0-17.87-17.86v-305A17.86,17.86,0,0,0,286,359.71h89a17.85,17.85,0,0,0,17.86,17.86v305A17.86,17.86,0,0,0,375,700.42Z"/><circle class="cls-1" cx="330.47" cy="530.07" r="43.07"/><path class="cls-1" d="M428.53,330.34,284,381.71,407.64,729.79l144.58-51.37Zm4.68,375.14a17.87,17.87,0,0,0-22.81-10.85L308.28,407.25a17.86,17.86,0,0,0,10.86-22.82L403,354.65a17.87,17.87,0,0,0,22.82,10.85L527.89,652.88A17.88,17.88,0,0,0,517,675.7Z"/><path class="cls-2" d="M428.53,330.34,284,381.71,407.64,729.79l144.58-51.37Z"/><path class="cls-3" d="M517,675.7l-83.83,29.78a17.87,17.87,0,0,0-22.81-10.85L308.28,407.25a17.86,17.86,0,0,0,10.86-22.82L403,354.65a17.87,17.87,0,0,0,22.82,10.85L527.89,652.88A17.88,17.88,0,0,0,517,675.7Z"/><circle class="cls-1" cx="418.09" cy="530.07" r="43.07"/><path class="cls-1" d="M430.57,328.25,326.43,440.93,597.71,691.66,701.85,579Zm178.49,330a17.88,17.88,0,0,0-25.25,1l-224-207a17.87,17.87,0,0,0-1-25.25l60.38-65.33a17.85,17.85,0,0,0,25.24-1l224,207a17.87,17.87,0,0,0,1,25.24Z"/><path class="cls-2" d="M430.57,328.25,326.43,440.93,597.71,691.66,701.85,579Z"/><path class="cls-3" d="M669.44,592.92l-60.38,65.33a17.88,17.88,0,0,0-25.25,1l-224-207a17.87,17.87,0,0,0-1-25.25l60.38-65.33a17.85,17.85,0,0,0,25.24-1l224,207A17.87,17.87,0,0,0,669.44,592.92Z"/><circle class="cls-1" cx="514.14" cy="509.96" r="43.07"/><circle class="cls-4" cx="682.46" cy="423.82" r="43.07"/><circle class="cls-4" cx="869.82" cy="548.77" r="43.07"/><polygon class="cls-5" points="326.43 440.93 536.98 635.53 552.22 678.42 326.43 440.93"/><circle class="cls-4" cx="732.19" cy="386.23" r="43.07"/><circle class="cls-6" cx="732.19" cy="386.23" r="20.86"/></g></svg>