<svg id="Слой_1" data-name="Слой 1" xmlns="http://www.w3.org/2000/svg" viewBox="0 0 1096.02 1053.96"><defs><style>.cls-1{fill:#fff;}.cls-1,.cls-3,.cls-4,.cls-5,.cls-6,.cls-7,.cls-8{stroke:#003a47;stroke-linejoin:round;stroke-width:3px;}.cls-2{fill:#f2d300;}.cls-3{fill:none;stroke-linecap:round;}.cls-4{fill:#cedffb;}.cls-5{fill:#85aff6;}.cls-6{fill:#94424f;}.cls-7{fill:#003a47;}.cls-8{fill:#ff7a00;}</style></defs><g id="FLOOR"><rect class="cls-1" x="214.81" y="661.6" width="646.23" height="186.82"/><rect class="cls-2" x="285.01" y="664.33" width="52.58" height="181.35"/><rect class="cls-2" x="398.09" y="664.33" width="52.58" height="181.35"/><rect class="cls-2" x="511.17" y="664.33" width="52.58" height="181.35"/><rect class="cls-2" x="624.26" y="664.33" width="52.58" height="181.35"/><rect class="cls-2" x="737.34" y="664.33" width="52.58" height="181.35"/><circle class="cls-3" cx="203.4" cy="665.78" r="4.19"/><circle class="cls-3" cx="203.4" cy="725.26" r="4.19"/><circle class="cls-3" cx="203.4" cy="784.75" r="4.19"/><circle class="cls-3" cx="203.4" cy="844.23" r="4.19"/><line class="cls-3" x1="192.83" y1="665.78" x2="182.98" y2="665.78"/><line class="cls-3" x1="192.83" y1="668.95" x2="182.98" y2="672.11"/><line class="cls-3" x1="182.98" y1="659.46" x2="192.83" y2="662.62"/><line class="cls-3" x1="192.83" y1="725.26" x2="182.98" y2="725.26"/><line class="cls-3" x1="192.83" y1="728.43" x2="182.98" y2="731.59"/><line class="cls-3" x1="182.98" y1="718.94" x2="192.83" y2="722.1"/><line class="cls-3" x1="192.83" y1="784.75" x2="182.98" y2="784.75"/><line class="cls-3" x1="192.83" y1="787.91" x2="182.98" y2="791.07"/><line class="cls-3" x1="182.98" y1="778.42" x2="192.83" y2="781.58"/><line class="cls-3" x1="192.83" y1="844.23" x2="182.98" y2="844.23"/><line class="cls-3" x1="192.83" y1="847.39" x2="182.98" y2="850.55"/><line class="cls-3" x1="182.98" y1="837.9" x2="192.83" y2="841.06"/><circle class="cls-3" cx="872.51" cy="665.78" r="4.19"/><circle class="cls-3" cx="872.51" cy="725.26" r="4.19"/><circle class="cls-3" cx="872.51" cy="784.75" r="4.19"/><circle class="cls-3" cx="872.51" cy="844.23" r="4.19"/><line class="cls-3" x1="883.08" y1="665.78" x2="892.93" y2="665.78"/><line class="cls-3" x1="883.08" y1="668.95" x2="892.93" y2="672.11"/><line class="cls-3" x1="892.93" y1="659.46" x2="883.08" y2="662.62"/><line class="cls-3" x1="883.08" y1="725.26" x2="892.93" y2="725.26"/><line class="cls-3" x1="883.08" y1="728.43" x2="892.93" y2="731.59"/><line class="cls-3" x1="892.93" y1="718.94" x2="883.08" y2="722.1"/><line class="cls-3" x1="883.08" y1="784.75" x2="892.93" y2="784.75"/><line class="cls-3" x1="883.08" y1="787.91" x2="892.93" y2="791.07"/><line class="cls-3" x1="892.93" y1="778.42" x2="883.08" y2="781.58"/><line class="cls-3" x1="883.08" y1="844.23" x2="892.93" y2="844.23"/><line class="cls-3" x1="883.08" y1="847.39" x2="892.93" y2="850.55"/><line class="cls-3" x1="892.93" y1="837.9" x2="883.08" y2="841.06"/></g><g id="COUCH"><path class="cls-4" d="M832.09,557.74H263.93a53.8,53.8,0,0,1-51.72-39L164.72,353.39a33.8,33.8,0,0,1,32.49-43.13h701.6a33.8,33.8,0,0,1,32.49,43.13L883.81,518.78A53.8,53.8,0,0,1,832.09,557.74Z"/><path class="cls-5" d="M803.56,511.47H292.46a38.08,38.08,0,0,1-36.6-27.56L217.05,348.74a30.16,30.16,0,0,1,29-38.48H850a30.16,30.16,0,0,1,29,38.48L840.16,483.91A38.08,38.08,0,0,1,803.56,511.47Z"/><path class="cls-5" d="M734.87,426.2H361.15a48.44,48.44,0,0,1-46.56-35.08l-32.94-114.7a57.23,57.23,0,0,1,55-73H759.37a57.23,57.23,0,0,1,55,73l-32.94,114.7A48.44,48.44,0,0,1,734.87,426.2Z"/><path class="cls-3" d="M834.82,495.14l-29-39.75a71.05,71.05,0,0,0-57.41-29.19H347.58a71,71,0,0,0-57.4,29.19l-29,39.75"/><polygon class="cls-6" points="310.19 620.42 297.65 620.42 299.18 557.74 342.68 557.74 310.19 620.42"/><polygon class="cls-6" points="785.83 620.42 798.37 620.42 796.84 557.74 753.34 557.74 785.83 620.42"/><polygon class="cls-7" points="299.18 557.74 342.68 557.74 336.59 569.49 299.03 563.62 299.18 557.74"/><polygon class="cls-7" points="796.84 557.74 753.34 557.74 759.43 569.49 796.99 563.62 796.84 557.74"/><path class="cls-1" d="M492.45,270.25c-28.88,2.29-60.14,3.63-93.48,3.46-29.15-.15-56.65-1.43-82.32-3.46,5.79,24.6,11.1,51.47,15.38,80.4,4.15,28.13-7.46,35.65-1.62,79.26,22.14,1.5,45.45,2.46,69.83,2.68,32.43.3,63.06-.74,91.67-2.68a666.13,666.13,0,0,0,5-71.69A664.18,664.18,0,0,0,492.45,270.25Z"/><path class="cls-7" d="M491.91,429.91l20.87-3.71L492.45,270.25a664.16,664.16,0,0,1,4.22,98.65C496,390.68,494.25,411.08,491.91,429.91Z"/><path class="cls-8" d="M446.59,312.62l2.9-2.12a13.78,13.78,0,0,1,21.83,12.6l-.39,3.57,3.28,1.45a13.77,13.77,0,0,1,0,25.21l-3.28,1.45.39,3.57A13.78,13.78,0,0,1,449.49,371l-2.9-2.12-2.9,2.12a13.77,13.77,0,0,1-21.82-12.6l.38-3.57L419,353.33a13.77,13.77,0,0,1,0-25.21l3.28-1.45-.38-3.57a13.77,13.77,0,0,1,21.82-12.6Z"/><circle class="cls-2" cx="446.59" cy="340.72" r="8.42"/><path class="cls-8" d="M419.68,429.17,417,432.63q-16.29.08-33.35-.3-13.54-.31-26.61-.91a15.63,15.63,0,0,1-.83-16c2.48-4.86,7.32-8.36,13.38-7.83l3.71.32,1.42-3.43a14.28,14.28,0,0,1,26.12-.55l1.58,3.37,3.69-.48A14.28,14.28,0,0,1,419.68,429.17Z"/><path class="cls-2" d="M377.22,430.57a9.19,9.19,0,0,1,18.37.35Z"/><path class="cls-8" d="M378.38,294.28l-4.11.81-.47,4.16A16.06,16.06,0,0,1,345.75,308L343,304.87l-3.84,1.66a15.74,15.74,0,0,1-14.91-1.07q-3.6-18.3-7.6-35.21c23.19,1.84,47.9,3.06,74,3.39A16.06,16.06,0,0,1,378.38,294.28Z"/><path class="cls-2" d="M358.47,274.4a9,9,0,1,1-17.92-.88Z"/><line class="cls-3" x1="332.03" y1="350.65" x2="337.21" y2="378.06"/></g></svg>