<svg xmlns="http://www.w3.org/2000/svg" viewBox="0 0 1096.02 1053.96"><defs><style>.cls-1{fill:#f2d300;}.cls-1,.cls-2,.cls-3,.cls-4,.cls-5,.cls-6,.cls-7,.cls-9{stroke:#003a47;}.cls-1,.cls-10,.cls-5,.cls-8,.cls-9{stroke-miterlimit:10;}.cls-1,.cls-10,.cls-2,.cls-3,.cls-4,.cls-5,.cls-6,.cls-7,.cls-8,.cls-9{stroke-width:4.08px;}.cls-2{fill:#fff;}.cls-2,.cls-3,.cls-4,.cls-6,.cls-7{stroke-linejoin:round;}.cls-3{fill:#85aff6;}.cls-10,.cls-4,.cls-8{fill:none;}.cls-4,.cls-8{stroke-linecap:round;}.cls-5{fill:#be5c4b;}.cls-6{fill:#003a47;}.cls-7{fill:#ff7a00;}.cls-8{stroke:#f2d300;}.cls-9{fill:#638000;}.cls-10{stroke:#fff;}</style></defs><g id="Isolation_Mode" data-name="Isolation Mode"><rect class="cls-1" x="212.23" y="374.63" width="69.52" height="69.52"/><rect class="cls-2" x="212.23" y="305.11" width="69.52" height="69.52"/><rect class="cls-2" x="281.75" y="374.63" width="69.52" height="69.52"/><rect class="cls-1" x="281.75" y="305.11" width="69.52" height="69.52"/><rect class="cls-1" x="351.27" y="374.63" width="69.52" height="69.52"/><rect class="cls-2" x="351.27" y="305.11" width="69.52" height="69.52"/><rect class="cls-2" x="420.78" y="374.63" width="69.52" height="69.52"/><rect class="cls-1" x="420.78" y="305.11" width="69.52" height="69.52"/><polygon class="cls-2" points="546.78 315.46 546.78 390.91 490.3 374.63 490.3 305.11 546.78 315.46"/><polygon class="cls-1" points="546.78 390.91 546.78 466.32 490.3 444.14 490.3 374.63 546.78 390.91"/><polygon class="cls-2" points="609.93 409.1 609.93 491.13 546.78 466.32 546.78 390.91 609.93 409.1"/><polygon class="cls-1" points="609.93 327.03 609.93 409.1 546.78 390.91 546.78 315.46 609.93 327.03"/><polygon class="cls-2" points="681.68 340.18 681.68 429.76 609.93 409.1 609.93 327.03 681.68 340.18"/><polygon class="cls-1" points="757 353.99 757 451.46 681.68 429.76 681.68 340.18 757 353.99"/><polygon class="cls-2" points="757 451.46 757 548.9 681.68 519.32 681.68 429.76 757 451.46"/><polygon class="cls-2" points="842.58 369.68 842.58 476.13 757 451.46 757 353.99 842.58 369.68"/><polygon class="cls-1" points="883.78 377.23 883.78 487.99 842.58 476.13 842.58 369.68 883.78 377.23"/><polygon class="cls-2" points="883.78 487.99 883.78 598.72 842.58 582.53 842.58 476.13 883.78 487.99"/><polygon class="cls-1" points="842.58 476.13 842.58 582.53 757 548.9 757 451.46 842.58 476.13"/><polygon class="cls-1" points="681.68 429.76 681.68 519.32 609.93 491.13 609.93 409.1 681.68 429.76"/><polygon class="cls-2" points="490.3 305.11 572.93 247.22 757.01 247.22 757.01 353.99 490.3 305.11"/><rect class="cls-2" x="627.85" y="114.42" width="72.58" height="132.8"/><rect class="cls-3" x="700.43" y="114.42" width="56.58" height="132.8"/><polygon class="cls-3" points="609.93 327 700.43 247.22 757.01 247.22 757.01 353.99 609.93 327"/><polygon class="cls-2" points="212.23 707.17 212.23 939.54 751.7 939.54 458.99 707.17 212.23 707.17"/><line class="cls-4" x1="273.92" y1="707.17" x2="332.89" y2="939.54"/><line class="cls-4" x1="335.61" y1="707.17" x2="468.28" y2="939.54"/><line class="cls-4" x1="397.3" y1="707.17" x2="603.68" y2="939.54"/><rect class="cls-5" x="281.75" y="215.73" width="208.55" height="16.75"/><polygon class="cls-6" points="281.75 232.48 490.3 232.48 490.3 244.36 281.75 232.48"/><path class="cls-2" d="M329.11,274.89l-2,2a15.86,15.86,0,0,1-22.39,0l-9.39-9.39c1.58,1.58,8.32-2.6,15-9.33s10.9-13.46,9.32-15l9.39,9.39A15.82,15.82,0,0,1,329.11,274.89Z"/><ellipse class="cls-6" cx="307.54" cy="255.29" rx="17.23" ry="4.05" transform="translate(-90.44 292.23) rotate(-45)"/><path class="cls-4" d="M322.48,237.22H328a5.89,5.89,0,0,1,5.89,5.89v.76a5.89,5.89,0,0,1-5.89,5.89h-5.56a0,0,0,0,1,0,0V237.22A0,0,0,0,1,322.48,237.22Z" transform="translate(-76.05 303.39) rotate(-45)"/><path class="cls-1" d="M396.92,274.89l-2,2a15.86,15.86,0,0,1-22.39,0l-9.4-9.39c1.59,1.58,8.32-2.6,15-9.33s10.91-13.46,9.32-15l9.4,9.39A15.84,15.84,0,0,1,396.92,274.89Z"/><ellipse class="cls-6" cx="375.35" cy="255.29" rx="17.23" ry="4.05" transform="translate(-70.58 340.18) rotate(-45)"/><path class="cls-4" d="M390.29,237.22h5.56a5.89,5.89,0,0,1,5.89,5.89v.76a5.89,5.89,0,0,1-5.89,5.89h-5.56a0,0,0,0,1,0,0V237.22A0,0,0,0,1,390.29,237.22Z" transform="translate(-56.19 351.34) rotate(-45)"/><path class="cls-7" d="M464.73,274.89l-2,2a15.86,15.86,0,0,1-22.39,0L431,267.48c1.58,1.58,8.32-2.6,15-9.33s10.9-13.46,9.32-15l9.39,9.39A15.82,15.82,0,0,1,464.73,274.89Z"/><ellipse class="cls-6" cx="443.16" cy="255.29" rx="17.23" ry="4.05" transform="translate(-50.72 388.13) rotate(-45)"/><path class="cls-4" d="M458.1,237.22h5.56a5.89,5.89,0,0,1,5.89,5.89v.76a5.89,5.89,0,0,1-5.89,5.89H458.1a0,0,0,0,1,0,0V237.22A0,0,0,0,1,458.1,237.22Z" transform="translate(-36.33 399.29) rotate(-45)"/><circle class="cls-2" cx="421.79" cy="172.65" r="41.98"/><circle class="cls-8" cx="421.79" cy="172.65" r="29.48"/><path class="cls-6" d="M463.78,172.65v43.08h-42a44.93,44.93,0,0,0,27.39-11.26C462.86,192.15,463.68,175.66,463.78,172.65Z"/><polygon class="cls-2" points="883.78 598.72 490.3 444.14 212.23 444.14 212.23 519.32 458.99 519.32 751.7 675.42 883.78 675.42 883.78 598.72"/><rect class="cls-9" x="212.23" y="519.32" width="246.76" height="187.85"/><line class="cls-4" x1="335.61" y1="707.17" x2="335.61" y2="519.32"/><line class="cls-8" x1="316.51" y1="548.9" x2="316.51" y2="574.9"/><line class="cls-8" x1="356.31" y1="548.9" x2="356.31" y2="574.9"/><rect class="cls-6" x="751.7" y="675.42" width="132.08" height="264.12"/><polygon class="cls-9" points="577.35 638.62 577.35 801.13 751.7 939.54 751.7 748.97 577.35 638.62"/><line class="cls-4" x1="751.7" y1="847.12" x2="577.35" y2="725.12"/><line class="cls-8" x1="634.98" y1="693.32" x2="661.19" y2="709.91"/><line class="cls-8" x1="634.98" y1="783.25" x2="661.19" y2="802.78"/><polygon class="cls-1" points="577.35 582.53 577.35 638.62 751.7 748.97 751.7 675.42 577.35 582.53"/><line class="cls-4" x1="650.78" y1="685.09" x2="650.78" y2="621.6"/><line class="cls-4" x1="684.46" y1="655.8" x2="708.77" y2="669.22"/><line class="cls-4" x1="605.35" y1="611.84" x2="620.56" y2="620.23"/><polygon class="cls-6" points="458.99 519.32 681.68 519.32 842.58 582.53 577.35 582.53 458.99 519.32"/><polygon class="cls-3" points="458.99 707.17 458.99 519.32 577.35 582.53 577.35 801.13 458.99 707.17"/><circle class="cls-2" cx="485.18" cy="565.47" r="6.81"/><circle class="cls-2" cx="517.77" cy="581.71" r="6.81"/><circle class="cls-2" cx="553.31" cy="600.18" r="6.81"/><polygon class="cls-6" points="556.11 632.97 556.11 713.2 479.43 664.2 479.43 587.74 556.11 632.97"/><line class="cls-10" x1="491.99" y1="655.8" x2="537.84" y2="635.12"/><line class="cls-10" x1="520.81" y1="658.73" x2="543.73" y2="648.39"/><path class="cls-7" d="M703.92,541.85a143.4,143.4,0,0,1-81.73,0V520.59a40.87,40.87,0,0,1,81.73,0Z"/><path class="cls-4" d="M703.92,519.78V493a40.86,40.86,0,0,0-40.87-40.86h0A40.86,40.86,0,0,0,622.19,493v26.76"/><path class="cls-7" d="M622.19,541.93l-23.55-34.59a5.68,5.68,0,0,1-1-3.21h0a5.71,5.71,0,0,1,9.35-4.4l15.19,12.61Z"/><circle class="cls-6" cx="603.33" cy="504.08" r="5.68"/></g></svg>