<svg xmlns="http://www.w3.org/2000/svg" viewBox="0 0 1096.02 1053.96"><defs><style>.cls-1{fill:#ff7a00;stroke:#003a47;stroke-width:9.77px;}.cls-1,.cls-2,.cls-3,.cls-4{stroke-linejoin:round;}.cls-2,.cls-3,.cls-4{fill:none;stroke:#fff;}.cls-2,.cls-3{stroke-width:16.28px;}.cls-3{stroke-linecap:round;}.cls-4{stroke-width:13.02px;}</style></defs><g id="Isolation_Mode" data-name="Isolation Mode"><path class="cls-1" d="M548,300.69l23.33-17.08c77.79-57,186.19,5.63,175.77,101.48L744,413.83l26.46,11.67c88.21,38.9,88.21,164.06,0,203L744,640.12l3.13,28.75c10.42,95.84-98,158.43-175.77,101.48L548,753.27l-23.33,17.08c-77.79,56.95-186.19-5.64-175.77-101.48L352,640.12l-26.46-11.66c-88.21-38.9-88.21-164.06,0-203L352,413.83l-3.13-28.74c-10.42-95.85,98-158.43,175.77-101.48Z"/><circle class="cls-2" cx="548.01" cy="436.25" r="47.44"/><line class="cls-3" x1="548.01" y1="483.7" x2="548.01" y2="665.15"/><line class="cls-4" x1="500.57" y1="594.98" x2="548.01" y2="594.98"/><line class="cls-4" x1="500.57" y1="639.63" x2="548.01" y2="639.63"/></g></svg>