<svg id="Слой_1" data-name="Слой 1" xmlns="http://www.w3.org/2000/svg" viewBox="0 0 1096.02 1053.96"><defs><style>.cls-1{fill:#f2d300;}.cls-1,.cls-2,.cls-3,.cls-4,.cls-5{stroke:#003a47;stroke-linejoin:round;stroke-width:4.25px;}.cls-2{fill:none;}.cls-3{fill:#c46855;}.cls-4{fill:#003a47;}.cls-5{fill:#fff;}</style></defs><g id="SIGN"><rect class="cls-1" x="353.07" y="171.25" width="372.99" height="313.22"/><line class="cls-2" x1="702.85" y1="171.25" x2="702.85" y2="485.06"/><polygon class="cls-3" points="550.89 921.52 531.13 921.41 531.13 485.06 550.89 485.06 550.89 921.52"/><rect class="cls-4" x="531.13" y="485.06" width="19.76" height="8.09"/><polygon class="cls-5" points="648.07 403.07 655.85 386.27 663.11 403.31 681.68 401.59 670.43 416.35 681.22 431.44 662.71 429.15 654.92 445.96 647.67 428.93 629.1 430.64 640.34 415.88 629.56 400.79 648.07 403.07"/><path class="cls-5" d="M485.26,262.77h-21v13.48h17.58a5.27,5.27,0,0,1,3.65,1.1,3.79,3.79,0,0,1,1.21,2.93,3.68,3.68,0,0,1-1.23,2.91,5.32,5.32,0,0,1-3.63,1.08H464.23v17.37a7,7,0,0,1-1.5,4.91,5.4,5.4,0,0,1-7.69,0,7,7,0,0,1-1.49-4.89V261.08a8.81,8.81,0,0,1,.68-3.76,4.25,4.25,0,0,1,2.14-2.12,8.87,8.87,0,0,1,3.72-.67h25.17a5.51,5.51,0,0,1,3.8,1.13,4.21,4.21,0,0,1,0,6A5.46,5.46,0,0,1,485.26,262.77Z"/><path class="cls-5" d="M521.44,253.63A28.15,28.15,0,0,1,535.52,257a21.6,21.6,0,0,1,8.9,9.46,32.29,32.29,0,0,1,3,14.4,35,35,0,0,1-1.66,11.11,24,24,0,0,1-5,8.67,21.71,21.71,0,0,1-8.13,5.61,29.43,29.43,0,0,1-11,1.94,29.08,29.08,0,0,1-11.07-2,21.85,21.85,0,0,1-8.16-5.63,24,24,0,0,1-4.95-8.73,35.47,35.47,0,0,1-1.67-11,34.18,34.18,0,0,1,1.74-11.15A23.94,23.94,0,0,1,502.6,261a21.89,21.89,0,0,1,8-5.45A29,29,0,0,1,521.44,253.63Zm15.17,27.12a24.71,24.71,0,0,0-1.87-10,13.9,13.9,0,0,0-5.34-6.41,14.59,14.59,0,0,0-8-2.18,14.31,14.31,0,0,0-5.92,1.21,13,13,0,0,0-4.67,3.5,16.62,16.62,0,0,0-3.09,5.88,26.47,26.47,0,0,0-1.14,8,27.05,27.05,0,0,0,1.14,8.12,16.57,16.57,0,0,0,3.2,6,13.41,13.41,0,0,0,4.74,3.57,14.24,14.24,0,0,0,5.88,1.19,14.4,14.4,0,0,0,7.54-2.05,14.06,14.06,0,0,0,5.46-6.33A24.35,24.35,0,0,0,536.61,280.75Z"/><path class="cls-5" d="M573.75,284.7H570v16.94a7.07,7.07,0,0,1-1.47,4.93,5,5,0,0,1-3.85,1.58,4.87,4.87,0,0,1-4-1.66,7.29,7.29,0,0,1-1.41-4.85V261.08q0-3.45,1.55-5t5-1.55h17.37a51.51,51.51,0,0,1,6.15.31,15.18,15.18,0,0,1,4.6,1.24,13.46,13.46,0,0,1,4.39,3,13.1,13.1,0,0,1,2.89,4.52,15,15,0,0,1,1,5.44q0,5.91-3.33,9.42c-2.21,2.36-5.58,4-10.08,5a19.8,19.8,0,0,1,5.43,4.46,46.33,46.33,0,0,1,4.62,6.28,46.85,46.85,0,0,1,3.16,6,11.75,11.75,0,0,1,1.13,3.69,3.82,3.82,0,0,1-.66,2.07,4.66,4.66,0,0,1-1.82,1.61,5.64,5.64,0,0,1-2.66.6,5.14,5.14,0,0,1-3-.85,7.93,7.93,0,0,1-2.1-2.14q-.88-1.29-2.39-3.81l-4.28-7.12a40,40,0,0,0-4.12-6,10.16,10.16,0,0,0-3.69-2.8A12.48,12.48,0,0,0,573.75,284.7Zm6.12-22.15H570V277h9.57a27,27,0,0,0,6.47-.66,7.61,7.61,0,0,0,4-2.27,6.5,6.5,0,0,0,1.39-4.4,6.87,6.87,0,0,0-1.12-3.87,6.73,6.73,0,0,0-3.09-2.5C586,262.82,583.53,262.55,579.87,262.55Z"/><path class="cls-5" d="M473.86,372.91a15.51,15.51,0,0,1-2.46,8.59,16.34,16.34,0,0,1-7.21,6,27,27,0,0,1-11.25,2.16q-7.81,0-12.88-2.95a17.09,17.09,0,0,1-5.84-5.66,12.88,12.88,0,0,1-2.25-6.89,4.66,4.66,0,0,1,4.78-4.71,4.06,4.06,0,0,1,2.86,1.08,8.42,8.42,0,0,1,2,3.2,21,21,0,0,0,2.17,4.2,8.83,8.83,0,0,0,3.29,2.79,12.22,12.22,0,0,0,5.58,1.1,12.61,12.61,0,0,0,7.71-2.21,6.67,6.67,0,0,0,3-5.52,5.86,5.86,0,0,0-1.6-4.26,10.31,10.31,0,0,0-4.14-2.5,70.24,70.24,0,0,0-6.78-1.84,49.34,49.34,0,0,1-9.51-3.11,15.24,15.24,0,0,1-6.07-4.85,12.6,12.6,0,0,1-2.25-7.64,13.13,13.13,0,0,1,2.37-7.73,14.9,14.9,0,0,1,6.87-5.2,28.14,28.14,0,0,1,10.57-1.82,26.23,26.23,0,0,1,8.4,1.21,17.73,17.73,0,0,1,5.88,3.2,13.21,13.21,0,0,1,3.41,4.19,9.65,9.65,0,0,1,1.08,4.28,5,5,0,0,1-1.35,3.43,4.28,4.28,0,0,1-3.36,1.53,3.85,3.85,0,0,1-2.78-.92,12.09,12.09,0,0,1-2.07-3,13.72,13.72,0,0,0-3.45-4.66q-2-1.67-6.48-1.67a11.23,11.23,0,0,0-6.67,1.82,5.27,5.27,0,0,0-2.53,4.37,4.4,4.4,0,0,0,.86,2.73,7.32,7.32,0,0,0,2.37,2,16.1,16.1,0,0,0,3.06,1.29q1.54.47,5.11,1.37a78.73,78.73,0,0,1,8.07,2.3,24.51,24.51,0,0,1,6.15,3.06,12.43,12.43,0,0,1,3.95,4.54A14.58,14.58,0,0,1,473.86,372.91Z"/><path class="cls-5" d="M516.66,382.76l-2.52-6.62H492.71l-2.52,6.76a23.18,23.18,0,0,1-2.52,5.34,4,4,0,0,1-3.41,1.39,5,5,0,0,1-3.56-1.48,4.5,4.5,0,0,1-1.55-3.34,7.47,7.47,0,0,1,.36-2.23c.24-.77.63-1.83,1.19-3.2l13.48-34.23c.38-1,.85-2.17,1.39-3.55a18.21,18.21,0,0,1,1.72-3.43A7,7,0,0,1,499.7,336a7.43,7.43,0,0,1,3.69-.85,7.52,7.52,0,0,1,3.72.85,7.21,7.21,0,0,1,2.41,2.17,15.41,15.41,0,0,1,1.54,2.86c.42,1,1,2.38,1.6,4.08l13.78,34a17.07,17.07,0,0,1,1.62,5.65,4.67,4.67,0,0,1-1.53,3.36,5,5,0,0,1-3.69,1.53,4.78,4.78,0,0,1-2.16-.45,4.5,4.5,0,0,1-1.51-1.22,11.86,11.86,0,0,1-1.31-2.38C517.39,384.52,517,383.57,516.66,382.76Zm-21.15-14.64h15.75l-7.95-21.75Z"/><path class="cls-5" d="M546.36,341.59V380H568a5.7,5.7,0,0,1,4,1.26,4.12,4.12,0,0,1,1.38,3.17,4,4,0,0,1-1.36,3.14,5.82,5.82,0,0,1-4,1.21H542.22q-3.48,0-5-1.55c-1-1-1.53-2.69-1.53-5V341.59a7,7,0,0,1,1.46-4.86,4.88,4.88,0,0,1,3.82-1.62,5.13,5.13,0,0,1,3.91,1.6A7,7,0,0,1,546.36,341.59Z"/><path class="cls-5" d="M615.11,344.25H591.06v12.94h22.15a5.29,5.29,0,0,1,3.65,1.1,3.74,3.74,0,0,1,1.2,2.89,3.86,3.86,0,0,1-1.18,2.93,5.14,5.14,0,0,1-3.67,1.14H591.06v15h24.88a5.43,5.43,0,0,1,3.79,1.17,4,4,0,0,1,1.28,3.11,3.9,3.9,0,0,1-1.28,3,5.43,5.43,0,0,1-3.79,1.17h-29c-2.32,0-4-.52-5-1.55s-1.53-2.69-1.53-5V342.56a8.81,8.81,0,0,1,.68-3.76,4.25,4.25,0,0,1,2.14-2.12,8.87,8.87,0,0,1,3.72-.67h28.19a5.51,5.51,0,0,1,3.8,1.13,4.21,4.21,0,0,1,0,6A5.46,5.46,0,0,1,615.11,344.25Z"/></g></svg>