<svg id="Слой_1" data-name="Слой 1" xmlns="http://www.w3.org/2000/svg" viewBox="0 0 1096.02 1053.96"><defs><style>.cls-1{fill:#fff;}.cls-1,.cls-2,.cls-3,.cls-4,.cls-5,.cls-6,.cls-7,.cls-8,.cls-9{stroke:#003a47;stroke-width:2.48px;}.cls-1,.cls-2,.cls-3,.cls-4,.cls-5,.cls-6,.cls-8,.cls-9{stroke-linejoin:round;}.cls-2{fill:none;}.cls-3{fill:#f2d300;}.cls-4{fill:#c46855;}.cls-10,.cls-5{fill:#003a47;}.cls-6{fill:#cedffb;}.cls-7{fill:#ffc4c8;stroke-miterlimit:10;}.cls-8{fill:#5e4650;}.cls-9{fill:#94424f;}</style></defs><g id="SIGN"><rect class="cls-1" x="540.61" y="325.88" width="339.81" height="305.89"/><line class="cls-2" x1="573" y1="341.12" x2="605.22" y2="296.03"/><line class="cls-2" x1="849.48" y1="340.78" x2="817.26" y2="296.03"/><circle class="cls-2" cx="573" cy="340.78" r="3.94"/><circle class="cls-2" cx="849.48" cy="340.78" r="3.94"/><rect class="cls-3" x="578.54" y="417.35" width="271.06" height="94.7" transform="translate(286.89 -272.43) rotate(26.85)"/><path d="M653.47,441.51a12.6,12.6,0,0,1-4.94,5.32,13.25,13.25,0,0,1-7.41,1.68,22,22,0,0,1-8.94-2.57,20.54,20.54,0,0,1-8.25-6.85,13.82,13.82,0,0,1-2.15-6.25,10.49,10.49,0,0,1,.89-5.81,3.76,3.76,0,0,1,2.2-1.92,3.71,3.71,0,0,1,3,.26,3.27,3.27,0,0,1,1.68,1.83,6.89,6.89,0,0,1,.27,3.05,16.81,16.81,0,0,0,0,3.85,7.1,7.1,0,0,0,1.36,3.22,9.72,9.72,0,0,0,3.63,2.84,10.24,10.24,0,0,0,6.4,1.23,5.44,5.44,0,0,0,4.17-2.91,4.78,4.78,0,0,0,.41-3.68,8.44,8.44,0,0,0-2.08-3.32q-1.53-1.56-4.24-3.82a40.31,40.31,0,0,1-5.75-5.74,12.49,12.49,0,0,1-2.62-5.75,10.27,10.27,0,0,1,1.17-6.35,10.66,10.66,0,0,1,4.56-4.73,12.08,12.08,0,0,1,6.88-1.25,22.88,22.88,0,0,1,8.32,2.56,21.28,21.28,0,0,1,5.64,4,14.34,14.34,0,0,1,3.09,4.48,10.93,10.93,0,0,1,.94,4.29,7.9,7.9,0,0,1-.79,3.49,4.08,4.08,0,0,1-2.24,2,3.48,3.48,0,0,1-3-.12,3.15,3.15,0,0,1-1.69-1.69,10.28,10.28,0,0,1-.39-2.93,11,11,0,0,0-.8-4.64q-.84-2-4.07-3.59a9.17,9.17,0,0,0-5.5-1.13,4.31,4.31,0,0,0-3.44,2.24,3.59,3.59,0,0,0-.37,2.29,5.78,5.78,0,0,0,1,2.31,13.52,13.52,0,0,0,1.74,2.06q.95.9,3.2,2.86a66.53,66.53,0,0,1,5,4.63,19.61,19.61,0,0,1,3.33,4.47,10.08,10.08,0,0,1,1.2,4.74A12,12,0,0,1,653.47,441.51Z"/><path d="M698.69,430a22.87,22.87,0,0,1,9,7.57,17.51,17.51,0,0,1,3,10.12,26,26,0,0,1-3.1,11.53,28.43,28.43,0,0,1-5.27,7.45,19.64,19.64,0,0,1-6.77,4.46,17.62,17.62,0,0,1-7.94,1.08,26,26,0,0,1-16-8.15,17.76,17.76,0,0,1-3.85-7.07,19.39,19.39,0,0,1-.38-8.14,28.54,28.54,0,0,1,2.84-8.61,27.49,27.49,0,0,1,5.35-7.44,19.48,19.48,0,0,1,6.82-4.4,17.73,17.73,0,0,1,7.83-1A23.45,23.45,0,0,1,698.69,430Zm1,25.2a20.05,20.05,0,0,0,2.33-7.95,11.34,11.34,0,0,0-1.52-6.61,11.88,11.88,0,0,0-5-4.49,11.58,11.58,0,0,0-4.73-1.3,10.48,10.48,0,0,0-4.67.83,13.51,13.51,0,0,0-4.39,3.12,21.25,21.25,0,0,0-3.77,5.41,22,22,0,0,0-2.16,6.3,13.41,13.41,0,0,0,.11,5.53,10.88,10.88,0,0,0,2.12,4.34,11.51,11.51,0,0,0,16.32,1.71A19.88,19.88,0,0,0,699.74,455.21Z"/><path d="M737.35,455.47l-14.07,27.79L739,491.2a4.65,4.65,0,0,1,2.42,2.37,3.35,3.35,0,0,1-.16,2.8,3.26,3.26,0,0,1-2.15,1.78,4.75,4.75,0,0,1-3.33-.59l-18.67-9.46a5.54,5.54,0,0,1-3.07-3,5.62,5.62,0,0,1,.72-4.18l14.89-29.41a5.75,5.75,0,0,1,2.84-3,4,4,0,0,1,3.37.23,4.12,4.12,0,0,1,2.23,2.59A5.63,5.63,0,0,1,737.35,455.47Z"/><path d="M776.83,470.38l10.08,5.11a30.53,30.53,0,0,1,6.37,4.14A14.05,14.05,0,0,1,797,485q3.38,8.13-1.9,18.55a34,34,0,0,1-3.78,6,20.25,20.25,0,0,1-4.44,4.18,17.84,17.84,0,0,1-5.26,2.46,14.91,14.91,0,0,1-4.48.51,17.15,17.15,0,0,1-4.52-.81,33.46,33.46,0,0,1-4.9-2.06l-10.08-5.1a7,7,0,0,1-2.85-2.25,3.32,3.32,0,0,1-.49-2.5,13.22,13.22,0,0,1,1.2-3.17l14.18-28a4.55,4.55,0,0,1,7.14-2.35Zm-.11,7.64L763.6,503.94l5.86,3c1.29.65,2.31,1.12,3.08,1.42a10.65,10.65,0,0,0,2.53.63,6.72,6.72,0,0,0,2.62-.15q5.55-1.31,9.61-9.33,2.85-5.66,2.58-9.33a8.55,8.55,0,0,0-2.4-5.72,23.12,23.12,0,0,0-5.65-3.82Z"/><rect class="cls-4" x="903.74" y="297.22" width="30.64" height="585.16"/><polygon class="cls-5" points="934.38 297.23 903.74 297.23 903.74 305.53 934.38 297.23"/><path class="cls-4" d="M934.38,297.22H584.5a15.31,15.31,0,0,1-15.32-15.32h0a15.32,15.32,0,0,1,15.32-15.32H934.38Z"/><polygon class="cls-6" points="801.87 376.64 806.68 366.17 811.16 376.78 822.63 375.71 815.69 384.91 822.35 394.31 810.91 392.89 806.1 403.36 801.62 392.74 790.14 393.81 797.09 384.62 790.43 375.22 801.87 376.64"/></g><g id="MAN"><path class="cls-4" d="M409.4,918.11c0-84.72-8.8-143-8.8-227.76a335.28,335.28,0,0,1-141.34-28.13,331.68,331.68,0,0,1-81.84-51.55,107.21,107.21,0,0,0-4.54,16.45c-2,11.29-3.56,28.72-1.62,53.23,3.88,49,18.58,228.34,18.58,228.34L294.35,914a242.16,242.16,0,0,0,115,4.14Z"/><polygon class="cls-5" points="294.35 913.97 238.95 714.22 281.56 913.97 294.35 913.97"/><polyline class="cls-2" points="400.6 690.35 368.79 733.35 382.58 920.87"/><path class="cls-5" d="M177.42,611.55c17.67,17.07,36.15,31.91,73.47,48.58,62.58,28,121.44,28.22,149.71,30.22v18.23c-30.67-2.6-89.2-9-143-37.33C216.73,649.77,196.33,631.11,177.42,611.55Z"/><line class="cls-2" x1="238.95" y1="714.22" x2="222.89" y2="699.54"/><path class="cls-7" d="M609.7,456.94h0a5.87,5.87,0,0,0-4-5.32l-18-6.22a7.14,7.14,0,0,1-2.53-12L631,390.84a4.44,4.44,0,0,0,1-5.16h0a4.44,4.44,0,0,0-6.25-1.93l-38.28,22.3,40.61-34.58a7.61,7.61,0,0,0,1.31-10.14l-5.24-7.52a7.6,7.6,0,0,0-10.22-2.14L574,376.16l19.35-22.42a3.72,3.72,0,0,0,0-4.89l-.05-.07a3.86,3.86,0,0,0-4.88-.78,344.69,344.69,0,0,0-86.65,73.36l39.27,58.45,64.28-16.95A5.89,5.89,0,0,0,609.7,456.94Z"/><line class="cls-2" x1="626.98" y1="357.89" x2="590.35" y2="385.09"/><polygon class="cls-6" points="664.63 551.92 690.85 552.8 709.51 620.7 684.88 629.67 664.63 551.92"/><path class="cls-7" d="M690.85,552.81l30.44-18.89a24.11,24.11,0,0,1,5.79-2.6l28.2-8.44a5.27,5.27,0,0,1,5.85,2.08h0a5.25,5.25,0,0,1-.57,6.61l-14,14.53a2.48,2.48,0,0,0,2.06,4.19L817,542.72a4.43,4.43,0,0,1,4.55,2.62h0a4.44,4.44,0,0,1-2.62,6L777,565.79l52.71-8.2a7.6,7.6,0,0,1,8.53,5.62l2.28,8.88a7.6,7.6,0,0,1-5,9.14l-44.58,14.24h29.56a3.81,3.81,0,0,1,3.77,3.27h0a3.81,3.81,0,0,1-2.57,4.15A343.24,343.24,0,0,1,709.51,620.7Z"/><line class="cls-2" x1="839.31" y1="567.27" x2="794.79" y2="577.27"/><path class="cls-8" d="M512.4,300.38l-79.59-59.92-22.6,13.84s-53.41-11.13-97.92,12.32c-52.32,27.58-92,224-92,224l-58.66,97.71s40.71,99.76,255.57,102L456.72,545.6l37.14,99.19a45.6,45.6,0,0,0,54.68,28l137.81-37.48L663,545.6l-90.19-.05a7.56,7.56,0,0,0-1.31-6.66,6.91,6.91,0,0,0-4.05-2.25q-5.4-74.11-10.78-148.23a77.23,77.23,0,0,0-27.33-53.51l-19.81-16.65Z"/><line class="cls-2" x1="456.72" y1="545.6" x2="435.4" y2="470.86"/><line class="cls-2" x1="572.79" y1="545.55" x2="567.59" y2="549.76"/><line class="cls-2" x1="567.43" y1="536.64" x2="558.14" y2="538.92"/><line class="cls-2" x1="226.75" y1="649.32" x2="278.01" y2="558.09"/><path class="cls-2" d="M410.21,254.3s46.16,43.22,99.3,63.95"/><path class="cls-9" d="M566.56,667.9l-18,4.9a45.61,45.61,0,0,1-54.68-28l-6.74-18c12.65-5,30.44-3.59,47.26,4.93C551.62,640.46,563.44,654.45,566.56,667.9Z"/><path class="cls-3" d="M599.2,173.22a5.76,5.76,0,0,1-1.35,8.06,62.77,62.77,0,0,1-9.47,5.57,61.33,61.33,0,0,1-16.68,5.2,62,62,0,0,1-27.15-1.75c-7.27,11.55-12.85,19.88-20.13,31.43l-7.7-5.24a13.21,13.21,0,1,0-24.39,8.31l-27.52,9.35,11.59-71.29S471.73,114,542,137C578,148.79,593.46,165.23,599.2,173.22Z"/><path class="cls-2" d="M544.56,190.3c-4.85-.86-18.46-6.41-18.46-6.41"/><path class="cls-2" d="M545.33,173.51s-17,6.73-30.84,3.84a33.33,33.33,0,0,0,8.73-4,32.81,32.81,0,0,0,5-4"/><path class="cls-2" d="M520.14,167.36s-8.12,5.93-21.54,2.17-22.21-6.67-22.21-6.67"/><path class="cls-7" d="M576,250.65l-8.79,1.7-15.72,34.37a10.46,10.46,0,0,1-13.85,5.18l-17.91-8.13L508.44,297.4l-71.32-53.69c16-5.44,39.22-13.48,55.21-18.91a13.21,13.21,0,1,1,24.39-8.31l7.7,5.24c7.28-11.55,12.86-19.88,20.13-31.43a70.44,70.44,0,0,0,22.55,2.13c9.45-.64,17.19-3.92,22.13-5.93l-14.65,47.24a11.25,11.25,0,0,0,.94,9.12l2.24,3.91A2.62,2.62,0,0,1,576,250.65Z"/><path class="cls-2" d="M519.71,283.78l-5.31-2.66A16.81,16.81,0,0,1,505.13,265l.81-13.11"/><ellipse class="cls-10" cx="560.3" cy="230.4" rx="3.11" ry="2.09" transform="translate(203.7 720.16) rotate(-76.29)"/><line class="cls-2" x1="505.04" y1="213.51" x2="508.97" y2="222.58"/><line class="cls-2" x1="516.72" y1="216.49" x2="517.52" y2="222.65"/><polygon class="cls-5" points="492.33 224.8 495.18 229.16 486.05 226.93 492.33 224.8"/><line class="cls-2" x1="562.83" y1="261.89" x2="553.19" y2="253.15"/><path class="cls-5" d="M519.71,283.77l-8.29,10a56.6,56.6,0,0,1-5.88-16,46.62,46.62,0,0,1-.42-12.77v.26a16.13,16.13,0,0,0,8.76,15.49Z"/><polygon class="cls-6" points="437.12 243.71 454.08 233.27 512.03 293.06 508.44 297.4 437.12 243.71"/></g></svg>