<svg id="Слой_1" data-name="Слой 1" xmlns="http://www.w3.org/2000/svg" viewBox="0 0 1096.02 1053.96"><defs><style>.cls-1{fill:#5e4650;}.cls-1,.cls-10,.cls-11,.cls-12,.cls-13,.cls-2,.cls-4,.cls-5,.cls-6,.cls-7{stroke:#003a47;}.cls-1,.cls-11,.cls-13,.cls-2,.cls-4,.cls-5,.cls-6,.cls-7{stroke-linejoin:round;}.cls-1,.cls-10,.cls-11,.cls-12,.cls-13,.cls-2,.cls-3,.cls-4,.cls-5,.cls-6,.cls-7{stroke-width:2.3px;}.cls-14,.cls-2{fill:#003a47;}.cls-12,.cls-3,.cls-5{fill:none;}.cls-3{stroke:#be5c4b;}.cls-3,.cls-5{stroke-linecap:round;}.cls-10,.cls-12,.cls-3{stroke-miterlimit:10;}.cls-4,.cls-9{fill:#fff;}.cls-15,.cls-6{fill:#c46855;}.cls-7{fill:#85aff6;}.cls-8{fill:#cedffb;}.cls-10{fill:#ffc4c8;}.cls-11{fill:#ff7a00;}.cls-13{fill:#94424f;}</style></defs><g id="AGENT"><path class="cls-1" d="M543.61,1000.64l.06,1.72H461.3L459.06,999a2.9,2.9,0,0,0-2.39-1.29h-4.53a2.71,2.71,0,0,0-2.42,1.49l-1.53,3.12H423l1.53-4.92,8.95-29h59.86c1.65,6.22,5.4,10.24,12.15,14.62,11.28,7.3,24.1,10.49,33.37,12.17a5.7,5.7,0,0,1,3.57,2.23A5.6,5.6,0,0,1,543.61,1000.64Z"/><polygon class="cls-2" points="493.38 968.42 433.52 968.42 430.75 977.4 493.38 968.42"/><path class="cls-2" d="M542.47,997.44a5.6,5.6,0,0,1,1.14,3.2l.06,1.72H461.3L459.06,999a2.9,2.9,0,0,0-2.39-1.29h-4.53a2.71,2.71,0,0,0-2.42,1.49l-1.53,3.12H423l1.53-4.92Z"/><line class="cls-3" x1="486.95" y1="980.41" x2="499.06" y2="973.56"/><line class="cls-3" x1="491" y1="985.25" x2="503.19" y2="978.45"/><path class="cls-1" d="M667.09,1000.64l.06,1.72H591.68L589.44,999a2.9,2.9,0,0,0-2.39-1.29h-4.52a2.69,2.69,0,0,0-2.42,1.49l-1.53,3.12H555.73l.74-4.92,4.36-29h56c1.65,6.22,5.4,10.24,12.15,14.62,11.28,7.3,24.1,10.49,33.37,12.17a5.67,5.67,0,0,1,3.57,2.23A5.6,5.6,0,0,1,667.09,1000.64Z"/><polygon class="cls-2" points="616.86 968.42 560.83 968.42 559.48 977.4 616.86 968.42"/><path class="cls-2" d="M667.09,1000.64l.06,1.72H591.68L589.44,999a2.9,2.9,0,0,0-2.39-1.29h-4.52a2.69,2.69,0,0,0-2.42,1.49l-1.53,3.12H555.73l.74-4.92H666A5.6,5.6,0,0,1,667.09,1000.64Z"/><line class="cls-3" x1="610.66" y1="980.06" x2="622.18" y2="973.49"/><line class="cls-3" x1="614.8" y1="985.3" x2="627.09" y2="978.52"/><path class="cls-4" d="M702.92,384.26c-2.85,20.74-11.37,39.95-34.08,44.14-17.63,3.26-35.27-5.78-43.55-21.67l-11.75-22.54-10.21,38.42H481.46l-20.87-81.4L462,353.58l5,12.7A244.11,244.11,0,0,0,411,423.76a7.77,7.77,0,0,1-11.82,1.11c-9-8.83-16.7-22.42-16.7-22.42l6.08-4.75c-4-21.84-8.66-60.42-.47-99.21,6-28.24,17.78-53.42,27.06-70.17A66.09,66.09,0,0,1,448.4,199l67.82-27.28,13.36-16.15,35.53,25.7,30.25-16.43,5.79,18,19.72,17.61,14,6a58.94,58.94,0,0,1,34.37,41.3l22,87.05h5.09a13.9,13.9,0,0,0,13.83-12.41L712.21,303Z"/><path class="cls-4" d="M702.92,384.26c-2.85,20.74-11.37,39.95-34.08,44.14-17.63,3.26-35.27-5.78-43.55-21.67l-11.75-22.54-10.21,38.42H481.46l-20.87-81.4L462,353.58l5,12.7A244.11,244.11,0,0,0,411,423.76a7.77,7.77,0,0,1-11.82,1.11c-9-8.83-16.7-22.42-16.7-22.42l6.08-4.75c-4-21.84-8.66-60.42-.47-99.21,6-28.24,17.78-53.42,27.06-70.17A66.09,66.09,0,0,1,448.4,199l67.82-27.28,13.36-16.15,35.53,25.7,30.25-16.43,5.79,18,19.72,17.61,14,6a58.94,58.94,0,0,1,34.37,41.3l22,87.05h5.09a13.9,13.9,0,0,0,13.83-12.41Z"/><polyline class="cls-5" points="516.22 171.74 547.46 198.73 565.11 181.29 580.1 198.73 599.61 182.05"/><polygon class="cls-1" points="565.11 181.29 576.28 194.29 566.7 204.42 579.75 248.44 567.44 285.22 546.32 249.08 562.34 204.56 552.2 194.04 565.11 181.29"/><path class="cls-4" d="M462,353.58l5,12.7a244.25,244.25,0,0,0-56.18,57.85,7.36,7.36,0,0,1-11.12,1.17c-9.23-8.82-17.14-22.85-17.14-22.85,12.42-9.84,14.77-11.15,29.83-21.26C428,370.7,447.68,361.55,462,353.58Z"/><path class="cls-6" d="M483.23,418.85a268.89,268.89,0,0,0-25.55,48.54c-2.43,6-4.54,11.88-6.38,17.54a165,165,0,0,0-8,49.17c-.68,64.78.94,121.58,3.55,183L435,748.86a132.24,132.24,0,0,0-8.18,50.73l5.35,153h-5.54l3.44,15.84h68.64l2.87-13.92-3.36,0,18.84-185.2,5.25-7.85a16.9,16.9,0,0,0,2.68-6.94l9-60.83,17.35,55.22L543.23,777a72.74,72.74,0,0,0-2.57,26.86L554,951.66l-4.06.41,3.42,16.36h67.33s13.56-223.73,15-241.27S600.9,418.85,600.9,418.85Z"/><path class="cls-5" d="M539.38,663l24.78,77.82a26.61,26.61,0,0,1,0,16.16l-6.37,20a72.74,72.74,0,0,0-2.57,26.86l13.33,147.83"/><line class="cls-5" x1="534.05" y1="693.64" x2="560.11" y2="528.23"/><line class="cls-5" x1="553.99" y1="951.66" x2="621.73" y2="951.66"/><line class="cls-5" x1="426.67" y1="952.59" x2="498.26" y2="954.46"/><polygon class="cls-2" points="525.46 474.66 471.31 438.26 466.96 446.85 525.46 474.66"/><path class="cls-5" d="M482,452.38l-10.65,29.14a147.93,147.93,0,0,0-9,52.11l1.59,184-14,37a128.9,128.9,0,0,0-8.35,47.95l2.63,150"/><path class="cls-7" d="M471.31,438.26l-10.72-97.05a183.9,183.9,0,0,0,1.9-148.08c13.57-5,27.9-11.56,41.46-16.58l63.49,108.67,34.39-101.87,19,17.08c3.82,15.39,5.61,33.42,8,52.64a441.46,441.46,0,0,1,3.31,61q-14.42,54.27-28.84,108.55l-.24,23.75-22.92,28.3-23.1-36.28-31.61,36.28Z"/><polygon class="cls-8" points="510.01 189.21 510.01 200.07 507.71 200.07 507.71 185.27 508.43 186.5 510.01 189.21"/><rect class="cls-8" x="507.71" y="202.37" width="2.3" height="13.58"/><rect class="cls-8" x="507.71" y="218.25" width="2.3" height="13.58"/><rect class="cls-8" x="507.71" y="234.13" width="2.3" height="13.58"/><rect class="cls-8" x="507.71" y="250" width="2.3" height="13.58"/><rect class="cls-8" x="507.71" y="265.88" width="2.3" height="13.58"/><rect class="cls-8" x="507.71" y="281.76" width="2.3" height="13.58"/><rect class="cls-8" x="507.71" y="297.63" width="2.3" height="13.58"/><rect class="cls-8" x="507.71" y="313.51" width="2.3" height="13.58"/><rect class="cls-8" x="507.71" y="329.38" width="2.3" height="13.58"/><rect class="cls-8" x="507.71" y="345.26" width="2.3" height="13.58"/><rect class="cls-8" x="507.71" y="361.14" width="2.3" height="13.58"/><rect class="cls-8" x="507.71" y="377.01" width="2.3" height="13.58"/><rect class="cls-8" x="507.71" y="392.89" width="2.3" height="13.58"/><rect class="cls-8" x="507.71" y="408.77" width="2.3" height="13.58"/><rect class="cls-8" x="507.71" y="424.64" width="2.3" height="13.58"/><rect class="cls-8" x="507.71" y="440.52" width="2.3" height="13.58"/><polygon class="cls-8" points="507.71 456.39 510.01 456.39 510.01 462.88 507.71 461.34 507.71 456.39"/><path class="cls-8" d="M494.13,181.61v2.59h-2.3v-1.67Z"/><rect class="cls-8" x="491.83" y="186.5" width="2.3" height="13.58"/><rect class="cls-8" x="491.83" y="202.37" width="2.3" height="13.58"/><rect class="cls-8" x="491.83" y="218.25" width="2.3" height="13.58"/><rect class="cls-8" x="491.83" y="234.13" width="2.3" height="13.58"/><rect class="cls-8" x="491.83" y="250" width="2.3" height="13.58"/><rect class="cls-8" x="491.83" y="265.88" width="2.3" height="13.58"/><rect class="cls-8" x="491.83" y="281.76" width="2.3" height="13.58"/><rect class="cls-8" x="491.83" y="297.63" width="2.3" height="13.58"/><rect class="cls-8" x="491.83" y="313.51" width="2.3" height="13.58"/><rect class="cls-8" x="491.83" y="329.38" width="2.3" height="13.58"/><rect class="cls-8" x="491.83" y="345.26" width="2.3" height="13.58"/><rect class="cls-8" x="491.83" y="361.14" width="2.3" height="13.58"/><rect class="cls-8" x="491.83" y="377.01" width="2.3" height="13.58"/><rect class="cls-8" x="491.83" y="392.89" width="2.3" height="13.58"/><rect class="cls-8" x="491.83" y="408.77" width="2.3" height="13.58"/><rect class="cls-8" x="491.83" y="424.64" width="2.3" height="13.58"/><polygon class="cls-8" points="491.83 440.52 494.13 440.52 494.13 452.21 491.83 450.67 491.83 440.52"/><path class="cls-8" d="M478.25,188.13v11.94H476v-11Z"/><rect class="cls-8" x="475.95" y="202.37" width="2.3" height="13.58"/><rect class="cls-8" x="475.95" y="218.25" width="2.3" height="13.58"/><path class="cls-8" d="M476,234.13h2.3V262.6q-.08-6.33-.59-12.6c-.06-.76-.12-1.53-.2-2.3q-.54-6-1.51-12Z"/><path class="cls-8" d="M478.25,267.44v12h-.56Q478.17,273.46,478.25,267.44Z"/><path class="cls-8" d="M478.25,281.76v13.57H476V294q1-6.09,1.54-12.21Z"/><rect class="cls-8" x="475.95" y="297.63" width="2.3" height="13.58"/><rect class="cls-8" x="475.95" y="313.51" width="2.3" height="13.58"/><rect class="cls-8" x="475.95" y="329.38" width="2.3" height="13.58"/><rect class="cls-8" x="475.95" y="345.26" width="2.3" height="13.58"/><rect class="cls-8" x="475.95" y="361.14" width="2.3" height="13.58"/><rect class="cls-8" x="475.95" y="377.01" width="2.3" height="13.58"/><rect class="cls-8" x="475.95" y="392.89" width="2.3" height="13.58"/><rect class="cls-8" x="475.95" y="408.77" width="2.3" height="13.58"/><rect class="cls-8" x="475.95" y="424.64" width="2.3" height="13.58"/><polygon class="cls-8" points="476.74 440.52 478.25 440.52 478.25 441.54 476.74 440.52"/><polygon class="cls-8" points="557.64 270.72 557.64 279.45 555.34 279.45 555.34 266.78 557.64 270.72"/><rect class="cls-8" x="555.33" y="281.76" width="2.3" height="13.58"/><rect class="cls-8" x="555.33" y="297.63" width="2.3" height="13.58"/><rect class="cls-8" x="555.33" y="313.51" width="2.3" height="13.58"/><rect class="cls-8" x="555.33" y="329.38" width="2.3" height="13.58"/><rect class="cls-8" x="555.33" y="345.26" width="2.3" height="13.58"/><rect class="cls-8" x="555.33" y="361.14" width="2.3" height="13.58"/><rect class="cls-8" x="555.33" y="377.01" width="2.3" height="13.58"/><rect class="cls-8" x="555.33" y="392.89" width="2.3" height="13.58"/><rect class="cls-8" x="555.33" y="408.77" width="2.3" height="13.58"/><path class="cls-8" d="M555.33,424.64h2.31v12.74a1,1,0,0,0-.48-.14,1.13,1.13,0,0,0-1,.39l-.51.59-.36.4Z"/><polygon class="cls-8" points="541.76 243.55 541.76 247.7 539.46 247.7 539.46 239.61 541.76 243.55"/><rect class="cls-8" x="539.46" y="250" width="2.3" height="13.58"/><rect class="cls-8" x="539.46" y="265.88" width="2.3" height="13.58"/><rect class="cls-8" x="539.46" y="281.76" width="2.3" height="13.58"/><rect class="cls-8" x="539.46" y="297.63" width="2.3" height="13.58"/><rect class="cls-9" x="539.46" y="327.08" width="2.3" height="2.3"/><rect class="cls-8" x="539.46" y="313.51" width="2.3" height="13.58"/><rect class="cls-8" x="539.46" y="329.38" width="2.3" height="13.58"/><rect class="cls-8" x="539.46" y="345.26" width="2.3" height="13.58"/><rect class="cls-8" x="539.46" y="361.14" width="2.3" height="13.58"/><rect class="cls-8" x="539.46" y="377.01" width="2.3" height="13.58"/><rect class="cls-8" x="539.46" y="392.89" width="2.3" height="13.58"/><rect class="cls-8" x="539.46" y="408.77" width="2.3" height="13.58"/><rect class="cls-8" x="539.46" y="424.64" width="2.3" height="13.58"/><polygon class="cls-8" points="539.46 456.39 539.84 456.39 539.46 456.84 539.46 456.39"/><rect class="cls-8" x="539.46" y="440.52" width="2.3" height="13.58"/><polygon class="cls-8" points="525.64 215.95 523.58 215.95 523.58 212.44 525.64 215.95"/><rect class="cls-8" x="523.58" y="218.25" width="2.3" height="13.58"/><rect class="cls-8" x="523.58" y="234.13" width="2.3" height="13.58"/><rect class="cls-8" x="523.58" y="250" width="2.3" height="13.58"/><rect class="cls-8" x="523.58" y="265.88" width="2.3" height="13.58"/><rect class="cls-8" x="523.58" y="281.76" width="2.3" height="13.58"/><rect class="cls-8" x="523.58" y="297.63" width="2.3" height="13.58"/><rect class="cls-8" x="523.58" y="313.51" width="2.3" height="13.58"/><rect class="cls-8" x="523.58" y="329.38" width="2.3" height="13.58"/><rect class="cls-8" x="523.58" y="345.26" width="2.3" height="13.58"/><rect class="cls-8" x="523.58" y="361.14" width="2.3" height="13.58"/><rect class="cls-8" x="523.58" y="377.01" width="2.3" height="13.58"/><rect class="cls-8" x="523.58" y="392.89" width="2.3" height="13.58"/><rect class="cls-8" x="523.58" y="408.77" width="2.3" height="13.58"/><rect class="cls-8" x="523.58" y="424.64" width="2.3" height="13.58"/><rect class="cls-8" x="523.58" y="440.52" width="2.3" height="13.58"/><polygon class="cls-8" points="523.58 456.39 525.88 456.39 525.88 472.42 525.25 473.14 523.58 472.01 523.58 456.39"/><polygon class="cls-8" points="605.26 187.98 605.26 200.07 602.96 200.07 602.96 185.92 603.62 186.5 605.26 187.98"/><rect class="cls-8" x="602.96" y="202.37" width="2.3" height="13.58"/><rect class="cls-8" x="602.96" y="218.25" width="2.3" height="13.58"/><rect class="cls-8" x="602.96" y="234.13" width="2.3" height="13.58"/><rect class="cls-8" x="602.96" y="250" width="2.3" height="13.58"/><rect class="cls-8" x="602.96" y="265.88" width="2.3" height="13.58"/><rect class="cls-8" x="602.96" y="281.76" width="2.3" height="13.58"/><rect class="cls-8" x="602.96" y="297.63" width="2.3" height="13.58"/><rect class="cls-8" x="602.96" y="313.51" width="2.3" height="13.58"/><rect class="cls-8" x="602.96" y="329.38" width="2.3" height="13.58"/><rect class="cls-8" x="602.96" y="345.26" width="2.3" height="13.58"/><rect class="cls-8" x="602.96" y="361.14" width="2.3" height="13.58"/><rect class="cls-8" x="602.96" y="377.01" width="2.3" height="13.58"/><rect class="cls-8" x="602.96" y="392.89" width="2.3" height="13.58"/><polygon class="cls-8" points="602.96 408.77 605.26 408.77 605.26 410.85 602.96 419.51 602.96 408.77"/><rect class="cls-9" x="587.09" y="327.08" width="2.3" height="2.3"/><polygon class="cls-8" points="589.39 223.79 589.39 231.83 587.09 231.83 587.09 230.61 589.39 223.79"/><rect class="cls-8" x="587.09" y="234.13" width="2.3" height="13.58"/><rect class="cls-8" x="587.09" y="250" width="2.3" height="13.58"/><rect class="cls-8" x="587.09" y="265.88" width="2.3" height="13.58"/><rect class="cls-8" x="587.09" y="281.76" width="2.3" height="13.58"/><rect class="cls-8" x="587.09" y="297.63" width="2.3" height="13.58"/><rect class="cls-8" x="587.09" y="313.51" width="2.3" height="13.58"/><rect class="cls-8" x="587.09" y="329.38" width="2.3" height="13.58"/><rect class="cls-8" x="587.09" y="345.26" width="2.3" height="13.58"/><rect class="cls-8" x="587.09" y="361.14" width="2.3" height="13.58"/><rect class="cls-8" x="587.09" y="377.01" width="2.3" height="13.58"/><rect class="cls-8" x="587.09" y="392.89" width="2.3" height="13.58"/><rect class="cls-8" x="587.09" y="408.77" width="2.3" height="13.58"/><rect class="cls-8" x="587.09" y="424.64" width="2.3" height="13.58"/><rect class="cls-8" x="587.09" y="440.52" width="2.3" height="13.58"/><polygon class="cls-8" points="587.09 456.39 589.39 456.39 589.39 461.45 587.09 464.3 587.09 456.39"/><rect class="cls-9" x="571.21" y="342.96" width="2.3" height="2.3"/><polygon class="cls-8" points="573.51 270.82 573.51 279.45 571.21 279.45 571.21 277.64 573.51 270.82"/><rect class="cls-8" x="571.21" y="281.76" width="2.3" height="13.58"/><rect class="cls-8" x="571.21" y="297.63" width="2.3" height="13.58"/><rect class="cls-8" x="571.21" y="313.51" width="2.3" height="13.58"/><rect class="cls-8" x="571.21" y="329.38" width="2.3" height="13.58"/><rect class="cls-8" x="571.21" y="345.26" width="2.3" height="13.58"/><rect class="cls-8" x="571.21" y="361.14" width="2.3" height="13.58"/><rect class="cls-8" x="571.21" y="377.01" width="2.3" height="13.58"/><rect class="cls-8" x="571.21" y="392.89" width="2.3" height="13.58"/><rect class="cls-8" x="571.21" y="408.77" width="2.3" height="13.58"/><rect class="cls-8" x="571.21" y="424.64" width="2.3" height="13.58"/><rect class="cls-8" x="571.21" y="440.52" width="2.3" height="13.58"/><polygon class="cls-8" points="571.21 456.39 573.51 456.39 573.51 462.06 571.21 458.44 571.21 456.39"/><path class="cls-8" d="M621.14,206.84V216h-2.3V202.37h1.31Q620.67,204.58,621.14,206.84Z"/><rect class="cls-8" x="618.84" y="218.25" width="2.3" height="13.58"/><rect class="cls-8" x="618.84" y="234.13" width="2.3" height="13.58"/><rect class="cls-8" x="618.84" y="250" width="2.3" height="13.58"/><rect class="cls-8" x="618.84" y="265.88" width="2.3" height="13.58"/><rect class="cls-8" x="618.84" y="281.76" width="2.3" height="13.58"/><rect class="cls-8" x="618.84" y="297.63" width="2.3" height="13.58"/><rect class="cls-8" x="618.84" y="313.51" width="2.3" height="13.58"/><rect class="cls-8" x="618.84" y="329.38" width="2.3" height="13.58"/><polygon class="cls-8" points="618.84 345.26 621.14 345.26 621.14 351.08 619.09 358.84 618.84 359.75 618.84 345.26"/><rect class="cls-9" x="539.46" y="422.34" width="2.3" height="2.3"/><rect class="cls-9" x="523.58" y="422.34" width="2.3" height="2.3"/><rect class="cls-9" x="507.71" y="422.34" width="2.3" height="2.3"/><rect class="cls-9" x="491.83" y="422.34" width="2.3" height="2.3"/><rect class="cls-9" x="475.95" y="422.34" width="2.3" height="2.3"/><polygon class="cls-8" points="470.71 422.34 475.95 422.34 475.95 424.64 470.97 424.64 470.71 422.34"/><rect class="cls-8" x="478.25" y="422.34" width="13.58" height="2.3"/><rect class="cls-8" x="494.13" y="422.34" width="13.58" height="2.3"/><rect class="cls-8" x="510.01" y="422.34" width="13.58" height="2.3"/><rect class="cls-8" x="525.88" y="422.34" width="13.58" height="2.3"/><rect class="cls-9" x="587.09" y="422.34" width="2.3" height="2.3"/><rect class="cls-9" x="571.21" y="422.34" width="2.3" height="2.3"/><rect class="cls-9" x="555.33" y="422.34" width="2.3" height="2.3"/><rect class="cls-8" x="541.76" y="422.34" width="13.58" height="2.3"/><rect class="cls-8" x="557.64" y="422.34" width="13.58" height="2.3"/><rect class="cls-8" x="573.51" y="422.34" width="13.58" height="2.3"/><path class="cls-8" d="M602.21,422.34a2.42,2.42,0,0,0,0,.25l0,2.05H589.39v-2.3Z"/><polygon class="cls-9" points="478.25 438.22 478.25 440.52 476.74 440.52 475.95 439.99 475.95 438.22 478.25 438.22"/><polygon class="cls-8" points="473.31 438.22 475.95 438.22 475.95 439.99 473.31 438.22"/><rect class="cls-9" x="491.83" y="438.22" width="2.3" height="2.3"/><rect class="cls-8" x="478.25" y="438.22" width="13.58" height="2.3"/><rect class="cls-9" x="507.71" y="438.22" width="2.3" height="2.3"/><rect class="cls-8" x="494.13" y="438.22" width="13.58" height="2.3"/><rect class="cls-9" x="523.58" y="438.22" width="2.3" height="2.3"/><rect class="cls-8" x="510.01" y="438.22" width="13.58" height="2.3"/><rect class="cls-9" x="539.46" y="438.22" width="2.3" height="2.3"/><rect class="cls-8" x="525.88" y="438.22" width="13.58" height="2.3"/><polygon class="cls-8" points="555.69 438.22 555.34 438.62 553.68 440.52 541.76 440.52 541.76 438.22 555.69 438.22"/><rect class="cls-9" x="571.21" y="438.22" width="2.3" height="2.3"/><polygon class="cls-8" points="558.33 438.22 571.21 438.22 571.21 440.52 559.8 440.52 558.33 438.22"/><rect class="cls-9" x="587.09" y="438.22" width="2.3" height="2.3"/><rect class="cls-8" x="573.51" y="438.22" width="13.58" height="2.3"/><polygon class="cls-8" points="602.02 438.22 602 440.52 589.39 440.52 589.39 438.22 602.02 438.22"/><polygon class="cls-9" points="541.76 454.09 541.76 454.2 539.84 456.39 539.46 456.39 539.46 454.09 541.76 454.09"/><rect class="cls-9" x="523.58" y="454.09" width="2.3" height="2.3"/><rect class="cls-9" x="507.71" y="454.09" width="2.3" height="2.3"/><polygon class="cls-8" points="496.93 454.09 507.71 454.09 507.71 456.39 500.35 456.39 496.93 454.09"/><rect class="cls-8" x="510.01" y="454.09" width="13.58" height="2.3"/><rect class="cls-8" x="525.88" y="454.09" width="13.58" height="2.3"/><polygon class="cls-8" points="541.85 454.09 541.76 454.2 541.76 454.09 541.85 454.09"/><rect class="cls-9" x="587.09" y="454.09" width="2.3" height="2.3"/><rect class="cls-9" x="571.21" y="454.09" width="2.3" height="2.3"/><polygon class="cls-8" points="568.44 454.09 571.21 454.09 571.21 456.39 569.91 456.39 568.44 454.09"/><rect class="cls-8" x="573.51" y="454.09" width="13.58" height="2.3"/><polygon class="cls-8" points="595.35 454.09 593.48 456.39 589.39 456.39 589.39 454.09 595.35 454.09"/><rect class="cls-9" x="475.95" y="374.71" width="2.3" height="2.3"/><polygon class="cls-8" points="465.45 374.71 475.95 374.71 475.95 377.01 465.7 377.01 465.45 374.71"/><rect class="cls-9" x="491.83" y="374.71" width="2.3" height="2.3"/><rect class="cls-8" x="478.25" y="374.71" width="13.58" height="2.3"/><rect class="cls-9" x="507.71" y="374.71" width="2.3" height="2.3"/><rect class="cls-8" x="494.13" y="374.71" width="13.58" height="2.3"/><rect class="cls-9" x="523.58" y="374.71" width="2.3" height="2.3"/><rect class="cls-8" x="510.01" y="374.71" width="13.58" height="2.3"/><rect class="cls-9" x="539.46" y="374.71" width="2.3" height="2.3"/><rect class="cls-8" x="525.88" y="374.71" width="13.58" height="2.3"/><rect class="cls-9" x="555.33" y="374.71" width="2.3" height="2.3"/><rect class="cls-8" x="541.76" y="374.71" width="13.58" height="2.3"/><rect class="cls-9" x="571.21" y="374.71" width="2.3" height="2.3"/><rect class="cls-8" x="557.64" y="374.71" width="13.58" height="2.3"/><rect class="cls-9" x="587.09" y="374.71" width="2.3" height="2.3"/><rect class="cls-8" x="573.51" y="374.71" width="13.58" height="2.3"/><rect class="cls-9" x="602.96" y="374.71" width="2.3" height="2.3"/><rect class="cls-8" x="589.39" y="374.71" width="13.58" height="2.3"/><polygon class="cls-8" points="614.87 374.71 614.25 377.01 605.26 377.01 605.26 374.71 614.87 374.71"/><rect class="cls-9" x="539.46" y="390.59" width="2.3" height="2.3"/><rect class="cls-9" x="523.58" y="390.59" width="2.3" height="2.3"/><rect class="cls-9" x="507.71" y="390.59" width="2.3" height="2.3"/><rect class="cls-9" x="491.83" y="390.59" width="2.3" height="2.3"/><rect class="cls-9" x="475.95" y="390.59" width="2.3" height="2.3"/><polygon class="cls-8" points="467.2 390.59 475.95 390.59 475.95 392.89 467.45 392.89 467.2 390.59"/><rect class="cls-8" x="478.25" y="390.59" width="13.58" height="2.3"/><rect class="cls-8" x="494.13" y="390.59" width="13.58" height="2.3"/><rect class="cls-8" x="510.01" y="390.59" width="13.58" height="2.3"/><rect class="cls-8" x="525.88" y="390.59" width="13.58" height="2.3"/><rect class="cls-9" x="602.96" y="390.59" width="2.3" height="2.3"/><rect class="cls-9" x="587.09" y="390.59" width="2.3" height="2.3"/><rect class="cls-9" x="571.21" y="390.59" width="2.3" height="2.3"/><rect class="cls-9" x="555.33" y="390.59" width="2.3" height="2.3"/><rect class="cls-8" x="541.76" y="390.59" width="13.58" height="2.3"/><rect class="cls-8" x="557.64" y="390.59" width="13.58" height="2.3"/><rect class="cls-8" x="573.51" y="390.59" width="13.58" height="2.3"/><rect class="cls-8" x="589.39" y="390.59" width="13.58" height="2.3"/><polygon class="cls-8" points="610.65 390.59 610.03 392.89 605.26 392.89 605.26 390.59 610.65 390.59"/><rect class="cls-9" x="475.95" y="406.47" width="2.3" height="2.3"/><polygon class="cls-8" points="475.95 406.46 475.95 408.77 469.21 408.77 468.96 406.46 475.95 406.46"/><rect class="cls-9" x="491.83" y="406.47" width="2.3" height="2.3"/><rect class="cls-8" x="478.25" y="406.47" width="13.58" height="2.3"/><rect class="cls-9" x="507.71" y="406.47" width="2.3" height="2.3"/><rect class="cls-8" x="494.13" y="406.47" width="13.58" height="2.3"/><rect class="cls-9" x="523.58" y="406.47" width="2.3" height="2.3"/><rect class="cls-8" x="510.01" y="406.47" width="13.58" height="2.3"/><rect class="cls-9" x="539.46" y="406.47" width="2.3" height="2.3"/><rect class="cls-8" x="525.88" y="406.47" width="13.58" height="2.3"/><rect class="cls-9" x="555.33" y="406.47" width="2.3" height="2.3"/><rect class="cls-8" x="541.76" y="406.47" width="13.58" height="2.3"/><rect class="cls-9" x="571.21" y="406.47" width="2.3" height="2.3"/><rect class="cls-8" x="557.64" y="406.47" width="13.58" height="2.3"/><rect class="cls-9" x="587.09" y="406.47" width="2.3" height="2.3"/><rect class="cls-8" x="573.51" y="406.47" width="13.58" height="2.3"/><rect class="cls-9" x="602.96" y="406.47" width="2.3" height="2.3"/><rect class="cls-8" x="589.39" y="406.47" width="13.58" height="2.3"/><polygon class="cls-8" points="606.43 406.46 605.82 408.77 605.26 408.77 605.26 406.46 606.43 406.46"/><rect class="cls-9" x="555.33" y="327.08" width="2.3" height="2.3"/><rect class="cls-9" x="523.58" y="327.08" width="2.3" height="2.3"/><rect class="cls-9" x="507.71" y="327.08" width="2.3" height="2.3"/><rect class="cls-9" x="491.83" y="327.08" width="2.3" height="2.3"/><rect class="cls-9" x="475.95" y="327.08" width="2.3" height="2.3"/><path class="cls-8" d="M467.52,327.08H476v2.3h-9.26C467,328.62,467.26,327.85,467.52,327.08Z"/><rect class="cls-8" x="478.25" y="327.08" width="13.58" height="2.3"/><rect class="cls-8" x="494.13" y="327.08" width="13.58" height="2.3"/><rect class="cls-8" x="510.01" y="327.08" width="13.58" height="2.3"/><rect class="cls-8" x="525.88" y="327.08" width="13.58" height="2.3"/><rect class="cls-8" x="541.76" y="327.08" width="13.58" height="2.3"/><rect class="cls-9" x="571.21" y="327.08" width="2.3" height="2.3"/><rect class="cls-8" x="557.64" y="327.08" width="13.58" height="2.3"/><rect class="cls-8" x="573.51" y="327.08" width="13.58" height="2.3"/><rect class="cls-9" x="618.84" y="327.08" width="2.3" height="2.3"/><rect class="cls-9" x="602.96" y="327.08" width="2.3" height="2.3"/><rect class="cls-8" x="589.39" y="327.08" width="13.58" height="2.3"/><rect class="cls-8" x="605.26" y="327.08" width="13.58" height="2.3"/><polygon class="cls-8" points="627.51 327.08 626.91 329.38 621.14 329.38 621.14 327.08 627.51 327.08"/><rect class="cls-9" x="555.33" y="342.96" width="2.3" height="2.3"/><rect class="cls-9" x="539.46" y="342.96" width="2.3" height="2.3"/><rect class="cls-9" x="523.58" y="342.96" width="2.3" height="2.3"/><rect class="cls-9" x="507.71" y="342.96" width="2.3" height="2.3"/><rect class="cls-9" x="491.83" y="342.96" width="2.3" height="2.3"/><rect class="cls-9" x="475.95" y="342.96" width="2.3" height="2.3"/><polygon class="cls-8" points="461.93 342.96 475.95 342.96 475.95 345.26 462.19 345.26 461.93 342.96"/><rect class="cls-8" x="478.25" y="342.96" width="13.58" height="2.3"/><rect class="cls-8" x="494.13" y="342.96" width="13.58" height="2.3"/><rect class="cls-8" x="510.01" y="342.96" width="13.58" height="2.3"/><rect class="cls-8" x="525.88" y="342.96" width="13.58" height="2.3"/><rect class="cls-8" x="541.76" y="342.96" width="13.58" height="2.3"/><rect class="cls-8" x="557.64" y="342.96" width="13.58" height="2.3"/><rect class="cls-9" x="587.09" y="342.96" width="2.3" height="2.3"/><rect class="cls-8" x="573.51" y="342.96" width="13.58" height="2.3"/><rect class="cls-9" x="602.96" y="342.96" width="2.3" height="2.3"/><rect class="cls-8" x="589.39" y="342.96" width="13.58" height="2.3"/><rect class="cls-9" x="618.84" y="342.96" width="2.3" height="2.3"/><rect class="cls-8" x="605.26" y="342.96" width="13.58" height="2.3"/><polygon class="cls-8" points="623.3 342.96 622.69 345.26 621.14 345.26 621.14 342.96 623.3 342.96"/><rect class="cls-9" x="475.95" y="358.84" width="2.3" height="2.3"/><polygon class="cls-8" points="463.69 358.84 475.95 358.84 475.95 361.14 463.95 361.14 463.69 358.84"/><rect class="cls-9" x="491.83" y="358.84" width="2.3" height="2.3"/><rect class="cls-8" x="478.25" y="358.84" width="13.58" height="2.3"/><rect class="cls-9" x="507.71" y="358.84" width="2.3" height="2.3"/><rect class="cls-8" x="494.13" y="358.84" width="13.58" height="2.3"/><rect class="cls-9" x="523.58" y="358.84" width="2.3" height="2.3"/><rect class="cls-8" x="510.01" y="358.84" width="13.58" height="2.3"/><rect class="cls-9" x="539.46" y="358.84" width="2.3" height="2.3"/><rect class="cls-8" x="525.88" y="358.84" width="13.58" height="2.3"/><rect class="cls-9" x="602.96" y="358.84" width="2.3" height="2.3"/><rect class="cls-9" x="587.09" y="358.84" width="2.3" height="2.3"/><rect class="cls-9" x="571.21" y="358.84" width="2.3" height="2.3"/><rect class="cls-9" x="555.33" y="358.84" width="2.3" height="2.3"/><rect class="cls-8" x="541.76" y="358.84" width="13.58" height="2.3"/><rect class="cls-8" x="557.64" y="358.84" width="13.58" height="2.3"/><rect class="cls-8" x="573.51" y="358.84" width="13.58" height="2.3"/><rect class="cls-8" x="589.39" y="358.84" width="13.58" height="2.3"/><polygon class="cls-8" points="619.09 358.84 618.84 359.75 618.47 361.14 605.26 361.14 605.26 358.84 619.09 358.84"/><rect class="cls-9" x="475.95" y="295.33" width="2.3" height="2.3"/><path class="cls-8" d="M475.73,295.33H476v2.3h-.62C475.47,296.87,475.61,296.1,475.73,295.33Z"/><rect class="cls-9" x="491.83" y="295.33" width="2.3" height="2.3"/><rect class="cls-8" x="478.25" y="295.33" width="13.58" height="2.3"/><rect class="cls-9" x="507.71" y="295.33" width="2.3" height="2.3"/><rect class="cls-8" x="494.13" y="295.33" width="13.58" height="2.3"/><rect class="cls-9" x="523.58" y="295.33" width="2.3" height="2.3"/><rect class="cls-8" x="510.01" y="295.33" width="13.58" height="2.3"/><rect class="cls-9" x="539.46" y="295.33" width="2.3" height="2.3"/><rect class="cls-8" x="525.88" y="295.33" width="13.58" height="2.3"/><rect class="cls-9" x="555.33" y="295.33" width="2.3" height="2.3"/><rect class="cls-8" x="541.76" y="295.33" width="13.58" height="2.3"/><rect class="cls-9" x="571.21" y="295.33" width="2.3" height="2.3"/><rect class="cls-8" x="557.64" y="295.33" width="13.58" height="2.3"/><rect class="cls-9" x="587.09" y="295.33" width="2.3" height="2.3"/><rect class="cls-8" x="573.51" y="295.33" width="13.58" height="2.3"/><rect class="cls-9" x="602.96" y="295.33" width="2.3" height="2.3"/><rect class="cls-8" x="589.39" y="295.33" width="13.58" height="2.3"/><rect class="cls-9" x="618.84" y="295.33" width="2.3" height="2.3"/><rect class="cls-8" x="605.26" y="295.33" width="13.58" height="2.3"/><path class="cls-8" d="M631,297.63h-9.82v-2.3h9.76C630.92,296.1,630.93,296.87,631,297.63Z"/><rect class="cls-9" x="475.95" y="311.21" width="2.3" height="2.3"/><path class="cls-8" d="M472.37,311.21H476v2.3h-4.18Z"/><rect class="cls-9" x="491.83" y="311.21" width="2.3" height="2.3"/><rect class="cls-8" x="478.25" y="311.21" width="13.58" height="2.3"/><rect class="cls-9" x="507.71" y="311.21" width="2.3" height="2.3"/><rect class="cls-8" x="494.13" y="311.21" width="13.58" height="2.3"/><rect class="cls-9" x="523.58" y="311.21" width="2.3" height="2.3"/><rect class="cls-8" x="510.01" y="311.21" width="13.58" height="2.3"/><rect class="cls-9" x="539.46" y="311.21" width="2.3" height="2.3"/><rect class="cls-8" x="525.88" y="311.21" width="13.58" height="2.3"/><rect class="cls-9" x="555.33" y="311.21" width="2.3" height="2.3"/><rect class="cls-8" x="541.76" y="311.21" width="13.58" height="2.3"/><rect class="cls-9" x="618.84" y="311.21" width="2.3" height="2.3"/><rect class="cls-9" x="602.96" y="311.21" width="2.3" height="2.3"/><rect class="cls-9" x="587.09" y="311.21" width="2.3" height="2.3"/><rect class="cls-9" x="571.21" y="311.21" width="2.3" height="2.3"/><rect class="cls-8" x="557.64" y="311.21" width="13.58" height="2.3"/><rect class="cls-8" x="573.51" y="311.21" width="13.58" height="2.3"/><rect class="cls-8" x="589.39" y="311.21" width="13.58" height="2.3"/><rect class="cls-8" x="605.26" y="311.21" width="13.58" height="2.3"/><path class="cls-8" d="M631.05,311.21c0,.76,0,1.53,0,2.3h-9.89v-2.3Z"/><rect class="cls-9" x="491.83" y="263.58" width="2.3" height="2.3"/><rect class="cls-8" x="478.25" y="263.58" width="13.58" height="2.3"/><rect class="cls-9" x="507.71" y="263.58" width="2.3" height="2.3"/><rect class="cls-8" x="494.13" y="263.58" width="13.58" height="2.3"/><rect class="cls-9" x="523.58" y="263.58" width="2.3" height="2.3"/><rect class="cls-8" x="510.01" y="263.58" width="13.58" height="2.3"/><rect class="cls-9" x="539.46" y="263.58" width="2.3" height="2.3"/><rect class="cls-8" x="525.88" y="263.58" width="13.58" height="2.3"/><polygon class="cls-8" points="554.81 265.88 541.76 265.88 541.76 263.58 553.46 263.58 554.81 265.88"/><rect class="cls-9" x="587.09" y="263.58" width="2.3" height="2.3"/><polygon class="cls-8" points="575.96 263.58 587.09 263.58 587.09 265.88 575.18 265.88 575.96 263.58"/><rect class="cls-9" x="602.96" y="263.58" width="2.3" height="2.3"/><rect class="cls-8" x="589.39" y="263.58" width="13.58" height="2.3"/><rect class="cls-9" x="618.84" y="263.58" width="2.3" height="2.3"/><rect class="cls-8" x="605.26" y="263.58" width="13.58" height="2.3"/><path class="cls-8" d="M629.1,265.88h-8v-2.3h7.74C629,264.35,629,265.11,629.1,265.88Z"/><rect class="cls-9" x="539.46" y="279.46" width="2.3" height="2.3"/><rect class="cls-9" x="523.58" y="279.46" width="2.3" height="2.3"/><rect class="cls-9" x="507.71" y="279.46" width="2.3" height="2.3"/><rect class="cls-9" x="491.83" y="279.46" width="2.3" height="2.3"/><path class="cls-9" d="M478.25,279.46v2.3h-.76c.07-.77.14-1.54.2-2.3Z"/><rect class="cls-8" x="478.25" y="279.46" width="13.58" height="2.3"/><rect class="cls-8" x="494.13" y="279.46" width="13.58" height="2.3"/><rect class="cls-8" x="510.01" y="279.46" width="13.58" height="2.3"/><rect class="cls-8" x="525.88" y="279.46" width="13.58" height="2.3"/><rect class="cls-9" x="555.33" y="279.46" width="2.3" height="2.3"/><rect class="cls-8" x="541.76" y="279.46" width="13.58" height="2.3"/><polygon class="cls-8" points="564.09 281.76 557.64 281.76 557.64 279.45 562.74 279.45 564.09 281.76"/><rect class="cls-9" x="618.84" y="279.46" width="2.3" height="2.3"/><rect class="cls-9" x="602.96" y="279.46" width="2.3" height="2.3"/><rect class="cls-9" x="587.09" y="279.46" width="2.3" height="2.3"/><rect class="cls-9" x="571.21" y="279.46" width="2.3" height="2.3"/><polygon class="cls-8" points="570.6 279.45 571.21 279.45 571.21 281.76 569.82 281.76 570.6 279.45"/><rect class="cls-8" x="573.51" y="279.46" width="13.58" height="2.3"/><rect class="cls-8" x="589.39" y="279.46" width="13.58" height="2.3"/><rect class="cls-8" x="605.26" y="279.46" width="13.58" height="2.3"/><path class="cls-8" d="M630.31,281.76h-9.17v-2.3h9C630.22,280.22,630.28,281,630.31,281.76Z"/><rect class="cls-9" x="507.71" y="215.95" width="2.3" height="2.3"/><rect class="cls-9" x="491.83" y="215.95" width="2.3" height="2.3"/><rect class="cls-9" x="475.95" y="215.95" width="2.3" height="2.3"/><path class="cls-8" d="M471.66,216H476v2.3h-3.68C472.07,217.48,471.87,216.72,471.66,216Z"/><rect class="cls-8" x="478.25" y="215.95" width="13.58" height="2.3"/><rect class="cls-8" x="494.13" y="215.95" width="13.58" height="2.3"/><rect class="cls-9" x="523.58" y="215.95" width="2.3" height="2.3"/><rect class="cls-8" x="510.01" y="215.95" width="13.58" height="2.3"/><polygon class="cls-8" points="526.98 218.25 525.88 218.25 525.88 216.38 526.98 218.25"/><rect class="cls-9" x="618.84" y="215.95" width="2.3" height="2.3"/><rect class="cls-9" x="602.96" y="215.95" width="2.3" height="2.3"/><polygon class="cls-8" points="592.03 215.95 602.96 215.95 602.96 218.25 591.26 218.25 592.03 215.95"/><rect class="cls-8" x="605.26" y="215.95" width="13.58" height="2.3"/><path class="cls-8" d="M623.2,218.25h-2.06V216h1.69C623,216.72,623.07,217.48,623.2,218.25Z"/><rect class="cls-9" x="475.95" y="231.83" width="2.3" height="2.3"/><path class="cls-8" d="M475.29,231.83H476v2.3h-.27C475.56,233.36,475.42,232.59,475.29,231.83Z"/><rect class="cls-9" x="491.83" y="231.83" width="2.3" height="2.3"/><rect class="cls-8" x="478.25" y="231.83" width="13.58" height="2.3"/><rect class="cls-9" x="507.71" y="231.83" width="2.3" height="2.3"/><rect class="cls-8" x="494.13" y="231.83" width="13.58" height="2.3"/><rect class="cls-9" x="523.58" y="231.83" width="2.3" height="2.3"/><rect class="cls-8" x="510.01" y="231.83" width="13.58" height="2.3"/><polygon class="cls-8" points="536.25 234.13 525.88 234.13 525.88 231.83 534.91 231.83 536.25 234.13"/><rect class="cls-9" x="587.09" y="231.83" width="2.3" height="2.3"/><polygon class="cls-8" points="586.67 231.83 587.09 231.83 587.09 234.13 585.9 234.13 586.67 231.83"/><rect class="cls-9" x="602.96" y="231.83" width="2.3" height="2.3"/><rect class="cls-8" x="589.39" y="231.83" width="13.58" height="2.3"/><rect class="cls-9" x="618.84" y="231.83" width="2.3" height="2.3"/><rect class="cls-8" x="605.26" y="231.83" width="13.58" height="2.3"/><path class="cls-8" d="M625.4,234.13h-4.26v-2.3h4C625.21,232.59,625.3,233.35,625.4,234.13Z"/><rect class="cls-9" x="539.46" y="247.7" width="2.3" height="2.3"/><rect class="cls-9" x="523.58" y="247.7" width="2.3" height="2.3"/><rect class="cls-9" x="507.71" y="247.7" width="2.3" height="2.3"/><rect class="cls-9" x="491.83" y="247.7" width="2.3" height="2.3"/><path class="cls-8" d="M491.83,247.7V250H477.66c-.06-.76-.12-1.53-.2-2.3Z"/><rect class="cls-8" x="494.13" y="247.7" width="13.58" height="2.3"/><rect class="cls-8" x="510.01" y="247.7" width="13.58" height="2.3"/><rect class="cls-8" x="525.88" y="247.7" width="13.58" height="2.3"/><polygon class="cls-8" points="545.53 250 541.76 250 541.76 247.7 544.19 247.7 545.53 250"/><rect class="cls-9" x="618.84" y="247.7" width="2.3" height="2.3"/><rect class="cls-9" x="602.96" y="247.7" width="2.3" height="2.3"/><rect class="cls-9" x="587.09" y="247.7" width="2.3" height="2.3"/><polygon class="cls-8" points="581.32 247.7 587.09 247.7 587.09 250 580.54 250 581.32 247.7"/><rect class="cls-8" x="589.39" y="247.7" width="13.58" height="2.3"/><rect class="cls-8" x="605.26" y="247.7" width="13.58" height="2.3"/><path class="cls-8" d="M627.32,250h-6.18v-2.3h5.91Z"/><rect class="cls-9" x="491.83" y="184.2" width="2.3" height="2.3"/><path class="cls-8" d="M487.78,184.2h4.05v2.3h-9.61l1.44-.6Z"/><polygon class="cls-8" points="508.43 186.5 494.13 186.5 494.13 184.2 507.08 184.2 507.71 185.27 508.43 186.5"/><rect class="cls-9" x="491.83" y="200.07" width="2.3" height="2.3"/><rect class="cls-9" x="475.95" y="200.07" width="2.3" height="2.3"/><path class="cls-8" d="M466.5,200.07H476v2.3h-8.6C467.07,201.61,466.79,200.84,466.5,200.07Z"/><rect class="cls-8" x="478.25" y="200.07" width="13.58" height="2.3"/><rect class="cls-9" x="507.71" y="200.07" width="2.3" height="2.3"/><rect class="cls-8" x="494.13" y="200.07" width="13.58" height="2.3"/><polygon class="cls-8" points="517.7 202.38 510.01 202.38 510.01 200.07 516.36 200.07 517.7 202.38"/><rect class="cls-9" x="602.96" y="200.07" width="2.3" height="2.3"/><polygon class="cls-8" points="597.39 200.07 602.96 200.07 602.96 202.38 596.62 202.38 597.39 200.07"/><path class="cls-9" d="M620.15,202.37h-1.31v-2.22l1,.9C619.94,201.48,620.05,201.93,620.15,202.37Z"/><rect class="cls-8" x="605.26" y="200.07" width="13.58" height="2.3"/><polyline class="cls-5" points="567.44 285.22 595.08 333.26 592.01 378.81 554.17 438.38"/><path class="cls-10" d="M710.1,322.34l-6.59,55a33.13,33.13,0,0,1-32.89,29.18h0a33.12,33.12,0,0,1-29.55-48.09l37.41-73.93,12.7,50.3h4.9A14.11,14.11,0,0,0,710,322.8Z"/><path class="cls-10" d="M662.7,300.73l5.67-20.38a5.11,5.11,0,0,1,6.49-3.49h0a5.11,5.11,0,0,1,2.93,7.27l-10,18.64a2.77,2.77,0,0,1-2.43,1.45h0A2.75,2.75,0,0,1,662.7,300.73Z"/><path class="cls-10" d="M669.31,304.22l15.24-26.29a5.75,5.75,0,0,1,6.91-.85,5.66,5.66,0,0,1,2.58,5.21,6.78,6.78,0,0,1,11.07,4.38L695,304.22H669.31Z"/><polygon class="cls-11" points="667.05 304.22 687.01 264.68 692.24 264.68 669.31 304.22 667.05 304.22"/><line class="cls-12" x1="694.04" y1="282.29" x2="681.89" y2="304.22"/><path class="cls-10" d="M713.47,291.43l-3.39,31.15a13.66,13.66,0,0,1-13.58,12.17h-5.32l11-30.53H695l10.11-17.55,3-.42A4.71,4.71,0,0,1,713.47,291.43Z"/><path class="cls-12" d="M710.44,296.48l-4.77,4.94a9.13,9.13,0,0,1-6.58,2.8H695"/><polygon class="cls-13" points="702.21 304.22 653.74 438.38 539.15 438.38 587.62 304.22 702.21 304.22"/><path class="cls-14" d="M640.34,360.47l3-8.55h-6L636,355.85l-6-6.34L605.19,364.4l-8.53,24h38.9l8.53-24Zm-22.94,5.12h5.52L621,371.05h-5.51Zm.59,13.84h-5.51l1.93-5.45h5.53Zm8.38,0h-4.75l1.94-5.45h4.76Zm3-8.38h-4.74l1.94-5.46h4.75Z"/><polygon class="cls-15" points="629.09 373.98 627.14 379.43 621.62 379.43 623.56 373.98 629.09 373.98"/><polygon class="cls-15" points="619.93 373.98 618 379.43 612.48 379.43 614.41 373.98 619.93 373.98"/><polygon class="cls-15" points="622.92 365.59 620.97 371.05 615.46 371.05 617.4 365.59 622.92 365.59"/><polygon class="cls-15" points="632.07 365.59 630.12 371.05 624.61 371.05 626.55 365.59 632.07 365.59"/><path class="cls-10" d="M463.69,369,521,400.09s10.78-18.11,38.15-17l-3.51,9.84,50.72-11.45a2.64,2.64,0,0,1,3,1.45h0a2.64,2.64,0,0,1-1.14,3.45l-10.33,5.55,9.83-5a6.15,6.15,0,0,1,8,2.13l.6.93a6.13,6.13,0,0,1-1.17,8l-33.7,28.68,19.17-7.31a2.72,2.72,0,0,1,3.27,1.09h0a2.71,2.71,0,0,1-.94,3.78L571.68,442.4a25.81,25.81,0,0,1-13.43,3.51l-31.42-.55a69.63,69.63,0,0,1-13.42-1.55l-101.3-21.58A220.86,220.86,0,0,1,436,392.65,172,172,0,0,1,463.69,369Z"/><line class="cls-5" x1="597.84" y1="391.93" x2="582.05" y2="399.35"/><line class="cls-5" x1="582.05" y1="410.63" x2="615.85" y2="389.39"/><path class="cls-1" d="M547.72,126.13S525.51,97.84,529.9,82C533.58,68.77,557.43,42.49,578,56.4c0,0,22.95-8.18,37.23-3.19,12.43,4.34,16.56,15.43,15.8,21.9-.82,7-7.64,12.06-7.39,10.53L622.1,76,583.48,63.23a36.76,36.76,0,0,1-7.81,25.08,36.21,36.21,0,0,1-18.08,11.92Z"/><path class="cls-10" d="M531.43,157.65l16.29-31.52c-9.5-11.75-11-23.59-6.17-27.95,3.53-3.17,10-4.09,16,2a36.21,36.21,0,0,0,18.08-11.92,36.76,36.76,0,0,0,7.81-25.08c11.78,3.7,26.84,9,38.62,12.73L626,101a28.88,28.88,0,0,1-2.62,17.21,158.06,158.06,0,0,0-6.83,16A160.22,160.22,0,0,0,611.2,152a9.09,9.09,0,0,1-10.79,6.73L592.52,157l1.2,8.8-28.61,15.54Z"/><path class="cls-5" d="M592.52,157l-22.19-9.53a14.58,14.58,0,0,1-8.31-9.55L560.14,131"/><path class="cls-5" d="M612.75,81.51l9.09,37.86a3,3,0,0,1-2.9,3.68h-7.87"/><circle class="cls-4" cx="594.03" cy="100.31" r="11.45"/><ellipse class="cls-4" cx="626.06" cy="101.08" rx="8.09" ry="10.68"/><path class="cls-5" d="M605.47,100.31a12.93,12.93,0,0,1,7.45-1.59,12.56,12.56,0,0,1,5.05,1.59"/><path class="cls-5" d="M610.16,130.34a12.89,12.89,0,0,1-7.74-2.54,12.7,12.7,0,0,1-3.79-4.75"/><line class="cls-5" x1="547.99" y1="104.35" x2="553.61" y2="110.66"/><circle class="cls-14" cx="595.36" cy="100.31" r="1.63"/><circle class="cls-14" cx="623.96" cy="100.31" r="1.43"/><path class="cls-1" d="M541.58,116.4a12.69,12.69,0,0,0,11.74,6.65l-5.6,3.08Z"/><polygon class="cls-2" points="570.33 147.42 593.72 165.75 592.52 156.95 570.33 147.42"/></g></svg>