<svg xmlns="http://www.w3.org/2000/svg" viewBox="0 0 1096.02 1053.96"><defs><style>.cls-1{fill:#85aff6;}.cls-1,.cls-2,.cls-3,.cls-5,.cls-6{stroke:#003a47;stroke-linejoin:round;}.cls-1,.cls-2,.cls-3,.cls-6{stroke-width:6.38px;}.cls-2{fill:#fff;}.cls-3{fill:#f2d300;}.cls-4,.cls-6{fill:#003a47;}.cls-5{fill:none;stroke-linecap:round;stroke-width:17.01px;}</style></defs><g id="Isolation_Mode" data-name="Isolation Mode"><path class="cls-1" d="M594.92,747.43C651.37,794,730,791.86,775.7,748.66c34.54-32.63,46.69-85.28,32.16-134.88,58.84-17.51,92.08-77,78.48-129.86-11.37-44.16-53.81-77.29-103.9-78.69,16.25-55.86-14-114.89-67.25-134-51-18.31-109.36,4.89-134.39,54.59-23.09-51.61-85.11-72.84-133-48.15-45.52,23.47-65.11,81.62-41.47,129.79-47.06-12.87-95,14.12-107.92,57.21-11.45,38.24,7,81.68,45.09,101.47L206.65,697.27,372.2,658.05c-.5,51,28.11,97.58,73,118.87C494.93,800.54,555.79,788.81,594.92,747.43Z"/><polygon class="cls-2" points="705.15 651.48 474.88 651.48 474.88 484.89 590.01 396.7 705.15 484.89 705.15 651.48"/><polygon class="cls-3" points="674.67 461.55 641.28 435.97 641.28 399.15 674.67 399.15 674.67 461.55"/><circle class="cls-3" cx="590.21" cy="540.04" r="51.49"/><path class="cls-4" d="M602.65,547.21c0,6-2.85,9.36-9.51,10.17v4.1h-6.42v-4c-7.68-.81-9.7-5.11-9.7-9.61v-1h8.19v1.39c0,2.51.82,4,4.62,4,3.41,0,4.52-1.16,4.52-4.12,0-3.21-1-5.23-6.38-7.63-6.82-3.07-10.44-5.68-10.44-11.62,0-5.51,3.21-8.67,9.19-9.4v-3.15h6.42v3.17c7.59,1,8.79,5.09,8.79,8.89v1h-8.19v-1c0-2.43-.74-4.09-4-4.09-2.44,0-4,.85-4,3.77s1.34,4.25,6.76,6.76C599.84,538.21,602.65,540.89,602.65,547.21Z"/><polyline class="cls-5" points="462.62 494.29 590.01 396.7 717.41 494.29"/><polygon class="cls-6" points="372.2 658.05 406.83 649.36 377.43 696.34 372.2 658.05"/></g></svg>